<?xml version="1.0" encoding="UTF-8" standalone="no"?><svg xmlns="http://www.w3.org/2000/svg" xmlns:xlink="http://www.w3.org/1999/xlink" contentScriptType="application/ecmascript" contentStyleType="text/css" height="1367px" preserveAspectRatio="none" style="width:1441px;height:1367px;" version="1.1" viewBox="0 0 1441 1367" width="1441px" zoomAndPan="magnify"><defs/><g><text fill="#000000" font-family="sans-serif" font-size="18" lengthAdjust="spacingAndGlyphs" textLength="352" x="543.5" y="26.708">Disk Image Mount-Time Detection Flow</text><rect fill="#DDDDDD" height="91.4844" rx="5" ry="5" style="stroke: #000000; stroke-width: 1.0;" width="499" x="469.5" y="38.9531"/><text fill="#000000" font-family="sans-serif" font-size="14" lengthAdjust="spacingAndGlyphs" textLength="230" x="475.5" y="56.9482">Hand-maintained activity diagram.</text><text fill="#000000" font-family="sans-serif" font-size="14" lengthAdjust="spacingAndGlyphs" textLength="0" x="479.5" y="73.2451"/><text fill="#000000" font-family="sans-serif" font-size="14" lengthAdjust="spacingAndGlyphs" textLength="295" x="475.5" y="89.542">Complements `arch_disk_detection.puml`.</text><text fill="#000000" font-family="sans-serif" font-size="14" lengthAdjust="spacingAndGlyphs" textLength="487" x="475.5" y="105.8389">Shows how mount-time detection selects an image handler and where</text><text fill="#000000" font-family="sans-serif" font-size="14" lengthAdjust="spacingAndGlyphs" textLength="169" x="475.5" y="122.1357">geometry is established.</text><ellipse cx="715" cy="149.4375" fill="#000000" rx="10" ry="10" style="stroke: none; stroke-width: 1.0;"/><path d="M814,169.4375 L814,208.2695 L794,212.2695 L814,216.2695 L814,255.1016 A0,0 0 0 0 814,255.1016 L997,255.1016 A0,0 0 0 0 997,255.1016 L997,179.4375 L987,169.4375 L814,169.4375 A0,0 0 0 0 814,169.4375 " fill="#FBFB77" style="stroke: #A80036; stroke-width: 1.0;"/><path d="M987,169.4375 L987,179.4375 L997,179.4375 L987,169.4375 " fill="#FBFB77" style="stroke: #A80036; stroke-width: 1.0;"/><text fill="#000000" font-family="sans-serif" font-size="13" lengthAdjust="spacingAndGlyphs" textLength="43" x="820" y="186.5044">Inputs:</text><text fill="#000000" font-family="sans-serif" font-size="13" lengthAdjust="spacingAndGlyphs" textLength="30" x="820" y="201.6372">- URI</text><text fill="#000000" font-family="sans-serif" font-size="13" lengthAdjust="spacingAndGlyphs" textLength="46" x="820" y="216.77">- mode</text><text fill="#000000" font-family="sans-serif" font-size="13" lengthAdjust="spacingAndGlyphs" textLength="148" x="820" y="231.9028">- optional type override</text><text fill="#000000" font-family="sans-serif" font-size="13" lengthAdjust="spacingAndGlyphs" textLength="162" x="820" y="247.0356">- optional sector-size hint</text><rect fill="#FEFECE" height="33.9688" rx="12.5" ry="12.5" style="stroke: #A80036; stroke-width: 1.5;" width="158" x="636" y="195.2852"/><text fill="#000000" font-family="sans-serif" font-size="12" lengthAdjust="spacingAndGlyphs" textLength="138" x="646" y="216.4238">Mount request arrives</text><rect fill="#FEFECE" height="47.9375" rx="12.5" ry="12.5" style="stroke: #A80036; stroke-width: 1.5;" width="205" x="612.5" y="275.1016"/><text fill="#000000" font-family="sans-serif" font-size="12" lengthAdjust="spacingAndGlyphs" textLength="185" x="622.5" y="296.2402">StorageManager resolves URI</text><text fill="#000000" font-family="sans-serif" font-size="12" lengthAdjust="spacingAndGlyphs" textLength="126" x="622.5" y="310.209">to filesystem + path</text><rect fill="#FEFECE" height="33.9688" rx="12.5" ry="12.5" style="stroke: #A80036; stroke-width: 1.5;" width="117" x="656.5" y="343.0391"/><text fill="#000000" font-family="sans-serif" font-size="12" lengthAdjust="spacingAndGlyphs" textLength="97" x="666.5" y="364.1777">Open image file</text><rect fill="#FEFECE" height="33.9688" rx="12.5" ry="12.5" style="stroke: #A80036; stroke-width: 1.5;" width="146" x="642" y="397.0078"/><text fill="#000000" font-family="sans-serif" font-size="12" lengthAdjust="spacingAndGlyphs" textLength="126" x="652" y="418.1465">Determine sizeBytes</text><polygon fill="#FEFECE" points="648.5,450.9766,781.5,450.9766,793.5,462.9766,781.5,474.9766,648.5,474.9766,636.5,462.9766,648.5,450.9766" style="stroke: #A80036; stroke-width: 1.5;"/><text fill="#000000" font-family="sans-serif" font-size="11" lengthAdjust="spacingAndGlyphs" textLength="133" x="648.5" y="466.7847">type override supplied?</text><text fill="#000000" font-family="sans-serif" font-size="11" lengthAdjust="spacingAndGlyphs" textLength="20" x="616.5" y="460.3823">yes</text><text fill="#000000" font-family="sans-serif" font-size="11" lengthAdjust="spacingAndGlyphs" textLength="14" x="793.5" y="460.3823">no</text><rect fill="#FEFECE" height="33.9688" rx="12.5" ry="12.5" style="stroke: #A80036; stroke-width: 1.5;" width="184" x="438.5" y="484.9766"/><text fill="#000000" font-family="sans-serif" font-size="12" lengthAdjust="spacingAndGlyphs" textLength="164" x="448.5" y="506.1152">Use requested ImageType</text><rect fill="#FEFECE" height="47.9375" rx="12.5" ry="12.5" style="stroke: #A80036; stroke-width: 1.5;" width="211" x="425" y="602.3477"/><text fill="#000000" font-family="sans-serif" font-size="12" lengthAdjust="spacingAndGlyphs" textLength="191" x="435" y="623.4863">ProbeRegistry may still provide</text><text fill="#000000" font-family="sans-serif" font-size="12" lengthAdjust="spacingAndGlyphs" textLength="110" x="435" y="637.4551">raw geometryHint</text><polygon fill="#FEFECE" points="416.5,553.9453,644.5,553.9453,656.5,565.9453,644.5,577.9453,416.5,577.9453,404.5,565.9453,416.5,553.9453" style="stroke: #A80036; stroke-width: 1.5;"/><text fill="#000000" font-family="sans-serif" font-size="11" lengthAdjust="spacingAndGlyphs" textLength="20" x="534.5" y="588.1558">yes</text><text fill="#000000" font-family="sans-serif" font-size="11" lengthAdjust="spacingAndGlyphs" textLength="228" x="416.5" y="569.7534">override is Raw and no sector-size hint?</text><text fill="#000000" font-family="sans-serif" font-size="11" lengthAdjust="spacingAndGlyphs" textLength="14" x="656.5" y="563.3511">no</text><polygon fill="#FEFECE" points="530.5,674.6875,542.5,686.6875,530.5,698.6875,518.5,686.6875,530.5,674.6875" style="stroke: #A80036; stroke-width: 1.5;"/><path d="M1030,484.9766 L1030,523.8086 L1010,527.8086 L1030,531.8086 L1030,570.6406 A0,0 0 0 0 1030,570.6406 L1243,570.6406 A0,0 0 0 0 1243,570.6406 L1243,494.9766 L1233,484.9766 L1030,484.9766 A0,0 0 0 0 1030,484.9766 " fill="#FBFB77" style="stroke: #A80036; stroke-width: 1.0;"/><path d="M1233,484.9766 L1233,494.9766 L1243,494.9766 L1233,484.9766 " fill="#FBFB77" style="stroke: #A80036; stroke-width: 1.0;"/><text fill="#000000" font-family="sans-serif" font-size="13" lengthAdjust="spacingAndGlyphs" textLength="79" x="1036" y="502.0435">Probe order:</text><text fill="#000000" font-family="sans-serif" font-size="13" lengthAdjust="spacingAndGlyphs" textLength="82" x="1036" y="517.1763">- ATR header</text><text fill="#000000" font-family="sans-serif" font-size="13" lengthAdjust="spacingAndGlyphs" textLength="192" x="1036" y="532.3091">- FAT BPB -&gt; Raw + geometry</text><text fill="#000000" font-family="sans-serif" font-size="13" lengthAdjust="spacingAndGlyphs" textLength="110" x="1036" y="547.4419">- SSD DFS shape</text><text fill="#000000" font-family="sans-serif" font-size="13" lengthAdjust="spacingAndGlyphs" textLength="151" x="1036" y="562.5747">- extension/hint fallback</text><rect fill="#FEFECE" height="47.9375" rx="12.5" ry="12.5" style="stroke: #A80036; stroke-width: 1.5;" width="221" x="789" y="503.8398"/><text fill="#000000" font-family="sans-serif" font-size="12" lengthAdjust="spacingAndGlyphs" textLength="201" x="799" y="524.9785">ProbeRegistry inspects content,</text><text fill="#000000" font-family="sans-serif" font-size="12" lengthAdjust="spacingAndGlyphs" textLength="160" x="799" y="538.9473">path, and sector-size hint</text><polygon fill="#FEFECE" points="853.5,605.6406,945.5,605.6406,957.5,617.6406,945.5,629.6406,853.5,629.6406,841.5,617.6406,853.5,605.6406" style="stroke: #A80036; stroke-width: 1.5;"/><text fill="#000000" font-family="sans-serif" font-size="11" lengthAdjust="spacingAndGlyphs" textLength="92" x="853.5" y="621.4487">probe matched?</text><text fill="#000000" font-family="sans-serif" font-size="11" lengthAdjust="spacingAndGlyphs" textLength="20" x="821.5" y="615.0464">yes</text><text fill="#000000" font-family="sans-serif" font-size="11" lengthAdjust="spacingAndGlyphs" textLength="14" x="957.5" y="615.0464">no</text><rect fill="#FEFECE" height="33.9688" rx="12.5" ry="12.5" style="stroke: #A80036; stroke-width: 1.5;" width="156" x="712" y="639.6406"/><text fill="#000000" font-family="sans-serif" font-size="12" lengthAdjust="spacingAndGlyphs" textLength="136" x="722" y="660.7793">Use probe ImageType</text><rect fill="#FEFECE" height="47.9375" rx="12.5" ry="12.5" style="stroke: #A80036; stroke-width: 1.5;" width="183" x="698.5" y="708.6094"/><text fill="#000000" font-family="sans-serif" font-size="12" lengthAdjust="spacingAndGlyphs" textLength="163" x="708.5" y="729.748">Carry probe DiskGeometry</text><text fill="#000000" font-family="sans-serif" font-size="12" lengthAdjust="spacingAndGlyphs" textLength="103" x="708.5" y="743.7168">as geometryHint</text><rect fill="#FEFECE" height="33.9688" rx="12.5" ry="12.5" style="stroke: #A80036; stroke-width: 1.5;" width="215" x="901.5" y="639.6406"/><text fill="#000000" font-family="sans-serif" font-size="12" lengthAdjust="spacingAndGlyphs" textLength="195" x="911.5" y="660.7793">Return UnsupportedImageType</text><rect fill="#FEFECE" height="33.9688" rx="12.5" ry="12.5" style="stroke: #A80036; stroke-width: 1.5;" width="201" x="908.5" y="708.6094"/><text fill="#000000" font-family="sans-serif" font-size="12" lengthAdjust="spacingAndGlyphs" textLength="181" x="918.5" y="729.748">DiskService records lastError</text><ellipse cx="1009" cy="787.5469" fill="#FFFFFF" rx="11" ry="11" style="stroke: #000000; stroke-width: 1.0;"/><ellipse cx="1009" cy="787.5469" fill="#000000" rx="6" ry="6" style="stroke: #7F7F7F; stroke-width: 1.0;"/><polygon fill="#FEFECE" points="715,808.5469,727,820.5469,715,832.5469,703,820.5469,715,808.5469" style="stroke: #A80036; stroke-width: 1.5;"/><rect fill="#FEFECE" height="33.9688" rx="12.5" ry="12.5" style="stroke: #A80036; stroke-width: 1.5;" width="231" x="599.5" y="852.5469"/><text fill="#000000" font-family="sans-serif" font-size="12" lengthAdjust="spacingAndGlyphs" textLength="211" x="609.5" y="873.6855">ImageRegistry creates IDiskImage</text><polygon fill="#FEFECE" points="237.125,906.5156,346.125,906.5156,358.125,918.5156,346.125,930.5156,237.125,930.5156,225.125,918.5156,237.125,906.5156" style="stroke: #A80036; stroke-width: 1.5;"/><text fill="#000000" font-family="sans-serif" font-size="11" lengthAdjust="spacingAndGlyphs" textLength="23" x="295.625" y="940.7261">Raw</text><text fill="#000000" font-family="sans-serif" font-size="11" lengthAdjust="spacingAndGlyphs" textLength="109" x="237.125" y="922.3237">ImageType is Raw?</text><polygon fill="#FEFECE" points="219.125,962.2261,364.125,962.2261,376.125,974.2261,364.125,986.2261,219.125,986.2261,207.125,974.2261,219.125,962.2261" style="stroke: #A80036; stroke-width: 1.5;"/><text fill="#000000" font-family="sans-serif" font-size="11" lengthAdjust="spacingAndGlyphs" textLength="145" x="219.125" y="978.0342">sector-size hint supplied?</text><text fill="#000000" font-family="sans-serif" font-size="11" lengthAdjust="spacingAndGlyphs" textLength="20" x="187.125" y="971.6318">yes</text><text fill="#000000" font-family="sans-serif" font-size="11" lengthAdjust="spacingAndGlyphs" textLength="14" x="376.125" y="971.6318">no</text><rect fill="#FEFECE" height="47.9375" rx="12.5" ry="12.5" style="stroke: #A80036; stroke-width: 1.5;" width="221" x="10" y="996.2261"/><text fill="#000000" font-family="sans-serif" font-size="12" lengthAdjust="spacingAndGlyphs" textLength="201" x="20" y="1017.3647">RawDiskImage derives geometry</text><text fill="#000000" font-family="sans-serif" font-size="12" lengthAdjust="spacingAndGlyphs" textLength="119" x="20" y="1031.3335">from hint + file size</text><polygon fill="#FEFECE" points="395.75,996.2261,529.75,996.2261,541.75,1008.2261,529.75,1020.2261,395.75,1020.2261,383.75,1008.2261,395.75,996.2261" style="stroke: #A80036; stroke-width: 1.5;"/><text fill="#000000" font-family="sans-serif" font-size="11" lengthAdjust="spacingAndGlyphs" textLength="134" x="395.75" y="1012.0342">geometryHint supplied?</text><text fill="#000000" font-family="sans-serif" font-size="11" lengthAdjust="spacingAndGlyphs" textLength="20" x="363.75" y="1005.6318">yes</text><text fill="#000000" font-family="sans-serif" font-size="11" lengthAdjust="spacingAndGlyphs" textLength="14" x="541.75" y="1005.6318">no</text><rect fill="#FEFECE" height="47.9375" rx="12.5" ry="12.5" style="stroke: #A80036; stroke-width: 1.5;" width="205" x="261" y="1030.2261"/><text fill="#000000" font-family="sans-serif" font-size="12" lengthAdjust="spacingAndGlyphs" textLength="123" x="271" y="1051.3647">RawDiskImage uses</text><text fill="#000000" font-family="sans-serif" font-size="12" lengthAdjust="spacingAndGlyphs" textLength="185" x="271" y="1065.3335">probe-provided DiskGeometry</text><rect fill="#FEFECE" height="47.9375" rx="12.5" ry="12.5" style="stroke: #A80036; stroke-width: 1.5;" width="152" x="486" y="1030.2261"/><text fill="#000000" font-family="sans-serif" font-size="12" lengthAdjust="spacingAndGlyphs" textLength="112" x="496" y="1051.3647">Fallback to legacy</text><text fill="#000000" font-family="sans-serif" font-size="12" lengthAdjust="spacingAndGlyphs" textLength="132" x="496" y="1065.3335">256-byte raw sectors</text><polygon fill="#FEFECE" points="462.75,1084.1636,474.75,1096.1636,462.75,1108.1636,450.75,1096.1636,462.75,1084.1636" style="stroke: #A80036; stroke-width: 1.5;"/><polygon fill="#FEFECE" points="291.625,1114.1636,303.625,1126.1636,291.625,1138.1636,279.625,1126.1636,291.625,1114.1636" style="stroke: #A80036; stroke-width: 1.5;"/><polygon fill="#FEFECE" points="737,906.5156,844,906.5156,856,918.5156,844,930.5156,737,930.5156,725,918.5156,737,906.5156" style="stroke: #A80036; stroke-width: 1.5;"/><text fill="#000000" font-family="sans-serif" font-size="11" lengthAdjust="spacingAndGlyphs" textLength="21" x="794.5" y="940.7261">ATR</text><text fill="#000000" font-family="sans-serif" font-size="11" lengthAdjust="spacingAndGlyphs" textLength="107" x="737" y="922.3237">ImageType is ATR?</text><rect fill="#FEFECE" height="33.9688" rx="12.5" ry="12.5" style="stroke: #A80036; stroke-width: 1.5;" width="225" x="678" y="962.2261"/><text fill="#000000" font-family="sans-serif" font-size="12" lengthAdjust="spacingAndGlyphs" textLength="205" x="688" y="983.3647">AtrDiskImage parses ATR header</text><rect fill="#FEFECE" height="47.9375" rx="12.5" ry="12.5" style="stroke: #A80036; stroke-width: 1.5;" width="211" x="685" y="1031.1948"/><text fill="#000000" font-family="sans-serif" font-size="12" lengthAdjust="spacingAndGlyphs" textLength="191" x="695" y="1052.3335">Validate ATR magic, size fields,</text><text fill="#000000" font-family="sans-serif" font-size="12" lengthAdjust="spacingAndGlyphs" textLength="131" x="695" y="1066.3022">and sector geometry</text><rect fill="#FEFECE" height="33.9688" rx="12.5" ry="12.5" style="stroke: #A80036; stroke-width: 1.5;" width="131" x="725" y="1114.1323"/><text fill="#000000" font-family="sans-serif" font-size="12" lengthAdjust="spacingAndGlyphs" textLength="111" x="735" y="1135.271">Set DiskGeometry</text><polygon fill="#FEFECE" points="1004,906.5156,1114,906.5156,1126,918.5156,1114,930.5156,1004,930.5156,992,918.5156,1004,906.5156" style="stroke: #A80036; stroke-width: 1.5;"/><text fill="#000000" font-family="sans-serif" font-size="11" lengthAdjust="spacingAndGlyphs" textLength="24" x="1063" y="940.7261">SSD</text><text fill="#000000" font-family="sans-serif" font-size="11" lengthAdjust="spacingAndGlyphs" textLength="110" x="1004" y="922.3237">ImageType is SSD?</text><text fill="#000000" font-family="sans-serif" font-size="11" lengthAdjust="spacingAndGlyphs" textLength="72" x="1126" y="915.9214">unsupported</text><rect fill="#FEFECE" height="33.9688" rx="12.5" ry="12.5" style="stroke: #A80036; stroke-width: 1.5;" width="267" x="925.5" y="962.2261"/><text fill="#000000" font-family="sans-serif" font-size="12" lengthAdjust="spacingAndGlyphs" textLength="247" x="935.5" y="983.3647">SsdDiskImage validates DFS/SSD shape</text><rect fill="#FEFECE" height="33.9688" rx="12.5" ry="12.5" style="stroke: #A80036; stroke-width: 1.5;" width="272" x="923" y="1031.1948"/><text fill="#000000" font-family="sans-serif" font-size="12" lengthAdjust="spacingAndGlyphs" textLength="252" x="933" y="1052.3335">Read sector count from catalogue fields</text><rect fill="#FEFECE" height="33.9688" rx="12.5" ry="12.5" style="stroke: #A80036; stroke-width: 1.5;" width="234" x="942" y="1100.1636"/><text fill="#000000" font-family="sans-serif" font-size="12" lengthAdjust="spacingAndGlyphs" textLength="214" x="952" y="1121.3022">Set 256-byte sector DiskGeometry</text><rect fill="#FEFECE" height="33.9688" rx="12.5" ry="12.5" style="stroke: #A80036; stroke-width: 1.5;" width="215" x="1215" y="971.7925"/><text fill="#000000" font-family="sans-serif" font-size="12" lengthAdjust="spacingAndGlyphs" textLength="195" x="1225" y="992.9312">Return UnsupportedImageType</text><rect fill="#FEFECE" height="33.9688" rx="12.5" ry="12.5" style="stroke: #A80036; stroke-width: 1.5;" width="201" x="1222" y="1040.7612"/><text fill="#000000" font-family="sans-serif" font-size="12" lengthAdjust="spacingAndGlyphs" textLength="181" x="1232" y="1061.8999">DiskService records lastError</text><ellipse cx="1322.5" cy="1120.73" fill="#FFFFFF" rx="11" ry="11" style="stroke: #000000; stroke-width: 1.0;"/><ellipse cx="1322.5" cy="1120.73" fill="#000000" rx="6" ry="6" style="stroke: #7F7F7F; stroke-width: 1.0;"/><path d="M966,1208.2222 L966,1293.8862 L1369,1293.8862 L1369,1218.2222 L1359,1208.2222 L966,1208.2222 " fill="#FBFB77" style="stroke: #A80036; stroke-width: 1.0;"/><path d="M1359,1208.2222 L1359,1218.2222 L1369,1218.2222 L1359,1208.2222 " fill="#FBFB77" style="stroke: #A80036; stroke-width: 1.0;"/><text fill="#000000" font-family="sans-serif" font-size="13" lengthAdjust="spacingAndGlyphs" textLength="296" x="972" y="1225.2891">Detection does not remove the need for hints.</text><text fill="#000000" font-family="sans-serif" font-size="13" lengthAdjust="spacingAndGlyphs" textLength="0" x="976" y="1240.4219"/><text fill="#000000" font-family="sans-serif" font-size="13" lengthAdjust="spacingAndGlyphs" textLength="332" x="972" y="1255.5547">Hints are still the explicit geometry contract for truly</text><text fill="#000000" font-family="sans-serif" font-size="13" lengthAdjust="spacingAndGlyphs" textLength="382" x="972" y="1270.6875">raw/headerless images. Probes are useful when file content,</text><text fill="#000000" font-family="sans-serif" font-size="13" lengthAdjust="spacingAndGlyphs" textLength="371" x="972" y="1285.8203">path, or a hint gives enough information to choose a type.</text><polygon fill="#FEFECE" points="685.5,1188.1011,744.5,1188.1011,756.5,1200.1011,744.5,1212.1011,685.5,1212.1011,673.5,1200.1011,685.5,1188.1011" style="stroke: #A80036; stroke-width: 1.5;"/><text fill="#000000" font-family="sans-serif" font-size="11" lengthAdjust="spacingAndGlyphs" textLength="59" x="685.5" y="1203.9092">mount ok?</text><text fill="#000000" font-family="sans-serif" font-size="11" lengthAdjust="spacingAndGlyphs" textLength="20" x="653.5" y="1197.5068">yes</text><text fill="#000000" font-family="sans-serif" font-size="11" lengthAdjust="spacingAndGlyphs" textLength="14" x="756.5" y="1197.5068">no</text><rect fill="#FEFECE" height="61.9063" rx="12.5" ry="12.5" style="stroke: #A80036; stroke-width: 1.5;" width="241" x="474" y="1222.1011"/><text fill="#000000" font-family="sans-serif" font-size="12" lengthAdjust="spacingAndGlyphs" textLength="221" x="484" y="1243.2397">DiskService stores mounted image,</text><text fill="#000000" font-family="sans-serif" font-size="12" lengthAdjust="spacingAndGlyphs" textLength="212" x="484" y="1257.2085">type, readOnly, and DiskGeometry</text><text fill="#000000" font-family="sans-serif" font-size="12" lengthAdjust="spacingAndGlyphs" textLength="106" x="484" y="1271.1772">in the target slot</text><rect fill="#FEFECE" height="33.9688" rx="12.5" ry="12.5" style="stroke: #A80036; stroke-width: 1.5;" width="201" x="735" y="1222.1011"/><text fill="#000000" font-family="sans-serif" font-size="12" lengthAdjust="spacingAndGlyphs" textLength="181" x="745" y="1243.2397">DiskService records lastError</text><polygon fill="#FEFECE" points="715,1290.0073,727,1302.0073,715,1314.0073,703,1302.0073,715,1290.0073" style="stroke: #A80036; stroke-width: 1.5;"/><ellipse cx="715" cy="1345.0073" fill="#FFFFFF" rx="11" ry="11" style="stroke: #000000; stroke-width: 1.0;"/><ellipse cx="715" cy="1345.0073" fill="#000000" rx="6" ry="6" style="stroke: #7F7F7F; stroke-width: 1.0;"/><line style="stroke: #A80036; stroke-width: 1.5;" x1="715" x2="715" y1="159.4375" y2="195.2852"/><polygon fill="#A80036" points="711,185.2852,715,195.2852,719,185.2852,715,189.2852" style="stroke: #A80036; stroke-width: 1.0;"/><line style="stroke: #A80036; stroke-width: 1.5;" x1="715" x2="715" y1="229.2539" y2="275.1016"/><polygon fill="#A80036" points="711,265.1016,715,275.1016,719,265.1016,715,269.1016" style="stroke: #A80036; stroke-width: 1.0;"/><line style="stroke: #A80036; stroke-width: 1.5;" x1="715" x2="715" y1="323.0391" y2="343.0391"/><polygon fill="#A80036" points="711,333.0391,715,343.0391,719,333.0391,715,337.0391" style="stroke: #A80036; stroke-width: 1.0;"/><line style="stroke: #A80036; stroke-width: 1.5;" x1="715" x2="715" y1="377.0078" y2="397.0078"/><polygon fill="#A80036" points="711,387.0078,715,397.0078,719,387.0078,715,391.0078" style="stroke: #A80036; stroke-width: 1.0;"/><line style="stroke: #A80036; stroke-width: 1.5;" x1="530.5" x2="530.5" y1="577.9453" y2="602.3477"/><polygon fill="#A80036" points="526.5,592.3477,530.5,602.3477,534.5,592.3477,530.5,596.3477" style="stroke: #A80036; stroke-width: 1.0;"/><line style="stroke: #A80036; stroke-width: 1.5;" x1="656.5" x2="668.5" y1="565.9453" y2="565.9453"/><polygon fill="#A80036" points="664.5,616.3164,668.5,626.3164,672.5,616.3164,668.5,620.3164" style="stroke: #A80036; stroke-width: 1.5;"/><line style="stroke: #A80036; stroke-width: 1.5;" x1="668.5" x2="668.5" y1="565.9453" y2="686.6875"/><line style="stroke: #A80036; stroke-width: 1.5;" x1="668.5" x2="542.5" y1="686.6875" y2="686.6875"/><polygon fill="#A80036" points="552.5,682.6875,542.5,686.6875,552.5,690.6875,548.5,686.6875" style="stroke: #A80036; stroke-width: 1.0;"/><line style="stroke: #A80036; stroke-width: 1.5;" x1="530.5" x2="530.5" y1="650.2852" y2="674.6875"/><polygon fill="#A80036" points="526.5,664.6875,530.5,674.6875,534.5,664.6875,530.5,668.6875" style="stroke: #A80036; stroke-width: 1.0;"/><line style="stroke: #A80036; stroke-width: 1.5;" x1="530.5" x2="530.5" y1="518.9453" y2="553.9453"/><polygon fill="#A80036" points="526.5,543.9453,530.5,553.9453,534.5,543.9453,530.5,547.9453" style="stroke: #A80036; stroke-width: 1.0;"/><line style="stroke: #A80036; stroke-width: 1.5;" x1="790" x2="790" y1="673.6094" y2="708.6094"/><polygon fill="#A80036" points="786,698.6094,790,708.6094,794,698.6094,790,702.6094" style="stroke: #A80036; stroke-width: 1.0;"/><line style="stroke: #A80036; stroke-width: 1.5;" x1="1009" x2="1009" y1="673.6094" y2="708.6094"/><polygon fill="#A80036" points="1005,698.6094,1009,708.6094,1013,698.6094,1009,702.6094" style="stroke: #A80036; stroke-width: 1.0;"/><line style="stroke: #A80036; stroke-width: 1.5;" x1="1009" x2="1009" y1="742.5781" y2="776.5469"/><polygon fill="#A80036" points="1005,766.5469,1009,776.5469,1013,766.5469,1009,770.5469" style="stroke: #A80036; stroke-width: 1.0;"/><line style="stroke: #A80036; stroke-width: 1.5;" x1="841.5" x2="790" y1="617.6406" y2="617.6406"/><line style="stroke: #A80036; stroke-width: 1.5;" x1="790" x2="790" y1="617.6406" y2="639.6406"/><polygon fill="#A80036" points="786,629.6406,790,639.6406,794,629.6406,790,633.6406" style="stroke: #A80036; stroke-width: 1.0;"/><line style="stroke: #A80036; stroke-width: 1.5;" x1="957.5" x2="1009" y1="617.6406" y2="617.6406"/><line style="stroke: #A80036; stroke-width: 1.5;" x1="1009" x2="1009" y1="617.6406" y2="639.6406"/><polygon fill="#A80036" points="1005,629.6406,1009,639.6406,1013,629.6406,1009,633.6406" style="stroke: #A80036; stroke-width: 1.0;"/><line style="stroke: #A80036; stroke-width: 1.5;" x1="790" x2="790" y1="756.5469" y2="820.5469"/><line style="stroke: #A80036; stroke-width: 1.5;" x1="790" x2="727" y1="820.5469" y2="820.5469"/><polygon fill="#A80036" points="737,816.5469,727,820.5469,737,824.5469,733,820.5469" style="stroke: #A80036; stroke-width: 1.0;"/><line style="stroke: #A80036; stroke-width: 1.5;" x1="899.5" x2="899.5" y1="551.7773" y2="605.6406"/><polygon fill="#A80036" points="895.5,595.6406,899.5,605.6406,903.5,595.6406,899.5,599.6406" style="stroke: #A80036; stroke-width: 1.0;"/><line style="stroke: #A80036; stroke-width: 1.5;" x1="636.5" x2="530.5" y1="462.9766" y2="462.9766"/><line style="stroke: #A80036; stroke-width: 1.5;" x1="530.5" x2="530.5" y1="462.9766" y2="484.9766"/><polygon fill="#A80036" points="526.5,474.9766,530.5,484.9766,534.5,474.9766,530.5,478.9766" style="stroke: #A80036; stroke-width: 1.0;"/><line style="stroke: #A80036; stroke-width: 1.5;" x1="793.5" x2="899.5" y1="462.9766" y2="462.9766"/><line style="stroke: #A80036; stroke-width: 1.5;" x1="899.5" x2="899.5" y1="462.9766" y2="503.8398"/><polygon fill="#A80036" points="895.5,493.8398,899.5,503.8398,903.5,493.8398,899.5,497.8398" style="stroke: #A80036; stroke-width: 1.0;"/><line style="stroke: #A80036; stroke-width: 1.5;" x1="530.5" x2="530.5" y1="698.6875" y2="820.5469"/><line style="stroke: #A80036; stroke-width: 1.5;" x1="530.5" x2="703" y1="820.5469" y2="820.5469"/><polygon fill="#A80036" points="693,816.5469,703,820.5469,693,824.5469,697,820.5469" style="stroke: #A80036; stroke-width: 1.0;"/><line style="stroke: #A80036; stroke-width: 1.5;" x1="715" x2="715" y1="430.9766" y2="450.9766"/><polygon fill="#A80036" points="711,440.9766,715,450.9766,719,440.9766,715,444.9766" style="stroke: #A80036; stroke-width: 1.0;"/><line style="stroke: #A80036; stroke-width: 1.5;" x1="715" x2="715" y1="832.5469" y2="852.5469"/><polygon fill="#A80036" points="711,842.5469,715,852.5469,719,842.5469,715,846.5469" style="stroke: #A80036; stroke-width: 1.0;"/><line style="stroke: #A80036; stroke-width: 1.5;" x1="383.75" x2="363.5" y1="1008.2261" y2="1008.2261"/><line style="stroke: #A80036; stroke-width: 1.5;" x1="363.5" x2="363.5" y1="1008.2261" y2="1030.2261"/><polygon fill="#A80036" points="359.5,1020.2261,363.5,1030.2261,367.5,1020.2261,363.5,1024.2261" style="stroke: #A80036; stroke-width: 1.0;"/><line style="stroke: #A80036; stroke-width: 1.5;" x1="541.75" x2="562" y1="1008.2261" y2="1008.2261"/><line style="stroke: #A80036; stroke-width: 1.5;" x1="562" x2="562" y1="1008.2261" y2="1030.2261"/><polygon fill="#A80036" points="558,1020.2261,562,1030.2261,566,1020.2261,562,1024.2261" style="stroke: #A80036; stroke-width: 1.0;"/><line style="stroke: #A80036; stroke-width: 1.5;" x1="363.5" x2="363.5" y1="1078.1636" y2="1096.1636"/><line style="stroke: #A80036; stroke-width: 1.5;" x1="363.5" x2="450.75" y1="1096.1636" y2="1096.1636"/><polygon fill="#A80036" points="440.75,1092.1636,450.75,1096.1636,440.75,1100.1636,444.75,1096.1636" style="stroke: #A80036; stroke-width: 1.0;"/><line style="stroke: #A80036; stroke-width: 1.5;" x1="562" x2="562" y1="1078.1636" y2="1096.1636"/><line style="stroke: #A80036; stroke-width: 1.5;" x1="562" x2="474.75" y1="1096.1636" y2="1096.1636"/><polygon fill="#A80036" points="484.75,1092.1636,474.75,1096.1636,484.75,1100.1636,480.75,1096.1636" style="stroke: #A80036; stroke-width: 1.0;"/><line style="stroke: #A80036; stroke-width: 1.5;" x1="207.125" x2="120.5" y1="974.2261" y2="974.2261"/><line style="stroke: #A80036; stroke-width: 1.5;" x1="120.5" x2="120.5" y1="974.2261" y2="996.2261"/><polygon fill="#A80036" points="116.5,986.2261,120.5,996.2261,124.5,986.2261,120.5,990.2261" style="stroke: #A80036; stroke-width: 1.0;"/><line style="stroke: #A80036; stroke-width: 1.5;" x1="376.125" x2="462.75" y1="974.2261" y2="974.2261"/><line style="stroke: #A80036; stroke-width: 1.5;" x1="462.75" x2="462.75" y1="974.2261" y2="996.2261"/><polygon fill="#A80036" points="458.75,986.2261,462.75,996.2261,466.75,986.2261,462.75,990.2261" style="stroke: #A80036; stroke-width: 1.0;"/><line style="stroke: #A80036; stroke-width: 1.5;" x1="120.5" x2="120.5" y1="1044.1636" y2="1126.1636"/><line style="stroke: #A80036; stroke-width: 1.5;" x1="120.5" x2="279.625" y1="1126.1636" y2="1126.1636"/><polygon fill="#A80036" points="269.625,1122.1636,279.625,1126.1636,269.625,1130.1636,273.625,1126.1636" style="stroke: #A80036; stroke-width: 1.0;"/><line style="stroke: #A80036; stroke-width: 1.5;" x1="462.75" x2="462.75" y1="1108.1636" y2="1126.1636"/><line style="stroke: #A80036; stroke-width: 1.5;" x1="462.75" x2="303.625" y1="1126.1636" y2="1126.1636"/><polygon fill="#A80036" points="313.625,1122.1636,303.625,1126.1636,313.625,1130.1636,309.625,1126.1636" style="stroke: #A80036; stroke-width: 1.0;"/><line style="stroke: #A80036; stroke-width: 1.5;" x1="790.5" x2="790.5" y1="996.1948" y2="1031.1948"/><polygon fill="#A80036" points="786.5,1021.1948,790.5,1031.1948,794.5,1021.1948,790.5,1025.1948" style="stroke: #A80036; stroke-width: 1.0;"/><line style="stroke: #A80036; stroke-width: 1.5;" x1="790.5" x2="790.5" y1="1079.1323" y2="1114.1323"/><polygon fill="#A80036" points="786.5,1104.1323,790.5,1114.1323,794.5,1104.1323,790.5,1108.1323" style="stroke: #A80036; stroke-width: 1.0;"/><line style="stroke: #A80036; stroke-width: 1.5;" x1="1059" x2="1059" y1="996.1948" y2="1031.1948"/><polygon fill="#A80036" points="1055,1021.1948,1059,1031.1948,1063,1021.1948,1059,1025.1948" style="stroke: #A80036; stroke-width: 1.0;"/><line style="stroke: #A80036; stroke-width: 1.5;" x1="1059" x2="1059" y1="1065.1636" y2="1100.1636"/><polygon fill="#A80036" points="1055,1090.1636,1059,1100.1636,1063,1090.1636,1059,1094.1636" style="stroke: #A80036; stroke-width: 1.0;"/><line style="stroke: #A80036; stroke-width: 1.5;" x1="1322.5" x2="1322.5" y1="1005.7612" y2="1040.7612"/><polygon fill="#A80036" points="1318.5,1030.7612,1322.5,1040.7612,1326.5,1030.7612,1322.5,1034.7612" style="stroke: #A80036; stroke-width: 1.0;"/><line style="stroke: #A80036; stroke-width: 1.5;" x1="1322.5" x2="1322.5" y1="1074.73" y2="1109.73"/><polygon fill="#A80036" points="1318.5,1099.73,1322.5,1109.73,1326.5,1099.73,1322.5,1103.73" style="stroke: #A80036; stroke-width: 1.0;"/><line style="stroke: #A80036; stroke-width: 1.5;" x1="291.625" x2="291.625" y1="930.5156" y2="962.2261"/><polygon fill="#A80036" points="287.625,952.2261,291.625,962.2261,295.625,952.2261,291.625,956.2261" style="stroke: #A80036; stroke-width: 1.0;"/><line style="stroke: #A80036; stroke-width: 1.5;" x1="291.625" x2="291.625" y1="1138.1636" y2="1168.1011"/><polygon fill="#A80036" points="287.625,1158.1011,291.625,1168.1011,295.625,1158.1011,291.625,1162.1011" style="stroke: #A80036; stroke-width: 1.0;"/><line style="stroke: #A80036; stroke-width: 1.5;" x1="790.5" x2="790.5" y1="930.5156" y2="962.2261"/><polygon fill="#A80036" points="786.5,952.2261,790.5,962.2261,794.5,952.2261,790.5,956.2261" style="stroke: #A80036; stroke-width: 1.0;"/><line style="stroke: #A80036; stroke-width: 1.5;" x1="790.5" x2="790.5" y1="1148.1011" y2="1168.1011"/><polygon fill="#A80036" points="786.5,1158.1011,790.5,1168.1011,794.5,1158.1011,790.5,1162.1011" style="stroke: #A80036; stroke-width: 1.0;"/><line style="stroke: #A80036; stroke-width: 1.5;" x1="1059" x2="1059" y1="930.5156" y2="962.2261"/><polygon fill="#A80036" points="1055,952.2261,1059,962.2261,1063,952.2261,1059,956.2261" style="stroke: #A80036; stroke-width: 1.0;"/><line style="stroke: #A80036; stroke-width: 1.5;" x1="1059" x2="1059" y1="1134.1323" y2="1168.1011"/><polygon fill="#A80036" points="1055,1158.1011,1059,1168.1011,1063,1158.1011,1059,1162.1011" style="stroke: #A80036; stroke-width: 1.0;"/><line style="stroke: #A80036; stroke-width: 1.5;" x1="358.125" x2="725" y1="918.5156" y2="918.5156"/><polygon fill="#A80036" points="715,914.5156,725,918.5156,715,922.5156,719,918.5156" style="stroke: #A80036; stroke-width: 1.0;"/><line style="stroke: #A80036; stroke-width: 1.5;" x1="856" x2="992" y1="918.5156" y2="918.5156"/><polygon fill="#A80036" points="982,914.5156,992,918.5156,982,922.5156,986,918.5156" style="stroke: #A80036; stroke-width: 1.0;"/><line style="stroke: #A80036; stroke-width: 1.5;" x1="715" x2="715" y1="886.5156" y2="891.5156"/><line style="stroke: #A80036; stroke-width: 1.5;" x1="715" x2="291.625" y1="891.5156" y2="891.5156"/><line style="stroke: #A80036; stroke-width: 1.5;" x1="291.625" x2="291.625" y1="891.5156" y2="906.5156"/><polygon fill="#A80036" points="287.625,896.5156,291.625,906.5156,295.625,896.5156,291.625,900.5156" style="stroke: #A80036; stroke-width: 1.0;"/><line style="stroke: #A80036; stroke-width: 1.5;" x1="1126" x2="1322.5" y1="918.5156" y2="918.5156"/><line style="stroke: #A80036; stroke-width: 1.5;" x1="1322.5" x2="1322.5" y1="918.5156" y2="971.7925"/><polygon fill="#A80036" points="1318.5,961.7925,1322.5,971.7925,1326.5,961.7925,1322.5,965.7925" style="stroke: #A80036; stroke-width: 1.0;"/><line style="stroke: #A80036; stroke-width: 1.5;" x1="291.625" x2="1059" y1="1168.1011" y2="1168.1011"/><line style="stroke: #A80036; stroke-width: 1.5;" x1="673.5" x2="594.5" y1="1200.1011" y2="1200.1011"/><line style="stroke: #A80036; stroke-width: 1.5;" x1="594.5" x2="594.5" y1="1200.1011" y2="1222.1011"/><polygon fill="#A80036" points="590.5,1212.1011,594.5,1222.1011,598.5,1212.1011,594.5,1216.1011" style="stroke: #A80036; stroke-width: 1.0;"/><line style="stroke: #A80036; stroke-width: 1.5;" x1="756.5" x2="835.5" y1="1200.1011" y2="1200.1011"/><line style="stroke: #A80036; stroke-width: 1.5;" x1="835.5" x2="835.5" y1="1200.1011" y2="1222.1011"/><polygon fill="#A80036" points="831.5,1212.1011,835.5,1222.1011,839.5,1212.1011,835.5,1216.1011" style="stroke: #A80036; stroke-width: 1.0;"/><line style="stroke: #A80036; stroke-width: 1.5;" x1="594.5" x2="594.5" y1="1284.0073" y2="1302.0073"/><line style="stroke: #A80036; stroke-width: 1.5;" x1="594.5" x2="703" y1="1302.0073" y2="1302.0073"/><polygon fill="#A80036" points="693,1298.0073,703,1302.0073,693,1306.0073,697,1302.0073" style="stroke: #A80036; stroke-width: 1.0;"/><line style="stroke: #A80036; stroke-width: 1.5;" x1="835.5" x2="835.5" y1="1256.0698" y2="1302.0073"/><line style="stroke: #A80036; stroke-width: 1.5;" x1="835.5" x2="727" y1="1302.0073" y2="1302.0073"/><polygon fill="#A80036" points="737,1298.0073,727,1302.0073,737,1306.0073,733,1302.0073" style="stroke: #A80036; stroke-width: 1.0;"/><line style="stroke: #A80036; stroke-width: 1.5;" x1="715" x2="715" y1="1168.1011" y2="1188.1011"/><polygon fill="#A80036" points="711,1178.1011,715,1188.1011,719,1178.1011,715,1182.1011" style="stroke: #A80036; stroke-width: 1.0;"/><line style="stroke: #A80036; stroke-width: 1.5;" x1="715" x2="715" y1="1314.0073" y2="1334.0073"/><polygon fill="#A80036" points="711,1324.0073,715,1334.0073,719,1324.0073,715,1328.0073" style="stroke: #A80036; stroke-width: 1.0;"/><!--MD5=[f104dfbc13577fe178eb35a179bd7252]
@startuml DiskDetectionFlow
title Disk Image Mount-Time Detection Flow

skinparam shadowing false

legend top
  Hand-maintained activity diagram.

  Complements `arch_disk_detection.puml`.
  Shows how mount-time detection selects an image handler and where
  geometry is established.
endlegend

start

:Mount request arrives;
note right
  Inputs:
  - URI
  - mode
  - optional type override
  - optional sector-size hint
end note

:StorageManager resolves URI
to filesystem + path;
:Open image file;
:Determine sizeBytes;

if (type override supplied?) then (yes)
  :Use requested ImageType;
  if (override is Raw and no sector-size hint?) then (yes)
    :ProbeRegistry may still provide
    raw geometryHint;
  else (no)
  endif
else (no)
  :ProbeRegistry inspects content,
  path, and sector-size hint;
  note right
    Probe order:
    - ATR header
    - FAT BPB -> Raw + geometry
    - SSD DFS shape
    - extension/hint fallback
  end note
  if (probe matched?) then (yes)
    :Use probe ImageType;
    :Carry probe DiskGeometry
    as geometryHint;
  else (no)
    :Return UnsupportedImageType;
    :DiskService records lastError;
    stop
  endif
endif

:ImageRegistry creates IDiskImage;

if (ImageType is Raw?) then (Raw)
  if (sector-size hint supplied?) then (yes)
    :RawDiskImage derives geometry
    from hint + file size;
  else (no)
    if (geometryHint supplied?) then (yes)
      :RawDiskImage uses
      probe-provided DiskGeometry;
    else (no)
      :Fallback to legacy
      256-byte raw sectors;
    endif
  endif
elseif (ImageType is ATR?) then (ATR)
  :AtrDiskImage parses ATR header;
  :Validate ATR magic, size fields,
  and sector geometry;
  :Set DiskGeometry;
elseif (ImageType is SSD?) then (SSD)
  :SsdDiskImage validates DFS/SSD shape;
  :Read sector count from catalogue fields;
  :Set 256-byte sector DiskGeometry;
else (unsupported)
  :Return UnsupportedImageType;
  :DiskService records lastError;
  stop
endif

if (mount ok?) then (yes)
  :DiskService stores mounted image,
  type, readOnly, and DiskGeometry
  in the target slot;
else (no)
  :DiskService records lastError;
endif

note right
  Detection does not remove the need for hints.

  Hints are still the explicit geometry contract for truly
  raw/headerless images. Probes are useful when file content,
  path, or a hint gives enough information to choose a type.
end note

stop

@enduml

PlantUML version 1.2020.02(Sun Mar 01 10:22:07 UTC 2020)
(GPL source distribution)
Java Runtime: OpenJDK Runtime Environment
JVM: OpenJDK 64-Bit Server VM
Java Version: 17.0.19+10
Operating System: Linux
Default Encoding: UTF-8
Language: en
Country: null
--></g></svg>