<?xml version="1.0" encoding="UTF-8" standalone="no"?><svg xmlns="http://www.w3.org/2000/svg" xmlns:xlink="http://www.w3.org/1999/xlink" contentScriptType="application/ecmascript" contentStyleType="text/css" height="932px" preserveAspectRatio="none" style="width:1287px;height:932px;" version="1.1" viewBox="0 0 1287 932" width="1287px" zoomAndPan="magnify"><defs><filter height="300%" id="fqfnspbcbtewc" width="300%" x="-1" y="-1"><feGaussianBlur result="blurOut" stdDeviation="2.0"/><feColorMatrix in="blurOut" result="blurOut2" type="matrix" values="0 0 0 0 0 0 0 0 0 0 0 0 0 0 0 0 0 0 .4 0"/><feOffset dx="4.0" dy="4.0" in="blurOut2" result="blurOut3"/><feBlend in="SourceGraphic" in2="blurOut3" mode="normal"/></filter></defs><g><text fill="#000000" font-family="sans-serif" font-size="18" lengthAdjust="spacingAndGlyphs" textLength="346" x="474.5" y="16.708">IO Protocols (auto-gen from clang-uml)</text><!--MD5=[31061a5abc77c90cb479eaa4f6f83796]
class C_0015225225004340369839--><rect fill="#FEFECE" filter="url(#fqfnspbcbtewc)" height="137.6328" id="C_0015225225004340369839" style="stroke: #A80036; stroke-width: 1.5;" width="190" x="744" y="545.9531"/><ellipse cx="759" cy="561.9531" fill="#EB937F" rx="11" ry="11" style="stroke: #A80036; stroke-width: 1.0;"/><path d="M763.1094,567.9531 L755.3906,567.9531 L755.3906,555.5625 L763.1094,555.5625 L763.1094,557.7188 L757.8438,557.7188 L757.8438,560.3906 L762.6094,560.3906 L762.6094,562.5469 L757.8438,562.5469 L757.8438,565.7969 L763.1094,565.7969 L763.1094,567.9531 Z "/><text fill="#000000" font-family="sans-serif" font-size="12" lengthAdjust="spacingAndGlyphs" textLength="158" x="773" y="566.1074">io::protocol::WireDeviceId</text><line style="stroke: #A80036; stroke-width: 1.5;" x1="745" x2="933" y1="577.9531" y2="577.9531"/><text fill="#000000" font-family="sans-serif" font-size="11" lengthAdjust="spacingAndGlyphs" textLength="38" x="750" y="592.1636">FujiNet</text><text fill="#000000" font-family="sans-serif" font-size="11" lengthAdjust="spacingAndGlyphs" textLength="30" x="750" y="604.9683">Clock</text><text fill="#000000" font-family="sans-serif" font-size="11" lengthAdjust="spacingAndGlyphs" textLength="68" x="750" y="617.7729">HostService</text><text fill="#000000" font-family="sans-serif" font-size="11" lengthAdjust="spacingAndGlyphs" textLength="83" x="750" y="630.5776">ModemService</text><text fill="#000000" font-family="sans-serif" font-size="11" lengthAdjust="spacingAndGlyphs" textLength="66" x="750" y="643.3823">DiskService</text><text fill="#000000" font-family="sans-serif" font-size="11" lengthAdjust="spacingAndGlyphs" textLength="88" x="750" y="656.187">NetworkService</text><text fill="#000000" font-family="sans-serif" font-size="11" lengthAdjust="spacingAndGlyphs" textLength="61" x="750" y="668.9917">FileService</text><line style="stroke: #A80036; stroke-width: 1.5;" x1="745" x2="933" y1="675.5859" y2="675.5859"/><!--MD5=[9842c50a11ef1af3dcd3a820eb5cd4d4]
class C_0015699043703645047876--><rect fill="#FEFECE" filter="url(#fqfnspbcbtewc)" height="188.8516" id="C_0015699043703645047876" style="stroke: #A80036; stroke-width: 1.5;" width="199" x="18.5" y="154.4531"/><ellipse cx="33.5" cy="170.4531" fill="#EB937F" rx="11" ry="11" style="stroke: #A80036; stroke-width: 1.0;"/><path d="M37.6094,176.4531 L29.8906,176.4531 L29.8906,164.0625 L37.6094,164.0625 L37.6094,166.2188 L32.3438,166.2188 L32.3438,168.8906 L37.1094,168.8906 L37.1094,171.0469 L32.3438,171.0469 L32.3438,174.2969 L37.6094,174.2969 L37.6094,176.4531 Z "/><text fill="#000000" font-family="sans-serif" font-size="12" lengthAdjust="spacingAndGlyphs" textLength="167" x="47.5" y="174.6074">io::protocol::DiskCommand</text><line style="stroke: #A80036; stroke-width: 1.5;" x1="19.5" x2="216.5" y1="186.4531" y2="186.4531"/><text fill="#000000" font-family="sans-serif" font-size="11" lengthAdjust="spacingAndGlyphs" textLength="34" x="24.5" y="200.6636">Mount</text><text fill="#000000" font-family="sans-serif" font-size="11" lengthAdjust="spacingAndGlyphs" textLength="51" x="24.5" y="213.4683">Unmount</text><text fill="#000000" font-family="sans-serif" font-size="11" lengthAdjust="spacingAndGlyphs" textLength="65" x="24.5" y="226.2729">ReadSector</text><text fill="#000000" font-family="sans-serif" font-size="11" lengthAdjust="spacingAndGlyphs" textLength="65" x="24.5" y="239.0776">WriteSector</text><text fill="#000000" font-family="sans-serif" font-size="11" lengthAdjust="spacingAndGlyphs" textLength="21" x="24.5" y="251.8823">Info</text><text fill="#000000" font-family="sans-serif" font-size="11" lengthAdjust="spacingAndGlyphs" textLength="80" x="24.5" y="264.687">ClearChanged</text><text fill="#000000" font-family="sans-serif" font-size="11" lengthAdjust="spacingAndGlyphs" textLength="38" x="24.5" y="277.4917">Create</text><text fill="#000000" font-family="sans-serif" font-size="11" lengthAdjust="spacingAndGlyphs" textLength="72" x="24.5" y="290.2964">ReadSectors</text><text fill="#000000" font-family="sans-serif" font-size="11" lengthAdjust="spacingAndGlyphs" textLength="72" x="24.5" y="303.1011">WriteSectors</text><text fill="#000000" font-family="sans-serif" font-size="11" lengthAdjust="spacingAndGlyphs" textLength="70" x="24.5" y="315.9058">RestoreBoot</text><text fill="#000000" font-family="sans-serif" font-size="11" lengthAdjust="spacingAndGlyphs" textLength="104" x="24.5" y="328.7104">BeginHostSession</text><line style="stroke: #A80036; stroke-width: 1.5;" x1="19.5" x2="216.5" y1="335.3047" y2="335.3047"/><!--MD5=[addcdd6b4528a1d851ee81289eb82bbc]
class C_0004628219160953719395--><rect fill="#FEFECE" filter="url(#fqfnspbcbtewc)" height="112.0234" id="C_0004628219160953719395" style="stroke: #A80036; stroke-width: 1.5;" width="194" x="253" y="192.9531"/><ellipse cx="268" cy="208.9531" fill="#EB937F" rx="11" ry="11" style="stroke: #A80036; stroke-width: 1.0;"/><path d="M272.1094,214.9531 L264.3906,214.9531 L264.3906,202.5625 L272.1094,202.5625 L272.1094,204.7188 L266.8438,204.7188 L266.8438,207.3906 L271.6094,207.3906 L271.6094,209.5469 L266.8438,209.5469 L266.8438,212.7969 L272.1094,212.7969 L272.1094,214.9531 Z "/><text fill="#000000" font-family="sans-serif" font-size="12" lengthAdjust="spacingAndGlyphs" textLength="162" x="282" y="213.1074">io::protocol::FujiCommand</text><line style="stroke: #A80036; stroke-width: 1.5;" x1="254" x2="446" y1="224.9531" y2="224.9531"/><text fill="#000000" font-family="sans-serif" font-size="11" lengthAdjust="spacingAndGlyphs" textLength="32" x="259" y="239.1636">Reset</text><text fill="#000000" font-family="sans-serif" font-size="11" lengthAdjust="spacingAndGlyphs" textLength="45" x="259" y="251.9683">GetSsid</text><text fill="#000000" font-family="sans-serif" font-size="11" lengthAdjust="spacingAndGlyphs" textLength="61" x="259" y="264.7729">GetMounts</text><text fill="#000000" font-family="sans-serif" font-size="11" lengthAdjust="spacingAndGlyphs" textLength="53" x="259" y="277.5776">SetMount</text><text fill="#000000" font-family="sans-serif" font-size="11" lengthAdjust="spacingAndGlyphs" textLength="54" x="259" y="290.3823">GetMount</text><line style="stroke: #A80036; stroke-width: 1.5;" x1="254" x2="446" y1="296.9766" y2="296.9766"/><!--MD5=[00589bb63b8d16bc46b4cc6055ae058f]
class C_0010627602090167488081--><rect fill="#FEFECE" filter="url(#fqfnspbcbtewc)" height="99.2188" id="C_0010627602090167488081" style="stroke: #A80036; stroke-width: 1.5;" width="160" x="482" y="199.4531"/><ellipse cx="497" cy="215.4531" fill="#EB937F" rx="11" ry="11" style="stroke: #A80036; stroke-width: 1.0;"/><path d="M501.1094,221.4531 L493.3906,221.4531 L493.3906,209.0625 L501.1094,209.0625 L501.1094,211.2188 L495.8438,211.2188 L495.8438,213.8906 L500.6094,213.8906 L500.6094,216.0469 L495.8438,216.0469 L495.8438,219.2969 L501.1094,219.2969 L501.1094,221.4531 Z "/><text fill="#000000" font-family="sans-serif" font-size="12" lengthAdjust="spacingAndGlyphs" textLength="128" x="511" y="219.6074">io::protocol::SlipByte</text><line style="stroke: #A80036; stroke-width: 1.5;" x1="483" x2="641" y1="231.4531" y2="231.4531"/><text fill="#000000" font-family="sans-serif" font-size="11" lengthAdjust="spacingAndGlyphs" textLength="21" x="488" y="245.6636">End</text><text fill="#000000" font-family="sans-serif" font-size="11" lengthAdjust="spacingAndGlyphs" textLength="41" x="488" y="258.4683">Escape</text><text fill="#000000" font-family="sans-serif" font-size="11" lengthAdjust="spacingAndGlyphs" textLength="41" x="488" y="271.2729">EscEnd</text><text fill="#000000" font-family="sans-serif" font-size="11" lengthAdjust="spacingAndGlyphs" textLength="40" x="488" y="284.0776">EscEsc</text><line style="stroke: #A80036; stroke-width: 1.5;" x1="483" x2="641" y1="290.6719" y2="290.6719"/><!--MD5=[72d2c2714d5b439165c57447022afdec]
class C_0003277087640557799971--><rect fill="#FEFECE" filter="url(#fqfnspbcbtewc)" height="99.2188" id="C_0003277087640557799971" style="stroke: #A80036; stroke-width: 1.5;" width="307" x="969.5" y="565.4531"/><ellipse cx="1037.75" cy="581.4531" fill="#ADD1B2" rx="11" ry="11" style="stroke: #A80036; stroke-width: 1.0;"/><path d="M1040.7188,587.0938 Q1040.1406,587.3906 1039.5,587.5313 Q1038.8594,587.6875 1038.1563,587.6875 Q1035.6563,587.6875 1034.3281,586.0469 Q1033.0156,584.3906 1033.0156,581.2656 Q1033.0156,578.1406 1034.3281,576.4844 Q1035.6563,574.8281 1038.1563,574.8281 Q1038.8594,574.8281 1039.5,574.9844 Q1040.1563,575.1406 1040.7188,575.4375 L1040.7188,578.1563 Q1040.0938,577.5781 1039.5,577.3125 Q1038.9063,577.0313 1038.2813,577.0313 Q1036.9375,577.0313 1036.25,578.1094 Q1035.5625,579.1719 1035.5625,581.2656 Q1035.5625,583.3594 1036.25,584.4375 Q1036.9375,585.5 1038.2813,585.5 Q1038.9063,585.5 1039.5,585.2344 Q1040.0938,584.9531 1040.7188,584.375 L1040.7188,587.0938 Z "/><text fill="#000000" font-family="sans-serif" font-size="12" lengthAdjust="spacingAndGlyphs" textLength="162" x="1058.25" y="585.6074">io::protocol::PacketParam</text><line style="stroke: #A80036; stroke-width: 1.5;" x1="970.5" x2="1275.5" y1="597.4531" y2="597.4531"/><ellipse cx="980.5" cy="608.4531" fill="#84BE84" rx="3" ry="3" style="stroke: #038048; stroke-width: 1.0;"/><text fill="#000000" font-family="sans-serif" font-size="11" lengthAdjust="spacingAndGlyphs" textLength="281" x="989.5" y="611.6636">PacketParam(std::uint32_t v, std::uint8_t s) : void</text><ellipse cx="980.5" cy="621.2578" fill="#84BE84" rx="3" ry="3" style="stroke: #038048; stroke-width: 1.0;"/><text fill="#000000" font-family="sans-serif" font-size="11" lengthAdjust="spacingAndGlyphs" textLength="159" x="989.5" y="624.4683">PacketParam&lt;T&gt;(T v) : void</text><line style="stroke: #A80036; stroke-width: 1.5;" x1="970.5" x2="1275.5" y1="631.0625" y2="631.0625"/><ellipse cx="980.5" cy="642.0625" fill="none" rx="3" ry="3" style="stroke: #038048; stroke-width: 1.0;"/><text fill="#000000" font-family="sans-serif" font-size="11" lengthAdjust="spacingAndGlyphs" textLength="98" x="989.5" y="645.2729">size : std::uint8_t</text><ellipse cx="980.5" cy="654.8672" fill="none" rx="3" ry="3" style="stroke: #038048; stroke-width: 1.0;"/><text fill="#000000" font-family="sans-serif" font-size="11" lengthAdjust="spacingAndGlyphs" textLength="113" x="989.5" y="658.0776">value : std::uint32_t</text><!--MD5=[a296b3227c73c67410f4977d15d780d7]
class C_0017232777488057089840--><rect fill="#FEFECE" filter="url(#fqfnspbcbtewc)" height="440.1406" id="C_0017232777488057089840" style="stroke: #A80036; stroke-width: 1.5;" width="498" x="776" y="28.9531"/><ellipse cx="937.75" cy="44.9531" fill="#ADD1B2" rx="11" ry="11" style="stroke: #A80036; stroke-width: 1.0;"/><path d="M940.7188,50.5938 Q940.1406,50.8906 939.5,51.0313 Q938.8594,51.1875 938.1563,51.1875 Q935.6563,51.1875 934.3281,49.5469 Q933.0156,47.8906 933.0156,44.7656 Q933.0156,41.6406 934.3281,39.9844 Q935.6563,38.3281 938.1563,38.3281 Q938.8594,38.3281 939.5,38.4844 Q940.1563,38.6406 940.7188,38.9375 L940.7188,41.6563 Q940.0938,41.0781 939.5,40.8125 Q938.9063,40.5313 938.2813,40.5313 Q936.9375,40.5313 936.25,41.6094 Q935.5625,42.6719 935.5625,44.7656 Q935.5625,46.8594 936.25,47.9375 Q936.9375,49 938.2813,49 Q938.9063,49 939.5,48.7344 Q940.0938,48.4531 940.7188,47.875 L940.7188,50.5938 Z "/><text fill="#000000" font-family="sans-serif" font-size="12" lengthAdjust="spacingAndGlyphs" textLength="166" x="958.25" y="49.1074">io::protocol::FujiBusPacket</text><line style="stroke: #A80036; stroke-width: 1.5;" x1="777" x2="1273" y1="60.9531" y2="60.9531"/><ellipse cx="787" cy="71.9531" fill="#84BE84" rx="3" ry="3" style="stroke: #038048; stroke-width: 1.0;"/><text fill="#000000" font-family="sans-serif" font-size="11" lengthAdjust="spacingAndGlyphs" textLength="177" x="796" y="75.1636">FujiBusPacket() = default : void</text><ellipse cx="787" cy="84.7578" fill="#84BE84" rx="3" ry="3" style="stroke: #038048; stroke-width: 1.0;"/><text fill="#000000" font-family="sans-serif" font-size="11" lengthAdjust="spacingAndGlyphs" textLength="472" x="796" y="87.9683">FujiBusPacket&lt;Args...&gt;(WireDeviceId dev, std::uint8_t cmd, Args &amp;&amp;... args) : void</text><line style="stroke: #A80036; stroke-width: 1.0; stroke-dasharray: 1.0,2.0;" x1="777" x2="1273" y1="94.5625" y2="94.5625"/><ellipse cx="787" cy="105.5625" fill="#84BE84" rx="3" ry="3" style="stroke: #038048; stroke-width: 1.0;"/><text fill="#000000" font-family="sans-serif" font-size="11" lengthAdjust="spacingAndGlyphs" textLength="273" x="796" y="108.7729">addParamU16(std::uint16_t v) : FujiBusPacket &amp;</text><ellipse cx="787" cy="118.3672" fill="#84BE84" rx="3" ry="3" style="stroke: #038048; stroke-width: 1.0;"/><text fill="#000000" font-family="sans-serif" font-size="11" lengthAdjust="spacingAndGlyphs" textLength="273" x="796" y="121.5776">addParamU32(std::uint32_t v) : FujiBusPacket &amp;</text><ellipse cx="787" cy="131.1719" fill="#84BE84" rx="3" ry="3" style="stroke: #038048; stroke-width: 1.0;"/><text fill="#000000" font-family="sans-serif" font-size="11" lengthAdjust="spacingAndGlyphs" textLength="259" x="796" y="134.3823">addParamU8(std::uint8_t v) : FujiBusPacket &amp;</text><rect fill="#F24D5C" height="6" style="stroke: #C82930; stroke-width: 1.0;" width="6" x="784" y="140.9766"/><text fill="#000000" font-family="sans-serif" font-size="11" lengthAdjust="spacingAndGlyphs" textLength="331" x="796" y="147.187">calcChecksum(const ByteBuffer &amp; buf) const : std::uint8_t</text><ellipse cx="787" cy="156.7813" fill="#84BE84" rx="3" ry="3" style="stroke: #038048; stroke-width: 1.0;"/><text fill="#000000" font-family="sans-serif" font-size="11" lengthAdjust="spacingAndGlyphs" textLength="166" x="796" y="159.9917">clearData() : FujiBusPacket &amp;</text><ellipse cx="787" cy="169.5859" fill="#84BE84" rx="3" ry="3" style="stroke: #038048; stroke-width: 1.0;"/><text fill="#000000" font-family="sans-serif" font-size="11" lengthAdjust="spacingAndGlyphs" textLength="175" x="796" y="172.7964">command() const : std::uint8_t</text><ellipse cx="787" cy="182.3906" fill="#84BE84" rx="3" ry="3" style="stroke: #038048; stroke-width: 1.0;"/><text fill="#000000" font-family="sans-serif" font-size="11" lengthAdjust="spacingAndGlyphs" textLength="278" x="796" y="185.6011">data() const : const std::optional&lt;ByteBuffer&gt; &amp;</text><ellipse cx="787" cy="195.1953" fill="#84BE84" rx="3" ry="3" style="stroke: #038048; stroke-width: 1.0;"/><text fill="#000000" font-family="sans-serif" font-size="11" lengthAdjust="spacingAndGlyphs" textLength="276" x="796" y="198.4058">dataAsString() const : std::optional&lt;std::string&gt;</text><rect fill="#F24D5C" height="6" style="stroke: #C82930; stroke-width: 1.0;" width="6" x="784" y="205"/><text fill="#000000" font-family="sans-serif" font-size="11" lengthAdjust="spacingAndGlyphs" textLength="321" x="796" y="211.2104">decodeSLIP(const ByteBuffer &amp; input) const : ByteBuffer</text><ellipse cx="787" cy="220.8047" fill="#84BE84" rx="3" ry="3" style="stroke: #038048; stroke-width: 1.0;"/><text fill="#000000" font-family="sans-serif" font-size="11" lengthAdjust="spacingAndGlyphs" textLength="162" x="796" y="224.0151">device() const : WireDeviceId</text><rect fill="#F24D5C" height="6" style="stroke: #C82930; stroke-width: 1.0;" width="6" x="784" y="230.6094"/><text fill="#000000" font-family="sans-serif" font-size="11" lengthAdjust="spacingAndGlyphs" textLength="321" x="796" y="236.8198">encodeSLIP(const ByteBuffer &amp; input) const : ByteBuffer</text><ellipse cx="787" cy="246.4141" fill="#84BE84" rx="3" ry="3" style="stroke: #038048; stroke-width: 1.0;"/><text fill="#000000" font-family="sans-serif" font-size="11" lengthAdjust="spacingAndGlyphs" text-decoration="underline" textLength="425" x="796" y="249.6245">fromSerialized(const ByteBuffer &amp; input) : std::unique_ptr&lt;FujiBusPacket&gt;</text><ellipse cx="787" cy="259.2188" fill="#84BE84" rx="3" ry="3" style="stroke: #038048; stroke-width: 1.0;"/><text fill="#000000" font-family="sans-serif" font-size="11" lengthAdjust="spacingAndGlyphs" textLength="267" x="796" y="262.4292">param(unsigned int index) const : std::uint32_t</text><ellipse cx="787" cy="272.0234" fill="#84BE84" rx="3" ry="3" style="stroke: #038048; stroke-width: 1.0;"/><text fill="#000000" font-family="sans-serif" font-size="11" lengthAdjust="spacingAndGlyphs" textLength="195" x="796" y="275.2339">paramCount() const : unsigned int</text><rect fill="#F24D5C" height="6" style="stroke: #C82930; stroke-width: 1.0;" width="6" x="784" y="281.8281"/><text fill="#000000" font-family="sans-serif" font-size="11" lengthAdjust="spacingAndGlyphs" textLength="218" x="796" y="288.0386">parse(const ByteBuffer &amp; input) : bool</text><rect fill="#F24D5C" height="6" style="stroke: #C82930; stroke-width: 1.0;" width="6" x="784" y="294.6328"/><text fill="#000000" font-family="sans-serif" font-size="11" lengthAdjust="spacingAndGlyphs" textLength="227" x="796" y="300.8433">processArg(const std::string &amp; s) : void</text><rect fill="#F24D5C" height="6" style="stroke: #C82930; stroke-width: 1.0;" width="6" x="784" y="307.4375"/><text fill="#000000" font-family="sans-serif" font-size="11" lengthAdjust="spacingAndGlyphs" textLength="214" x="796" y="313.6479">processArg(ByteBuffer &amp;&amp; buf) : void</text><rect fill="#F24D5C" height="6" style="stroke: #C82930; stroke-width: 1.0;" width="6" x="784" y="320.2422"/><text fill="#000000" font-family="sans-serif" font-size="11" lengthAdjust="spacingAndGlyphs" textLength="239" x="796" y="326.4526">processArg(const ByteBuffer &amp; buf) : void</text><rect fill="#F24D5C" height="6" style="stroke: #C82930; stroke-width: 1.0;" width="6" x="784" y="333.0469"/><text fill="#000000" font-family="sans-serif" font-size="11" lengthAdjust="spacingAndGlyphs" textLength="189" x="796" y="339.2573">processArg(std::uint32_t v) : void</text><rect fill="#F24D5C" height="6" style="stroke: #C82930; stroke-width: 1.0;" width="6" x="784" y="345.8516"/><text fill="#000000" font-family="sans-serif" font-size="11" lengthAdjust="spacingAndGlyphs" textLength="189" x="796" y="352.062">processArg(std::uint16_t v) : void</text><rect fill="#F24D5C" height="6" style="stroke: #C82930; stroke-width: 1.0;" width="6" x="784" y="358.6563"/><text fill="#000000" font-family="sans-serif" font-size="11" lengthAdjust="spacingAndGlyphs" textLength="182" x="796" y="364.8667">processArg(std::uint8_t v) : void</text><ellipse cx="787" cy="374.4609" fill="#84BE84" rx="3" ry="3" style="stroke: #038048; stroke-width: 1.0;"/><text fill="#000000" font-family="sans-serif" font-size="11" lengthAdjust="spacingAndGlyphs" textLength="162" x="796" y="377.6714">serialize() const : ByteBuffer</text><ellipse cx="787" cy="387.2656" fill="#84BE84" rx="3" ry="3" style="stroke: #038048; stroke-width: 1.0;"/><text fill="#000000" font-family="sans-serif" font-size="11" lengthAdjust="spacingAndGlyphs" textLength="245" x="796" y="390.4761">setData(ByteBuffer data) : FujiBusPacket &amp;</text><ellipse cx="787" cy="400.0703" fill="#84BE84" rx="3" ry="3" style="stroke: #038048; stroke-width: 1.0;"/><text fill="#000000" font-family="sans-serif" font-size="11" lengthAdjust="spacingAndGlyphs" textLength="358" x="796" y="403.2808">tryParamU8(unsigned int index, std::uint8_t &amp; out) const : bool</text><line style="stroke: #A80036; stroke-width: 1.5;" x1="777" x2="1273" y1="409.875" y2="409.875"/><rect fill="none" height="6" style="stroke: #C82930; stroke-width: 1.0;" width="6" x="784" y="417.875"/><text fill="#000000" font-family="sans-serif" font-size="11" lengthAdjust="spacingAndGlyphs" textLength="138" x="796" y="424.0854">_command : std::uint8_t</text><rect fill="none" height="6" style="stroke: #C82930; stroke-width: 1.0;" width="6" x="784" y="430.6797"/><text fill="#000000" font-family="sans-serif" font-size="11" lengthAdjust="spacingAndGlyphs" textLength="192" x="796" y="436.8901">_data : std::optional&lt;ByteBuffer&gt;</text><rect fill="none" height="6" style="stroke: #C82930; stroke-width: 1.0;" width="6" x="784" y="443.4844"/><text fill="#000000" font-family="sans-serif" font-size="11" lengthAdjust="spacingAndGlyphs" textLength="125" x="796" y="449.6948">_device : WireDeviceId</text><rect fill="none" height="6" style="stroke: #C82930; stroke-width: 1.0;" width="6" x="784" y="456.2891"/><text fill="#000000" font-family="sans-serif" font-size="11" lengthAdjust="spacingAndGlyphs" textLength="215" x="796" y="462.4995">_params : std::vector&lt;PacketParam&gt;</text><!--MD5=[c8c5170bff1e9023eb4a587b4387aedc]
class C_0009954510640382192371--><rect fill="#FEFECE" filter="url(#fqfnspbcbtewc)" height="112.0234" id="C_0009954510640382192371" style="stroke: #A80036; stroke-width: 1.5;" width="201" x="17.5" y="558.9531"/><ellipse cx="32.5" cy="574.9531" fill="#ADD1B2" rx="11" ry="11" style="stroke: #A80036; stroke-width: 1.0;"/><path d="M35.4688,580.5938 Q34.8906,580.8906 34.25,581.0313 Q33.6094,581.1875 32.9063,581.1875 Q30.4063,581.1875 29.0781,579.5469 Q27.7656,577.8906 27.7656,574.7656 Q27.7656,571.6406 29.0781,569.9844 Q30.4063,568.3281 32.9063,568.3281 Q33.6094,568.3281 34.25,568.4844 Q34.9063,568.6406 35.4688,568.9375 L35.4688,571.6563 Q34.8438,571.0781 34.25,570.8125 Q33.6563,570.5313 33.0313,570.5313 Q31.6875,570.5313 31,571.6094 Q30.3125,572.6719 30.3125,574.7656 Q30.3125,576.8594 31,577.9375 Q31.6875,579 33.0313,579 Q33.6563,579 34.25,578.7344 Q34.8438,578.4531 35.4688,577.875 L35.4688,580.5938 Z "/><text fill="#000000" font-family="sans-serif" font-size="12" lengthAdjust="spacingAndGlyphs" textLength="169" x="46.5" y="579.1074">io::protocol::FujiBusHeader</text><line style="stroke: #A80036; stroke-width: 1.5;" x1="18.5" x2="217.5" y1="590.9531" y2="590.9531"/><line style="stroke: #A80036; stroke-width: 1.5;" x1="18.5" x2="217.5" y1="598.9531" y2="598.9531"/><ellipse cx="28.5" cy="609.9531" fill="none" rx="3" ry="3" style="stroke: #038048; stroke-width: 1.0;"/><text fill="#000000" font-family="sans-serif" font-size="11" lengthAdjust="spacingAndGlyphs" textLength="133" x="37.5" y="613.1636">checksum : std::uint8_t</text><ellipse cx="28.5" cy="622.7578" fill="none" rx="3" ry="3" style="stroke: #038048; stroke-width: 1.0;"/><text fill="#000000" font-family="sans-serif" font-size="11" lengthAdjust="spacingAndGlyphs" textLength="132" x="37.5" y="625.9683">command : std::uint8_t</text><ellipse cx="28.5" cy="635.5625" fill="none" rx="3" ry="3" style="stroke: #038048; stroke-width: 1.0;"/><text fill="#000000" font-family="sans-serif" font-size="11" lengthAdjust="spacingAndGlyphs" textLength="108" x="37.5" y="638.7729">descr : std::uint8_t</text><ellipse cx="28.5" cy="648.3672" fill="none" rx="3" ry="3" style="stroke: #038048; stroke-width: 1.0;"/><text fill="#000000" font-family="sans-serif" font-size="11" lengthAdjust="spacingAndGlyphs" textLength="112" x="37.5" y="651.5776">device : std::uint8_t</text><ellipse cx="28.5" cy="661.1719" fill="none" rx="3" ry="3" style="stroke: #038048; stroke-width: 1.0;"/><text fill="#000000" font-family="sans-serif" font-size="11" lengthAdjust="spacingAndGlyphs" textLength="118" x="37.5" y="664.3823">length : std::uint16_t</text><!--MD5=[31e4023d9b1d3020446e90b4f7338295]
class C_0007123260493549580442--><rect fill="#FEFECE" filter="url(#fqfnspbcbtewc)" height="112.0234" id="C_0007123260493549580442" style="stroke: #A80036; stroke-width: 1.5;" width="202" x="254" y="558.9531"/><ellipse cx="269" cy="574.9531" fill="#EB937F" rx="11" ry="11" style="stroke: #A80036; stroke-width: 1.0;"/><path d="M273.1094,580.9531 L265.3906,580.9531 L265.3906,568.5625 L273.1094,568.5625 L273.1094,570.7188 L267.8438,570.7188 L267.8438,573.3906 L272.6094,573.3906 L272.6094,575.5469 L267.8438,575.5469 L267.8438,578.7969 L273.1094,578.7969 L273.1094,580.9531 Z "/><text fill="#000000" font-family="sans-serif" font-size="12" lengthAdjust="spacingAndGlyphs" textLength="170" x="283" y="579.1074">io::protocol::HostCommand</text><line style="stroke: #A80036; stroke-width: 1.5;" x1="255" x2="455" y1="590.9531" y2="590.9531"/><text fill="#000000" font-family="sans-serif" font-size="11" lengthAdjust="spacingAndGlyphs" textLength="63" x="260" y="605.1636">GetCurrent</text><text fill="#000000" font-family="sans-serif" font-size="11" lengthAdjust="spacingAndGlyphs" textLength="62" x="260" y="617.9683">SetCurrent</text><text fill="#000000" font-family="sans-serif" font-size="11" lengthAdjust="spacingAndGlyphs" textLength="60" x="260" y="630.7729">ListHistory</text><text fill="#000000" font-family="sans-serif" font-size="11" lengthAdjust="spacingAndGlyphs" textLength="75" x="260" y="643.5776">SelectHistory</text><text fill="#000000" font-family="sans-serif" font-size="11" lengthAdjust="spacingAndGlyphs" textLength="76" x="260" y="656.3823">DeleteHistory</text><line style="stroke: #A80036; stroke-width: 1.5;" x1="255" x2="455" y1="662.9766" y2="662.9766"/><!--MD5=[cb314516d6ddc798f7f1bd1d56576700]
class C_0010997942004027913014--><rect fill="#FEFECE" filter="url(#fqfnspbcbtewc)" height="99.2188" id="C_0010997942004027913014" style="stroke: #A80036; stroke-width: 1.5;" width="218" x="491" y="565.4531"/><ellipse cx="506" cy="581.4531" fill="#EB937F" rx="11" ry="11" style="stroke: #A80036; stroke-width: 1.0;"/><path d="M510.1094,587.4531 L502.3906,587.4531 L502.3906,575.0625 L510.1094,575.0625 L510.1094,577.2188 L504.8438,577.2188 L504.8438,579.8906 L509.6094,579.8906 L509.6094,582.0469 L504.8438,582.0469 L504.8438,585.2969 L510.1094,585.2969 L510.1094,587.4531 Z "/><text fill="#000000" font-family="sans-serif" font-size="12" lengthAdjust="spacingAndGlyphs" textLength="186" x="520" y="585.6074">io::protocol::ModemCommand</text><line style="stroke: #A80036; stroke-width: 1.5;" x1="492" x2="708" y1="597.4531" y2="597.4531"/><text fill="#000000" font-family="sans-serif" font-size="11" lengthAdjust="spacingAndGlyphs" textLength="28" x="497" y="611.6636">Write</text><text fill="#000000" font-family="sans-serif" font-size="11" lengthAdjust="spacingAndGlyphs" textLength="28" x="497" y="624.4683">Read</text><text fill="#000000" font-family="sans-serif" font-size="11" lengthAdjust="spacingAndGlyphs" textLength="37" x="497" y="637.2729">Status</text><text fill="#000000" font-family="sans-serif" font-size="11" lengthAdjust="spacingAndGlyphs" textLength="41" x="497" y="650.0776">Control</text><line style="stroke: #A80036; stroke-width: 1.5;" x1="492" x2="708" y1="656.6719" y2="656.6719"/><!--MD5=[be25510d78858c14ac0642f996831e24]
class C_0007700754280455587098--><rect fill="#FEFECE" filter="url(#fqfnspbcbtewc)" height="137.6328" id="C_0007700754280455587098" style="stroke: #A80036; stroke-width: 1.5;" width="224" x="6" y="763.9531"/><ellipse cx="21" cy="779.9531" fill="#EB937F" rx="11" ry="11" style="stroke: #A80036; stroke-width: 1.0;"/><path d="M25.1094,785.9531 L17.3906,785.9531 L17.3906,773.5625 L25.1094,773.5625 L25.1094,775.7188 L19.8438,775.7188 L19.8438,778.3906 L24.6094,778.3906 L24.6094,780.5469 L19.8438,780.5469 L19.8438,783.7969 L25.1094,783.7969 L25.1094,785.9531 Z "/><text fill="#000000" font-family="sans-serif" font-size="12" lengthAdjust="spacingAndGlyphs" textLength="192" x="35" y="784.1074">io::protocol::NetworkCommand</text><line style="stroke: #A80036; stroke-width: 1.5;" x1="7" x2="229" y1="795.9531" y2="795.9531"/><text fill="#000000" font-family="sans-serif" font-size="11" lengthAdjust="spacingAndGlyphs" textLength="30" x="12" y="810.1636">Open</text><text fill="#000000" font-family="sans-serif" font-size="11" lengthAdjust="spacingAndGlyphs" textLength="28" x="12" y="822.9683">Read</text><text fill="#000000" font-family="sans-serif" font-size="11" lengthAdjust="spacingAndGlyphs" textLength="28" x="12" y="835.7729">Write</text><text fill="#000000" font-family="sans-serif" font-size="11" lengthAdjust="spacingAndGlyphs" textLength="32" x="12" y="848.5776">Close</text><text fill="#000000" font-family="sans-serif" font-size="11" lengthAdjust="spacingAndGlyphs" textLength="21" x="12" y="861.3823">Info</text><text fill="#000000" font-family="sans-serif" font-size="11" lengthAdjust="spacingAndGlyphs" textLength="49" x="12" y="874.187">InfoRead</text><text fill="#000000" font-family="sans-serif" font-size="11" lengthAdjust="spacingAndGlyphs" textLength="109" x="12" y="886.9917">TranslateConfigure</text><line style="stroke: #A80036; stroke-width: 1.5;" x1="7" x2="229" y1="893.5859" y2="893.5859"/><!--MD5=[300a4d773173d5b8caf27f723ff28295]
class C_0003895064208135060769--><rect fill="#FEFECE" filter="url(#fqfnspbcbtewc)" height="176.0469" id="C_0003895064208135060769" style="stroke: #A80036; stroke-width: 1.5;" width="194" x="265" y="744.9531"/><ellipse cx="280" cy="760.9531" fill="#EB937F" rx="11" ry="11" style="stroke: #A80036; stroke-width: 1.0;"/><path d="M284.1094,766.9531 L276.3906,766.9531 L276.3906,754.5625 L284.1094,754.5625 L284.1094,756.7188 L278.8438,756.7188 L278.8438,759.3906 L283.6094,759.3906 L283.6094,761.5469 L278.8438,761.5469 L278.8438,764.7969 L284.1094,764.7969 L284.1094,766.9531 Z "/><text fill="#000000" font-family="sans-serif" font-size="12" lengthAdjust="spacingAndGlyphs" textLength="162" x="294" y="765.1074">io::protocol::FileCommand</text><line style="stroke: #A80036; stroke-width: 1.5;" x1="266" x2="458" y1="776.9531" y2="776.9531"/><text fill="#000000" font-family="sans-serif" font-size="11" lengthAdjust="spacingAndGlyphs" textLength="23" x="271" y="791.1636">Stat</text><text fill="#000000" font-family="sans-serif" font-size="11" lengthAdjust="spacingAndGlyphs" textLength="71" x="271" y="803.9683">ListDirectory</text><text fill="#000000" font-family="sans-serif" font-size="11" lengthAdjust="spacingAndGlyphs" textLength="47" x="271" y="816.7729">ReadFile</text><text fill="#000000" font-family="sans-serif" font-size="11" lengthAdjust="spacingAndGlyphs" textLength="47" x="271" y="829.5776">WriteFile</text><text fill="#000000" font-family="sans-serif" font-size="11" lengthAdjust="spacingAndGlyphs" textLength="80" x="271" y="842.3823">MakeDirectory</text><text fill="#000000" font-family="sans-serif" font-size="11" lengthAdjust="spacingAndGlyphs" textLength="75" x="271" y="855.187">AppStoreStat</text><text fill="#000000" font-family="sans-serif" font-size="11" lengthAdjust="spacingAndGlyphs" textLength="80" x="271" y="867.9917">AppStoreRead</text><text fill="#000000" font-family="sans-serif" font-size="11" lengthAdjust="spacingAndGlyphs" textLength="80" x="271" y="880.7964">AppStoreWrite</text><text fill="#000000" font-family="sans-serif" font-size="11" lengthAdjust="spacingAndGlyphs" textLength="88" x="271" y="893.6011">AppStoreDelete</text><text fill="#000000" font-family="sans-serif" font-size="11" lengthAdjust="spacingAndGlyphs" textLength="72" x="271" y="906.4058">AppStoreList</text><line style="stroke: #A80036; stroke-width: 1.5;" x1="266" x2="458" y1="913" y2="913"/><!--MD5=[7015635e4296b2847478ac1955dfb845]
reverse link C_0017232777488057089840 to C_0015225225004340369839--><path d="M907.11,480.6531 C895.12,504.1231 883.72,526.4331 873.8,545.8431 " fill="none" id="C_0017232777488057089840&lt;-C_0015225225004340369839" style="stroke: #A80036; stroke-width: 1.0;"/><polygon fill="#FFFFFF" points="913.05,469.0431,906.7576,472.5653,907.5887,479.7283,913.8811,476.2062,913.05,469.0431" style="stroke: #A80036; stroke-width: 1.0;"/><rect fill="none" height="6" style="stroke: #C82930; stroke-width: 1.0;" width="6" x="897" y="505.0195"/><text fill="#000000" font-family="sans-serif" font-size="13" lengthAdjust="spacingAndGlyphs" textLength="48" x="907" y="512.02">_device</text><!--MD5=[f47f967b175eade81981f12930178d3b]
reverse link C_0017232777488057089840 to C_0003277087640557799971--><path d="M1087.38,481.6531 C1095.84,513.0631 1103.72,542.3331 1109.9,565.3131 " fill="none" id="C_0017232777488057089840&lt;-C_0003277087640557799971" style="stroke: #A80036; stroke-width: 1.0;"/><polygon fill="#FFFFFF" points="1083.99,469.0431,1081.6899,475.8776,1087.1139,480.6294,1089.414,473.7949,1083.99,469.0431" style="stroke: #A80036; stroke-width: 1.0;"/><rect fill="none" height="6" style="stroke: #C82930; stroke-width: 1.0;" width="6" x="1098" y="505.0195"/><text fill="#000000" font-family="sans-serif" font-size="13" lengthAdjust="spacingAndGlyphs" textLength="56" x="1108" y="512.02">_params</text><!--MD5=[d0e94fb2de58c81424a917c80cacdfb6]
link C_0015699043703645047876 to C_0004628219160953719395--><!--MD5=[926ff527477b43627f623b841fada153]
link C_0004628219160953719395 to C_0010627602090167488081--><!--MD5=[d0f49f61ddcae82575e7b4711fd7b783]
link C_0015699043703645047876 to C_0009954510640382192371--><!--MD5=[eaac9754fe6e10e2eb5648bb3bcf86de]
link C_0009954510640382192371 to C_0007123260493549580442--><!--MD5=[77e56d340cf17ef74082a88201ecede1]
link C_0007123260493549580442 to C_0010997942004027913014--><!--MD5=[9f50a0313246774be6a9bbf2fc7a9164]
link C_0009954510640382192371 to C_0007700754280455587098--><!--MD5=[bc2390828338c45b68b5b20102a5148b]
link C_0007700754280455587098 to C_0003895064208135060769--><!--MD5=[448c7309a42fb04fb772ca5d3f08a420]
@startuml
title IO Protocols (auto-gen from clang-uml)
enum "io::protocol::WireDeviceId" as C_0015225225004340369839
enum C_0015225225004340369839 {
FujiNet
Clock
HostService
ModemService
DiskService
NetworkService
FileService
}
enum "io::protocol::DiskCommand" as C_0015699043703645047876
enum C_0015699043703645047876 {
Mount
Unmount
ReadSector
WriteSector
Info
ClearChanged
Create
ReadSectors
WriteSectors
RestoreBoot
BeginHostSession
}
enum "io::protocol::FujiCommand" as C_0004628219160953719395
enum C_0004628219160953719395 {
Reset
GetSsid
GetMounts
SetMount
GetMount
}
enum "io::protocol::SlipByte" as C_0010627602090167488081
enum C_0010627602090167488081 {
End
Escape
EscEnd
EscEsc
}
class "io::protocol::PacketParam" as C_0003277087640557799971
class C_0003277087640557799971 {
+PacketParam(std::uint32_t v, std::uint8_t s) : void
+PacketParam<T>(T v) : void
__
+size : std::uint8_t
+value : std::uint32_t
}
class "io::protocol::FujiBusPacket" as C_0017232777488057089840
class C_0017232777488057089840 {
+FujiBusPacket() = default : void
+FujiBusPacket<Args...>(WireDeviceId dev, std::uint8_t cmd, Args &&... args) : void
..
+addParamU16(std::uint16_t v) : FujiBusPacket &
+addParamU32(std::uint32_t v) : FujiBusPacket &
+addParamU8(std::uint8_t v) : FujiBusPacket &
-calcChecksum(const ByteBuffer & buf) const : std::uint8_t
+clearData() : FujiBusPacket &
+command() const : std::uint8_t
+data() const : const std::optional<ByteBuffer> &
+dataAsString() const : std::optional<std::string>
-decodeSLIP(const ByteBuffer & input) const : ByteBuffer
+device() const : WireDeviceId
-encodeSLIP(const ByteBuffer & input) const : ByteBuffer
{static} +fromSerialized(const ByteBuffer & input) : std::unique_ptr<FujiBusPacket>
+param(unsigned int index) const : std::uint32_t
+paramCount() const : unsigned int
-parse(const ByteBuffer & input) : bool
-processArg(const std::string & s) : void
-processArg(ByteBuffer && buf) : void
-processArg(const ByteBuffer & buf) : void
-processArg(std::uint32_t v) : void
-processArg(std::uint16_t v) : void
-processArg(std::uint8_t v) : void
+serialize() const : ByteBuffer
+setData(ByteBuffer data) : FujiBusPacket &
+tryParamU8(unsigned int index, std::uint8_t & out) const : bool
__
-_command : std::uint8_t
-_data : std::optional<ByteBuffer>
-_device : WireDeviceId
-_params : std::vector<PacketParam>
}
class "io::protocol::FujiBusHeader" as C_0009954510640382192371
class C_0009954510640382192371 {
__
+checksum : std::uint8_t
+command : std::uint8_t
+descr : std::uint8_t
+device : std::uint8_t
+length : std::uint16_t
}
enum "io::protocol::HostCommand" as C_0007123260493549580442
enum C_0007123260493549580442 {
GetCurrent
SetCurrent
ListHistory
SelectHistory
DeleteHistory
}
enum "io::protocol::ModemCommand" as C_0010997942004027913014
enum C_0010997942004027913014 {
Write
Read
Status
Control
}
enum "io::protocol::NetworkCommand" as C_0007700754280455587098
enum C_0007700754280455587098 {
Open
Read
Write
Close
Info
InfoRead
TranslateConfigure
}
enum "io::protocol::FileCommand" as C_0003895064208135060769
enum C_0003895064208135060769 {
Stat
ListDirectory
ReadFile
WriteFile
MakeDirectory
AppStoreStat
AppStoreRead
AppStoreWrite
AppStoreDelete
AppStoreList
}
C_0017232777488057089840 o- - C_0015225225004340369839 : -_device
C_0017232777488057089840 o- - C_0003277087640557799971 : -_params

@enduml

PlantUML version 1.2020.02(Sun Mar 01 10:22:07 UTC 2020)
(GPL source distribution)
Java Runtime: OpenJDK Runtime Environment
JVM: OpenJDK 64-Bit Server VM
Java Version: 17.0.19+10
Operating System: Linux
Default Encoding: UTF-8
Language: en
Country: null
--></g></svg>