<?xml version="1.0" encoding="UTF-8" standalone="no"?><svg xmlns="http://www.w3.org/2000/svg" xmlns:xlink="http://www.w3.org/1999/xlink" contentScriptType="application/ecmascript" contentStyleType="text/css" height="867px" preserveAspectRatio="none" style="width:1282px;height:867px;" version="1.1" viewBox="0 0 1282 867" width="1282px" zoomAndPan="magnify"><defs><filter height="300%" id="fy0s3ogqtanpo" width="300%" x="-1" y="-1"><feGaussianBlur result="blurOut" stdDeviation="2.0"/><feColorMatrix in="blurOut" result="blurOut2" type="matrix" values="0 0 0 0 0 0 0 0 0 0 0 0 0 0 0 0 0 0 .4 0"/><feOffset dx="4.0" dy="4.0" in="blurOut2" result="blurOut3"/><feBlend in="SourceGraphic" in2="blurOut3" mode="normal"/></filter></defs><g><text fill="#000000" font-family="sans-serif" font-size="18" lengthAdjust="spacingAndGlyphs" textLength="346" x="472" y="16.708">IO Protocols (auto-gen from clang-uml)</text><!--MD5=[31061a5abc77c90cb479eaa4f6f83796]
class C_0015225225004340369839--><rect fill="#FEFECE" filter="url(#fy0s3ogqtanpo)" height="124.8281" id="C_0015225225004340369839" style="stroke: #A80036; stroke-width: 1.5;" width="190" x="729.5" y="552.4531"/><ellipse cx="744.5" cy="568.4531" fill="#EB937F" rx="11" ry="11" style="stroke: #A80036; stroke-width: 1.0;"/><path d="M748.6094,574.4531 L740.8906,574.4531 L740.8906,562.0625 L748.6094,562.0625 L748.6094,564.2188 L743.3438,564.2188 L743.3438,566.8906 L748.1094,566.8906 L748.1094,569.0469 L743.3438,569.0469 L743.3438,572.2969 L748.6094,572.2969 L748.6094,574.4531 Z "/><text fill="#000000" font-family="sans-serif" font-size="12" lengthAdjust="spacingAndGlyphs" textLength="158" x="758.5" y="572.6074">io::protocol::WireDeviceId</text><line style="stroke: #A80036; stroke-width: 1.5;" x1="730.5" x2="918.5" y1="584.4531" y2="584.4531"/><text fill="#000000" font-family="sans-serif" font-size="11" lengthAdjust="spacingAndGlyphs" textLength="38" x="735.5" y="598.6636">FujiNet</text><text fill="#000000" font-family="sans-serif" font-size="11" lengthAdjust="spacingAndGlyphs" textLength="30" x="735.5" y="611.4683">Clock</text><text fill="#000000" font-family="sans-serif" font-size="11" lengthAdjust="spacingAndGlyphs" textLength="83" x="735.5" y="624.2729">ModemService</text><text fill="#000000" font-family="sans-serif" font-size="11" lengthAdjust="spacingAndGlyphs" textLength="66" x="735.5" y="637.0776">DiskService</text><text fill="#000000" font-family="sans-serif" font-size="11" lengthAdjust="spacingAndGlyphs" textLength="88" x="735.5" y="649.8823">NetworkService</text><text fill="#000000" font-family="sans-serif" font-size="11" lengthAdjust="spacingAndGlyphs" textLength="61" x="735.5" y="662.687">FileService</text><line style="stroke: #A80036; stroke-width: 1.5;" x1="730.5" x2="918.5" y1="669.2813" y2="669.2813"/><!--MD5=[300a4d773173d5b8caf27f723ff28295]
class C_0003895064208135060769--><rect fill="#FEFECE" filter="url(#fy0s3ogqtanpo)" height="124.8281" id="C_0003895064208135060769" style="stroke: #A80036; stroke-width: 1.5;" width="194" x="9.5" y="186.4531"/><ellipse cx="24.5" cy="202.4531" fill="#EB937F" rx="11" ry="11" style="stroke: #A80036; stroke-width: 1.0;"/><path d="M28.6094,208.4531 L20.8906,208.4531 L20.8906,196.0625 L28.6094,196.0625 L28.6094,198.2188 L23.3438,198.2188 L23.3438,200.8906 L28.1094,200.8906 L28.1094,203.0469 L23.3438,203.0469 L23.3438,206.2969 L28.6094,206.2969 L28.6094,208.4531 Z "/><text fill="#000000" font-family="sans-serif" font-size="12" lengthAdjust="spacingAndGlyphs" textLength="162" x="38.5" y="206.6074">io::protocol::FileCommand</text><line style="stroke: #A80036; stroke-width: 1.5;" x1="10.5" x2="202.5" y1="218.4531" y2="218.4531"/><text fill="#000000" font-family="sans-serif" font-size="11" lengthAdjust="spacingAndGlyphs" textLength="23" x="15.5" y="232.6636">Stat</text><text fill="#000000" font-family="sans-serif" font-size="11" lengthAdjust="spacingAndGlyphs" textLength="71" x="15.5" y="245.4683">ListDirectory</text><text fill="#000000" font-family="sans-serif" font-size="11" lengthAdjust="spacingAndGlyphs" textLength="47" x="15.5" y="258.2729">ReadFile</text><text fill="#000000" font-family="sans-serif" font-size="11" lengthAdjust="spacingAndGlyphs" textLength="47" x="15.5" y="271.0776">WriteFile</text><text fill="#000000" font-family="sans-serif" font-size="11" lengthAdjust="spacingAndGlyphs" textLength="69" x="15.5" y="283.8823">ResolvePath</text><text fill="#000000" font-family="sans-serif" font-size="11" lengthAdjust="spacingAndGlyphs" textLength="80" x="15.5" y="296.687">MakeDirectory</text><line style="stroke: #A80036; stroke-width: 1.5;" x1="10.5" x2="202.5" y1="303.2813" y2="303.2813"/><!--MD5=[cb314516d6ddc798f7f1bd1d56576700]
class C_0010997942004027913014--><rect fill="#FEFECE" filter="url(#fy0s3ogqtanpo)" height="99.2188" id="C_0010997942004027913014" style="stroke: #A80036; stroke-width: 1.5;" width="218" x="238.5" y="199.4531"/><ellipse cx="253.5" cy="215.4531" fill="#EB937F" rx="11" ry="11" style="stroke: #A80036; stroke-width: 1.0;"/><path d="M257.6094,221.4531 L249.8906,221.4531 L249.8906,209.0625 L257.6094,209.0625 L257.6094,211.2188 L252.3438,211.2188 L252.3438,213.8906 L257.1094,213.8906 L257.1094,216.0469 L252.3438,216.0469 L252.3438,219.2969 L257.6094,219.2969 L257.6094,221.4531 Z "/><text fill="#000000" font-family="sans-serif" font-size="12" lengthAdjust="spacingAndGlyphs" textLength="186" x="267.5" y="219.6074">io::protocol::ModemCommand</text><line style="stroke: #A80036; stroke-width: 1.5;" x1="239.5" x2="455.5" y1="231.4531" y2="231.4531"/><text fill="#000000" font-family="sans-serif" font-size="11" lengthAdjust="spacingAndGlyphs" textLength="28" x="244.5" y="245.6636">Write</text><text fill="#000000" font-family="sans-serif" font-size="11" lengthAdjust="spacingAndGlyphs" textLength="28" x="244.5" y="258.4683">Read</text><text fill="#000000" font-family="sans-serif" font-size="11" lengthAdjust="spacingAndGlyphs" textLength="37" x="244.5" y="271.2729">Status</text><text fill="#000000" font-family="sans-serif" font-size="11" lengthAdjust="spacingAndGlyphs" textLength="41" x="244.5" y="284.0776">Control</text><line style="stroke: #A80036; stroke-width: 1.5;" x1="239.5" x2="455.5" y1="290.6719" y2="290.6719"/><!--MD5=[00589bb63b8d16bc46b4cc6055ae058f]
class C_0010627602090167488081--><rect fill="#FEFECE" filter="url(#fy0s3ogqtanpo)" height="99.2188" id="C_0010627602090167488081" style="stroke: #A80036; stroke-width: 1.5;" width="160" x="491.5" y="199.4531"/><ellipse cx="506.5" cy="215.4531" fill="#EB937F" rx="11" ry="11" style="stroke: #A80036; stroke-width: 1.0;"/><path d="M510.6094,221.4531 L502.8906,221.4531 L502.8906,209.0625 L510.6094,209.0625 L510.6094,211.2188 L505.3438,211.2188 L505.3438,213.8906 L510.1094,213.8906 L510.1094,216.0469 L505.3438,216.0469 L505.3438,219.2969 L510.6094,219.2969 L510.6094,221.4531 Z "/><text fill="#000000" font-family="sans-serif" font-size="12" lengthAdjust="spacingAndGlyphs" textLength="128" x="520.5" y="219.6074">io::protocol::SlipByte</text><line style="stroke: #A80036; stroke-width: 1.5;" x1="492.5" x2="650.5" y1="231.4531" y2="231.4531"/><text fill="#000000" font-family="sans-serif" font-size="11" lengthAdjust="spacingAndGlyphs" textLength="21" x="497.5" y="245.6636">End</text><text fill="#000000" font-family="sans-serif" font-size="11" lengthAdjust="spacingAndGlyphs" textLength="41" x="497.5" y="258.4683">Escape</text><text fill="#000000" font-family="sans-serif" font-size="11" lengthAdjust="spacingAndGlyphs" textLength="41" x="497.5" y="271.2729">EscEnd</text><text fill="#000000" font-family="sans-serif" font-size="11" lengthAdjust="spacingAndGlyphs" textLength="40" x="497.5" y="284.0776">EscEsc</text><line style="stroke: #A80036; stroke-width: 1.5;" x1="492.5" x2="650.5" y1="290.6719" y2="290.6719"/><!--MD5=[72d2c2714d5b439165c57447022afdec]
class C_0003277087640557799971--><rect fill="#FEFECE" filter="url(#fy0s3ogqtanpo)" height="99.2188" id="C_0003277087640557799971" style="stroke: #A80036; stroke-width: 1.5;" width="307" x="955" y="565.4531"/><ellipse cx="1023.25" cy="581.4531" fill="#ADD1B2" rx="11" ry="11" style="stroke: #A80036; stroke-width: 1.0;"/><path d="M1026.2188,587.0938 Q1025.6406,587.3906 1025,587.5313 Q1024.3594,587.6875 1023.6563,587.6875 Q1021.1563,587.6875 1019.8281,586.0469 Q1018.5156,584.3906 1018.5156,581.2656 Q1018.5156,578.1406 1019.8281,576.4844 Q1021.1563,574.8281 1023.6563,574.8281 Q1024.3594,574.8281 1025,574.9844 Q1025.6563,575.1406 1026.2188,575.4375 L1026.2188,578.1563 Q1025.5938,577.5781 1025,577.3125 Q1024.4063,577.0313 1023.7813,577.0313 Q1022.4375,577.0313 1021.75,578.1094 Q1021.0625,579.1719 1021.0625,581.2656 Q1021.0625,583.3594 1021.75,584.4375 Q1022.4375,585.5 1023.7813,585.5 Q1024.4063,585.5 1025,585.2344 Q1025.5938,584.9531 1026.2188,584.375 L1026.2188,587.0938 Z "/><text fill="#000000" font-family="sans-serif" font-size="12" lengthAdjust="spacingAndGlyphs" textLength="162" x="1043.75" y="585.6074">io::protocol::PacketParam</text><line style="stroke: #A80036; stroke-width: 1.5;" x1="956" x2="1261" y1="597.4531" y2="597.4531"/><ellipse cx="966" cy="608.4531" fill="#84BE84" rx="3" ry="3" style="stroke: #038048; stroke-width: 1.0;"/><text fill="#000000" font-family="sans-serif" font-size="11" lengthAdjust="spacingAndGlyphs" textLength="281" x="975" y="611.6636">PacketParam(std::uint32_t v, std::uint8_t s) : void</text><ellipse cx="966" cy="621.2578" fill="#84BE84" rx="3" ry="3" style="stroke: #038048; stroke-width: 1.0;"/><text fill="#000000" font-family="sans-serif" font-size="11" lengthAdjust="spacingAndGlyphs" textLength="159" x="975" y="624.4683">PacketParam&lt;T&gt;(T v) : void</text><line style="stroke: #A80036; stroke-width: 1.5;" x1="956" x2="1261" y1="631.0625" y2="631.0625"/><ellipse cx="966" cy="642.0625" fill="none" rx="3" ry="3" style="stroke: #038048; stroke-width: 1.0;"/><text fill="#000000" font-family="sans-serif" font-size="11" lengthAdjust="spacingAndGlyphs" textLength="98" x="975" y="645.2729">size : std::uint8_t</text><ellipse cx="966" cy="654.8672" fill="none" rx="3" ry="3" style="stroke: #038048; stroke-width: 1.0;"/><text fill="#000000" font-family="sans-serif" font-size="11" lengthAdjust="spacingAndGlyphs" textLength="113" x="975" y="658.0776">value : std::uint32_t</text><!--MD5=[a296b3227c73c67410f4977d15d780d7]
class C_0017232777488057089840--><rect fill="#FEFECE" filter="url(#fy0s3ogqtanpo)" height="440.1406" id="C_0017232777488057089840" style="stroke: #A80036; stroke-width: 1.5;" width="498" x="773.5" y="28.9531"/><ellipse cx="935.25" cy="44.9531" fill="#ADD1B2" rx="11" ry="11" style="stroke: #A80036; stroke-width: 1.0;"/><path d="M938.2188,50.5938 Q937.6406,50.8906 937,51.0313 Q936.3594,51.1875 935.6563,51.1875 Q933.1563,51.1875 931.8281,49.5469 Q930.5156,47.8906 930.5156,44.7656 Q930.5156,41.6406 931.8281,39.9844 Q933.1563,38.3281 935.6563,38.3281 Q936.3594,38.3281 937,38.4844 Q937.6563,38.6406 938.2188,38.9375 L938.2188,41.6563 Q937.5938,41.0781 937,40.8125 Q936.4063,40.5313 935.7813,40.5313 Q934.4375,40.5313 933.75,41.6094 Q933.0625,42.6719 933.0625,44.7656 Q933.0625,46.8594 933.75,47.9375 Q934.4375,49 935.7813,49 Q936.4063,49 937,48.7344 Q937.5938,48.4531 938.2188,47.875 L938.2188,50.5938 Z "/><text fill="#000000" font-family="sans-serif" font-size="12" lengthAdjust="spacingAndGlyphs" textLength="166" x="955.75" y="49.1074">io::protocol::FujiBusPacket</text><line style="stroke: #A80036; stroke-width: 1.5;" x1="774.5" x2="1270.5" y1="60.9531" y2="60.9531"/><ellipse cx="784.5" cy="71.9531" fill="#84BE84" rx="3" ry="3" style="stroke: #038048; stroke-width: 1.0;"/><text fill="#000000" font-family="sans-serif" font-size="11" lengthAdjust="spacingAndGlyphs" textLength="177" x="793.5" y="75.1636">FujiBusPacket() = default : void</text><ellipse cx="784.5" cy="84.7578" fill="#84BE84" rx="3" ry="3" style="stroke: #038048; stroke-width: 1.0;"/><text fill="#000000" font-family="sans-serif" font-size="11" lengthAdjust="spacingAndGlyphs" textLength="472" x="793.5" y="87.9683">FujiBusPacket&lt;Args...&gt;(WireDeviceId dev, std::uint8_t cmd, Args &amp;&amp;... args) : void</text><line style="stroke: #A80036; stroke-width: 1.0; stroke-dasharray: 1.0,2.0;" x1="774.5" x2="1270.5" y1="94.5625" y2="94.5625"/><ellipse cx="784.5" cy="105.5625" fill="#84BE84" rx="3" ry="3" style="stroke: #038048; stroke-width: 1.0;"/><text fill="#000000" font-family="sans-serif" font-size="11" lengthAdjust="spacingAndGlyphs" textLength="273" x="793.5" y="108.7729">addParamU16(std::uint16_t v) : FujiBusPacket &amp;</text><ellipse cx="784.5" cy="118.3672" fill="#84BE84" rx="3" ry="3" style="stroke: #038048; stroke-width: 1.0;"/><text fill="#000000" font-family="sans-serif" font-size="11" lengthAdjust="spacingAndGlyphs" textLength="273" x="793.5" y="121.5776">addParamU32(std::uint32_t v) : FujiBusPacket &amp;</text><ellipse cx="784.5" cy="131.1719" fill="#84BE84" rx="3" ry="3" style="stroke: #038048; stroke-width: 1.0;"/><text fill="#000000" font-family="sans-serif" font-size="11" lengthAdjust="spacingAndGlyphs" textLength="259" x="793.5" y="134.3823">addParamU8(std::uint8_t v) : FujiBusPacket &amp;</text><rect fill="#F24D5C" height="6" style="stroke: #C82930; stroke-width: 1.0;" width="6" x="781.5" y="140.9766"/><text fill="#000000" font-family="sans-serif" font-size="11" lengthAdjust="spacingAndGlyphs" textLength="331" x="793.5" y="147.187">calcChecksum(const ByteBuffer &amp; buf) const : std::uint8_t</text><ellipse cx="784.5" cy="156.7813" fill="#84BE84" rx="3" ry="3" style="stroke: #038048; stroke-width: 1.0;"/><text fill="#000000" font-family="sans-serif" font-size="11" lengthAdjust="spacingAndGlyphs" textLength="166" x="793.5" y="159.9917">clearData() : FujiBusPacket &amp;</text><ellipse cx="784.5" cy="169.5859" fill="#84BE84" rx="3" ry="3" style="stroke: #038048; stroke-width: 1.0;"/><text fill="#000000" font-family="sans-serif" font-size="11" lengthAdjust="spacingAndGlyphs" textLength="175" x="793.5" y="172.7964">command() const : std::uint8_t</text><ellipse cx="784.5" cy="182.3906" fill="#84BE84" rx="3" ry="3" style="stroke: #038048; stroke-width: 1.0;"/><text fill="#000000" font-family="sans-serif" font-size="11" lengthAdjust="spacingAndGlyphs" textLength="278" x="793.5" y="185.6011">data() const : const std::optional&lt;ByteBuffer&gt; &amp;</text><ellipse cx="784.5" cy="195.1953" fill="#84BE84" rx="3" ry="3" style="stroke: #038048; stroke-width: 1.0;"/><text fill="#000000" font-family="sans-serif" font-size="11" lengthAdjust="spacingAndGlyphs" textLength="276" x="793.5" y="198.4058">dataAsString() const : std::optional&lt;std::string&gt;</text><rect fill="#F24D5C" height="6" style="stroke: #C82930; stroke-width: 1.0;" width="6" x="781.5" y="205"/><text fill="#000000" font-family="sans-serif" font-size="11" lengthAdjust="spacingAndGlyphs" textLength="321" x="793.5" y="211.2104">decodeSLIP(const ByteBuffer &amp; input) const : ByteBuffer</text><ellipse cx="784.5" cy="220.8047" fill="#84BE84" rx="3" ry="3" style="stroke: #038048; stroke-width: 1.0;"/><text fill="#000000" font-family="sans-serif" font-size="11" lengthAdjust="spacingAndGlyphs" textLength="162" x="793.5" y="224.0151">device() const : WireDeviceId</text><rect fill="#F24D5C" height="6" style="stroke: #C82930; stroke-width: 1.0;" width="6" x="781.5" y="230.6094"/><text fill="#000000" font-family="sans-serif" font-size="11" lengthAdjust="spacingAndGlyphs" textLength="321" x="793.5" y="236.8198">encodeSLIP(const ByteBuffer &amp; input) const : ByteBuffer</text><ellipse cx="784.5" cy="246.4141" fill="#84BE84" rx="3" ry="3" style="stroke: #038048; stroke-width: 1.0;"/><text fill="#000000" font-family="sans-serif" font-size="11" lengthAdjust="spacingAndGlyphs" text-decoration="underline" textLength="425" x="793.5" y="249.6245">fromSerialized(const ByteBuffer &amp; input) : std::unique_ptr&lt;FujiBusPacket&gt;</text><ellipse cx="784.5" cy="259.2188" fill="#84BE84" rx="3" ry="3" style="stroke: #038048; stroke-width: 1.0;"/><text fill="#000000" font-family="sans-serif" font-size="11" lengthAdjust="spacingAndGlyphs" textLength="267" x="793.5" y="262.4292">param(unsigned int index) const : std::uint32_t</text><ellipse cx="784.5" cy="272.0234" fill="#84BE84" rx="3" ry="3" style="stroke: #038048; stroke-width: 1.0;"/><text fill="#000000" font-family="sans-serif" font-size="11" lengthAdjust="spacingAndGlyphs" textLength="195" x="793.5" y="275.2339">paramCount() const : unsigned int</text><rect fill="#F24D5C" height="6" style="stroke: #C82930; stroke-width: 1.0;" width="6" x="781.5" y="281.8281"/><text fill="#000000" font-family="sans-serif" font-size="11" lengthAdjust="spacingAndGlyphs" textLength="218" x="793.5" y="288.0386">parse(const ByteBuffer &amp; input) : bool</text><rect fill="#F24D5C" height="6" style="stroke: #C82930; stroke-width: 1.0;" width="6" x="781.5" y="294.6328"/><text fill="#000000" font-family="sans-serif" font-size="11" lengthAdjust="spacingAndGlyphs" textLength="227" x="793.5" y="300.8433">processArg(const std::string &amp; s) : void</text><rect fill="#F24D5C" height="6" style="stroke: #C82930; stroke-width: 1.0;" width="6" x="781.5" y="307.4375"/><text fill="#000000" font-family="sans-serif" font-size="11" lengthAdjust="spacingAndGlyphs" textLength="214" x="793.5" y="313.6479">processArg(ByteBuffer &amp;&amp; buf) : void</text><rect fill="#F24D5C" height="6" style="stroke: #C82930; stroke-width: 1.0;" width="6" x="781.5" y="320.2422"/><text fill="#000000" font-family="sans-serif" font-size="11" lengthAdjust="spacingAndGlyphs" textLength="239" x="793.5" y="326.4526">processArg(const ByteBuffer &amp; buf) : void</text><rect fill="#F24D5C" height="6" style="stroke: #C82930; stroke-width: 1.0;" width="6" x="781.5" y="333.0469"/><text fill="#000000" font-family="sans-serif" font-size="11" lengthAdjust="spacingAndGlyphs" textLength="189" x="793.5" y="339.2573">processArg(std::uint32_t v) : void</text><rect fill="#F24D5C" height="6" style="stroke: #C82930; stroke-width: 1.0;" width="6" x="781.5" y="345.8516"/><text fill="#000000" font-family="sans-serif" font-size="11" lengthAdjust="spacingAndGlyphs" textLength="189" x="793.5" y="352.062">processArg(std::uint16_t v) : void</text><rect fill="#F24D5C" height="6" style="stroke: #C82930; stroke-width: 1.0;" width="6" x="781.5" y="358.6563"/><text fill="#000000" font-family="sans-serif" font-size="11" lengthAdjust="spacingAndGlyphs" textLength="182" x="793.5" y="364.8667">processArg(std::uint8_t v) : void</text><ellipse cx="784.5" cy="374.4609" fill="#84BE84" rx="3" ry="3" style="stroke: #038048; stroke-width: 1.0;"/><text fill="#000000" font-family="sans-serif" font-size="11" lengthAdjust="spacingAndGlyphs" textLength="162" x="793.5" y="377.6714">serialize() const : ByteBuffer</text><ellipse cx="784.5" cy="387.2656" fill="#84BE84" rx="3" ry="3" style="stroke: #038048; stroke-width: 1.0;"/><text fill="#000000" font-family="sans-serif" font-size="11" lengthAdjust="spacingAndGlyphs" textLength="245" x="793.5" y="390.4761">setData(ByteBuffer data) : FujiBusPacket &amp;</text><ellipse cx="784.5" cy="400.0703" fill="#84BE84" rx="3" ry="3" style="stroke: #038048; stroke-width: 1.0;"/><text fill="#000000" font-family="sans-serif" font-size="11" lengthAdjust="spacingAndGlyphs" textLength="358" x="793.5" y="403.2808">tryParamU8(unsigned int index, std::uint8_t &amp; out) const : bool</text><line style="stroke: #A80036; stroke-width: 1.5;" x1="774.5" x2="1270.5" y1="409.875" y2="409.875"/><rect fill="none" height="6" style="stroke: #C82930; stroke-width: 1.0;" width="6" x="781.5" y="417.875"/><text fill="#000000" font-family="sans-serif" font-size="11" lengthAdjust="spacingAndGlyphs" textLength="138" x="793.5" y="424.0854">_command : std::uint8_t</text><rect fill="none" height="6" style="stroke: #C82930; stroke-width: 1.0;" width="6" x="781.5" y="430.6797"/><text fill="#000000" font-family="sans-serif" font-size="11" lengthAdjust="spacingAndGlyphs" textLength="192" x="793.5" y="436.8901">_data : std::optional&lt;ByteBuffer&gt;</text><rect fill="none" height="6" style="stroke: #C82930; stroke-width: 1.0;" width="6" x="781.5" y="443.4844"/><text fill="#000000" font-family="sans-serif" font-size="11" lengthAdjust="spacingAndGlyphs" textLength="125" x="793.5" y="449.6948">_device : WireDeviceId</text><rect fill="none" height="6" style="stroke: #C82930; stroke-width: 1.0;" width="6" x="781.5" y="456.2891"/><text fill="#000000" font-family="sans-serif" font-size="11" lengthAdjust="spacingAndGlyphs" textLength="215" x="793.5" y="462.4995">_params : std::vector&lt;PacketParam&gt;</text><!--MD5=[9842c50a11ef1af3dcd3a820eb5cd4d4]
class C_0015699043703645047876--><rect fill="#FEFECE" filter="url(#fy0s3ogqtanpo)" height="137.6328" id="C_0015699043703645047876" style="stroke: #A80036; stroke-width: 1.5;" width="199" x="7" y="545.9531"/><ellipse cx="22" cy="561.9531" fill="#EB937F" rx="11" ry="11" style="stroke: #A80036; stroke-width: 1.0;"/><path d="M26.1094,567.9531 L18.3906,567.9531 L18.3906,555.5625 L26.1094,555.5625 L26.1094,557.7188 L20.8438,557.7188 L20.8438,560.3906 L25.6094,560.3906 L25.6094,562.5469 L20.8438,562.5469 L20.8438,565.7969 L26.1094,565.7969 L26.1094,567.9531 Z "/><text fill="#000000" font-family="sans-serif" font-size="12" lengthAdjust="spacingAndGlyphs" textLength="167" x="36" y="566.1074">io::protocol::DiskCommand</text><line style="stroke: #A80036; stroke-width: 1.5;" x1="8" x2="205" y1="577.9531" y2="577.9531"/><text fill="#000000" font-family="sans-serif" font-size="11" lengthAdjust="spacingAndGlyphs" textLength="34" x="13" y="592.1636">Mount</text><text fill="#000000" font-family="sans-serif" font-size="11" lengthAdjust="spacingAndGlyphs" textLength="51" x="13" y="604.9683">Unmount</text><text fill="#000000" font-family="sans-serif" font-size="11" lengthAdjust="spacingAndGlyphs" textLength="65" x="13" y="617.7729">ReadSector</text><text fill="#000000" font-family="sans-serif" font-size="11" lengthAdjust="spacingAndGlyphs" textLength="65" x="13" y="630.5776">WriteSector</text><text fill="#000000" font-family="sans-serif" font-size="11" lengthAdjust="spacingAndGlyphs" textLength="21" x="13" y="643.3823">Info</text><text fill="#000000" font-family="sans-serif" font-size="11" lengthAdjust="spacingAndGlyphs" textLength="80" x="13" y="656.187">ClearChanged</text><text fill="#000000" font-family="sans-serif" font-size="11" lengthAdjust="spacingAndGlyphs" textLength="38" x="13" y="668.9917">Create</text><line style="stroke: #A80036; stroke-width: 1.5;" x1="8" x2="205" y1="675.5859" y2="675.5859"/><!--MD5=[be25510d78858c14ac0642f996831e24]
class C_0007700754280455587098--><rect fill="#FEFECE" filter="url(#fy0s3ogqtanpo)" height="124.8281" id="C_0007700754280455587098" style="stroke: #A80036; stroke-width: 1.5;" width="224" x="241.5" y="552.4531"/><ellipse cx="256.5" cy="568.4531" fill="#EB937F" rx="11" ry="11" style="stroke: #A80036; stroke-width: 1.0;"/><path d="M260.6094,574.4531 L252.8906,574.4531 L252.8906,562.0625 L260.6094,562.0625 L260.6094,564.2188 L255.3438,564.2188 L255.3438,566.8906 L260.1094,566.8906 L260.1094,569.0469 L255.3438,569.0469 L255.3438,572.2969 L260.6094,572.2969 L260.6094,574.4531 Z "/><text fill="#000000" font-family="sans-serif" font-size="12" lengthAdjust="spacingAndGlyphs" textLength="192" x="270.5" y="572.6074">io::protocol::NetworkCommand</text><line style="stroke: #A80036; stroke-width: 1.5;" x1="242.5" x2="464.5" y1="584.4531" y2="584.4531"/><text fill="#000000" font-family="sans-serif" font-size="11" lengthAdjust="spacingAndGlyphs" textLength="30" x="247.5" y="598.6636">Open</text><text fill="#000000" font-family="sans-serif" font-size="11" lengthAdjust="spacingAndGlyphs" textLength="28" x="247.5" y="611.4683">Read</text><text fill="#000000" font-family="sans-serif" font-size="11" lengthAdjust="spacingAndGlyphs" textLength="28" x="247.5" y="624.2729">Write</text><text fill="#000000" font-family="sans-serif" font-size="11" lengthAdjust="spacingAndGlyphs" textLength="32" x="247.5" y="637.0776">Close</text><text fill="#000000" font-family="sans-serif" font-size="11" lengthAdjust="spacingAndGlyphs" textLength="21" x="247.5" y="649.8823">Info</text><text fill="#000000" font-family="sans-serif" font-size="11" lengthAdjust="spacingAndGlyphs" textLength="49" x="247.5" y="662.687">InfoRead</text><line style="stroke: #A80036; stroke-width: 1.5;" x1="242.5" x2="464.5" y1="669.2813" y2="669.2813"/><!--MD5=[addcdd6b4528a1d851ee81289eb82bbc]
class C_0004628219160953719395--><rect fill="#FEFECE" filter="url(#fy0s3ogqtanpo)" height="112.0234" id="C_0004628219160953719395" style="stroke: #A80036; stroke-width: 1.5;" width="194" x="500.5" y="558.9531"/><ellipse cx="515.5" cy="574.9531" fill="#EB937F" rx="11" ry="11" style="stroke: #A80036; stroke-width: 1.0;"/><path d="M519.6094,580.9531 L511.8906,580.9531 L511.8906,568.5625 L519.6094,568.5625 L519.6094,570.7188 L514.3438,570.7188 L514.3438,573.3906 L519.1094,573.3906 L519.1094,575.5469 L514.3438,575.5469 L514.3438,578.7969 L519.6094,578.7969 L519.6094,580.9531 Z "/><text fill="#000000" font-family="sans-serif" font-size="12" lengthAdjust="spacingAndGlyphs" textLength="162" x="529.5" y="579.1074">io::protocol::FujiCommand</text><line style="stroke: #A80036; stroke-width: 1.5;" x1="501.5" x2="693.5" y1="590.9531" y2="590.9531"/><text fill="#000000" font-family="sans-serif" font-size="11" lengthAdjust="spacingAndGlyphs" textLength="32" x="506.5" y="605.1636">Reset</text><text fill="#000000" font-family="sans-serif" font-size="11" lengthAdjust="spacingAndGlyphs" textLength="45" x="506.5" y="617.9683">GetSsid</text><text fill="#000000" font-family="sans-serif" font-size="11" lengthAdjust="spacingAndGlyphs" textLength="61" x="506.5" y="630.7729">GetMounts</text><text fill="#000000" font-family="sans-serif" font-size="11" lengthAdjust="spacingAndGlyphs" textLength="53" x="506.5" y="643.5776">SetMount</text><text fill="#000000" font-family="sans-serif" font-size="11" lengthAdjust="spacingAndGlyphs" textLength="54" x="506.5" y="656.3823">GetMount</text><line style="stroke: #A80036; stroke-width: 1.5;" x1="501.5" x2="693.5" y1="662.9766" y2="662.9766"/><!--MD5=[c8c5170bff1e9023eb4a587b4387aedc]
class C_0009954510640382192371--><rect fill="#FEFECE" filter="url(#fy0s3ogqtanpo)" height="112.0234" id="C_0009954510640382192371" style="stroke: #A80036; stroke-width: 1.5;" width="201" x="6" y="744.9531"/><ellipse cx="21" cy="760.9531" fill="#ADD1B2" rx="11" ry="11" style="stroke: #A80036; stroke-width: 1.0;"/><path d="M23.9688,766.5938 Q23.3906,766.8906 22.75,767.0313 Q22.1094,767.1875 21.4063,767.1875 Q18.9063,767.1875 17.5781,765.5469 Q16.2656,763.8906 16.2656,760.7656 Q16.2656,757.6406 17.5781,755.9844 Q18.9063,754.3281 21.4063,754.3281 Q22.1094,754.3281 22.75,754.4844 Q23.4063,754.6406 23.9688,754.9375 L23.9688,757.6563 Q23.3438,757.0781 22.75,756.8125 Q22.1563,756.5313 21.5313,756.5313 Q20.1875,756.5313 19.5,757.6094 Q18.8125,758.6719 18.8125,760.7656 Q18.8125,762.8594 19.5,763.9375 Q20.1875,765 21.5313,765 Q22.1563,765 22.75,764.7344 Q23.3438,764.4531 23.9688,763.875 L23.9688,766.5938 Z "/><text fill="#000000" font-family="sans-serif" font-size="12" lengthAdjust="spacingAndGlyphs" textLength="169" x="35" y="765.1074">io::protocol::FujiBusHeader</text><line style="stroke: #A80036; stroke-width: 1.5;" x1="7" x2="206" y1="776.9531" y2="776.9531"/><line style="stroke: #A80036; stroke-width: 1.5;" x1="7" x2="206" y1="784.9531" y2="784.9531"/><ellipse cx="17" cy="795.9531" fill="none" rx="3" ry="3" style="stroke: #038048; stroke-width: 1.0;"/><text fill="#000000" font-family="sans-serif" font-size="11" lengthAdjust="spacingAndGlyphs" textLength="133" x="26" y="799.1636">checksum : std::uint8_t</text><ellipse cx="17" cy="808.7578" fill="none" rx="3" ry="3" style="stroke: #038048; stroke-width: 1.0;"/><text fill="#000000" font-family="sans-serif" font-size="11" lengthAdjust="spacingAndGlyphs" textLength="132" x="26" y="811.9683">command : std::uint8_t</text><ellipse cx="17" cy="821.5625" fill="none" rx="3" ry="3" style="stroke: #038048; stroke-width: 1.0;"/><text fill="#000000" font-family="sans-serif" font-size="11" lengthAdjust="spacingAndGlyphs" textLength="108" x="26" y="824.7729">descr : std::uint8_t</text><ellipse cx="17" cy="834.3672" fill="none" rx="3" ry="3" style="stroke: #038048; stroke-width: 1.0;"/><text fill="#000000" font-family="sans-serif" font-size="11" lengthAdjust="spacingAndGlyphs" textLength="112" x="26" y="837.5776">device : std::uint8_t</text><ellipse cx="17" cy="847.1719" fill="none" rx="3" ry="3" style="stroke: #038048; stroke-width: 1.0;"/><text fill="#000000" font-family="sans-serif" font-size="11" lengthAdjust="spacingAndGlyphs" textLength="118" x="26" y="850.3823">length : std::uint16_t</text><!--MD5=[7015635e4296b2847478ac1955dfb845]
reverse link C_0017232777488057089840 to C_0015225225004340369839--><path d="M896.97,480.7231 C882.76,506.8431 869.34,531.5131 858,552.3631 " fill="none" id="C_0017232777488057089840&lt;-C_0015225225004340369839" style="stroke: #A80036; stroke-width: 1.0;"/><polygon fill="#FFFFFF" points="903.32,469.0431,896.9397,472.4035,897.5876,479.5854,903.9679,476.2251,903.32,469.0431" style="stroke: #A80036; stroke-width: 1.0;"/><rect fill="none" height="6" style="stroke: #C82930; stroke-width: 1.0;" width="6" x="886.5" y="505.0195"/><text fill="#000000" font-family="sans-serif" font-size="13" lengthAdjust="spacingAndGlyphs" textLength="48" x="896.5" y="512.02">_device</text><!--MD5=[f47f967b175eade81981f12930178d3b]
reverse link C_0017232777488057089840 to C_0003277087640557799971--><path d="M1077.34,482.0731 C1084.72,513.3231 1091.6,542.4331 1097.01,565.3131 " fill="none" id="C_0017232777488057089840&lt;-C_0003277087640557799971" style="stroke: #A80036; stroke-width: 1.0;"/><polygon fill="#FFFFFF" points="1074.26,469.0431,1071.7444,475.8012,1077.0151,480.7226,1079.5307,473.9645,1074.26,469.0431" style="stroke: #A80036; stroke-width: 1.0;"/><rect fill="none" height="6" style="stroke: #C82930; stroke-width: 1.0;" width="6" x="1086.5" y="505.0195"/><text fill="#000000" font-family="sans-serif" font-size="13" lengthAdjust="spacingAndGlyphs" textLength="56" x="1096.5" y="512.02">_params</text><!--MD5=[6db3a1d9b21de10721efc83acad2e247]
link C_0003895064208135060769 to C_0010997942004027913014--><!--MD5=[def5014347ef45a87eeb961674716b12]
link C_0010997942004027913014 to C_0010627602090167488081--><!--MD5=[a681d7e44db137b283ac52d63efd883b]
link C_0003895064208135060769 to C_0015699043703645047876--><!--MD5=[341385ab0e00c94b980c673abeab2529]
link C_0015699043703645047876 to C_0007700754280455587098--><!--MD5=[b785cc91cf693e19814202c523ac4cfb]
link C_0007700754280455587098 to C_0004628219160953719395--><!--MD5=[d0f49f61ddcae82575e7b4711fd7b783]
link C_0015699043703645047876 to C_0009954510640382192371--><!--MD5=[ea75278e782d53862ddacc9e10ac4a9a]
@startuml
title IO Protocols (auto-gen from clang-uml)
enum "io::protocol::WireDeviceId" as C_0015225225004340369839
enum C_0015225225004340369839 {
FujiNet
Clock
ModemService
DiskService
NetworkService
FileService
}
enum "io::protocol::FileCommand" as C_0003895064208135060769
enum C_0003895064208135060769 {
Stat
ListDirectory
ReadFile
WriteFile
ResolvePath
MakeDirectory
}
enum "io::protocol::ModemCommand" as C_0010997942004027913014
enum C_0010997942004027913014 {
Write
Read
Status
Control
}
enum "io::protocol::SlipByte" as C_0010627602090167488081
enum C_0010627602090167488081 {
End
Escape
EscEnd
EscEsc
}
class "io::protocol::PacketParam" as C_0003277087640557799971
class C_0003277087640557799971 {
+PacketParam(std::uint32_t v, std::uint8_t s) : void
+PacketParam<T>(T v) : void
__
+size : std::uint8_t
+value : std::uint32_t
}
class "io::protocol::FujiBusPacket" as C_0017232777488057089840
class C_0017232777488057089840 {
+FujiBusPacket() = default : void
+FujiBusPacket<Args...>(WireDeviceId dev, std::uint8_t cmd, Args &&... args) : void
..
+addParamU16(std::uint16_t v) : FujiBusPacket &
+addParamU32(std::uint32_t v) : FujiBusPacket &
+addParamU8(std::uint8_t v) : FujiBusPacket &
-calcChecksum(const ByteBuffer & buf) const : std::uint8_t
+clearData() : FujiBusPacket &
+command() const : std::uint8_t
+data() const : const std::optional<ByteBuffer> &
+dataAsString() const : std::optional<std::string>
-decodeSLIP(const ByteBuffer & input) const : ByteBuffer
+device() const : WireDeviceId
-encodeSLIP(const ByteBuffer & input) const : ByteBuffer
{static} +fromSerialized(const ByteBuffer & input) : std::unique_ptr<FujiBusPacket>
+param(unsigned int index) const : std::uint32_t
+paramCount() const : unsigned int
-parse(const ByteBuffer & input) : bool
-processArg(const std::string & s) : void
-processArg(ByteBuffer && buf) : void
-processArg(const ByteBuffer & buf) : void
-processArg(std::uint32_t v) : void
-processArg(std::uint16_t v) : void
-processArg(std::uint8_t v) : void
+serialize() const : ByteBuffer
+setData(ByteBuffer data) : FujiBusPacket &
+tryParamU8(unsigned int index, std::uint8_t & out) const : bool
__
-_command : std::uint8_t
-_data : std::optional<ByteBuffer>
-_device : WireDeviceId
-_params : std::vector<PacketParam>
}
enum "io::protocol::DiskCommand" as C_0015699043703645047876
enum C_0015699043703645047876 {
Mount
Unmount
ReadSector
WriteSector
Info
ClearChanged
Create
}
enum "io::protocol::NetworkCommand" as C_0007700754280455587098
enum C_0007700754280455587098 {
Open
Read
Write
Close
Info
InfoRead
}
enum "io::protocol::FujiCommand" as C_0004628219160953719395
enum C_0004628219160953719395 {
Reset
GetSsid
GetMounts
SetMount
GetMount
}
class "io::protocol::FujiBusHeader" as C_0009954510640382192371
class C_0009954510640382192371 {
__
+checksum : std::uint8_t
+command : std::uint8_t
+descr : std::uint8_t
+device : std::uint8_t
+length : std::uint16_t
}
C_0017232777488057089840 o- - C_0015225225004340369839 : -_device
C_0017232777488057089840 o- - C_0003277087640557799971 : -_params

@enduml

PlantUML version 1.2020.02(Sun Mar 01 10:22:07 UTC 2020)
(GPL source distribution)
Java Runtime: OpenJDK Runtime Environment
JVM: OpenJDK 64-Bit Server VM
Java Version: 17.0.18+8
Operating System: Linux
Default Encoding: UTF-8
Language: en
Country: null
--></g></svg>