<?xml version="1.0" encoding="UTF-8" standalone="no"?><svg xmlns="http://www.w3.org/2000/svg" xmlns:xlink="http://www.w3.org/1999/xlink" contentScriptType="application/ecmascript" contentStyleType="text/css" height="917px" preserveAspectRatio="none" style="width:1333px;height:917px;" version="1.1" viewBox="0 0 1333 917" width="1333px" zoomAndPan="magnify"><defs><filter height="300%" id="fxjlzw9uhugg" width="300%" x="-1" y="-1"><feGaussianBlur result="blurOut" stdDeviation="2.0"/><feColorMatrix in="blurOut" result="blurOut2" type="matrix" values="0 0 0 0 0 0 0 0 0 0 0 0 0 0 0 0 0 0 .4 0"/><feOffset dx="4.0" dy="4.0" in="blurOut2" result="blurOut3"/><feBlend in="SourceGraphic" in2="blurOut3" mode="normal"/></filter></defs><g><text fill="#000000" font-family="sans-serif" font-size="18" lengthAdjust="spacingAndGlyphs" textLength="296" x="522.5" y="16.708">Config (auto-gen from clang-uml)</text><!--MD5=[384905f6007a2512716830f04cb9729c]
class C_0012427176626669726738--><rect fill="#FEFECE" filter="url(#fxjlzw9uhugg)" height="99.2188" id="C_0012427176626669726738" style="stroke: #A80036; stroke-width: 1.5;" width="141" x="18.5" y="806.9531"/><ellipse cx="33.5" cy="822.9531" fill="#EB937F" rx="11" ry="11" style="stroke: #A80036; stroke-width: 1.0;"/><path d="M37.6094,828.9531 L29.8906,828.9531 L29.8906,816.5625 L37.6094,816.5625 L37.6094,818.7188 L32.3438,818.7188 L32.3438,821.3906 L37.1094,821.3906 L37.1094,823.5469 L32.3438,823.5469 L32.3438,826.7969 L37.6094,826.7969 L37.6094,828.9531 Z "/><text fill="#000000" font-family="sans-serif" font-size="12" lengthAdjust="spacingAndGlyphs" textLength="109" x="47.5" y="827.1074">config::BootMode</text><line style="stroke: #A80036; stroke-width: 1.5;" x1="19.5" x2="158.5" y1="838.9531" y2="838.9531"/><text fill="#000000" font-family="sans-serif" font-size="11" lengthAdjust="spacingAndGlyphs" textLength="41" x="24.5" y="853.1636">Normal</text><text fill="#000000" font-family="sans-serif" font-size="11" lengthAdjust="spacingAndGlyphs" textLength="36" x="24.5" y="865.9683">Config</text><text fill="#000000" font-family="sans-serif" font-size="11" lengthAdjust="spacingAndGlyphs" textLength="26" x="24.5" y="878.7729">Cpm</text><text fill="#000000" font-family="sans-serif" font-size="11" lengthAdjust="spacingAndGlyphs" textLength="51" x="24.5" y="891.5776">Unknown</text><line style="stroke: #A80036; stroke-width: 1.5;" x1="19.5" x2="158.5" y1="898.1719" y2="898.1719"/><!--MD5=[e666622668f091c6435c456a595a911e]
class C_0016837659718836839167--><rect fill="#FEFECE" filter="url(#fxjlzw9uhugg)" height="86.4141" id="C_0016837659718836839167" style="stroke: #A80036; stroke-width: 1.5;" width="166" x="6" y="630.9531"/><ellipse cx="21" cy="646.9531" fill="#ADD1B2" rx="11" ry="11" style="stroke: #A80036; stroke-width: 1.0;"/><path d="M23.9688,652.5938 Q23.3906,652.8906 22.75,653.0313 Q22.1094,653.1875 21.4063,653.1875 Q18.9063,653.1875 17.5781,651.5469 Q16.2656,649.8906 16.2656,646.7656 Q16.2656,643.6406 17.5781,641.9844 Q18.9063,640.3281 21.4063,640.3281 Q22.1094,640.3281 22.75,640.4844 Q23.4063,640.6406 23.9688,640.9375 L23.9688,643.6563 Q23.3438,643.0781 22.75,642.8125 Q22.1563,642.5313 21.5313,642.5313 Q20.1875,642.5313 19.5,643.6094 Q18.8125,644.6719 18.8125,646.7656 Q18.8125,648.8594 19.5,649.9375 Q20.1875,651 21.5313,651 Q22.1563,651 22.75,650.7344 Q23.3438,650.4531 23.9688,649.875 L23.9688,652.5938 Z "/><text fill="#000000" font-family="sans-serif" font-size="12" lengthAdjust="spacingAndGlyphs" textLength="134" x="35" y="651.1074">config::GeneralConfig</text><line style="stroke: #A80036; stroke-width: 1.5;" x1="7" x2="171" y1="662.9531" y2="662.9531"/><line style="stroke: #A80036; stroke-width: 1.5;" x1="7" x2="171" y1="670.9531" y2="670.9531"/><ellipse cx="17" cy="681.9531" fill="none" rx="3" ry="3" style="stroke: #038048; stroke-width: 1.0;"/><text fill="#000000" font-family="sans-serif" font-size="11" lengthAdjust="spacingAndGlyphs" textLength="140" x="26" y="685.1636">altConfigFile : std::string</text><ellipse cx="17" cy="694.7578" fill="none" rx="3" ry="3" style="stroke: #038048; stroke-width: 1.0;"/><text fill="#000000" font-family="sans-serif" font-size="11" lengthAdjust="spacingAndGlyphs" textLength="123" x="26" y="697.9683">bootMode : BootMode</text><ellipse cx="17" cy="707.5625" fill="none" rx="3" ry="3" style="stroke: #038048; stroke-width: 1.0;"/><text fill="#000000" font-family="sans-serif" font-size="11" lengthAdjust="spacingAndGlyphs" textLength="140" x="26" y="710.7729">deviceName : std::string</text><!--MD5=[33d2a0f1525207b31cd92e52db5e3e9d]
class C_0016905784937528219397--><rect fill="#FEFECE" filter="url(#fxjlzw9uhugg)" height="86.4141" id="C_0016905784937528219397" style="stroke: #A80036; stroke-width: 1.5;" width="165" x="207.5" y="630.9531"/><ellipse cx="234.65" cy="646.9531" fill="#ADD1B2" rx="11" ry="11" style="stroke: #A80036; stroke-width: 1.0;"/><path d="M237.6188,652.5938 Q237.0406,652.8906 236.4,653.0313 Q235.7594,653.1875 235.0563,653.1875 Q232.5563,653.1875 231.2281,651.5469 Q229.9156,649.8906 229.9156,646.7656 Q229.9156,643.6406 231.2281,641.9844 Q232.5563,640.3281 235.0563,640.3281 Q235.7594,640.3281 236.4,640.4844 Q237.0563,640.6406 237.6188,640.9375 L237.6188,643.6563 Q236.9938,643.0781 236.4,642.8125 Q235.8063,642.5313 235.1813,642.5313 Q233.8375,642.5313 233.15,643.6094 Q232.4625,644.6719 232.4625,646.7656 Q232.4625,648.8594 233.15,649.9375 Q233.8375,651 235.1813,651 Q235.8063,651 236.4,650.7344 Q236.9938,650.4531 237.6188,649.875 L237.6188,652.5938 Z "/><text fill="#000000" font-family="sans-serif" font-size="12" lengthAdjust="spacingAndGlyphs" textLength="106" x="251.35" y="651.1074">config::WifiConfig</text><line style="stroke: #A80036; stroke-width: 1.5;" x1="208.5" x2="371.5" y1="662.9531" y2="662.9531"/><line style="stroke: #A80036; stroke-width: 1.5;" x1="208.5" x2="371.5" y1="670.9531" y2="670.9531"/><ellipse cx="218.5" cy="681.9531" fill="none" rx="3" ry="3" style="stroke: #038048; stroke-width: 1.0;"/><text fill="#000000" font-family="sans-serif" font-size="11" lengthAdjust="spacingAndGlyphs" textLength="81" x="227.5" y="685.1636">enabled : bool</text><ellipse cx="218.5" cy="694.7578" fill="none" rx="3" ry="3" style="stroke: #038048; stroke-width: 1.0;"/><text fill="#000000" font-family="sans-serif" font-size="11" lengthAdjust="spacingAndGlyphs" textLength="139" x="227.5" y="697.9683">passphrase : std::string</text><ellipse cx="218.5" cy="707.5625" fill="none" rx="3" ry="3" style="stroke: #038048; stroke-width: 1.0;"/><text fill="#000000" font-family="sans-serif" font-size="11" lengthAdjust="spacingAndGlyphs" textLength="95" x="227.5" y="710.7729">ssid : std::string</text><!--MD5=[43aa4483b6ec11b1e02e0dfdbe714eb3]
class C_0000279772037409680357--><rect fill="#FEFECE" filter="url(#fxjlzw9uhugg)" height="86.4141" id="C_0000279772037409680357" style="stroke: #A80036; stroke-width: 1.5;" width="136" x="413" y="813.4531"/><ellipse cx="428" cy="829.4531" fill="#EB937F" rx="11" ry="11" style="stroke: #A80036; stroke-width: 1.0;"/><path d="M432.1094,835.4531 L424.3906,835.4531 L424.3906,823.0625 L432.1094,823.0625 L432.1094,825.2188 L426.8438,825.2188 L426.8438,827.8906 L431.6094,827.8906 L431.6094,830.0469 L426.8438,830.0469 L426.8438,833.2969 L432.1094,833.2969 L432.1094,835.4531 Z "/><text fill="#000000" font-family="sans-serif" font-size="12" lengthAdjust="spacingAndGlyphs" textLength="104" x="442" y="833.6074">config::HostType</text><line style="stroke: #A80036; stroke-width: 1.5;" x1="414" x2="548" y1="845.4531" y2="845.4531"/><text fill="#000000" font-family="sans-serif" font-size="11" lengthAdjust="spacingAndGlyphs" textLength="15" x="419" y="859.6636">Sd</text><text fill="#000000" font-family="sans-serif" font-size="11" lengthAdjust="spacingAndGlyphs" textLength="25" x="419" y="872.4683">Tnfs</text><text fill="#000000" font-family="sans-serif" font-size="11" lengthAdjust="spacingAndGlyphs" textLength="51" x="419" y="885.2729">Unknown</text><line style="stroke: #A80036; stroke-width: 1.5;" x1="414" x2="548" y1="891.8672" y2="891.8672"/><!--MD5=[ca77405837d279b3ec8a3179a33aa177]
class C_0006762991430694965068--><rect fill="#FEFECE" filter="url(#fxjlzw9uhugg)" height="112.0234" id="C_0006762991430694965068" style="stroke: #A80036; stroke-width: 1.5;" width="146" x="408" y="617.9531"/><ellipse cx="423" cy="633.9531" fill="#ADD1B2" rx="11" ry="11" style="stroke: #A80036; stroke-width: 1.0;"/><path d="M425.9688,639.5938 Q425.3906,639.8906 424.75,640.0313 Q424.1094,640.1875 423.4063,640.1875 Q420.9063,640.1875 419.5781,638.5469 Q418.2656,636.8906 418.2656,633.7656 Q418.2656,630.6406 419.5781,628.9844 Q420.9063,627.3281 423.4063,627.3281 Q424.1094,627.3281 424.75,627.4844 Q425.4063,627.6406 425.9688,627.9375 L425.9688,630.6563 Q425.3438,630.0781 424.75,629.8125 Q424.1563,629.5313 423.5313,629.5313 Q422.1875,629.5313 421.5,630.6094 Q420.8125,631.6719 420.8125,633.7656 Q420.8125,635.8594 421.5,636.9375 Q422.1875,638 423.5313,638 Q424.1563,638 424.75,637.7344 Q425.3438,637.4531 425.9688,636.875 L425.9688,639.5938 Z "/><text fill="#000000" font-family="sans-serif" font-size="12" lengthAdjust="spacingAndGlyphs" textLength="114" x="437" y="638.1074">config::HostConfig</text><line style="stroke: #A80036; stroke-width: 1.5;" x1="409" x2="553" y1="649.9531" y2="649.9531"/><line style="stroke: #A80036; stroke-width: 1.5;" x1="409" x2="553" y1="657.9531" y2="657.9531"/><ellipse cx="419" cy="668.9531" fill="none" rx="3" ry="3" style="stroke: #038048; stroke-width: 1.0;"/><text fill="#000000" font-family="sans-serif" font-size="11" lengthAdjust="spacingAndGlyphs" textLength="118" x="428" y="672.1636">address : std::string</text><ellipse cx="419" cy="681.7578" fill="none" rx="3" ry="3" style="stroke: #038048; stroke-width: 1.0;"/><text fill="#000000" font-family="sans-serif" font-size="11" lengthAdjust="spacingAndGlyphs" textLength="81" x="428" y="684.9683">enabled : bool</text><ellipse cx="419" cy="694.5625" fill="none" rx="3" ry="3" style="stroke: #038048; stroke-width: 1.0;"/><text fill="#000000" font-family="sans-serif" font-size="11" lengthAdjust="spacingAndGlyphs" textLength="36" x="428" y="697.7729">id : int</text><ellipse cx="419" cy="707.3672" fill="none" rx="3" ry="3" style="stroke: #038048; stroke-width: 1.0;"/><text fill="#000000" font-family="sans-serif" font-size="11" lengthAdjust="spacingAndGlyphs" textLength="103" x="428" y="710.5776">name : std::string</text><ellipse cx="419" cy="720.1719" fill="none" rx="3" ry="3" style="stroke: #038048; stroke-width: 1.0;"/><text fill="#000000" font-family="sans-serif" font-size="11" lengthAdjust="spacingAndGlyphs" textLength="89" x="428" y="723.3823">type : HostType</text><!--MD5=[f9b08b4b4aa15c5d4cf024c5d23c1761]
class C_0013943630642961179492--><rect fill="#FEFECE" filter="url(#fxjlzw9uhugg)" height="99.2188" id="C_0013943630642961179492" style="stroke: #A80036; stroke-width: 1.5;" width="156" x="589" y="624.4531"/><ellipse cx="604" cy="640.4531" fill="#ADD1B2" rx="11" ry="11" style="stroke: #A80036; stroke-width: 1.0;"/><path d="M606.9688,646.0938 Q606.3906,646.3906 605.75,646.5313 Q605.1094,646.6875 604.4063,646.6875 Q601.9063,646.6875 600.5781,645.0469 Q599.2656,643.3906 599.2656,640.2656 Q599.2656,637.1406 600.5781,635.4844 Q601.9063,633.8281 604.4063,633.8281 Q605.1094,633.8281 605.75,633.9844 Q606.4063,634.1406 606.9688,634.4375 L606.9688,637.1563 Q606.3438,636.5781 605.75,636.3125 Q605.1563,636.0313 604.5313,636.0313 Q603.1875,636.0313 602.5,637.1094 Q601.8125,638.1719 601.8125,640.2656 Q601.8125,642.3594 602.5,643.4375 Q603.1875,644.5 604.5313,644.5 Q605.1563,644.5 605.75,644.2344 Q606.3438,643.9531 606.9688,643.375 L606.9688,646.0938 Z "/><text fill="#000000" font-family="sans-serif" font-size="12" lengthAdjust="spacingAndGlyphs" textLength="124" x="618" y="644.6074">config::MountConfig</text><line style="stroke: #A80036; stroke-width: 1.5;" x1="590" x2="744" y1="656.4531" y2="656.4531"/><line style="stroke: #A80036; stroke-width: 1.5;" x1="590" x2="744" y1="664.4531" y2="664.4531"/><ellipse cx="600" cy="675.4531" fill="none" rx="3" ry="3" style="stroke: #038048; stroke-width: 1.0;"/><text fill="#000000" font-family="sans-serif" font-size="11" lengthAdjust="spacingAndGlyphs" textLength="61" x="609" y="678.6636">hostId : int</text><ellipse cx="600" cy="688.2578" fill="none" rx="3" ry="3" style="stroke: #038048; stroke-width: 1.0;"/><text fill="#000000" font-family="sans-serif" font-size="11" lengthAdjust="spacingAndGlyphs" textLength="36" x="609" y="691.4683">id : int</text><ellipse cx="600" cy="701.0625" fill="none" rx="3" ry="3" style="stroke: #038048; stroke-width: 1.0;"/><text fill="#000000" font-family="sans-serif" font-size="11" lengthAdjust="spacingAndGlyphs" textLength="103" x="609" y="704.2729">mode : std::string</text><ellipse cx="600" cy="713.8672" fill="none" rx="3" ry="3" style="stroke: #038048; stroke-width: 1.0;"/><text fill="#000000" font-family="sans-serif" font-size="11" lengthAdjust="spacingAndGlyphs" textLength="96" x="609" y="717.0776">path : std::string</text><!--MD5=[057d1071bf30d2b34a06d62850e57370]
class C_0005975997772767504221--><rect fill="#FEFECE" filter="url(#fxjlzw9uhugg)" height="73.6094" id="C_0005975997772767504221" style="stroke: #A80036; stroke-width: 1.5;" width="162" x="780" y="636.9531"/><ellipse cx="795" cy="652.9531" fill="#ADD1B2" rx="11" ry="11" style="stroke: #A80036; stroke-width: 1.0;"/><path d="M797.9688,658.5938 Q797.3906,658.8906 796.75,659.0313 Q796.1094,659.1875 795.4063,659.1875 Q792.9063,659.1875 791.5781,657.5469 Q790.2656,655.8906 790.2656,652.7656 Q790.2656,649.6406 791.5781,647.9844 Q792.9063,646.3281 795.4063,646.3281 Q796.1094,646.3281 796.75,646.4844 Q797.4063,646.6406 797.9688,646.9375 L797.9688,649.6563 Q797.3438,649.0781 796.75,648.8125 Q796.1563,648.5313 795.5313,648.5313 Q794.1875,648.5313 793.5,649.6094 Q792.8125,650.6719 792.8125,652.7656 Q792.8125,654.8594 793.5,655.9375 Q794.1875,657 795.5313,657 Q796.1563,657 796.75,656.7344 Q797.3438,656.4531 797.9688,655.875 L797.9688,658.5938 Z "/><text fill="#000000" font-family="sans-serif" font-size="12" lengthAdjust="spacingAndGlyphs" textLength="130" x="809" y="657.1074">config::ModemConfig</text><line style="stroke: #A80036; stroke-width: 1.5;" x1="781" x2="941" y1="668.9531" y2="668.9531"/><line style="stroke: #A80036; stroke-width: 1.5;" x1="781" x2="941" y1="676.9531" y2="676.9531"/><ellipse cx="791" cy="687.9531" fill="none" rx="3" ry="3" style="stroke: #038048; stroke-width: 1.0;"/><text fill="#000000" font-family="sans-serif" font-size="11" lengthAdjust="spacingAndGlyphs" textLength="81" x="800" y="691.1636">enabled : bool</text><ellipse cx="791" cy="700.7578" fill="none" rx="3" ry="3" style="stroke: #038048; stroke-width: 1.0;"/><text fill="#000000" font-family="sans-serif" font-size="11" lengthAdjust="spacingAndGlyphs" textLength="118" x="800" y="703.9683">snifferEnabled : bool</text><!--MD5=[dc9f03d9ca8c568d4da0f11262928053]
class C_0006472023737076814481--><rect fill="#FEFECE" filter="url(#fxjlzw9uhugg)" height="73.6094" id="C_0006472023737076814481" style="stroke: #A80036; stroke-width: 1.5;" width="151" x="977.5" y="636.9531"/><ellipse cx="995.65" cy="652.9531" fill="#ADD1B2" rx="11" ry="11" style="stroke: #A80036; stroke-width: 1.0;"/><path d="M998.6188,658.5938 Q998.0406,658.8906 997.4,659.0313 Q996.7594,659.1875 996.0563,659.1875 Q993.5563,659.1875 992.2281,657.5469 Q990.9156,655.8906 990.9156,652.7656 Q990.9156,649.6406 992.2281,647.9844 Q993.5563,646.3281 996.0563,646.3281 Q996.7594,646.3281 997.4,646.4844 Q998.0563,646.6406 998.6188,646.9375 L998.6188,649.6563 Q997.9938,649.0781 997.4,648.8125 Q996.8063,648.5313 996.1813,648.5313 Q994.8375,648.5313 994.15,649.6094 Q993.4625,650.6719 993.4625,652.7656 Q993.4625,654.8594 994.15,655.9375 Q994.8375,657 996.1813,657 Q996.8063,657 997.4,656.7344 Q997.9938,656.4531 998.6188,655.875 L998.6188,658.5938 Z "/><text fill="#000000" font-family="sans-serif" font-size="12" lengthAdjust="spacingAndGlyphs" textLength="112" x="1010.35" y="657.1074">config::CpmConfig</text><line style="stroke: #A80036; stroke-width: 1.5;" x1="978.5" x2="1127.5" y1="668.9531" y2="668.9531"/><line style="stroke: #A80036; stroke-width: 1.5;" x1="978.5" x2="1127.5" y1="676.9531" y2="676.9531"/><ellipse cx="988.5" cy="687.9531" fill="none" rx="3" ry="3" style="stroke: #038048; stroke-width: 1.0;"/><text fill="#000000" font-family="sans-serif" font-size="11" lengthAdjust="spacingAndGlyphs" textLength="125" x="997.5" y="691.1636">ccpImage : std::string</text><ellipse cx="988.5" cy="700.7578" fill="none" rx="3" ry="3" style="stroke: #038048; stroke-width: 1.0;"/><text fill="#000000" font-family="sans-serif" font-size="11" lengthAdjust="spacingAndGlyphs" textLength="81" x="997.5" y="703.9683">enabled : bool</text><!--MD5=[3e8a4971dcaa44f2deceac9bd88dc8ce]
class C_0011654528465957303447--><rect fill="#FEFECE" filter="url(#fxjlzw9uhugg)" height="60.8047" id="C_0011654528465957303447" style="stroke: #A80036; stroke-width: 1.5;" width="159" x="1163.5" y="643.4531"/><ellipse cx="1178.5" cy="659.4531" fill="#ADD1B2" rx="11" ry="11" style="stroke: #A80036; stroke-width: 1.0;"/><path d="M1181.4688,665.0938 Q1180.8906,665.3906 1180.25,665.5313 Q1179.6094,665.6875 1178.9063,665.6875 Q1176.4063,665.6875 1175.0781,664.0469 Q1173.7656,662.3906 1173.7656,659.2656 Q1173.7656,656.1406 1175.0781,654.4844 Q1176.4063,652.8281 1178.9063,652.8281 Q1179.6094,652.8281 1180.25,652.9844 Q1180.9063,653.1406 1181.4688,653.4375 L1181.4688,656.1563 Q1180.8438,655.5781 1180.25,655.3125 Q1179.6563,655.0313 1179.0313,655.0313 Q1177.6875,655.0313 1177,656.1094 Q1176.3125,657.1719 1176.3125,659.2656 Q1176.3125,661.3594 1177,662.4375 Q1177.6875,663.5 1179.0313,663.5 Q1179.6563,663.5 1180.25,663.2344 Q1180.8438,662.9531 1181.4688,662.375 L1181.4688,665.0938 Z "/><text fill="#000000" font-family="sans-serif" font-size="12" lengthAdjust="spacingAndGlyphs" textLength="127" x="1192.5" y="663.6074">config::PrinterConfig</text><line style="stroke: #A80036; stroke-width: 1.5;" x1="1164.5" x2="1321.5" y1="675.4531" y2="675.4531"/><line style="stroke: #A80036; stroke-width: 1.5;" x1="1164.5" x2="1321.5" y1="683.4531" y2="683.4531"/><ellipse cx="1174.5" cy="694.4531" fill="none" rx="3" ry="3" style="stroke: #038048; stroke-width: 1.0;"/><text fill="#000000" font-family="sans-serif" font-size="11" lengthAdjust="spacingAndGlyphs" textLength="81" x="1183.5" y="697.6636">enabled : bool</text><!--MD5=[855586ee98f6648b42d1ec0d6b0caa1c]
class C_0013064010099190715901--><rect fill="#FEFECE" filter="url(#fxjlzw9uhugg)" height="137.6328" id="C_0013064010099190715901" style="stroke: #A80036; stroke-width: 1.5;" width="230" x="552" y="402.9531"/><ellipse cx="609.75" cy="418.9531" fill="#ADD1B2" rx="11" ry="11" style="stroke: #A80036; stroke-width: 1.0;"/><path d="M612.7188,424.5938 Q612.1406,424.8906 611.5,425.0313 Q610.8594,425.1875 610.1563,425.1875 Q607.6563,425.1875 606.3281,423.5469 Q605.0156,421.8906 605.0156,418.7656 Q605.0156,415.6406 606.3281,413.9844 Q607.6563,412.3281 610.1563,412.3281 Q610.8594,412.3281 611.5,412.4844 Q612.1563,412.6406 612.7188,412.9375 L612.7188,415.6563 Q612.0938,415.0781 611.5,414.8125 Q610.9063,414.5313 610.2813,414.5313 Q608.9375,414.5313 608.25,415.6094 Q607.5625,416.6719 607.5625,418.7656 Q607.5625,420.8594 608.25,421.9375 Q608.9375,423 610.2813,423 Q610.9063,423 611.5,422.7344 Q612.0938,422.4531 612.7188,421.875 L612.7188,424.5938 Z "/><text fill="#000000" font-family="sans-serif" font-size="12" lengthAdjust="spacingAndGlyphs" textLength="106" x="630.25" y="423.1074">config::FujiConfig</text><line style="stroke: #A80036; stroke-width: 1.5;" x1="553" x2="781" y1="434.9531" y2="434.9531"/><line style="stroke: #A80036; stroke-width: 1.5;" x1="553" x2="781" y1="442.9531" y2="442.9531"/><ellipse cx="563" cy="453.9531" fill="none" rx="3" ry="3" style="stroke: #038048; stroke-width: 1.0;"/><text fill="#000000" font-family="sans-serif" font-size="11" lengthAdjust="spacingAndGlyphs" textLength="98" x="572" y="457.1636">cpm : CpmConfig</text><ellipse cx="563" cy="466.7578" fill="none" rx="3" ry="3" style="stroke: #038048; stroke-width: 1.0;"/><text fill="#000000" font-family="sans-serif" font-size="11" lengthAdjust="spacingAndGlyphs" textLength="136" x="572" y="469.9683">general : GeneralConfig</text><ellipse cx="563" cy="479.5625" fill="none" rx="3" ry="3" style="stroke: #038048; stroke-width: 1.0;"/><text fill="#000000" font-family="sans-serif" font-size="11" lengthAdjust="spacingAndGlyphs" textLength="185" x="572" y="482.7729">hosts : std::vector&lt;HostConfig&gt;</text><ellipse cx="563" cy="492.3672" fill="none" rx="3" ry="3" style="stroke: #038048; stroke-width: 1.0;"/><text fill="#000000" font-family="sans-serif" font-size="11" lengthAdjust="spacingAndGlyphs" textLength="132" x="572" y="495.5776">modem : ModemConfig</text><ellipse cx="563" cy="505.1719" fill="none" rx="3" ry="3" style="stroke: #038048; stroke-width: 1.0;"/><text fill="#000000" font-family="sans-serif" font-size="11" lengthAdjust="spacingAndGlyphs" textLength="204" x="572" y="508.3823">mounts : std::vector&lt;MountConfig&gt;</text><ellipse cx="563" cy="517.9766" fill="none" rx="3" ry="3" style="stroke: #038048; stroke-width: 1.0;"/><text fill="#000000" font-family="sans-serif" font-size="11" lengthAdjust="spacingAndGlyphs" textLength="124" x="572" y="521.187">printer : PrinterConfig</text><ellipse cx="563" cy="530.7813" fill="none" rx="3" ry="3" style="stroke: #038048; stroke-width: 1.0;"/><text fill="#000000" font-family="sans-serif" font-size="11" lengthAdjust="spacingAndGlyphs" textLength="86" x="572" y="533.9917">wifi : WifiConfig</text><!--MD5=[15c4dbf65349c89d6de5777e747febb9]
class C_0010708806357379257038--><rect fill="#FEFECE" filter="url(#fxjlzw9uhugg)" height="94.4141" id="C_0010708806357379257038" style="stroke: #A80036; stroke-width: 1.5;" width="280" x="527" y="28.9531"/><ellipse cx="592.75" cy="44.9531" fill="#A9DCDF" rx="11" ry="11" style="stroke: #A80036; stroke-width: 1.0;"/><path d="M592.8594,40.2969 L591.7031,45.375 L594.0313,45.375 L592.8594,40.2969 Z M591.375,38.0625 L594.3594,38.0625 L597.7188,50.4531 L595.2656,50.4531 L594.5,47.3906 L591.2188,47.3906 L590.4688,50.4531 L588.0313,50.4531 L591.375,38.0625 Z "/><text fill="#000000" font-family="sans-serif" font-size="12" font-style="italic" lengthAdjust="spacingAndGlyphs" textLength="140" x="613.25" y="49.1074">config::FujiConfigStore</text><line style="stroke: #A80036; stroke-width: 1.5;" x1="528" x2="806" y1="60.9531" y2="60.9531"/><ellipse cx="538" cy="71.9531" fill="#84BE84" rx="3" ry="3" style="stroke: #038048; stroke-width: 1.0;"/><text fill="#000000" font-family="sans-serif" font-size="11" lengthAdjust="spacingAndGlyphs" textLength="254" x="547" y="75.1636">~FujiConfigStore() constexpr = default : void</text><line style="stroke: #A80036; stroke-width: 1.0; stroke-dasharray: 1.0,2.0;" x1="528" x2="806" y1="81.7578" y2="81.7578"/><ellipse cx="538" cy="92.7578" fill="#84BE84" rx="3" ry="3" style="stroke: #038048; stroke-width: 1.0;"/><text fill="#000000" font-family="sans-serif" font-size="11" font-style="italic" lengthAdjust="spacingAndGlyphs" textLength="123" x="547" y="95.9683">load() = 0 : FujiConfig</text><ellipse cx="538" cy="105.5625" fill="#84BE84" rx="3" ry="3" style="stroke: #038048; stroke-width: 1.0;"/><text fill="#000000" font-family="sans-serif" font-size="11" font-style="italic" lengthAdjust="spacingAndGlyphs" textLength="218" x="547" y="108.7729">save(const FujiConfig &amp; cfg) = 0 : void</text><line style="stroke: #A80036; stroke-width: 1.5;" x1="528" x2="806" y1="115.3672" y2="115.3672"/><!--MD5=[66ee30052d563e8ab8957f5c4ee3f2ed]
class C_0004992050062997423308--><rect fill="#FEFECE" filter="url(#fxjlzw9uhugg)" height="158.4375" id="C_0004992050062997423308" style="stroke: #A80036; stroke-width: 1.5;" width="622" x="700" y="183.9531"/><ellipse cx="915.25" cy="199.9531" fill="#ADD1B2" rx="11" ry="11" style="stroke: #A80036; stroke-width: 1.0;"/><path d="M918.2188,205.5938 Q917.6406,205.8906 917,206.0313 Q916.3594,206.1875 915.6563,206.1875 Q913.1563,206.1875 911.8281,204.5469 Q910.5156,202.8906 910.5156,199.7656 Q910.5156,196.6406 911.8281,194.9844 Q913.1563,193.3281 915.6563,193.3281 Q916.3594,193.3281 917,193.4844 Q917.6563,193.6406 918.2188,193.9375 L918.2188,196.6563 Q917.5938,196.0781 917,195.8125 Q916.4063,195.5313 915.7813,195.5313 Q914.4375,195.5313 913.75,196.6094 Q913.0625,197.6719 913.0625,199.7656 Q913.0625,201.8594 913.75,202.9375 Q914.4375,204 915.7813,204 Q916.4063,204 917,203.7344 Q917.5938,203.4531 918.2188,202.875 L918.2188,205.5938 Z "/><text fill="#000000" font-family="sans-serif" font-size="12" lengthAdjust="spacingAndGlyphs" textLength="183" x="935.75" y="204.1074">config::YamlFujiConfigStoreFs</text><line style="stroke: #A80036; stroke-width: 1.5;" x1="701" x2="1321" y1="215.9531" y2="215.9531"/><ellipse cx="711" cy="226.9531" fill="#84BE84" rx="3" ry="3" style="stroke: #038048; stroke-width: 1.0;"/><text fill="#000000" font-family="sans-serif" font-size="11" lengthAdjust="spacingAndGlyphs" textLength="596" x="720" y="230.1636">YamlFujiConfigStoreFs(fs::IFileSystem * primary, fs::IFileSystem * backup, std::string relativePath) : void</text><line style="stroke: #A80036; stroke-width: 1.0; stroke-dasharray: 1.0,2.0;" x1="701" x2="1321" y1="236.7578" y2="236.7578"/><ellipse cx="711" cy="247.7578" fill="#84BE84" rx="3" ry="3" style="stroke: #038048; stroke-width: 1.0;"/><text fill="#000000" font-family="sans-serif" font-size="11" lengthAdjust="spacingAndGlyphs" textLength="99" x="720" y="250.9683">load() : FujiConfig</text><rect fill="#F24D5C" height="6" style="stroke: #C82930; stroke-width: 1.0;" width="6" x="708" y="257.5625"/><text fill="#000000" font-family="sans-serif" font-size="11" lengthAdjust="spacingAndGlyphs" textLength="254" x="720" y="263.7729">loadFromFs(fs::IFileSystem &amp; fs) : FujiConfig</text><ellipse cx="711" cy="273.3672" fill="#84BE84" rx="3" ry="3" style="stroke: #038048; stroke-width: 1.0;"/><text fill="#000000" font-family="sans-serif" font-size="11" lengthAdjust="spacingAndGlyphs" textLength="195" x="720" y="276.5776">save(const FujiConfig &amp; cfg) : void</text><rect fill="#F24D5C" height="6" style="stroke: #C82930; stroke-width: 1.0;" width="6" x="708" y="283.1719"/><text fill="#000000" font-family="sans-serif" font-size="11" lengthAdjust="spacingAndGlyphs" textLength="343" x="720" y="289.3823">saveToFs(fs::IFileSystem &amp; fs, const FujiConfig &amp; cfg) : void</text><line style="stroke: #A80036; stroke-width: 1.5;" x1="701" x2="1321" y1="295.9766" y2="295.9766"/><rect fill="none" height="6" style="stroke: #C82930; stroke-width: 1.0;" width="6" x="708" y="303.9766"/><text fill="#000000" font-family="sans-serif" font-size="11" lengthAdjust="spacingAndGlyphs" textLength="152" x="720" y="310.187">_backup : fs::IFileSystem *</text><rect fill="none" height="6" style="stroke: #C82930; stroke-width: 1.0;" width="6" x="708" y="316.7813"/><text fill="#000000" font-family="sans-serif" font-size="11" lengthAdjust="spacingAndGlyphs" textLength="156" x="720" y="322.9917">_primary : fs::IFileSystem *</text><rect fill="none" height="6" style="stroke: #C82930; stroke-width: 1.0;" width="6" x="708" y="329.5859"/><text fill="#000000" font-family="sans-serif" font-size="11" lengthAdjust="spacingAndGlyphs" textLength="117" x="720" y="335.7964">_relPath : std::string</text><!--MD5=[697c584710d7f3f79c5334dd784c7dda]
reverse link C_0016837659718836839167 to C_0012427176626669726738--><path d="M89,730.3531 C89,754.7331 89,783.1231 89,806.6931 " fill="none" id="C_0016837659718836839167&lt;-C_0012427176626669726738" style="stroke: #A80036; stroke-width: 1.0;"/><polygon fill="#FFFFFF" points="89,717.2731,85,723.2731,89,729.2731,93,723.2731,89,717.2731" style="stroke: #A80036; stroke-width: 1.0;"/><ellipse cx="95" cy="769.0195" fill="none" rx="3" ry="3" style="stroke: #038048; stroke-width: 1.0;"/><text fill="#000000" font-family="sans-serif" font-size="13" lengthAdjust="spacingAndGlyphs" textLength="64" x="102" y="773.02">bootMode</text><!--MD5=[550b91052ab307320af641ba6f5db2ed]
reverse link C_0006762991430694965068 to C_0000279772037409680357--><path d="M481,743.2731 C481,766.7931 481,792.4331 481,813.2531 " fill="none" id="C_0006762991430694965068&lt;-C_0000279772037409680357" style="stroke: #A80036; stroke-width: 1.0;"/><polygon fill="#FFFFFF" points="481,730.0931,477,736.0931,481,742.0931,485,736.0931,481,730.0931" style="stroke: #A80036; stroke-width: 1.0;"/><ellipse cx="487" cy="769.0195" fill="none" rx="3" ry="3" style="stroke: #038048; stroke-width: 1.0;"/><text fill="#000000" font-family="sans-serif" font-size="13" lengthAdjust="spacingAndGlyphs" textLength="28" x="494" y="773.02">type</text><!--MD5=[68ae0961016f6c901f2cda2e66a544c0]
reverse link C_0013064010099190715901 to C_0016837659718836839167--><path d="M539.36,504.1731 C441.85,529.8231 305.09,569.7131 190,617.9531 C180.79,621.8131 171.33,626.2631 162.06,630.9231 " fill="none" id="C_0013064010099190715901&lt;-C_0016837659718836839167" style="stroke: #A80036; stroke-width: 1.0;"/><polygon fill="#FFFFFF" points="551.95,500.8831,545.1335,498.5303,540.34,503.9176,547.1565,506.2703,551.95,500.8831" style="stroke: #A80036; stroke-width: 1.0;"/><ellipse cx="312" cy="580.0195" fill="none" rx="3" ry="3" style="stroke: #038048; stroke-width: 1.0;"/><text fill="#000000" font-family="sans-serif" font-size="13" lengthAdjust="spacingAndGlyphs" textLength="48" x="319" y="584.02">general</text><!--MD5=[8df4a6b70f69789b13fe63f32a34e810]
reverse link C_0013064010099190715901 to C_0016905784937528219397--><path d="M540.28,538.5931 C493,563.2631 438.94,591.6931 390,617.9531 C382.23,622.1231 374.14,626.5031 366.08,630.9031 " fill="none" id="C_0013064010099190715901&lt;-C_0016905784937528219397" style="stroke: #A80036; stroke-width: 1.0;"/><polygon fill="#FFFFFF" points="551.83,532.5631,544.6603,531.7919,541.1907,538.1135,548.3605,538.8847,551.83,532.5631" style="stroke: #A80036; stroke-width: 1.0;"/><ellipse cx="480" cy="580.0195" fill="none" rx="3" ry="3" style="stroke: #038048; stroke-width: 1.0;"/><text fill="#000000" font-family="sans-serif" font-size="13" lengthAdjust="spacingAndGlyphs" textLength="19" x="487" y="584.02">wifi</text><!--MD5=[94195be0c62d14f18b5f110e847b24f1]
reverse link C_0013064010099190715901 to C_0006762991430694965068--><path d="M594.39,551.0231 C573.61,573.3731 551.4,597.2531 532.2,617.9031 " fill="none" id="C_0013064010099190715901&lt;-C_0006762991430694965068" style="stroke: #A80036; stroke-width: 1.0;"/><polygon fill="#FFFFFF" points="603.51,541.2231,596.4953,542.8945,595.34,550.0124,602.3548,548.3411,603.51,541.2231" style="stroke: #A80036; stroke-width: 1.0;"/><ellipse cx="580" cy="580.0195" fill="none" rx="3" ry="3" style="stroke: #038048; stroke-width: 1.0;"/><text fill="#000000" font-family="sans-serif" font-size="13" lengthAdjust="spacingAndGlyphs" textLength="35" x="587" y="584.02">hosts</text><!--MD5=[5788b9dddcbfb241c9bede639575b03f]
reverse link C_0013064010099190715901 to C_0013943630642961179492--><path d="M667,554.2231 C667,577.9731 667,603.1731 667,624.2231 " fill="none" id="C_0013064010099190715901&lt;-C_0013943630642961179492" style="stroke: #A80036; stroke-width: 1.0;"/><polygon fill="#FFFFFF" points="667,541.2231,663,547.2231,667,553.2231,671,547.2231,667,541.2231" style="stroke: #A80036; stroke-width: 1.0;"/><ellipse cx="673" cy="580.0195" fill="none" rx="3" ry="3" style="stroke: #038048; stroke-width: 1.0;"/><text fill="#000000" font-family="sans-serif" font-size="13" lengthAdjust="spacingAndGlyphs" textLength="49" x="680" y="584.02">mounts</text><!--MD5=[ad8ffb268114aff73ee569af6965b092]
reverse link C_0013064010099190715901 to C_0005975997772767504221--><path d="M742.44,550.7331 C771.17,580.3531 802.56,612.7131 825.82,636.6931 " fill="none" id="C_0013064010099190715901&lt;-C_0005975997772767504221" style="stroke: #A80036; stroke-width: 1.0;"/><polygon fill="#FFFFFF" points="733.22,541.2231,734.5297,548.3143,741.5791,549.8327,740.2694,542.7416,733.22,541.2231" style="stroke: #A80036; stroke-width: 1.0;"/><ellipse cx="781" cy="580.0195" fill="none" rx="3" ry="3" style="stroke: #038048; stroke-width: 1.0;"/><text fill="#000000" font-family="sans-serif" font-size="13" lengthAdjust="spacingAndGlyphs" textLength="50" x="788" y="584.02">modem</text><!--MD5=[05691d5bb9c6ad5fcb49797f0e369ddc]
reverse link C_0013064010099190715901 to C_0006472023737076814481--><path d="M794.08,533.2831 C845.98,558.5831 906.3,588.8431 960,617.9531 C970.88,623.8531 982.34,630.3631 993.34,636.7831 " fill="none" id="C_0013064010099190715901&lt;-C_0006472023737076814481" style="stroke: #A80036; stroke-width: 1.0;"/><polygon fill="#FFFFFF" points="782.11,527.4631,785.7582,533.6833,792.9031,532.7081,789.2549,526.4879,782.11,527.4631" style="stroke: #A80036; stroke-width: 1.0;"/><ellipse cx="902" cy="580.0195" fill="none" rx="3" ry="3" style="stroke: #038048; stroke-width: 1.0;"/><text fill="#000000" font-family="sans-serif" font-size="13" lengthAdjust="spacingAndGlyphs" textLength="28" x="909" y="584.02">cpm</text><!--MD5=[ecf0713d372f261774ed6f1170bca7f1]
reverse link C_0013064010099190715901 to C_0011654528465957303447--><path d="M794.94,503.4131 C893.02,528.7231 1030.66,568.5231 1146,617.9531 C1162.73,625.1231 1180.25,634.4431 1195.72,643.3631 " fill="none" id="C_0013064010099190715901&lt;-C_0011654528465957303447" style="stroke: #A80036; stroke-width: 1.0;"/><polygon fill="#FFFFFF" points="782.27,500.1631,787.0951,505.5221,793.8976,503.1294,789.0726,497.7704,782.27,500.1631" style="stroke: #A80036; stroke-width: 1.0;"/><ellipse cx="1075" cy="580.0195" fill="none" rx="3" ry="3" style="stroke: #038048; stroke-width: 1.0;"/><text fill="#000000" font-family="sans-serif" font-size="13" lengthAdjust="spacingAndGlyphs" textLength="42" x="1082" y="584.02">printer</text><!--MD5=[9e8edfb870574f1852dac6d999b247c4]
link C_0010708806357379257038 to C_0013064010099190715901--><path d="M667,123.3131 C667,190.8831 667,317.1231 667,397.4531 " fill="none" id="C_0010708806357379257038-&gt;C_0013064010099190715901" style="stroke: #A80036; stroke-width: 1.0; stroke-dasharray: 7.0,7.0;"/><polygon fill="#A80036" points="667,402.6731,671,393.6731,667,397.6731,663,393.6731,667,402.6731" style="stroke: #A80036; stroke-width: 1.0;"/><!--MD5=[63b6da8648f081b7e056c5d20bbdf0b5]
link C_0004992050062997423308 to C_0013064010099190715901--><path d="M880.95,342.2131 C849.3,361.2531 815.64,381.5131 784.61,400.1831 " fill="none" id="C_0004992050062997423308-&gt;C_0013064010099190715901" style="stroke: #A80036; stroke-width: 1.0; stroke-dasharray: 7.0,7.0;"/><polygon fill="#A80036" points="780.05,402.9231,789.8254,401.7226,784.3375,400.3506,785.7095,394.8627,780.05,402.9231" style="stroke: #A80036; stroke-width: 1.0;"/><!--MD5=[1de75543aaa043a97d9d9228638437f7]
reverse link C_0010708806357379257038 to C_0004992050062997423308--><path d="M770.59,132.6631 C800.51,148.7531 833.72,166.6131 865.67,183.7931 " fill="none" id="C_0010708806357379257038&lt;-C_0004992050062997423308" style="stroke: #A80036; stroke-width: 1.0;"/><polygon fill="none" points="767.22,138.7931,752.92,123.1631,773.85,126.4631,767.22,138.7931" style="stroke: #A80036; stroke-width: 1.0;"/><!--MD5=[38ab16a11d6cd7b30708e9742b7fe19c]
@startuml
title Config (auto-gen from clang-uml)
enum "config::BootMode" as C_0012427176626669726738
enum C_0012427176626669726738 {
Normal
Config
Cpm
Unknown
}
class "config::GeneralConfig" as C_0016837659718836839167
class C_0016837659718836839167 {
__
+altConfigFile : std::string
+bootMode : BootMode
+deviceName : std::string
}
class "config::WifiConfig" as C_0016905784937528219397
class C_0016905784937528219397 {
__
+enabled : bool
+passphrase : std::string
+ssid : std::string
}
enum "config::HostType" as C_0000279772037409680357
enum C_0000279772037409680357 {
Sd
Tnfs
Unknown
}
class "config::HostConfig" as C_0006762991430694965068
class C_0006762991430694965068 {
__
+address : std::string
+enabled : bool
+id : int
+name : std::string
+type : HostType
}
class "config::MountConfig" as C_0013943630642961179492
class C_0013943630642961179492 {
__
+hostId : int
+id : int
+mode : std::string
+path : std::string
}
class "config::ModemConfig" as C_0005975997772767504221
class C_0005975997772767504221 {
__
+enabled : bool
+snifferEnabled : bool
}
class "config::CpmConfig" as C_0006472023737076814481
class C_0006472023737076814481 {
__
+ccpImage : std::string
+enabled : bool
}
class "config::PrinterConfig" as C_0011654528465957303447
class C_0011654528465957303447 {
__
+enabled : bool
}
class "config::FujiConfig" as C_0013064010099190715901
class C_0013064010099190715901 {
__
+cpm : CpmConfig
+general : GeneralConfig
+hosts : std::vector<HostConfig>
+modem : ModemConfig
+mounts : std::vector<MountConfig>
+printer : PrinterConfig
+wifi : WifiConfig
}
abstract "config::FujiConfigStore" as C_0010708806357379257038
abstract C_0010708806357379257038 {
+~FujiConfigStore() constexpr = default : void
..
{abstract} +load() = 0 : FujiConfig
{abstract} +save(const FujiConfig & cfg) = 0 : void
__
}
class "config::YamlFujiConfigStoreFs" as C_0004992050062997423308
class C_0004992050062997423308 {
+YamlFujiConfigStoreFs(fs::IFileSystem * primary, fs::IFileSystem * backup, std::string relativePath) : void
..
+load() : FujiConfig
-loadFromFs(fs::IFileSystem & fs) : FujiConfig
+save(const FujiConfig & cfg) : void
-saveToFs(fs::IFileSystem & fs, const FujiConfig & cfg) : void
__
-_backup : fs::IFileSystem *
-_primary : fs::IFileSystem *
-_relPath : std::string
}
C_0016837659718836839167 o- - C_0012427176626669726738 : +bootMode
C_0006762991430694965068 o- - C_0000279772037409680357 : +type
C_0013064010099190715901 o- - C_0016837659718836839167 : +general
C_0013064010099190715901 o- - C_0016905784937528219397 : +wifi
C_0013064010099190715901 o- - C_0006762991430694965068 : +hosts
C_0013064010099190715901 o- - C_0013943630642961179492 : +mounts
C_0013064010099190715901 o- - C_0005975997772767504221 : +modem
C_0013064010099190715901 o- - C_0006472023737076814481 : +cpm
C_0013064010099190715901 o- - C_0011654528465957303447 : +printer
C_0010708806357379257038 ..> C_0013064010099190715901
C_0004992050062997423308 ..> C_0013064010099190715901
C_0010708806357379257038 <|- - C_0004992050062997423308

@enduml

PlantUML version 1.2020.02(Sun Mar 01 10:22:07 UTC 2020)
(GPL source distribution)
Java Runtime: OpenJDK Runtime Environment
JVM: OpenJDK 64-Bit Server VM
Java Version: 17.0.17+10
Operating System: Linux
Default Encoding: UTF-8
Language: en
Country: null
--></g></svg>