<?xml version="1.0" encoding="UTF-8" standalone="no"?><svg xmlns="http://www.w3.org/2000/svg" xmlns:xlink="http://www.w3.org/1999/xlink" contentScriptType="application/ecmascript" contentStyleType="text/css" height="955px" preserveAspectRatio="none" style="width:1808px;height:955px;" version="1.1" viewBox="0 0 1808 955" width="1808px" zoomAndPan="magnify"><defs><filter height="300%" id="f1hvoa0i2n8qrl" width="300%" x="-1" y="-1"><feGaussianBlur result="blurOut" stdDeviation="2.0"/><feColorMatrix in="blurOut" result="blurOut2" type="matrix" values="0 0 0 0 0 0 0 0 0 0 0 0 0 0 0 0 0 0 .4 0"/><feOffset dx="4.0" dy="4.0" in="blurOut2" result="blurOut3"/><feBlend in="SourceGraphic" in2="blurOut3" mode="normal"/></filter></defs><g><text fill="#000000" font-family="sans-serif" font-size="18" lengthAdjust="spacingAndGlyphs" textLength="296" x="759.5" y="16.708">Config (auto-gen from clang-uml)</text><!--MD5=[384905f6007a2512716830f04cb9729c]
class C_0012427176626669726738--><rect fill="#FEFECE" filter="url(#f1hvoa0i2n8qrl)" height="99.2188" id="C_0012427176626669726738" style="stroke: #A80036; stroke-width: 1.5;" width="141" x="18.5" y="844.9531"/><ellipse cx="33.5" cy="860.9531" fill="#EB937F" rx="11" ry="11" style="stroke: #A80036; stroke-width: 1.0;"/><path d="M37.6094,866.9531 L29.8906,866.9531 L29.8906,854.5625 L37.6094,854.5625 L37.6094,856.7188 L32.3438,856.7188 L32.3438,859.3906 L37.1094,859.3906 L37.1094,861.5469 L32.3438,861.5469 L32.3438,864.7969 L37.6094,864.7969 L37.6094,866.9531 Z "/><text fill="#000000" font-family="sans-serif" font-size="12" lengthAdjust="spacingAndGlyphs" textLength="109" x="47.5" y="865.1074">config::BootMode</text><line style="stroke: #A80036; stroke-width: 1.5;" x1="19.5" x2="158.5" y1="876.9531" y2="876.9531"/><text fill="#000000" font-family="sans-serif" font-size="11" lengthAdjust="spacingAndGlyphs" textLength="41" x="24.5" y="891.1636">Normal</text><text fill="#000000" font-family="sans-serif" font-size="11" lengthAdjust="spacingAndGlyphs" textLength="36" x="24.5" y="903.9683">Config</text><text fill="#000000" font-family="sans-serif" font-size="11" lengthAdjust="spacingAndGlyphs" textLength="26" x="24.5" y="916.7729">Cpm</text><text fill="#000000" font-family="sans-serif" font-size="11" lengthAdjust="spacingAndGlyphs" textLength="51" x="24.5" y="929.5776">Unknown</text><line style="stroke: #A80036; stroke-width: 1.5;" x1="19.5" x2="158.5" y1="936.1719" y2="936.1719"/><!--MD5=[e666622668f091c6435c456a595a911e]
class C_0016837659718836839167--><rect fill="#FEFECE" filter="url(#f1hvoa0i2n8qrl)" height="86.4141" id="C_0016837659718836839167" style="stroke: #A80036; stroke-width: 1.5;" width="166" x="6" y="662.4531"/><ellipse cx="21" cy="678.4531" fill="#ADD1B2" rx="11" ry="11" style="stroke: #A80036; stroke-width: 1.0;"/><path d="M23.9688,684.0938 Q23.3906,684.3906 22.75,684.5313 Q22.1094,684.6875 21.4063,684.6875 Q18.9063,684.6875 17.5781,683.0469 Q16.2656,681.3906 16.2656,678.2656 Q16.2656,675.1406 17.5781,673.4844 Q18.9063,671.8281 21.4063,671.8281 Q22.1094,671.8281 22.75,671.9844 Q23.4063,672.1406 23.9688,672.4375 L23.9688,675.1563 Q23.3438,674.5781 22.75,674.3125 Q22.1563,674.0313 21.5313,674.0313 Q20.1875,674.0313 19.5,675.1094 Q18.8125,676.1719 18.8125,678.2656 Q18.8125,680.3594 19.5,681.4375 Q20.1875,682.5 21.5313,682.5 Q22.1563,682.5 22.75,682.2344 Q23.3438,681.9531 23.9688,681.375 L23.9688,684.0938 Z "/><text fill="#000000" font-family="sans-serif" font-size="12" lengthAdjust="spacingAndGlyphs" textLength="134" x="35" y="682.6074">config::GeneralConfig</text><line style="stroke: #A80036; stroke-width: 1.5;" x1="7" x2="171" y1="694.4531" y2="694.4531"/><line style="stroke: #A80036; stroke-width: 1.5;" x1="7" x2="171" y1="702.4531" y2="702.4531"/><ellipse cx="17" cy="713.4531" fill="none" rx="3" ry="3" style="stroke: #038048; stroke-width: 1.0;"/><text fill="#000000" font-family="sans-serif" font-size="11" lengthAdjust="spacingAndGlyphs" textLength="140" x="26" y="716.6636">altConfigFile : std::string</text><ellipse cx="17" cy="726.2578" fill="none" rx="3" ry="3" style="stroke: #038048; stroke-width: 1.0;"/><text fill="#000000" font-family="sans-serif" font-size="11" lengthAdjust="spacingAndGlyphs" textLength="123" x="26" y="729.4683">bootMode : BootMode</text><ellipse cx="17" cy="739.0625" fill="none" rx="3" ry="3" style="stroke: #038048; stroke-width: 1.0;"/><text fill="#000000" font-family="sans-serif" font-size="11" lengthAdjust="spacingAndGlyphs" textLength="140" x="26" y="742.2729">deviceName : std::string</text><!--MD5=[33d2a0f1525207b31cd92e52db5e3e9d]
class C_0016905784937528219397--><rect fill="#FEFECE" filter="url(#f1hvoa0i2n8qrl)" height="86.4141" id="C_0016905784937528219397" style="stroke: #A80036; stroke-width: 1.5;" width="165" x="207.5" y="662.4531"/><ellipse cx="234.65" cy="678.4531" fill="#ADD1B2" rx="11" ry="11" style="stroke: #A80036; stroke-width: 1.0;"/><path d="M237.6188,684.0938 Q237.0406,684.3906 236.4,684.5313 Q235.7594,684.6875 235.0563,684.6875 Q232.5563,684.6875 231.2281,683.0469 Q229.9156,681.3906 229.9156,678.2656 Q229.9156,675.1406 231.2281,673.4844 Q232.5563,671.8281 235.0563,671.8281 Q235.7594,671.8281 236.4,671.9844 Q237.0563,672.1406 237.6188,672.4375 L237.6188,675.1563 Q236.9938,674.5781 236.4,674.3125 Q235.8063,674.0313 235.1813,674.0313 Q233.8375,674.0313 233.15,675.1094 Q232.4625,676.1719 232.4625,678.2656 Q232.4625,680.3594 233.15,681.4375 Q233.8375,682.5 235.1813,682.5 Q235.8063,682.5 236.4,682.2344 Q236.9938,681.9531 237.6188,681.375 L237.6188,684.0938 Z "/><text fill="#000000" font-family="sans-serif" font-size="12" lengthAdjust="spacingAndGlyphs" textLength="106" x="251.35" y="682.6074">config::WifiConfig</text><line style="stroke: #A80036; stroke-width: 1.5;" x1="208.5" x2="371.5" y1="694.4531" y2="694.4531"/><line style="stroke: #A80036; stroke-width: 1.5;" x1="208.5" x2="371.5" y1="702.4531" y2="702.4531"/><ellipse cx="218.5" cy="713.4531" fill="none" rx="3" ry="3" style="stroke: #038048; stroke-width: 1.0;"/><text fill="#000000" font-family="sans-serif" font-size="11" lengthAdjust="spacingAndGlyphs" textLength="81" x="227.5" y="716.6636">enabled : bool</text><ellipse cx="218.5" cy="726.2578" fill="none" rx="3" ry="3" style="stroke: #038048; stroke-width: 1.0;"/><text fill="#000000" font-family="sans-serif" font-size="11" lengthAdjust="spacingAndGlyphs" textLength="139" x="227.5" y="729.4683">passphrase : std::string</text><ellipse cx="218.5" cy="739.0625" fill="none" rx="3" ry="3" style="stroke: #038048; stroke-width: 1.0;"/><text fill="#000000" font-family="sans-serif" font-size="11" lengthAdjust="spacingAndGlyphs" textLength="95" x="227.5" y="742.2729">ssid : std::string</text><!--MD5=[f9b08b4b4aa15c5d4cf024c5d23c1761]
class C_0013943630642961179492--><rect fill="#FEFECE" filter="url(#f1hvoa0i2n8qrl)" height="124.8281" id="C_0013943630642961179492" style="stroke: #A80036; stroke-width: 1.5;" width="231" x="407.5" y="642.9531"/><ellipse cx="456.75" cy="658.9531" fill="#ADD1B2" rx="11" ry="11" style="stroke: #A80036; stroke-width: 1.0;"/><path d="M459.7188,664.5938 Q459.1406,664.8906 458.5,665.0313 Q457.8594,665.1875 457.1563,665.1875 Q454.6563,665.1875 453.3281,663.5469 Q452.0156,661.8906 452.0156,658.7656 Q452.0156,655.6406 453.3281,653.9844 Q454.6563,652.3281 457.1563,652.3281 Q457.8594,652.3281 458.5,652.4844 Q459.1563,652.6406 459.7188,652.9375 L459.7188,655.6563 Q459.0938,655.0781 458.5,654.8125 Q457.9063,654.5313 457.2813,654.5313 Q455.9375,654.5313 455.25,655.6094 Q454.5625,656.6719 454.5625,658.7656 Q454.5625,660.8594 455.25,661.9375 Q455.9375,663 457.2813,663 Q457.9063,663 458.5,662.7344 Q459.0938,662.4531 459.7188,661.875 L459.7188,664.5938 Z "/><text fill="#000000" font-family="sans-serif" font-size="12" lengthAdjust="spacingAndGlyphs" textLength="124" x="477.25" y="663.1074">config::MountConfig</text><line style="stroke: #A80036; stroke-width: 1.5;" x1="408.5" x2="637.5" y1="674.9531" y2="674.9531"/><ellipse cx="418.5" cy="685.9531" fill="#84BE84" rx="3" ry="3" style="stroke: #038048; stroke-width: 1.0;"/><text fill="#000000" font-family="sans-serif" font-size="11" lengthAdjust="spacingAndGlyphs" textLength="144" x="427.5" y="689.1636">effective_slot() const : int</text><ellipse cx="418.5" cy="698.7578" fill="#84BE84" rx="3" ry="3" style="stroke: #038048; stroke-width: 1.0;"/><text fill="#000000" font-family="sans-serif" font-size="11" lengthAdjust="spacingAndGlyphs" text-decoration="underline" textLength="205" x="427.5" y="701.9683">from_index(int index) constexpr : int</text><line style="stroke: #A80036; stroke-width: 1.5;" x1="408.5" x2="637.5" y1="708.5625" y2="708.5625"/><ellipse cx="418.5" cy="719.5625" fill="none" rx="3" ry="3" style="stroke: #038048; stroke-width: 1.0;"/><text fill="#000000" font-family="sans-serif" font-size="11" lengthAdjust="spacingAndGlyphs" textLength="81" x="427.5" y="722.7729">enabled : bool</text><ellipse cx="418.5" cy="732.3672" fill="none" rx="3" ry="3" style="stroke: #038048; stroke-width: 1.0;"/><text fill="#000000" font-family="sans-serif" font-size="11" lengthAdjust="spacingAndGlyphs" textLength="103" x="427.5" y="735.5776">mode : std::string</text><ellipse cx="418.5" cy="745.1719" fill="none" rx="3" ry="3" style="stroke: #038048; stroke-width: 1.0;"/><text fill="#000000" font-family="sans-serif" font-size="11" lengthAdjust="spacingAndGlyphs" textLength="47" x="427.5" y="748.3823">slot : int</text><ellipse cx="418.5" cy="757.9766" fill="none" rx="3" ry="3" style="stroke: #038048; stroke-width: 1.0;"/><text fill="#000000" font-family="sans-serif" font-size="11" lengthAdjust="spacingAndGlyphs" textLength="86" x="427.5" y="761.187">uri : std::string</text><!--MD5=[057d1071bf30d2b34a06d62850e57370]
class C_0005975997772767504221--><rect fill="#FEFECE" filter="url(#f1hvoa0i2n8qrl)" height="73.6094" id="C_0005975997772767504221" style="stroke: #A80036; stroke-width: 1.5;" width="162" x="674" y="668.4531"/><ellipse cx="689" cy="684.4531" fill="#ADD1B2" rx="11" ry="11" style="stroke: #A80036; stroke-width: 1.0;"/><path d="M691.9688,690.0938 Q691.3906,690.3906 690.75,690.5313 Q690.1094,690.6875 689.4063,690.6875 Q686.9063,690.6875 685.5781,689.0469 Q684.2656,687.3906 684.2656,684.2656 Q684.2656,681.1406 685.5781,679.4844 Q686.9063,677.8281 689.4063,677.8281 Q690.1094,677.8281 690.75,677.9844 Q691.4063,678.1406 691.9688,678.4375 L691.9688,681.1563 Q691.3438,680.5781 690.75,680.3125 Q690.1563,680.0313 689.5313,680.0313 Q688.1875,680.0313 687.5,681.1094 Q686.8125,682.1719 686.8125,684.2656 Q686.8125,686.3594 687.5,687.4375 Q688.1875,688.5 689.5313,688.5 Q690.1563,688.5 690.75,688.2344 Q691.3438,687.9531 691.9688,687.375 L691.9688,690.0938 Z "/><text fill="#000000" font-family="sans-serif" font-size="12" lengthAdjust="spacingAndGlyphs" textLength="130" x="703" y="688.6074">config::ModemConfig</text><line style="stroke: #A80036; stroke-width: 1.5;" x1="675" x2="835" y1="700.4531" y2="700.4531"/><line style="stroke: #A80036; stroke-width: 1.5;" x1="675" x2="835" y1="708.4531" y2="708.4531"/><ellipse cx="685" cy="719.4531" fill="none" rx="3" ry="3" style="stroke: #038048; stroke-width: 1.0;"/><text fill="#000000" font-family="sans-serif" font-size="11" lengthAdjust="spacingAndGlyphs" textLength="81" x="694" y="722.6636">enabled : bool</text><ellipse cx="685" cy="732.2578" fill="none" rx="3" ry="3" style="stroke: #038048; stroke-width: 1.0;"/><text fill="#000000" font-family="sans-serif" font-size="11" lengthAdjust="spacingAndGlyphs" textLength="118" x="694" y="735.4683">snifferEnabled : bool</text><!--MD5=[dc9f03d9ca8c568d4da0f11262928053]
class C_0006472023737076814481--><rect fill="#FEFECE" filter="url(#f1hvoa0i2n8qrl)" height="73.6094" id="C_0006472023737076814481" style="stroke: #A80036; stroke-width: 1.5;" width="151" x="871.5" y="668.4531"/><ellipse cx="889.65" cy="684.4531" fill="#ADD1B2" rx="11" ry="11" style="stroke: #A80036; stroke-width: 1.0;"/><path d="M892.6188,690.0938 Q892.0406,690.3906 891.4,690.5313 Q890.7594,690.6875 890.0563,690.6875 Q887.5563,690.6875 886.2281,689.0469 Q884.9156,687.3906 884.9156,684.2656 Q884.9156,681.1406 886.2281,679.4844 Q887.5563,677.8281 890.0563,677.8281 Q890.7594,677.8281 891.4,677.9844 Q892.0563,678.1406 892.6188,678.4375 L892.6188,681.1563 Q891.9938,680.5781 891.4,680.3125 Q890.8063,680.0313 890.1813,680.0313 Q888.8375,680.0313 888.15,681.1094 Q887.4625,682.1719 887.4625,684.2656 Q887.4625,686.3594 888.15,687.4375 Q888.8375,688.5 890.1813,688.5 Q890.8063,688.5 891.4,688.2344 Q891.9938,687.9531 892.6188,687.375 L892.6188,690.0938 Z "/><text fill="#000000" font-family="sans-serif" font-size="12" lengthAdjust="spacingAndGlyphs" textLength="112" x="904.35" y="688.6074">config::CpmConfig</text><line style="stroke: #A80036; stroke-width: 1.5;" x1="872.5" x2="1021.5" y1="700.4531" y2="700.4531"/><line style="stroke: #A80036; stroke-width: 1.5;" x1="872.5" x2="1021.5" y1="708.4531" y2="708.4531"/><ellipse cx="882.5" cy="719.4531" fill="none" rx="3" ry="3" style="stroke: #038048; stroke-width: 1.0;"/><text fill="#000000" font-family="sans-serif" font-size="11" lengthAdjust="spacingAndGlyphs" textLength="125" x="891.5" y="722.6636">ccpImage : std::string</text><ellipse cx="882.5" cy="732.2578" fill="none" rx="3" ry="3" style="stroke: #038048; stroke-width: 1.0;"/><text fill="#000000" font-family="sans-serif" font-size="11" lengthAdjust="spacingAndGlyphs" textLength="81" x="891.5" y="735.4683">enabled : bool</text><!--MD5=[3e8a4971dcaa44f2deceac9bd88dc8ce]
class C_0011654528465957303447--><rect fill="#FEFECE" filter="url(#f1hvoa0i2n8qrl)" height="60.8047" id="C_0011654528465957303447" style="stroke: #A80036; stroke-width: 1.5;" width="159" x="1057.5" y="674.9531"/><ellipse cx="1072.5" cy="690.9531" fill="#ADD1B2" rx="11" ry="11" style="stroke: #A80036; stroke-width: 1.0;"/><path d="M1075.4688,696.5938 Q1074.8906,696.8906 1074.25,697.0313 Q1073.6094,697.1875 1072.9063,697.1875 Q1070.4063,697.1875 1069.0781,695.5469 Q1067.7656,693.8906 1067.7656,690.7656 Q1067.7656,687.6406 1069.0781,685.9844 Q1070.4063,684.3281 1072.9063,684.3281 Q1073.6094,684.3281 1074.25,684.4844 Q1074.9063,684.6406 1075.4688,684.9375 L1075.4688,687.6563 Q1074.8438,687.0781 1074.25,686.8125 Q1073.6563,686.5313 1073.0313,686.5313 Q1071.6875,686.5313 1071,687.6094 Q1070.3125,688.6719 1070.3125,690.7656 Q1070.3125,692.8594 1071,693.9375 Q1071.6875,695 1073.0313,695 Q1073.6563,695 1074.25,694.7344 Q1074.8438,694.4531 1075.4688,693.875 L1075.4688,696.5938 Z "/><text fill="#000000" font-family="sans-serif" font-size="12" lengthAdjust="spacingAndGlyphs" textLength="127" x="1086.5" y="695.1074">config::PrinterConfig</text><line style="stroke: #A80036; stroke-width: 1.5;" x1="1058.5" x2="1215.5" y1="706.9531" y2="706.9531"/><line style="stroke: #A80036; stroke-width: 1.5;" x1="1058.5" x2="1215.5" y1="714.9531" y2="714.9531"/><ellipse cx="1068.5" cy="725.9531" fill="none" rx="3" ry="3" style="stroke: #038048; stroke-width: 1.0;"/><text fill="#000000" font-family="sans-serif" font-size="11" lengthAdjust="spacingAndGlyphs" textLength="81" x="1077.5" y="729.1636">enabled : bool</text><!--MD5=[15ea4b08cddec2aceb2cccd557403c5d]
class C_0009654526727956470660--><rect fill="#FEFECE" filter="url(#f1hvoa0i2n8qrl)" height="86.4141" id="C_0009654526727956470660" style="stroke: #A80036; stroke-width: 1.5;" width="158" x="1251" y="662.4531"/><ellipse cx="1266" cy="678.4531" fill="#ADD1B2" rx="11" ry="11" style="stroke: #A80036; stroke-width: 1.0;"/><path d="M1268.9688,684.0938 Q1268.3906,684.3906 1267.75,684.5313 Q1267.1094,684.6875 1266.4063,684.6875 Q1263.9063,684.6875 1262.5781,683.0469 Q1261.2656,681.3906 1261.2656,678.2656 Q1261.2656,675.1406 1262.5781,673.4844 Q1263.9063,671.8281 1266.4063,671.8281 Q1267.1094,671.8281 1267.75,671.9844 Q1268.4063,672.1406 1268.9688,672.4375 L1268.9688,675.1563 Q1268.3438,674.5781 1267.75,674.3125 Q1267.1563,674.0313 1266.5313,674.0313 Q1265.1875,674.0313 1264.5,675.1094 Q1263.8125,676.1719 1263.8125,678.2656 Q1263.8125,680.3594 1264.5,681.4375 Q1265.1875,682.5 1266.5313,682.5 Q1267.1563,682.5 1267.75,682.2344 Q1268.3438,681.9531 1268.9688,681.375 L1268.9688,684.0938 Z "/><text fill="#000000" font-family="sans-serif" font-size="12" lengthAdjust="spacingAndGlyphs" textLength="126" x="1280" y="682.6074">config::NetSioConfig</text><line style="stroke: #A80036; stroke-width: 1.5;" x1="1252" x2="1408" y1="694.4531" y2="694.4531"/><line style="stroke: #A80036; stroke-width: 1.5;" x1="1252" x2="1408" y1="702.4531" y2="702.4531"/><ellipse cx="1262" cy="713.4531" fill="none" rx="3" ry="3" style="stroke: #038048; stroke-width: 1.0;"/><text fill="#000000" font-family="sans-serif" font-size="11" lengthAdjust="spacingAndGlyphs" textLength="81" x="1271" y="716.6636">enabled : bool</text><ellipse cx="1262" cy="726.2578" fill="none" rx="3" ry="3" style="stroke: #038048; stroke-width: 1.0;"/><text fill="#000000" font-family="sans-serif" font-size="11" lengthAdjust="spacingAndGlyphs" textLength="96" x="1271" y="729.4683">host : std::string</text><ellipse cx="1262" cy="739.0625" fill="none" rx="3" ry="3" style="stroke: #038048; stroke-width: 1.0;"/><text fill="#000000" font-family="sans-serif" font-size="11" lengthAdjust="spacingAndGlyphs" textLength="106" x="1271" y="742.2729">port : std::uint16_t</text><!--MD5=[92a595d956a574eea10ff23713884567]
class C_0014123104778393566609--><rect fill="#FEFECE" filter="url(#f1hvoa0i2n8qrl)" height="73.6094" id="C_0014123104778393566609" style="stroke: #A80036; stroke-width: 1.5;" width="150" x="1444" y="668.4531"/><ellipse cx="1459" cy="684.4531" fill="#ADD1B2" rx="11" ry="11" style="stroke: #A80036; stroke-width: 1.0;"/><path d="M1461.9688,690.0938 Q1461.3906,690.3906 1460.75,690.5313 Q1460.1094,690.6875 1459.4063,690.6875 Q1456.9063,690.6875 1455.5781,689.0469 Q1454.2656,687.3906 1454.2656,684.2656 Q1454.2656,681.1406 1455.5781,679.4844 Q1456.9063,677.8281 1459.4063,677.8281 Q1460.1094,677.8281 1460.75,677.9844 Q1461.4063,678.1406 1461.9688,678.4375 L1461.9688,681.1563 Q1461.3438,680.5781 1460.75,680.3125 Q1460.1563,680.0313 1459.5313,680.0313 Q1458.1875,680.0313 1457.5,681.1094 Q1456.8125,682.1719 1456.8125,684.2656 Q1456.8125,686.3594 1457.5,687.4375 Q1458.1875,688.5 1459.5313,688.5 Q1460.1563,688.5 1460.75,688.2344 Q1461.3438,687.9531 1461.9688,687.375 L1461.9688,690.0938 Z "/><text fill="#000000" font-family="sans-serif" font-size="12" lengthAdjust="spacingAndGlyphs" textLength="118" x="1473" y="688.6074">config::ClockConfig</text><line style="stroke: #A80036; stroke-width: 1.5;" x1="1445" x2="1593" y1="700.4531" y2="700.4531"/><line style="stroke: #A80036; stroke-width: 1.5;" x1="1445" x2="1593" y1="708.4531" y2="708.4531"/><ellipse cx="1455" cy="719.4531" fill="none" rx="3" ry="3" style="stroke: #038048; stroke-width: 1.0;"/><text fill="#000000" font-family="sans-serif" font-size="11" lengthAdjust="spacingAndGlyphs" textLength="81" x="1464" y="722.6636">enabled : bool</text><ellipse cx="1455" cy="732.2578" fill="none" rx="3" ry="3" style="stroke: #038048; stroke-width: 1.0;"/><text fill="#000000" font-family="sans-serif" font-size="11" lengthAdjust="spacingAndGlyphs" textLength="122" x="1464" y="735.4683">timezone : std::string</text><!--MD5=[581d9f842569253d22e11dda473f06eb]
class C_0014601375190208620155--><rect fill="#FEFECE" filter="url(#f1hvoa0i2n8qrl)" height="60.8047" id="C_0014601375190208620155" style="stroke: #A80036; stroke-width: 1.5;" width="168" x="1629" y="674.9531"/><ellipse cx="1644" cy="690.9531" fill="#ADD1B2" rx="11" ry="11" style="stroke: #A80036; stroke-width: 1.0;"/><path d="M1646.9688,696.5938 Q1646.3906,696.8906 1645.75,697.0313 Q1645.1094,697.1875 1644.4063,697.1875 Q1641.9063,697.1875 1640.5781,695.5469 Q1639.2656,693.8906 1639.2656,690.7656 Q1639.2656,687.6406 1640.5781,685.9844 Q1641.9063,684.3281 1644.4063,684.3281 Q1645.1094,684.3281 1645.75,684.4844 Q1646.4063,684.6406 1646.9688,684.9375 L1646.9688,687.6563 Q1646.3438,687.0781 1645.75,686.8125 Q1645.1563,686.5313 1644.5313,686.5313 Q1643.1875,686.5313 1642.5,687.6094 Q1641.8125,688.6719 1641.8125,690.7656 Q1641.8125,692.8594 1642.5,693.9375 Q1643.1875,695 1644.5313,695 Q1645.1563,695 1645.75,694.7344 Q1646.3438,694.4531 1646.9688,693.875 L1646.9688,696.5938 Z "/><text fill="#000000" font-family="sans-serif" font-size="12" lengthAdjust="spacingAndGlyphs" textLength="136" x="1658" y="695.1074">config::ChannelConfig</text><line style="stroke: #A80036; stroke-width: 1.5;" x1="1630" x2="1796" y1="706.9531" y2="706.9531"/><line style="stroke: #A80036; stroke-width: 1.5;" x1="1630" x2="1796" y1="714.9531" y2="714.9531"/><ellipse cx="1640" cy="725.9531" fill="none" rx="3" ry="3" style="stroke: #038048; stroke-width: 1.0;"/><text fill="#000000" font-family="sans-serif" font-size="11" lengthAdjust="spacingAndGlyphs" textLength="113" x="1649" y="729.1636">ptyPath : std::string</text><!--MD5=[855586ee98f6648b42d1ec0d6b0caa1c]
class C_0013064010099190715901--><rect fill="#FEFECE" filter="url(#f1hvoa0i2n8qrl)" height="163.2422" id="C_0013064010099190715901" style="stroke: #A80036; stroke-width: 1.5;" width="230" x="832" y="402.9531"/><ellipse cx="889.75" cy="418.9531" fill="#ADD1B2" rx="11" ry="11" style="stroke: #A80036; stroke-width: 1.0;"/><path d="M892.7188,424.5938 Q892.1406,424.8906 891.5,425.0313 Q890.8594,425.1875 890.1563,425.1875 Q887.6563,425.1875 886.3281,423.5469 Q885.0156,421.8906 885.0156,418.7656 Q885.0156,415.6406 886.3281,413.9844 Q887.6563,412.3281 890.1563,412.3281 Q890.8594,412.3281 891.5,412.4844 Q892.1563,412.6406 892.7188,412.9375 L892.7188,415.6563 Q892.0938,415.0781 891.5,414.8125 Q890.9063,414.5313 890.2813,414.5313 Q888.9375,414.5313 888.25,415.6094 Q887.5625,416.6719 887.5625,418.7656 Q887.5625,420.8594 888.25,421.9375 Q888.9375,423 890.2813,423 Q890.9063,423 891.5,422.7344 Q892.0938,422.4531 892.7188,421.875 L892.7188,424.5938 Z "/><text fill="#000000" font-family="sans-serif" font-size="12" lengthAdjust="spacingAndGlyphs" textLength="106" x="910.25" y="423.1074">config::FujiConfig</text><line style="stroke: #A80036; stroke-width: 1.5;" x1="833" x2="1061" y1="434.9531" y2="434.9531"/><line style="stroke: #A80036; stroke-width: 1.5;" x1="833" x2="1061" y1="442.9531" y2="442.9531"/><ellipse cx="843" cy="453.9531" fill="none" rx="3" ry="3" style="stroke: #038048; stroke-width: 1.0;"/><text fill="#000000" font-family="sans-serif" font-size="11" lengthAdjust="spacingAndGlyphs" textLength="138" x="852" y="457.1636">channel : ChannelConfig</text><ellipse cx="843" cy="466.7578" fill="none" rx="3" ry="3" style="stroke: #038048; stroke-width: 1.0;"/><text fill="#000000" font-family="sans-serif" font-size="11" lengthAdjust="spacingAndGlyphs" textLength="106" x="852" y="469.9683">clock : ClockConfig</text><ellipse cx="843" cy="479.5625" fill="none" rx="3" ry="3" style="stroke: #038048; stroke-width: 1.0;"/><text fill="#000000" font-family="sans-serif" font-size="11" lengthAdjust="spacingAndGlyphs" textLength="98" x="852" y="482.7729">cpm : CpmConfig</text><ellipse cx="843" cy="492.3672" fill="none" rx="3" ry="3" style="stroke: #038048; stroke-width: 1.0;"/><text fill="#000000" font-family="sans-serif" font-size="11" lengthAdjust="spacingAndGlyphs" textLength="136" x="852" y="495.5776">general : GeneralConfig</text><ellipse cx="843" cy="505.1719" fill="none" rx="3" ry="3" style="stroke: #038048; stroke-width: 1.0;"/><text fill="#000000" font-family="sans-serif" font-size="11" lengthAdjust="spacingAndGlyphs" textLength="132" x="852" y="508.3823">modem : ModemConfig</text><ellipse cx="843" cy="517.9766" fill="none" rx="3" ry="3" style="stroke: #038048; stroke-width: 1.0;"/><text fill="#000000" font-family="sans-serif" font-size="11" lengthAdjust="spacingAndGlyphs" textLength="204" x="852" y="521.187">mounts : std::vector&lt;MountConfig&gt;</text><ellipse cx="843" cy="530.7813" fill="none" rx="3" ry="3" style="stroke: #038048; stroke-width: 1.0;"/><text fill="#000000" font-family="sans-serif" font-size="11" lengthAdjust="spacingAndGlyphs" textLength="120" x="852" y="533.9917">netsio : NetSioConfig</text><ellipse cx="843" cy="543.5859" fill="none" rx="3" ry="3" style="stroke: #038048; stroke-width: 1.0;"/><text fill="#000000" font-family="sans-serif" font-size="11" lengthAdjust="spacingAndGlyphs" textLength="124" x="852" y="546.7964">printer : PrinterConfig</text><ellipse cx="843" cy="556.3906" fill="none" rx="3" ry="3" style="stroke: #038048; stroke-width: 1.0;"/><text fill="#000000" font-family="sans-serif" font-size="11" lengthAdjust="spacingAndGlyphs" textLength="86" x="852" y="559.6011">wifi : WifiConfig</text><!--MD5=[15c4dbf65349c89d6de5777e747febb9]
class C_0010708806357379257038--><rect fill="#FEFECE" filter="url(#f1hvoa0i2n8qrl)" height="94.4141" id="C_0010708806357379257038" style="stroke: #A80036; stroke-width: 1.5;" width="280" x="807" y="28.9531"/><ellipse cx="872.75" cy="44.9531" fill="#A9DCDF" rx="11" ry="11" style="stroke: #A80036; stroke-width: 1.0;"/><path d="M872.8594,40.2969 L871.7031,45.375 L874.0313,45.375 L872.8594,40.2969 Z M871.375,38.0625 L874.3594,38.0625 L877.7188,50.4531 L875.2656,50.4531 L874.5,47.3906 L871.2188,47.3906 L870.4688,50.4531 L868.0313,50.4531 L871.375,38.0625 Z "/><text fill="#000000" font-family="sans-serif" font-size="12" font-style="italic" lengthAdjust="spacingAndGlyphs" textLength="140" x="893.25" y="49.1074">config::FujiConfigStore</text><line style="stroke: #A80036; stroke-width: 1.5;" x1="808" x2="1086" y1="60.9531" y2="60.9531"/><ellipse cx="818" cy="71.9531" fill="#84BE84" rx="3" ry="3" style="stroke: #038048; stroke-width: 1.0;"/><text fill="#000000" font-family="sans-serif" font-size="11" lengthAdjust="spacingAndGlyphs" textLength="254" x="827" y="75.1636">~FujiConfigStore() constexpr = default : void</text><line style="stroke: #A80036; stroke-width: 1.0; stroke-dasharray: 1.0,2.0;" x1="808" x2="1086" y1="81.7578" y2="81.7578"/><ellipse cx="818" cy="92.7578" fill="#84BE84" rx="3" ry="3" style="stroke: #038048; stroke-width: 1.0;"/><text fill="#000000" font-family="sans-serif" font-size="11" font-style="italic" lengthAdjust="spacingAndGlyphs" textLength="123" x="827" y="95.9683">load() = 0 : FujiConfig</text><ellipse cx="818" cy="105.5625" fill="#84BE84" rx="3" ry="3" style="stroke: #038048; stroke-width: 1.0;"/><text fill="#000000" font-family="sans-serif" font-size="11" font-style="italic" lengthAdjust="spacingAndGlyphs" textLength="218" x="827" y="108.7729">save(const FujiConfig &amp; cfg) = 0 : void</text><line style="stroke: #A80036; stroke-width: 1.5;" x1="808" x2="1086" y1="115.3672" y2="115.3672"/><!--MD5=[66ee30052d563e8ab8957f5c4ee3f2ed]
class C_0004992050062997423308--><rect fill="#FEFECE" filter="url(#f1hvoa0i2n8qrl)" height="158.4375" id="C_0004992050062997423308" style="stroke: #A80036; stroke-width: 1.5;" width="622" x="980" y="183.9531"/><ellipse cx="1195.25" cy="199.9531" fill="#ADD1B2" rx="11" ry="11" style="stroke: #A80036; stroke-width: 1.0;"/><path d="M1198.2188,205.5938 Q1197.6406,205.8906 1197,206.0313 Q1196.3594,206.1875 1195.6563,206.1875 Q1193.1563,206.1875 1191.8281,204.5469 Q1190.5156,202.8906 1190.5156,199.7656 Q1190.5156,196.6406 1191.8281,194.9844 Q1193.1563,193.3281 1195.6563,193.3281 Q1196.3594,193.3281 1197,193.4844 Q1197.6563,193.6406 1198.2188,193.9375 L1198.2188,196.6563 Q1197.5938,196.0781 1197,195.8125 Q1196.4063,195.5313 1195.7813,195.5313 Q1194.4375,195.5313 1193.75,196.6094 Q1193.0625,197.6719 1193.0625,199.7656 Q1193.0625,201.8594 1193.75,202.9375 Q1194.4375,204 1195.7813,204 Q1196.4063,204 1197,203.7344 Q1197.5938,203.4531 1198.2188,202.875 L1198.2188,205.5938 Z "/><text fill="#000000" font-family="sans-serif" font-size="12" lengthAdjust="spacingAndGlyphs" textLength="183" x="1215.75" y="204.1074">config::YamlFujiConfigStoreFs</text><line style="stroke: #A80036; stroke-width: 1.5;" x1="981" x2="1601" y1="215.9531" y2="215.9531"/><ellipse cx="991" cy="226.9531" fill="#84BE84" rx="3" ry="3" style="stroke: #038048; stroke-width: 1.0;"/><text fill="#000000" font-family="sans-serif" font-size="11" lengthAdjust="spacingAndGlyphs" textLength="596" x="1000" y="230.1636">YamlFujiConfigStoreFs(fs::IFileSystem * primary, fs::IFileSystem * backup, std::string relativePath) : void</text><line style="stroke: #A80036; stroke-width: 1.0; stroke-dasharray: 1.0,2.0;" x1="981" x2="1601" y1="236.7578" y2="236.7578"/><ellipse cx="991" cy="247.7578" fill="#84BE84" rx="3" ry="3" style="stroke: #038048; stroke-width: 1.0;"/><text fill="#000000" font-family="sans-serif" font-size="11" lengthAdjust="spacingAndGlyphs" textLength="99" x="1000" y="250.9683">load() : FujiConfig</text><rect fill="#F24D5C" height="6" style="stroke: #C82930; stroke-width: 1.0;" width="6" x="988" y="257.5625"/><text fill="#000000" font-family="sans-serif" font-size="11" lengthAdjust="spacingAndGlyphs" textLength="254" x="1000" y="263.7729">loadFromFs(fs::IFileSystem &amp; fs) : FujiConfig</text><ellipse cx="991" cy="273.3672" fill="#84BE84" rx="3" ry="3" style="stroke: #038048; stroke-width: 1.0;"/><text fill="#000000" font-family="sans-serif" font-size="11" lengthAdjust="spacingAndGlyphs" textLength="195" x="1000" y="276.5776">save(const FujiConfig &amp; cfg) : void</text><rect fill="#F24D5C" height="6" style="stroke: #C82930; stroke-width: 1.0;" width="6" x="988" y="283.1719"/><text fill="#000000" font-family="sans-serif" font-size="11" lengthAdjust="spacingAndGlyphs" textLength="343" x="1000" y="289.3823">saveToFs(fs::IFileSystem &amp; fs, const FujiConfig &amp; cfg) : void</text><line style="stroke: #A80036; stroke-width: 1.5;" x1="981" x2="1601" y1="295.9766" y2="295.9766"/><rect fill="none" height="6" style="stroke: #C82930; stroke-width: 1.0;" width="6" x="988" y="303.9766"/><text fill="#000000" font-family="sans-serif" font-size="11" lengthAdjust="spacingAndGlyphs" textLength="152" x="1000" y="310.187">_backup : fs::IFileSystem *</text><rect fill="none" height="6" style="stroke: #C82930; stroke-width: 1.0;" width="6" x="988" y="316.7813"/><text fill="#000000" font-family="sans-serif" font-size="11" lengthAdjust="spacingAndGlyphs" textLength="156" x="1000" y="322.9917">_primary : fs::IFileSystem *</text><rect fill="none" height="6" style="stroke: #C82930; stroke-width: 1.0;" width="6" x="988" y="329.5859"/><text fill="#000000" font-family="sans-serif" font-size="11" lengthAdjust="spacingAndGlyphs" textLength="117" x="1000" y="335.7964">_relPath : std::string</text><!--MD5=[697c584710d7f3f79c5334dd784c7dda]
reverse link C_0016837659718836839167 to C_0012427176626669726738--><path d="M89,762.1531 C89,788.4631 89,819.5831 89,844.9131 " fill="none" id="C_0016837659718836839167&lt;-C_0012427176626669726738" style="stroke: #A80036; stroke-width: 1.0;"/><polygon fill="#FFFFFF" points="89,748.8831,85,754.8831,89,760.8831,93,754.8831,89,748.8831" style="stroke: #A80036; stroke-width: 1.0;"/><ellipse cx="95" cy="807.0195" fill="none" rx="3" ry="3" style="stroke: #038048; stroke-width: 1.0;"/><text fill="#000000" font-family="sans-serif" font-size="13" lengthAdjust="spacingAndGlyphs" textLength="64" x="102" y="811.02">bootMode</text><!--MD5=[68ae0961016f6c901f2cda2e66a544c0]
reverse link C_0013064010099190715901 to C_0016837659718836839167--><path d="M818.67,498.3431 C664.86,516.8931 401.4,558.6031 190,642.9531 C176.84,648.2031 163.44,655.0931 150.88,662.3531 " fill="none" id="C_0013064010099190715901&lt;-C_0016837659718836839167" style="stroke: #A80036; stroke-width: 1.0;"/><polygon fill="#FFFFFF" points="831.83,496.7831,825.4014,493.5161,819.9132,498.1936,826.3418,501.4607,831.83,496.7831" style="stroke: #A80036; stroke-width: 1.0;"/><ellipse cx="316" cy="605.0195" fill="none" rx="3" ry="3" style="stroke: #038048; stroke-width: 1.0;"/><text fill="#000000" font-family="sans-serif" font-size="13" lengthAdjust="spacingAndGlyphs" textLength="48" x="323" y="609.02">general</text><!--MD5=[8df4a6b70f69789b13fe63f32a34e810]
reverse link C_0013064010099190715901 to C_0016905784937528219397--><path d="M819.09,511.0531 C703.91,536.5631 531.48,580.8831 390,642.9531 C377.5,648.4431 364.69,655.2631 352.59,662.3531 " fill="none" id="C_0013064010099190715901&lt;-C_0016905784937528219397" style="stroke: #A80036; stroke-width: 1.0;"/><polygon fill="#FFFFFF" points="831.8,508.2631,825.0817,505.6431,820.0793,510.8369,826.7976,513.4569,831.8,508.2631" style="stroke: #A80036; stroke-width: 1.0;"/><ellipse cx="515" cy="605.0195" fill="none" rx="3" ry="3" style="stroke: #038048; stroke-width: 1.0;"/><text fill="#000000" font-family="sans-serif" font-size="13" lengthAdjust="spacingAndGlyphs" textLength="19" x="522" y="609.02">wifi</text><!--MD5=[5788b9dddcbfb241c9bede639575b03f]
reverse link C_0013064010099190715901 to C_0013943630642961179492--><path d="M820.23,550.9331 C762.64,580.6731 694.99,615.6131 638.79,644.6431 " fill="none" id="C_0013064010099190715901&lt;-C_0013943630642961179492" style="stroke: #A80036; stroke-width: 1.0;"/><polygon fill="#FFFFFF" points="831.98,544.8631,824.8134,544.0637,821.319,550.3715,828.4856,551.171,831.98,544.8631" style="stroke: #A80036; stroke-width: 1.0;"/><ellipse cx="729" cy="605.0195" fill="none" rx="3" ry="3" style="stroke: #038048; stroke-width: 1.0;"/><text fill="#000000" font-family="sans-serif" font-size="13" lengthAdjust="spacingAndGlyphs" textLength="49" x="736" y="609.02">mounts</text><!--MD5=[ad8ffb268114aff73ee569af6965b092]
reverse link C_0013064010099190715901 to C_0005975997772767504221--><path d="M867.58,576.0431 C839.14,608.4731 808.71,643.1931 786.66,668.3331 " fill="none" id="C_0013064010099190715901&lt;-C_0005975997772767504221" style="stroke: #A80036; stroke-width: 1.0;"/><polygon fill="#FFFFFF" points="876.32,566.0631,869.3577,567.941,868.4133,575.09,875.3756,573.2121,876.32,566.0631" style="stroke: #A80036; stroke-width: 1.0;"/><ellipse cx="852" cy="605.0195" fill="none" rx="3" ry="3" style="stroke: #038048; stroke-width: 1.0;"/><text fill="#000000" font-family="sans-serif" font-size="13" lengthAdjust="spacingAndGlyphs" textLength="50" x="859" y="609.02">modem</text><!--MD5=[05691d5bb9c6ad5fcb49797f0e369ddc]
reverse link C_0013064010099190715901 to C_0006472023737076814481--><path d="M947,579.4131 C947,610.8631 947,644.0531 947,668.3331 " fill="none" id="C_0013064010099190715901&lt;-C_0006472023737076814481" style="stroke: #A80036; stroke-width: 1.0;"/><polygon fill="#FFFFFF" points="947,566.0631,943,572.0631,947,578.0631,951,572.0631,947,566.0631" style="stroke: #A80036; stroke-width: 1.0;"/><ellipse cx="953" cy="605.0195" fill="none" rx="3" ry="3" style="stroke: #038048; stroke-width: 1.0;"/><text fill="#000000" font-family="sans-serif" font-size="13" lengthAdjust="spacingAndGlyphs" textLength="28" x="960" y="609.02">cpm</text><!--MD5=[ecf0713d372f261774ed6f1170bca7f1]
reverse link C_0013064010099190715901 to C_0011654528465957303447--><path d="M1025.51,575.9431 C1056.15,611.2631 1089.15,649.3031 1111.23,674.7531 " fill="none" id="C_0013064010099190715901&lt;-C_0011654528465957303447" style="stroke: #A80036; stroke-width: 1.0;"/><polygon fill="#FFFFFF" points="1016.94,566.0631,1017.8512,573.2164,1024.8047,575.1266,1023.8935,567.9733,1016.94,566.0631" style="stroke: #A80036; stroke-width: 1.0;"/><ellipse cx="1059" cy="605.0195" fill="none" rx="3" ry="3" style="stroke: #038048; stroke-width: 1.0;"/><text fill="#000000" font-family="sans-serif" font-size="13" lengthAdjust="spacingAndGlyphs" textLength="42" x="1066" y="609.02">printer</text><!--MD5=[45d861b0573937a0f5f8f3cb27142b82]
reverse link C_0013064010099190715901 to C_0009654526727956470660--><path d="M1073.79,552.6331 C1124.1,579.9031 1182.2,612.1931 1234,642.9531 C1244.3,649.0631 1255.09,655.7231 1265.57,662.3331 " fill="none" id="C_0013064010099190715901&lt;-C_0009654526727956470660" style="stroke: #A80036; stroke-width: 1.0;"/><polygon fill="#FFFFFF" points="1062.18,546.3531,1065.5527,552.7269,1072.7333,552.0651,1069.3607,545.6913,1062.18,546.3531" style="stroke: #A80036; stroke-width: 1.0;"/><ellipse cx="1185" cy="605.0195" fill="none" rx="3" ry="3" style="stroke: #038048; stroke-width: 1.0;"/><text fill="#000000" font-family="sans-serif" font-size="13" lengthAdjust="spacingAndGlyphs" textLength="39" x="1192" y="609.02">netsio</text><!--MD5=[9e2ad4427ce0cb5727ace477ab75ccd1]
reverse link C_0013064010099190715901 to C_0014123104778393566609--><path d="M1075.19,517.2631 C1174.05,544.2031 1312.74,587.3131 1427,642.9531 C1441.68,650.1031 1456.76,659.2831 1470.35,668.3631 " fill="none" id="C_0013064010099190715901&lt;-C_0014123104778393566609" style="stroke: #A80036; stroke-width: 1.0;"/><polygon fill="#FFFFFF" points="1062.42,513.8131,1067.1703,519.2385,1074.0053,516.9404,1069.2551,511.515,1062.42,513.8131" style="stroke: #A80036; stroke-width: 1.0;"/><ellipse cx="1357" cy="605.0195" fill="none" rx="3" ry="3" style="stroke: #038048; stroke-width: 1.0;"/><text fill="#000000" font-family="sans-serif" font-size="13" lengthAdjust="spacingAndGlyphs" textLength="32" x="1364" y="609.02">clock</text><!--MD5=[245ea1da250d9b333bdb70a4a8a840e9]
reverse link C_0013064010099190715901 to C_0014601375190208620155--><path d="M1075.11,503.5231 C1211.79,525.5831 1432.85,569.3631 1612,642.9531 C1632.32,651.3031 1653.3,663.4131 1670.83,674.6831 " fill="none" id="C_0013064010099190715901&lt;-C_0014601375190208620155" style="stroke: #A80036; stroke-width: 1.0;"/><polygon fill="#FFFFFF" points="1062.15,501.4531,1067.4471,506.346,1074.001,503.3382,1068.7039,498.4453,1062.15,501.4531" style="stroke: #A80036; stroke-width: 1.0;"/><ellipse cx="1531" cy="605.0195" fill="none" rx="3" ry="3" style="stroke: #038048; stroke-width: 1.0;"/><text fill="#000000" font-family="sans-serif" font-size="13" lengthAdjust="spacingAndGlyphs" textLength="50" x="1538" y="609.02">channel</text><!--MD5=[9e8edfb870574f1852dac6d999b247c4]
link C_0010708806357379257038 to C_0013064010099190715901--><path d="M947,123.1831 C947,189.7331 947,313.7031 947,397.4031 " fill="none" id="C_0010708806357379257038-&gt;C_0013064010099190715901" style="stroke: #A80036; stroke-width: 1.0; stroke-dasharray: 7.0,7.0;"/><polygon fill="#A80036" points="947,402.6031,951,393.6031,947,397.6031,943,393.6031,947,402.6031" style="stroke: #A80036; stroke-width: 1.0;"/><!--MD5=[63b6da8648f081b7e056c5d20bbdf0b5]
link C_0004992050062997423308 to C_0013064010099190715901--><path d="M1168.75,341.9631 C1135.58,363.1231 1099.7,386.0231 1066.67,407.0931 " fill="none" id="C_0004992050062997423308-&gt;C_0013064010099190715901" style="stroke: #A80036; stroke-width: 1.0; stroke-dasharray: 7.0,7.0;"/><polygon fill="#A80036" points="1062.24,409.9231,1071.9817,408.4744,1066.4607,407.2424,1067.6926,401.7214,1062.24,409.9231" style="stroke: #A80036; stroke-width: 1.0;"/><!--MD5=[1de75543aaa043a97d9d9228638437f7]
reverse link C_0010708806357379257038 to C_0004992050062997423308--><path d="M1050.59,132.6631 C1080.51,148.7531 1113.72,166.6131 1145.67,183.7931 " fill="none" id="C_0010708806357379257038&lt;-C_0004992050062997423308" style="stroke: #A80036; stroke-width: 1.0;"/><polygon fill="none" points="1047.22,138.7931,1032.92,123.1631,1053.85,126.4631,1047.22,138.7931" style="stroke: #A80036; stroke-width: 1.0;"/><!--MD5=[9f410d0b06d17b4762f2546c618ffa45]
@startuml
title Config (auto-gen from clang-uml)
enum "config::BootMode" as C_0012427176626669726738
enum C_0012427176626669726738 {
Normal
Config
Cpm
Unknown
}
class "config::GeneralConfig" as C_0016837659718836839167
class C_0016837659718836839167 {
__
+altConfigFile : std::string
+bootMode : BootMode
+deviceName : std::string
}
class "config::WifiConfig" as C_0016905784937528219397
class C_0016905784937528219397 {
__
+enabled : bool
+passphrase : std::string
+ssid : std::string
}
class "config::MountConfig" as C_0013943630642961179492
class C_0013943630642961179492 {
+effective_slot() const : int
{static} +from_index(int index) constexpr : int
__
+enabled : bool
+mode : std::string
+slot : int
+uri : std::string
}
class "config::ModemConfig" as C_0005975997772767504221
class C_0005975997772767504221 {
__
+enabled : bool
+snifferEnabled : bool
}
class "config::CpmConfig" as C_0006472023737076814481
class C_0006472023737076814481 {
__
+ccpImage : std::string
+enabled : bool
}
class "config::PrinterConfig" as C_0011654528465957303447
class C_0011654528465957303447 {
__
+enabled : bool
}
class "config::NetSioConfig" as C_0009654526727956470660
class C_0009654526727956470660 {
__
+enabled : bool
+host : std::string
+port : std::uint16_t
}
class "config::ClockConfig" as C_0014123104778393566609
class C_0014123104778393566609 {
__
+enabled : bool
+timezone : std::string
}
class "config::ChannelConfig" as C_0014601375190208620155
class C_0014601375190208620155 {
__
+ptyPath : std::string
}
class "config::FujiConfig" as C_0013064010099190715901
class C_0013064010099190715901 {
__
+channel : ChannelConfig
+clock : ClockConfig
+cpm : CpmConfig
+general : GeneralConfig
+modem : ModemConfig
+mounts : std::vector<MountConfig>
+netsio : NetSioConfig
+printer : PrinterConfig
+wifi : WifiConfig
}
abstract "config::FujiConfigStore" as C_0010708806357379257038
abstract C_0010708806357379257038 {
+~FujiConfigStore() constexpr = default : void
..
{abstract} +load() = 0 : FujiConfig
{abstract} +save(const FujiConfig & cfg) = 0 : void
__
}
class "config::YamlFujiConfigStoreFs" as C_0004992050062997423308
class C_0004992050062997423308 {
+YamlFujiConfigStoreFs(fs::IFileSystem * primary, fs::IFileSystem * backup, std::string relativePath) : void
..
+load() : FujiConfig
-loadFromFs(fs::IFileSystem & fs) : FujiConfig
+save(const FujiConfig & cfg) : void
-saveToFs(fs::IFileSystem & fs, const FujiConfig & cfg) : void
__
-_backup : fs::IFileSystem *
-_primary : fs::IFileSystem *
-_relPath : std::string
}
C_0016837659718836839167 o- - C_0012427176626669726738 : +bootMode
C_0013064010099190715901 o- - C_0016837659718836839167 : +general
C_0013064010099190715901 o- - C_0016905784937528219397 : +wifi
C_0013064010099190715901 o- - C_0013943630642961179492 : +mounts
C_0013064010099190715901 o- - C_0005975997772767504221 : +modem
C_0013064010099190715901 o- - C_0006472023737076814481 : +cpm
C_0013064010099190715901 o- - C_0011654528465957303447 : +printer
C_0013064010099190715901 o- - C_0009654526727956470660 : +netsio
C_0013064010099190715901 o- - C_0014123104778393566609 : +clock
C_0013064010099190715901 o- - C_0014601375190208620155 : +channel
C_0010708806357379257038 ..> C_0013064010099190715901
C_0004992050062997423308 ..> C_0013064010099190715901
C_0010708806357379257038 <|- - C_0004992050062997423308

@enduml

PlantUML version 1.2020.02(Sun Mar 01 10:22:07 UTC 2020)
(GPL source distribution)
Java Runtime: OpenJDK Runtime Environment
JVM: OpenJDK 64-Bit Server VM
Java Version: 17.0.18+8
Operating System: Linux
Default Encoding: UTF-8
Language: en
Country: null
--></g></svg>