<?xml version="1.0" encoding="UTF-8" standalone="no"?><svg xmlns="http://www.w3.org/2000/svg" xmlns:xlink="http://www.w3.org/1999/xlink" contentScriptType="application/ecmascript" contentStyleType="text/css" height="1274px" preserveAspectRatio="none" style="width:937px;height:1274px;" version="1.1" viewBox="0 0 937 1274" width="937px" zoomAndPan="magnify"><defs><filter height="300%" id="fn91flvxzfqym" width="300%" x="-1" y="-1"><feGaussianBlur result="blurOut" stdDeviation="2.0"/><feColorMatrix in="blurOut" result="blurOut2" type="matrix" values="0 0 0 0 0 0 0 0 0 0 0 0 0 0 0 0 0 0 .4 0"/><feOffset dx="4.0" dy="4.0" in="blurOut2" result="blurOut3"/><feBlend in="SourceGraphic" in2="blurOut3" mode="normal"/></filter></defs><g><text fill="#000000" font-family="sans-serif" font-size="18" lengthAdjust="spacingAndGlyphs" textLength="332" x="306.5" y="16.708">Filesystem (auto-gen from clang-uml)</text><!--MD5=[e229282a9ebb5df653a21cc96098b440]
class C_0014883681608496495557--><rect fill="#FEFECE" filter="url(#fn91flvxzfqym)" height="150.4375" id="C_0014883681608496495557" style="stroke: #A80036; stroke-width: 1.5;" width="143" x="29.5" y="893.9531"/><ellipse cx="44.5" cy="909.9531" fill="#EB937F" rx="11" ry="11" style="stroke: #A80036; stroke-width: 1.0;"/><path d="M48.6094,915.9531 L40.8906,915.9531 L40.8906,903.5625 L48.6094,903.5625 L48.6094,905.7188 L43.3438,905.7188 L43.3438,908.3906 L48.1094,908.3906 L48.1094,910.5469 L43.3438,910.5469 L43.3438,913.7969 L48.6094,913.7969 L48.6094,915.9531 Z "/><text fill="#000000" font-family="sans-serif" font-size="12" lengthAdjust="spacingAndGlyphs" textLength="111" x="58.5" y="914.1074">fs::FileSystemKind</text><line style="stroke: #A80036; stroke-width: 1.5;" x1="30.5" x2="171.5" y1="925.9531" y2="925.9531"/><text fill="#000000" font-family="sans-serif" font-size="11" lengthAdjust="spacingAndGlyphs" textLength="59" x="35.5" y="940.1636">LocalFlash</text><text fill="#000000" font-family="sans-serif" font-size="11" lengthAdjust="spacingAndGlyphs" textLength="45" x="35.5" y="952.9683">LocalSD</text><text fill="#000000" font-family="sans-serif" font-size="11" lengthAdjust="spacingAndGlyphs" textLength="56" x="35.5" y="965.7729">HostPosix</text><text fill="#000000" font-family="sans-serif" font-size="11" lengthAdjust="spacingAndGlyphs" textLength="71" x="35.5" y="978.5776">NetworkTnfs</text><text fill="#000000" font-family="sans-serif" font-size="11" lengthAdjust="spacingAndGlyphs" textLength="72" x="35.5" y="991.3823">NetworkSmb</text><text fill="#000000" font-family="sans-serif" font-size="11" lengthAdjust="spacingAndGlyphs" textLength="63" x="35.5" y="1004.187">NetworkFtp</text><text fill="#000000" font-family="sans-serif" font-size="11" lengthAdjust="spacingAndGlyphs" textLength="69" x="35.5" y="1016.9917">NetworkHttp</text><text fill="#000000" font-family="sans-serif" font-size="11" lengthAdjust="spacingAndGlyphs" textLength="51" x="35.5" y="1029.7964">Unknown</text><line style="stroke: #A80036; stroke-width: 1.5;" x1="30.5" x2="171.5" y1="1036.3906" y2="1036.3906"/><!--MD5=[9aaea6a4045dfcc9395dc06772d4efc1]
class C_0007646493544420080876--><rect fill="#FEFECE" filter="url(#fn91flvxzfqym)" height="99.2188" id="C_0007646493544420080876" style="stroke: #A80036; stroke-width: 1.5;" width="331" x="595.5" y="919.4531"/><ellipse cx="725.25" cy="935.4531" fill="#ADD1B2" rx="11" ry="11" style="stroke: #A80036; stroke-width: 1.0;"/><path d="M728.2188,941.0938 Q727.6406,941.3906 727,941.5313 Q726.3594,941.6875 725.6563,941.6875 Q723.1563,941.6875 721.8281,940.0469 Q720.5156,938.3906 720.5156,935.2656 Q720.5156,932.1406 721.8281,930.4844 Q723.1563,928.8281 725.6563,928.8281 Q726.3594,928.8281 727,928.9844 Q727.6563,929.1406 728.2188,929.4375 L728.2188,932.1563 Q727.5938,931.5781 727,931.3125 Q726.4063,931.0313 725.7813,931.0313 Q724.4375,931.0313 723.75,932.1094 Q723.0625,933.1719 723.0625,935.2656 Q723.0625,937.3594 723.75,938.4375 Q724.4375,939.5 725.7813,939.5 Q726.4063,939.5 727,939.2344 Q727.5938,938.9531 728.2188,938.375 L728.2188,941.0938 Z "/><text fill="#000000" font-family="sans-serif" font-size="12" lengthAdjust="spacingAndGlyphs" textLength="63" x="745.75" y="939.6074">fs::FileInfo</text><line style="stroke: #A80036; stroke-width: 1.5;" x1="596.5" x2="925.5" y1="951.4531" y2="951.4531"/><line style="stroke: #A80036; stroke-width: 1.5;" x1="596.5" x2="925.5" y1="959.4531" y2="959.4531"/><ellipse cx="606.5" cy="970.4531" fill="none" rx="3" ry="3" style="stroke: #038048; stroke-width: 1.0;"/><text fill="#000000" font-family="sans-serif" font-size="11" lengthAdjust="spacingAndGlyphs" textLength="97" x="615.5" y="973.6636">isDirectory : bool</text><ellipse cx="606.5" cy="983.2578" fill="none" rx="3" ry="3" style="stroke: #038048; stroke-width: 1.0;"/><text fill="#000000" font-family="sans-serif" font-size="11" lengthAdjust="spacingAndGlyphs" textLength="305" x="615.5" y="986.4683">modifiedTime : std::chrono::system_clock::time_point</text><ellipse cx="606.5" cy="996.0625" fill="none" rx="3" ry="3" style="stroke: #038048; stroke-width: 1.0;"/><text fill="#000000" font-family="sans-serif" font-size="11" lengthAdjust="spacingAndGlyphs" textLength="96" x="615.5" y="999.2729">path : std::string</text><ellipse cx="606.5" cy="1008.8672" fill="none" rx="3" ry="3" style="stroke: #038048; stroke-width: 1.0;"/><text fill="#000000" font-family="sans-serif" font-size="11" lengthAdjust="spacingAndGlyphs" textLength="137" x="615.5" y="1012.0776">sizeBytes : std::uint64_t</text><!--MD5=[7b2ccdb21bc98fe76851b4c0eb674b8d]
class C_0014904826619290153445--><rect fill="#FEFECE" filter="url(#fn91flvxzfqym)" height="132.8281" id="C_0014904826619290153445" style="stroke: #A80036; stroke-width: 1.5;" width="344" x="213" y="902.4531"/><ellipse cx="359.25" cy="918.4531" fill="#A9DCDF" rx="11" ry="11" style="stroke: #A80036; stroke-width: 1.0;"/><path d="M359.3594,913.7969 L358.2031,918.875 L360.5313,918.875 L359.3594,913.7969 Z M357.875,911.5625 L360.8594,911.5625 L364.2188,923.9531 L361.7656,923.9531 L361,920.8906 L357.7188,920.8906 L356.9688,923.9531 L354.5313,923.9531 L357.875,911.5625 Z "/><text fill="#000000" font-family="sans-serif" font-size="12" font-style="italic" lengthAdjust="spacingAndGlyphs" textLength="43" x="379.75" y="922.6074">fs::IFile</text><line style="stroke: #A80036; stroke-width: 1.5;" x1="214" x2="556" y1="934.4531" y2="934.4531"/><ellipse cx="224" cy="945.4531" fill="#84BE84" rx="3" ry="3" style="stroke: #038048; stroke-width: 1.0;"/><text fill="#000000" font-family="sans-serif" font-size="11" lengthAdjust="spacingAndGlyphs" textLength="190" x="233" y="948.6636">~IFile() constexpr = default : void</text><line style="stroke: #A80036; stroke-width: 1.0; stroke-dasharray: 1.0,2.0;" x1="214" x2="556" y1="955.2578" y2="955.2578"/><ellipse cx="224" cy="966.2578" fill="#84BE84" rx="3" ry="3" style="stroke: #038048; stroke-width: 1.0;"/><text fill="#000000" font-family="sans-serif" font-size="11" font-style="italic" lengthAdjust="spacingAndGlyphs" textLength="95" x="233" y="969.4683">flush() = 0 : bool</text><ellipse cx="224" cy="979.0625" fill="#84BE84" rx="3" ry="3" style="stroke: #038048; stroke-width: 1.0;"/><text fill="#000000" font-family="sans-serif" font-size="11" font-style="italic" lengthAdjust="spacingAndGlyphs" textLength="308" x="233" y="982.2729">read(void * dst, std::size_t maxBytes) = 0 : std::size_t</text><ellipse cx="224" cy="991.8672" fill="#84BE84" rx="3" ry="3" style="stroke: #038048; stroke-width: 1.0;"/><text fill="#000000" font-family="sans-serif" font-size="11" font-style="italic" lengthAdjust="spacingAndGlyphs" textLength="200" x="233" y="995.0776">seek(std::uint64_t offset) = 0 : bool</text><ellipse cx="224" cy="1004.6719" fill="#84BE84" rx="3" ry="3" style="stroke: #038048; stroke-width: 1.0;"/><text fill="#000000" font-family="sans-serif" font-size="11" font-style="italic" lengthAdjust="spacingAndGlyphs" textLength="165" x="233" y="1007.8823">tell() const = 0 : std::uint64_t</text><ellipse cx="224" cy="1017.4766" fill="#84BE84" rx="3" ry="3" style="stroke: #038048; stroke-width: 1.0;"/><text fill="#000000" font-family="sans-serif" font-size="11" font-style="italic" lengthAdjust="spacingAndGlyphs" textLength="318" x="233" y="1020.687">write(const void * src, std::size_t bytes) = 0 : std::size_t</text><line style="stroke: #A80036; stroke-width: 1.5;" x1="214" x2="556" y1="1027.2813" y2="1027.2813"/><!--MD5=[eed87f025b31fc734c35063cec541eae]
class C_0012397556205933868732--><rect fill="#FEFECE" filter="url(#fn91flvxzfqym)" height="196.8516" id="C_0012397556205933868732" style="stroke: #A80036; stroke-width: 1.5;" width="496" x="6" y="297.9531"/><ellipse cx="205.75" cy="313.9531" fill="#A9DCDF" rx="11" ry="11" style="stroke: #A80036; stroke-width: 1.0;"/><path d="M205.8594,309.2969 L204.7031,314.375 L207.0313,314.375 L205.8594,309.2969 Z M204.375,307.0625 L207.3594,307.0625 L210.7188,319.4531 L208.2656,319.4531 L207.5,316.3906 L204.2188,316.3906 L203.4688,319.4531 L201.0313,319.4531 L204.375,307.0625 Z "/><text fill="#000000" font-family="sans-serif" font-size="12" font-style="italic" lengthAdjust="spacingAndGlyphs" textLength="88" x="226.25" y="318.1074">fs::IFileSystem</text><line style="stroke: #A80036; stroke-width: 1.5;" x1="7" x2="501" y1="329.9531" y2="329.9531"/><ellipse cx="17" cy="340.9531" fill="#84BE84" rx="3" ry="3" style="stroke: #038048; stroke-width: 1.0;"/><text fill="#000000" font-family="sans-serif" font-size="11" lengthAdjust="spacingAndGlyphs" textLength="233" x="26" y="344.1636">~IFileSystem() constexpr = default : void</text><line style="stroke: #A80036; stroke-width: 1.0; stroke-dasharray: 1.0,2.0;" x1="7" x2="501" y1="350.7578" y2="350.7578"/><ellipse cx="17" cy="361.7578" fill="#84BE84" rx="3" ry="3" style="stroke: #038048; stroke-width: 1.0;"/><text fill="#000000" font-family="sans-serif" font-size="11" font-style="italic" lengthAdjust="spacingAndGlyphs" textLength="289" x="26" y="364.9683">createDirectory(const std::string &amp; path) = 0 : bool</text><ellipse cx="17" cy="374.5625" fill="#84BE84" rx="3" ry="3" style="stroke: #038048; stroke-width: 1.0;"/><text fill="#000000" font-family="sans-serif" font-size="11" font-style="italic" lengthAdjust="spacingAndGlyphs" textLength="234" x="26" y="377.7729">exists(const std::string &amp; path) = 0 : bool</text><ellipse cx="17" cy="387.3672" fill="#84BE84" rx="3" ry="3" style="stroke: #038048; stroke-width: 1.0;"/><text fill="#000000" font-family="sans-serif" font-size="11" font-style="italic" lengthAdjust="spacingAndGlyphs" textLength="262" x="26" y="390.5776">isDirectory(const std::string &amp; path) = 0 : bool</text><ellipse cx="17" cy="400.1719" fill="#84BE84" rx="3" ry="3" style="stroke: #038048; stroke-width: 1.0;"/><text fill="#000000" font-family="sans-serif" font-size="11" font-style="italic" lengthAdjust="spacingAndGlyphs" textLength="186" x="26" y="403.3823">kind() const = 0 : FileSystemKind</text><ellipse cx="17" cy="412.9766" fill="#84BE84" rx="3" ry="3" style="stroke: #038048; stroke-width: 1.0;"/><text fill="#000000" font-family="sans-serif" font-size="11" font-style="italic" lengthAdjust="spacingAndGlyphs" textLength="470" x="26" y="416.187">listDirectory(const std::string &amp; path, std::vector&lt;FileInfo&gt; &amp; outEntries) = 0 : bool</text><ellipse cx="17" cy="425.7813" fill="#84BE84" rx="3" ry="3" style="stroke: #038048; stroke-width: 1.0;"/><text fill="#000000" font-family="sans-serif" font-size="11" font-style="italic" lengthAdjust="spacingAndGlyphs" textLength="167" x="26" y="428.9917">name() const = 0 : std::string</text><ellipse cx="17" cy="438.5859" fill="#84BE84" rx="3" ry="3" style="stroke: #038048; stroke-width: 1.0;"/><text fill="#000000" font-family="sans-serif" font-size="11" font-style="italic" lengthAdjust="spacingAndGlyphs" textLength="443" x="26" y="441.7964">open(const std::string &amp; path, const char * mode) = 0 : std::unique_ptr&lt;IFile&gt;</text><ellipse cx="17" cy="451.3906" fill="#84BE84" rx="3" ry="3" style="stroke: #038048; stroke-width: 1.0;"/><text fill="#000000" font-family="sans-serif" font-size="11" font-style="italic" lengthAdjust="spacingAndGlyphs" textLength="297" x="26" y="454.6011">removeDirectory(const std::string &amp; path) = 0 : bool</text><ellipse cx="17" cy="464.1953" fill="#84BE84" rx="3" ry="3" style="stroke: #038048; stroke-width: 1.0;"/><text fill="#000000" font-family="sans-serif" font-size="11" font-style="italic" lengthAdjust="spacingAndGlyphs" textLength="264" x="26" y="467.4058">removeFile(const std::string &amp; path) = 0 : bool</text><ellipse cx="17" cy="477" fill="#84BE84" rx="3" ry="3" style="stroke: #038048; stroke-width: 1.0;"/><text fill="#000000" font-family="sans-serif" font-size="11" font-style="italic" lengthAdjust="spacingAndGlyphs" textLength="374" x="26" y="480.2104">rename(const std::string &amp; from, const std::string &amp; to) = 0 : bool</text><line style="stroke: #A80036; stroke-width: 1.5;" x1="7" x2="501" y1="486.8047" y2="486.8047"/><!--MD5=[ba7b63b4422cbdf988c084de7c91a086]
class C_0001279065520068563954--><rect fill="#FEFECE" filter="url(#fn91flvxzfqym)" height="192.0469" id="C_0001279065520068563954" style="stroke: #A80036; stroke-width: 1.5;" width="477" x="15.5" y="28.9531"/><ellipse cx="187.75" cy="44.9531" fill="#ADD1B2" rx="11" ry="11" style="stroke: #A80036; stroke-width: 1.0;"/><path d="M190.7188,50.5938 Q190.1406,50.8906 189.5,51.0313 Q188.8594,51.1875 188.1563,51.1875 Q185.6563,51.1875 184.3281,49.5469 Q183.0156,47.8906 183.0156,44.7656 Q183.0156,41.6406 184.3281,39.9844 Q185.6563,38.3281 188.1563,38.3281 Q188.8594,38.3281 189.5,38.4844 Q190.1563,38.6406 190.7188,38.9375 L190.7188,41.6563 Q190.0938,41.0781 189.5,40.8125 Q188.9063,40.5313 188.2813,40.5313 Q186.9375,40.5313 186.25,41.6094 Q185.5625,42.6719 185.5625,44.7656 Q185.5625,46.8594 186.25,47.9375 Q186.9375,49 188.2813,49 Q188.9063,49 189.5,48.7344 Q190.0938,48.4531 190.7188,47.875 L190.7188,50.5938 Z "/><text fill="#000000" font-family="sans-serif" font-size="12" lengthAdjust="spacingAndGlyphs" textLength="124" x="208.25" y="49.1074">fs::StorageManager</text><line style="stroke: #A80036; stroke-width: 1.5;" x1="16.5" x2="491.5" y1="60.9531" y2="60.9531"/><ellipse cx="26.5" cy="71.9531" fill="#84BE84" rx="3" ry="3" style="stroke: #038048; stroke-width: 1.0;"/><text fill="#000000" font-family="sans-serif" font-size="11" lengthAdjust="spacingAndGlyphs" textLength="193" x="35.5" y="75.1636">StorageManager() = default : void</text><ellipse cx="26.5" cy="84.7578" fill="#84BE84" rx="3" ry="3" style="stroke: #038048; stroke-width: 1.0;"/><text fill="#000000" font-family="sans-serif" font-size="11" lengthAdjust="spacingAndGlyphs" textLength="339" x="35.5" y="87.9683">StorageManager(const StorageManager &amp;) = deleted : void</text><ellipse cx="26.5" cy="97.5625" fill="#84BE84" rx="3" ry="3" style="stroke: #038048; stroke-width: 1.0;"/><text fill="#000000" font-family="sans-serif" font-size="11" lengthAdjust="spacingAndGlyphs" textLength="202" x="35.5" y="100.7729">~StorageManager() = default : void</text><line style="stroke: #A80036; stroke-width: 1.0; stroke-dasharray: 1.0,2.0;" x1="16.5" x2="491.5" y1="107.3672" y2="107.3672"/><ellipse cx="26.5" cy="118.3672" fill="#84BE84" rx="3" ry="3" style="stroke: #038048; stroke-width: 1.0;"/><text fill="#000000" font-family="sans-serif" font-size="11" lengthAdjust="spacingAndGlyphs" textLength="388" x="35.5" y="121.5776">operator=(const StorageManager &amp;) = deleted : StorageManager &amp;</text><line style="stroke: #A80036; stroke-width: 1.0; stroke-dasharray: 1.0,2.0;" x1="16.5" x2="491.5" y1="128.1719" y2="128.1719"/><ellipse cx="26.5" cy="139.1719" fill="#84BE84" rx="3" ry="3" style="stroke: #038048; stroke-width: 1.0;"/><text fill="#000000" font-family="sans-serif" font-size="11" lengthAdjust="spacingAndGlyphs" textLength="257" x="35.5" y="142.3823">get(const std::string &amp; name) : IFileSystem *</text><ellipse cx="26.5" cy="151.9766" fill="#84BE84" rx="3" ry="3" style="stroke: #038048; stroke-width: 1.0;"/><text fill="#000000" font-family="sans-serif" font-size="11" lengthAdjust="spacingAndGlyphs" textLength="327" x="35.5" y="155.187">get(const std::string &amp; name) const : const IFileSystem *</text><ellipse cx="26.5" cy="164.7813" fill="#84BE84" rx="3" ry="3" style="stroke: #038048; stroke-width: 1.0;"/><text fill="#000000" font-family="sans-serif" font-size="11" lengthAdjust="spacingAndGlyphs" textLength="250" x="35.5" y="167.9917">listNames() const : std::vector&lt;std::string&gt;</text><ellipse cx="26.5" cy="177.5859" fill="#84BE84" rx="3" ry="3" style="stroke: #038048; stroke-width: 1.0;"/><text fill="#000000" font-family="sans-serif" font-size="11" lengthAdjust="spacingAndGlyphs" textLength="335" x="35.5" y="180.7964">registerFileSystem(std::unique_ptr&lt;IFileSystem&gt; fs) : bool</text><ellipse cx="26.5" cy="190.3906" fill="#84BE84" rx="3" ry="3" style="stroke: #038048; stroke-width: 1.0;"/><text fill="#000000" font-family="sans-serif" font-size="11" lengthAdjust="spacingAndGlyphs" textLength="309" x="35.5" y="193.6011">unregisterFileSystem(const std::string &amp; name) : bool</text><line style="stroke: #A80036; stroke-width: 1.5;" x1="16.5" x2="491.5" y1="200.1953" y2="200.1953"/><rect fill="none" height="6" style="stroke: #C82930; stroke-width: 1.0;" width="6" x="23.5" y="208.1953"/><text fill="#000000" font-family="sans-serif" font-size="11" lengthAdjust="spacingAndGlyphs" textLength="451" x="35.5" y="214.4058">_fileSystems : std::unordered_map&lt;std::string,std::unique_ptr&lt;IFileSystem&gt;&gt;</text><!--MD5=[366ac8ee8567c88026dc56de7b596898]
class C_0007693094110734758389--><rect fill="#FEFECE" filter="url(#fn91flvxzfqym)" height="158.4375" id="C_0007693094110734758389" style="stroke: #A80036; stroke-width: 1.5;" width="323" x="223.5" y="1104.9531"/><ellipse cx="344.75" cy="1120.9531" fill="#ADD1B2" rx="11" ry="11" style="stroke: #A80036; stroke-width: 1.0;"/><path d="M347.7188,1126.5938 Q347.1406,1126.8906 346.5,1127.0313 Q345.8594,1127.1875 345.1563,1127.1875 Q342.6563,1127.1875 341.3281,1125.5469 Q340.0156,1123.8906 340.0156,1120.7656 Q340.0156,1117.6406 341.3281,1115.9844 Q342.6563,1114.3281 345.1563,1114.3281 Q345.8594,1114.3281 346.5,1114.4844 Q347.1563,1114.6406 347.7188,1114.9375 L347.7188,1117.6563 Q347.0938,1117.0781 346.5,1116.8125 Q345.9063,1116.5313 345.2813,1116.5313 Q343.9375,1116.5313 343.25,1117.6094 Q342.5625,1118.6719 342.5625,1120.7656 Q342.5625,1122.8594 343.25,1123.9375 Q343.9375,1125 345.2813,1125 Q345.9063,1125 346.5,1124.7344 Q347.0938,1124.4531 347.7188,1123.875 L347.7188,1126.5938 Z "/><text fill="#000000" font-family="sans-serif" font-size="12" lengthAdjust="spacingAndGlyphs" textLength="72" x="365.25" y="1125.1074">fs::StdioFile</text><line style="stroke: #A80036; stroke-width: 1.5;" x1="224.5" x2="545.5" y1="1136.9531" y2="1136.9531"/><ellipse cx="234.5" cy="1147.9531" fill="#84BE84" rx="3" ry="3" style="stroke: #038048; stroke-width: 1.0;"/><text fill="#000000" font-family="sans-serif" font-size="11" lengthAdjust="spacingAndGlyphs" textLength="164" x="243.5" y="1151.1636">StdioFile(std::FILE * fp) : void</text><ellipse cx="234.5" cy="1160.7578" fill="#84BE84" rx="3" ry="3" style="stroke: #038048; stroke-width: 1.0;"/><text fill="#000000" font-family="sans-serif" font-size="11" lengthAdjust="spacingAndGlyphs" textLength="100" x="243.5" y="1163.9683">~StdioFile() : void</text><line style="stroke: #A80036; stroke-width: 1.0; stroke-dasharray: 1.0,2.0;" x1="224.5" x2="545.5" y1="1170.5625" y2="1170.5625"/><ellipse cx="234.5" cy="1181.5625" fill="#84BE84" rx="3" ry="3" style="stroke: #038048; stroke-width: 1.0;"/><text fill="#000000" font-family="sans-serif" font-size="11" lengthAdjust="spacingAndGlyphs" textLength="72" x="243.5" y="1184.7729">flush() : bool</text><ellipse cx="234.5" cy="1194.3672" fill="#84BE84" rx="3" ry="3" style="stroke: #038048; stroke-width: 1.0;"/><text fill="#000000" font-family="sans-serif" font-size="11" lengthAdjust="spacingAndGlyphs" textLength="285" x="243.5" y="1197.5776">read(void * dst, std::size_t maxBytes) : std::size_t</text><ellipse cx="234.5" cy="1207.1719" fill="#84BE84" rx="3" ry="3" style="stroke: #038048; stroke-width: 1.0;"/><text fill="#000000" font-family="sans-serif" font-size="11" lengthAdjust="spacingAndGlyphs" textLength="179" x="243.5" y="1210.3823">seek(std::uint64_t offset) : bool</text><ellipse cx="234.5" cy="1219.9766" fill="#84BE84" rx="3" ry="3" style="stroke: #038048; stroke-width: 1.0;"/><text fill="#000000" font-family="sans-serif" font-size="11" lengthAdjust="spacingAndGlyphs" textLength="143" x="243.5" y="1223.187">tell() const : std::uint64_t</text><ellipse cx="234.5" cy="1232.7813" fill="#84BE84" rx="3" ry="3" style="stroke: #038048; stroke-width: 1.0;"/><text fill="#000000" font-family="sans-serif" font-size="11" lengthAdjust="spacingAndGlyphs" textLength="297" x="243.5" y="1235.9917">write(const void * src, std::size_t bytes) : std::size_t</text><line style="stroke: #A80036; stroke-width: 1.5;" x1="224.5" x2="545.5" y1="1242.5859" y2="1242.5859"/><rect fill="none" height="6" style="stroke: #C82930; stroke-width: 1.0;" width="6" x="231.5" y="1250.5859"/><text fill="#000000" font-family="sans-serif" font-size="11" lengthAdjust="spacingAndGlyphs" textLength="87" x="243.5" y="1256.7964">_fp : std::FILE *</text><!--MD5=[8d4f530c68e256c4314797047ed026ca]
class C_0001007711765235056436--><rect fill="#FEFECE" filter="url(#fn91flvxzfqym)" height="260.875" id="C_0001007711765235056436" style="stroke: #A80036; stroke-width: 1.5;" width="486" x="223" y="555.9531"/><ellipse cx="403.25" cy="571.9531" fill="#ADD1B2" rx="11" ry="11" style="stroke: #A80036; stroke-width: 1.0;"/><path d="M406.2188,577.5938 Q405.6406,577.8906 405,578.0313 Q404.3594,578.1875 403.6563,578.1875 Q401.1563,578.1875 399.8281,576.5469 Q398.5156,574.8906 398.5156,571.7656 Q398.5156,568.6406 399.8281,566.9844 Q401.1563,565.3281 403.6563,565.3281 Q404.3594,565.3281 405,565.4844 Q405.6563,565.6406 406.2188,565.9375 L406.2188,568.6563 Q405.5938,568.0781 405,567.8125 Q404.4063,567.5313 403.7813,567.5313 Q402.4375,567.5313 401.75,568.6094 Q401.0625,569.6719 401.0625,571.7656 Q401.0625,573.8594 401.75,574.9375 Q402.4375,576 403.7813,576 Q404.4063,576 405,575.7344 Q405.5938,575.4531 406.2188,574.875 L406.2188,577.5938 Z "/><text fill="#000000" font-family="sans-serif" font-size="12" lengthAdjust="spacingAndGlyphs" textLength="117" x="423.75" y="576.1074">fs::StdioFileSystem</text><line style="stroke: #A80036; stroke-width: 1.5;" x1="224" x2="708" y1="587.9531" y2="587.9531"/><ellipse cx="234" cy="598.9531" fill="#84BE84" rx="3" ry="3" style="stroke: #038048; stroke-width: 1.0;"/><text fill="#000000" font-family="sans-serif" font-size="11" lengthAdjust="spacingAndGlyphs" textLength="460" x="243" y="602.1636">StdioFileSystem(std::string rootDir, std::string name, FileSystemKind kind) : void</text><line style="stroke: #A80036; stroke-width: 1.0; stroke-dasharray: 1.0,2.0;" x1="224" x2="708" y1="608.7578" y2="608.7578"/><ellipse cx="234" cy="619.7578" fill="#84BE84" rx="3" ry="3" style="stroke: #038048; stroke-width: 1.0;"/><text fill="#000000" font-family="sans-serif" font-size="11" lengthAdjust="spacingAndGlyphs" textLength="268" x="243" y="622.9683">createDirectory(const std::string &amp; path) : bool</text><ellipse cx="234" cy="632.5625" fill="#84BE84" rx="3" ry="3" style="stroke: #038048; stroke-width: 1.0;"/><text fill="#000000" font-family="sans-serif" font-size="11" lengthAdjust="spacingAndGlyphs" textLength="215" x="243" y="635.7729">exists(const std::string &amp; path) : bool</text><rect fill="#F24D5C" height="6" style="stroke: #C82930; stroke-width: 1.0;" width="6" x="231" y="642.3672"/><text fill="#000000" font-family="sans-serif" font-size="11" lengthAdjust="spacingAndGlyphs" textLength="283" x="243" y="648.5776">fullPath(const std::string &amp; rel) const : std::string</text><ellipse cx="234" cy="658.1719" fill="#84BE84" rx="3" ry="3" style="stroke: #038048; stroke-width: 1.0;"/><text fill="#000000" font-family="sans-serif" font-size="11" lengthAdjust="spacingAndGlyphs" textLength="242" x="243" y="661.3823">isDirectory(const std::string &amp; path) : bool</text><rect fill="#F24D5C" height="6" style="stroke: #C82930; stroke-width: 1.0;" width="6" x="231" y="667.9766"/><text fill="#000000" font-family="sans-serif" font-size="11" lengthAdjust="spacingAndGlyphs" text-decoration="underline" textLength="378" x="243" y="674.187">join(const std::string &amp; dir, const std::string &amp; name) : std::string</text><ellipse cx="234" cy="683.7813" fill="#84BE84" rx="3" ry="3" style="stroke: #038048; stroke-width: 1.0;"/><text fill="#000000" font-family="sans-serif" font-size="11" lengthAdjust="spacingAndGlyphs" textLength="164" x="243" y="686.9917">kind() const : FileSystemKind</text><ellipse cx="234" cy="696.5859" fill="#84BE84" rx="3" ry="3" style="stroke: #038048; stroke-width: 1.0;"/><text fill="#000000" font-family="sans-serif" font-size="11" lengthAdjust="spacingAndGlyphs" textLength="452" x="243" y="699.7964">listDirectory(const std::string &amp; path, std::vector&lt;FileInfo&gt; &amp; outEntries) : bool</text><ellipse cx="234" cy="709.3906" fill="#84BE84" rx="3" ry="3" style="stroke: #038048; stroke-width: 1.0;"/><text fill="#000000" font-family="sans-serif" font-size="11" lengthAdjust="spacingAndGlyphs" textLength="146" x="243" y="712.6011">name() const : std::string</text><ellipse cx="234" cy="722.1953" fill="#84BE84" rx="3" ry="3" style="stroke: #038048; stroke-width: 1.0;"/><text fill="#000000" font-family="sans-serif" font-size="11" lengthAdjust="spacingAndGlyphs" textLength="425" x="243" y="725.4058">open(const std::string &amp; path, const char * mode) : std::unique_ptr&lt;IFile&gt;</text><ellipse cx="234" cy="735" fill="#84BE84" rx="3" ry="3" style="stroke: #038048; stroke-width: 1.0;"/><text fill="#000000" font-family="sans-serif" font-size="11" lengthAdjust="spacingAndGlyphs" textLength="275" x="243" y="738.2104">removeDirectory(const std::string &amp; path) : bool</text><ellipse cx="234" cy="747.8047" fill="#84BE84" rx="3" ry="3" style="stroke: #038048; stroke-width: 1.0;"/><text fill="#000000" font-family="sans-serif" font-size="11" lengthAdjust="spacingAndGlyphs" textLength="243" x="243" y="751.0151">removeFile(const std::string &amp; path) : bool</text><ellipse cx="234" cy="760.6094" fill="#84BE84" rx="3" ry="3" style="stroke: #038048; stroke-width: 1.0;"/><text fill="#000000" font-family="sans-serif" font-size="11" lengthAdjust="spacingAndGlyphs" textLength="358" x="243" y="763.8198">rename(const std::string &amp; from, const std::string &amp; to) : bool</text><line style="stroke: #A80036; stroke-width: 1.5;" x1="224" x2="708" y1="770.4141" y2="770.4141"/><rect fill="none" height="6" style="stroke: #C82930; stroke-width: 1.0;" width="6" x="231" y="778.4141"/><text fill="#000000" font-family="sans-serif" font-size="11" lengthAdjust="spacingAndGlyphs" textLength="127" x="243" y="784.6245">_kind : FileSystemKind</text><rect fill="none" height="6" style="stroke: #C82930; stroke-width: 1.0;" width="6" x="231" y="791.2188"/><text fill="#000000" font-family="sans-serif" font-size="11" lengthAdjust="spacingAndGlyphs" textLength="109" x="243" y="797.4292">_name : std::string</text><rect fill="none" height="6" style="stroke: #C82930; stroke-width: 1.0;" width="6" x="231" y="804.0234"/><text fill="#000000" font-family="sans-serif" font-size="11" lengthAdjust="spacingAndGlyphs" textLength="100" x="243" y="810.2339">_root : std::string</text><!--MD5=[77b2cd18e01f0fd5ad270610e6811f52]
link C_0012397556205933868732 to C_0014883681608496495557--><path d="M203,495.2131 C194.06,514.9531 185.55,535.8331 179,555.9531 C142.34,668.6231 120.77,804.5631 109.92,888.6431 " fill="none" id="C_0012397556205933868732-&gt;C_0014883681608496495557" style="stroke: #A80036; stroke-width: 1.0; stroke-dasharray: 7.0,7.0;"/><polygon fill="#A80036" points="109.28,893.6031,114.3804,885.1778,109.909,888.6428,106.4439,884.1714,109.28,893.6031" style="stroke: #A80036; stroke-width: 1.0;"/><!--MD5=[305fdf12e390a9f565947511a3847ba5]
link C_0012397556205933868732 to C_0014904826619290153445--><path d="M218.76,495.3131 C213.04,515.1331 208.01,536.0131 205,555.9531 C187.68,670.6531 175.1,704.8731 205,816.9531 C213.68,849.5031 235.5,876.7631 261.06,898.7631 " fill="none" id="C_0012397556205933868732-&gt;C_0014904826619290153445" style="stroke: #A80036; stroke-width: 1.0; stroke-dasharray: 7.0,7.0;"/><polygon fill="#A80036" points="265.2,902.2431,260.8791,893.3927,261.3706,899.0282,255.7352,899.5197,265.2,902.2431" style="stroke: #A80036; stroke-width: 1.0;"/><!--MD5=[530b6754908819a548b769c17bb20b8c]
link C_0012397556205933868732 to C_0007646493544420080876--><path d="M502.09,424.9631 C586.13,447.0531 672.43,486.3431 727,555.9531 C808.84,660.3431 790.23,828.7431 773.56,914.3231 " fill="none" id="C_0012397556205933868732-&gt;C_0007646493544420080876" style="stroke: #A80036; stroke-width: 1.0; stroke-dasharray: 7.0,7.0;"/><polygon fill="#A80036" points="772.56,919.3331,778.2338,911.2828,773.5323,914.4286,770.3866,909.7271,772.56,919.3331" style="stroke: #A80036; stroke-width: 1.0;"/><!--MD5=[ab661002198b4aa2db4a53bddeb98d4f]
reverse link C_0001279065520068563954 to C_0012397556205933868732--><path d="M254,234.2331 C254,255.2031 254,277.0531 254,297.6531 " fill="none" id="C_0001279065520068563954&lt;-C_0012397556205933868732" style="stroke: #A80036; stroke-width: 1.0;"/><polygon fill="#FFFFFF" points="254,220.9731,250,226.9731,254,232.9731,258,226.9731,254,220.9731" style="stroke: #A80036; stroke-width: 1.0;"/><rect fill="none" height="6" style="stroke: #C82930; stroke-width: 1.0;" width="6" x="257" y="257.0195"/><text fill="#000000" font-family="sans-serif" font-size="13" lengthAdjust="spacingAndGlyphs" textLength="81" x="267" y="264.02">_fileSystems</text><!--MD5=[4443b34c56ad2e90ea0fbffb1e646ac5]
reverse link C_0014904826619290153445 to C_0007693094110734758389--><path d="M385,1055.6831 C385,1071.9131 385,1088.8231 385,1104.8031 " fill="none" id="C_0014904826619290153445&lt;-C_0007693094110734758389" style="stroke: #A80036; stroke-width: 1.0;"/><polygon fill="none" points="378,1055.6031,385,1035.6031,392,1055.6031,378,1055.6031" style="stroke: #A80036; stroke-width: 1.0;"/><!--MD5=[38e1c88f8534d9502d7db1b9356cbe2d]
link C_0001007711765235056436 to C_0014904826619290153445--><path d="M428.58,817.0331 C420.58,844.7531 412.41,873.0331 405.34,897.5131 " fill="none" id="C_0001007711765235056436-&gt;C_0014904826619290153445" style="stroke: #A80036; stroke-width: 1.0; stroke-dasharray: 7.0,7.0;"/><polygon fill="#A80036" points="403.94,902.3531,410.2793,894.8157,405.3268,897.5493,402.5932,892.5968,403.94,902.3531" style="stroke: #A80036; stroke-width: 1.0;"/><!--MD5=[9429aca9d6e203f658a710752ef924e8]
link C_0001007711765235056436 to C_0007646493544420080876--><path d="M602.27,817.0331 C638.97,851.9231 676.6,887.7031 706.01,915.6631 " fill="none" id="C_0001007711765235056436-&gt;C_0007646493544420080876" style="stroke: #A80036; stroke-width: 1.0; stroke-dasharray: 7.0,7.0;"/><polygon fill="#A80036" points="709.92,919.3831,706.1444,910.2867,706.2929,915.9416,700.638,916.0901,709.92,919.3831" style="stroke: #A80036; stroke-width: 1.0;"/><!--MD5=[0b52bec99700aae7816967c8ef0f4fff]
reverse link C_0001007711765235056436 to C_0014883681608496495557--><path d="M284.53,825.1031 C254.56,848.0131 223.86,871.5931 195,893.9531 C187.69,899.6131 180.09,905.5431 172.5,911.4731 " fill="none" id="C_0001007711765235056436&lt;-C_0014883681608496495557" style="stroke: #A80036; stroke-width: 1.0;"/><polygon fill="#FFFFFF" points="295.1,817.0331,287.9037,817.4948,285.5621,824.3152,292.7584,823.8535,295.1,817.0331" style="stroke: #A80036; stroke-width: 1.0;"/><rect fill="none" height="6" style="stroke: #C82930; stroke-width: 1.0;" width="6" x="258" y="853.0195"/><text fill="#000000" font-family="sans-serif" font-size="13" lengthAdjust="spacingAndGlyphs" textLength="33" x="268" y="860.02">_kind</text><!--MD5=[aa406fc61b525754c7ee4d79d136de76]
reverse link C_0012397556205933868732 to C_0001007711765235056436--><path d="M337.79,511.2731 C348.57,525.9231 359.67,541.0031 370.62,555.8831 " fill="none" id="C_0012397556205933868732&lt;-C_0001007711765235056436" style="stroke: #A80036; stroke-width: 1.0;"/><polygon fill="none" points="331.99,515.2131,325.77,494.9531,343.27,506.9131,331.99,515.2131" style="stroke: #A80036; stroke-width: 1.0;"/><!--MD5=[2c9be79b0bd7f135d286e1ac56237756]
@startuml
title Filesystem (auto-gen from clang-uml)
enum "fs::FileSystemKind" as C_0014883681608496495557
enum C_0014883681608496495557 {
LocalFlash
LocalSD
HostPosix
NetworkTnfs
NetworkSmb
NetworkFtp
NetworkHttp
Unknown
}
class "fs::FileInfo" as C_0007646493544420080876
class C_0007646493544420080876 {
__
+isDirectory : bool
+modifiedTime : std::chrono::system_clock::time_point
+path : std::string
+sizeBytes : std::uint64_t
}
abstract "fs::IFile" as C_0014904826619290153445
abstract C_0014904826619290153445 {
+~IFile() constexpr = default : void
..
{abstract} +flush() = 0 : bool
{abstract} +read(void * dst, std::size_t maxBytes) = 0 : std::size_t
{abstract} +seek(std::uint64_t offset) = 0 : bool
{abstract} +tell() const = 0 : std::uint64_t
{abstract} +write(const void * src, std::size_t bytes) = 0 : std::size_t
__
}
abstract "fs::IFileSystem" as C_0012397556205933868732
abstract C_0012397556205933868732 {
+~IFileSystem() constexpr = default : void
..
{abstract} +createDirectory(const std::string & path) = 0 : bool
{abstract} +exists(const std::string & path) = 0 : bool
{abstract} +isDirectory(const std::string & path) = 0 : bool
{abstract} +kind() const = 0 : FileSystemKind
{abstract} +listDirectory(const std::string & path, std::vector<FileInfo> & outEntries) = 0 : bool
{abstract} +name() const = 0 : std::string
{abstract} +open(const std::string & path, const char * mode) = 0 : std::unique_ptr<IFile>
{abstract} +removeDirectory(const std::string & path) = 0 : bool
{abstract} +removeFile(const std::string & path) = 0 : bool
{abstract} +rename(const std::string & from, const std::string & to) = 0 : bool
__
}
class "fs::StorageManager" as C_0001279065520068563954
class C_0001279065520068563954 {
+StorageManager() = default : void
+StorageManager(const StorageManager &) = deleted : void
+~StorageManager() = default : void
..
+operator=(const StorageManager &) = deleted : StorageManager &
..
+get(const std::string & name) : IFileSystem *
+get(const std::string & name) const : const IFileSystem *
+listNames() const : std::vector<std::string>
+registerFileSystem(std::unique_ptr<IFileSystem> fs) : bool
+unregisterFileSystem(const std::string & name) : bool
__
-_fileSystems : std::unordered_map<std::string,std::unique_ptr<IFileSystem>>
}
class "fs::StdioFile" as C_0007693094110734758389
class C_0007693094110734758389 {
+StdioFile(std::FILE * fp) : void
+~StdioFile() : void
..
+flush() : bool
+read(void * dst, std::size_t maxBytes) : std::size_t
+seek(std::uint64_t offset) : bool
+tell() const : std::uint64_t
+write(const void * src, std::size_t bytes) : std::size_t
__
-_fp : std::FILE *
}
class "fs::StdioFileSystem" as C_0001007711765235056436
class C_0001007711765235056436 {
+StdioFileSystem(std::string rootDir, std::string name, FileSystemKind kind) : void
..
+createDirectory(const std::string & path) : bool
+exists(const std::string & path) : bool
-fullPath(const std::string & rel) const : std::string
+isDirectory(const std::string & path) : bool
{static} -join(const std::string & dir, const std::string & name) : std::string
+kind() const : FileSystemKind
+listDirectory(const std::string & path, std::vector<FileInfo> & outEntries) : bool
+name() const : std::string
+open(const std::string & path, const char * mode) : std::unique_ptr<IFile>
+removeDirectory(const std::string & path) : bool
+removeFile(const std::string & path) : bool
+rename(const std::string & from, const std::string & to) : bool
__
-_kind : FileSystemKind
-_name : std::string
-_root : std::string
}
C_0012397556205933868732 ..> C_0014883681608496495557
C_0012397556205933868732 ..> C_0014904826619290153445
C_0012397556205933868732 ..> C_0007646493544420080876
C_0001279065520068563954 o- - C_0012397556205933868732 : -_fileSystems
C_0014904826619290153445 <|- - C_0007693094110734758389
C_0001007711765235056436 ..> C_0014904826619290153445
C_0001007711765235056436 ..> C_0007646493544420080876
C_0001007711765235056436 o- - C_0014883681608496495557 : -_kind
C_0012397556205933868732 <|- - C_0001007711765235056436

@enduml

PlantUML version 1.2020.02(Sun Mar 01 10:22:07 UTC 2020)
(GPL source distribution)
Java Runtime: OpenJDK Runtime Environment
JVM: OpenJDK 64-Bit Server VM
Java Version: 17.0.17+10
Operating System: Linux
Default Encoding: UTF-8
Language: en
Country: null
--></g></svg>