<?xml version="1.0" encoding="UTF-8" standalone="no"?><svg xmlns="http://www.w3.org/2000/svg" xmlns:xlink="http://www.w3.org/1999/xlink" contentScriptType="application/ecmascript" contentStyleType="text/css" height="932px" preserveAspectRatio="none" style="width:1282px;height:932px;" version="1.1" viewBox="0 0 1282 932" width="1282px" zoomAndPan="magnify"><defs><filter height="300%" id="f10xtxu3clyedh" width="300%" x="-1" y="-1"><feGaussianBlur result="blurOut" stdDeviation="2.0"/><feColorMatrix in="blurOut" result="blurOut2" type="matrix" values="0 0 0 0 0 0 0 0 0 0 0 0 0 0 0 0 0 0 .4 0"/><feOffset dx="4.0" dy="4.0" in="blurOut2" result="blurOut3"/><feBlend in="SourceGraphic" in2="blurOut3" mode="normal"/></filter></defs><g><text fill="#000000" font-family="sans-serif" font-size="18" lengthAdjust="spacingAndGlyphs" textLength="346" x="472" y="16.708">IO Protocols (auto-gen from clang-uml)</text><!--MD5=[31061a5abc77c90cb479eaa4f6f83796]
class C_0015225225004340369839--><rect fill="#FEFECE" filter="url(#f10xtxu3clyedh)" height="137.6328" id="C_0015225225004340369839" style="stroke: #A80036; stroke-width: 1.5;" width="190" x="694.5" y="545.9531"/><ellipse cx="709.5" cy="561.9531" fill="#EB937F" rx="11" ry="11" style="stroke: #A80036; stroke-width: 1.0;"/><path d="M713.6094,567.9531 L705.8906,567.9531 L705.8906,555.5625 L713.6094,555.5625 L713.6094,557.7188 L708.3438,557.7188 L708.3438,560.3906 L713.1094,560.3906 L713.1094,562.5469 L708.3438,562.5469 L708.3438,565.7969 L713.6094,565.7969 L713.6094,567.9531 Z "/><text fill="#000000" font-family="sans-serif" font-size="12" lengthAdjust="spacingAndGlyphs" textLength="158" x="723.5" y="566.1074">io::protocol::WireDeviceId</text><line style="stroke: #A80036; stroke-width: 1.5;" x1="695.5" x2="883.5" y1="577.9531" y2="577.9531"/><text fill="#000000" font-family="sans-serif" font-size="11" lengthAdjust="spacingAndGlyphs" textLength="38" x="700.5" y="592.1636">FujiNet</text><text fill="#000000" font-family="sans-serif" font-size="11" lengthAdjust="spacingAndGlyphs" textLength="30" x="700.5" y="604.9683">Clock</text><text fill="#000000" font-family="sans-serif" font-size="11" lengthAdjust="spacingAndGlyphs" textLength="68" x="700.5" y="617.7729">HostService</text><text fill="#000000" font-family="sans-serif" font-size="11" lengthAdjust="spacingAndGlyphs" textLength="83" x="700.5" y="630.5776">ModemService</text><text fill="#000000" font-family="sans-serif" font-size="11" lengthAdjust="spacingAndGlyphs" textLength="66" x="700.5" y="643.3823">DiskService</text><text fill="#000000" font-family="sans-serif" font-size="11" lengthAdjust="spacingAndGlyphs" textLength="88" x="700.5" y="656.187">NetworkService</text><text fill="#000000" font-family="sans-serif" font-size="11" lengthAdjust="spacingAndGlyphs" textLength="61" x="700.5" y="668.9917">FileService</text><line style="stroke: #A80036; stroke-width: 1.5;" x1="695.5" x2="883.5" y1="675.5859" y2="675.5859"/><!--MD5=[9842c50a11ef1af3dcd3a820eb5cd4d4]
class C_0015699043703645047876--><rect fill="#FEFECE" filter="url(#f10xtxu3clyedh)" height="163.2422" id="C_0015699043703645047876" style="stroke: #A80036; stroke-width: 1.5;" width="199" x="6" y="167.4531"/><ellipse cx="21" cy="183.4531" fill="#EB937F" rx="11" ry="11" style="stroke: #A80036; stroke-width: 1.0;"/><path d="M25.1094,189.4531 L17.3906,189.4531 L17.3906,177.0625 L25.1094,177.0625 L25.1094,179.2188 L19.8438,179.2188 L19.8438,181.8906 L24.6094,181.8906 L24.6094,184.0469 L19.8438,184.0469 L19.8438,187.2969 L25.1094,187.2969 L25.1094,189.4531 Z "/><text fill="#000000" font-family="sans-serif" font-size="12" lengthAdjust="spacingAndGlyphs" textLength="167" x="35" y="187.6074">io::protocol::DiskCommand</text><line style="stroke: #A80036; stroke-width: 1.5;" x1="7" x2="204" y1="199.4531" y2="199.4531"/><text fill="#000000" font-family="sans-serif" font-size="11" lengthAdjust="spacingAndGlyphs" textLength="34" x="12" y="213.6636">Mount</text><text fill="#000000" font-family="sans-serif" font-size="11" lengthAdjust="spacingAndGlyphs" textLength="51" x="12" y="226.4683">Unmount</text><text fill="#000000" font-family="sans-serif" font-size="11" lengthAdjust="spacingAndGlyphs" textLength="65" x="12" y="239.2729">ReadSector</text><text fill="#000000" font-family="sans-serif" font-size="11" lengthAdjust="spacingAndGlyphs" textLength="65" x="12" y="252.0776">WriteSector</text><text fill="#000000" font-family="sans-serif" font-size="11" lengthAdjust="spacingAndGlyphs" textLength="21" x="12" y="264.8823">Info</text><text fill="#000000" font-family="sans-serif" font-size="11" lengthAdjust="spacingAndGlyphs" textLength="80" x="12" y="277.687">ClearChanged</text><text fill="#000000" font-family="sans-serif" font-size="11" lengthAdjust="spacingAndGlyphs" textLength="38" x="12" y="290.4917">Create</text><text fill="#000000" font-family="sans-serif" font-size="11" lengthAdjust="spacingAndGlyphs" textLength="72" x="12" y="303.2964">ReadSectors</text><text fill="#000000" font-family="sans-serif" font-size="11" lengthAdjust="spacingAndGlyphs" textLength="72" x="12" y="316.1011">WriteSectors</text><line style="stroke: #A80036; stroke-width: 1.5;" x1="7" x2="204" y1="322.6953" y2="322.6953"/><!--MD5=[addcdd6b4528a1d851ee81289eb82bbc]
class C_0004628219160953719395--><rect fill="#FEFECE" filter="url(#f10xtxu3clyedh)" height="112.0234" id="C_0004628219160953719395" style="stroke: #A80036; stroke-width: 1.5;" width="194" x="240.5" y="192.9531"/><ellipse cx="255.5" cy="208.9531" fill="#EB937F" rx="11" ry="11" style="stroke: #A80036; stroke-width: 1.0;"/><path d="M259.6094,214.9531 L251.8906,214.9531 L251.8906,202.5625 L259.6094,202.5625 L259.6094,204.7188 L254.3438,204.7188 L254.3438,207.3906 L259.1094,207.3906 L259.1094,209.5469 L254.3438,209.5469 L254.3438,212.7969 L259.6094,212.7969 L259.6094,214.9531 Z "/><text fill="#000000" font-family="sans-serif" font-size="12" lengthAdjust="spacingAndGlyphs" textLength="162" x="269.5" y="213.1074">io::protocol::FujiCommand</text><line style="stroke: #A80036; stroke-width: 1.5;" x1="241.5" x2="433.5" y1="224.9531" y2="224.9531"/><text fill="#000000" font-family="sans-serif" font-size="11" lengthAdjust="spacingAndGlyphs" textLength="32" x="246.5" y="239.1636">Reset</text><text fill="#000000" font-family="sans-serif" font-size="11" lengthAdjust="spacingAndGlyphs" textLength="45" x="246.5" y="251.9683">GetSsid</text><text fill="#000000" font-family="sans-serif" font-size="11" lengthAdjust="spacingAndGlyphs" textLength="61" x="246.5" y="264.7729">GetMounts</text><text fill="#000000" font-family="sans-serif" font-size="11" lengthAdjust="spacingAndGlyphs" textLength="53" x="246.5" y="277.5776">SetMount</text><text fill="#000000" font-family="sans-serif" font-size="11" lengthAdjust="spacingAndGlyphs" textLength="54" x="246.5" y="290.3823">GetMount</text><line style="stroke: #A80036; stroke-width: 1.5;" x1="241.5" x2="433.5" y1="296.9766" y2="296.9766"/><!--MD5=[cb314516d6ddc798f7f1bd1d56576700]
class C_0010997942004027913014--><rect fill="#FEFECE" filter="url(#f10xtxu3clyedh)" height="99.2188" id="C_0010997942004027913014" style="stroke: #A80036; stroke-width: 1.5;" width="218" x="469.5" y="199.4531"/><ellipse cx="484.5" cy="215.4531" fill="#EB937F" rx="11" ry="11" style="stroke: #A80036; stroke-width: 1.0;"/><path d="M488.6094,221.4531 L480.8906,221.4531 L480.8906,209.0625 L488.6094,209.0625 L488.6094,211.2188 L483.3438,211.2188 L483.3438,213.8906 L488.1094,213.8906 L488.1094,216.0469 L483.3438,216.0469 L483.3438,219.2969 L488.6094,219.2969 L488.6094,221.4531 Z "/><text fill="#000000" font-family="sans-serif" font-size="12" lengthAdjust="spacingAndGlyphs" textLength="186" x="498.5" y="219.6074">io::protocol::ModemCommand</text><line style="stroke: #A80036; stroke-width: 1.5;" x1="470.5" x2="686.5" y1="231.4531" y2="231.4531"/><text fill="#000000" font-family="sans-serif" font-size="11" lengthAdjust="spacingAndGlyphs" textLength="28" x="475.5" y="245.6636">Write</text><text fill="#000000" font-family="sans-serif" font-size="11" lengthAdjust="spacingAndGlyphs" textLength="28" x="475.5" y="258.4683">Read</text><text fill="#000000" font-family="sans-serif" font-size="11" lengthAdjust="spacingAndGlyphs" textLength="37" x="475.5" y="271.2729">Status</text><text fill="#000000" font-family="sans-serif" font-size="11" lengthAdjust="spacingAndGlyphs" textLength="41" x="475.5" y="284.0776">Control</text><line style="stroke: #A80036; stroke-width: 1.5;" x1="470.5" x2="686.5" y1="290.6719" y2="290.6719"/><!--MD5=[00589bb63b8d16bc46b4cc6055ae058f]
class C_0010627602090167488081--><rect fill="#FEFECE" filter="url(#f10xtxu3clyedh)" height="99.2188" id="C_0010627602090167488081" style="stroke: #A80036; stroke-width: 1.5;" width="160" x="25.5" y="565.4531"/><ellipse cx="40.5" cy="581.4531" fill="#EB937F" rx="11" ry="11" style="stroke: #A80036; stroke-width: 1.0;"/><path d="M44.6094,587.4531 L36.8906,587.4531 L36.8906,575.0625 L44.6094,575.0625 L44.6094,577.2188 L39.3438,577.2188 L39.3438,579.8906 L44.1094,579.8906 L44.1094,582.0469 L39.3438,582.0469 L39.3438,585.2969 L44.6094,585.2969 L44.6094,587.4531 Z "/><text fill="#000000" font-family="sans-serif" font-size="12" lengthAdjust="spacingAndGlyphs" textLength="128" x="54.5" y="585.6074">io::protocol::SlipByte</text><line style="stroke: #A80036; stroke-width: 1.5;" x1="26.5" x2="184.5" y1="597.4531" y2="597.4531"/><text fill="#000000" font-family="sans-serif" font-size="11" lengthAdjust="spacingAndGlyphs" textLength="21" x="31.5" y="611.6636">End</text><text fill="#000000" font-family="sans-serif" font-size="11" lengthAdjust="spacingAndGlyphs" textLength="41" x="31.5" y="624.4683">Escape</text><text fill="#000000" font-family="sans-serif" font-size="11" lengthAdjust="spacingAndGlyphs" textLength="41" x="31.5" y="637.2729">EscEnd</text><text fill="#000000" font-family="sans-serif" font-size="11" lengthAdjust="spacingAndGlyphs" textLength="40" x="31.5" y="650.0776">EscEsc</text><line style="stroke: #A80036; stroke-width: 1.5;" x1="26.5" x2="184.5" y1="656.6719" y2="656.6719"/><!--MD5=[72d2c2714d5b439165c57447022afdec]
class C_0003277087640557799971--><rect fill="#FEFECE" filter="url(#f10xtxu3clyedh)" height="99.2188" id="C_0003277087640557799971" style="stroke: #A80036; stroke-width: 1.5;" width="307" x="920" y="565.4531"/><ellipse cx="988.25" cy="581.4531" fill="#ADD1B2" rx="11" ry="11" style="stroke: #A80036; stroke-width: 1.0;"/><path d="M991.2188,587.0938 Q990.6406,587.3906 990,587.5313 Q989.3594,587.6875 988.6563,587.6875 Q986.1563,587.6875 984.8281,586.0469 Q983.5156,584.3906 983.5156,581.2656 Q983.5156,578.1406 984.8281,576.4844 Q986.1563,574.8281 988.6563,574.8281 Q989.3594,574.8281 990,574.9844 Q990.6563,575.1406 991.2188,575.4375 L991.2188,578.1563 Q990.5938,577.5781 990,577.3125 Q989.4063,577.0313 988.7813,577.0313 Q987.4375,577.0313 986.75,578.1094 Q986.0625,579.1719 986.0625,581.2656 Q986.0625,583.3594 986.75,584.4375 Q987.4375,585.5 988.7813,585.5 Q989.4063,585.5 990,585.2344 Q990.5938,584.9531 991.2188,584.375 L991.2188,587.0938 Z "/><text fill="#000000" font-family="sans-serif" font-size="12" lengthAdjust="spacingAndGlyphs" textLength="162" x="1008.75" y="585.6074">io::protocol::PacketParam</text><line style="stroke: #A80036; stroke-width: 1.5;" x1="921" x2="1226" y1="597.4531" y2="597.4531"/><ellipse cx="931" cy="608.4531" fill="#84BE84" rx="3" ry="3" style="stroke: #038048; stroke-width: 1.0;"/><text fill="#000000" font-family="sans-serif" font-size="11" lengthAdjust="spacingAndGlyphs" textLength="281" x="940" y="611.6636">PacketParam(std::uint32_t v, std::uint8_t s) : void</text><ellipse cx="931" cy="621.2578" fill="#84BE84" rx="3" ry="3" style="stroke: #038048; stroke-width: 1.0;"/><text fill="#000000" font-family="sans-serif" font-size="11" lengthAdjust="spacingAndGlyphs" textLength="159" x="940" y="624.4683">PacketParam&lt;T&gt;(T v) : void</text><line style="stroke: #A80036; stroke-width: 1.5;" x1="921" x2="1226" y1="631.0625" y2="631.0625"/><ellipse cx="931" cy="642.0625" fill="none" rx="3" ry="3" style="stroke: #038048; stroke-width: 1.0;"/><text fill="#000000" font-family="sans-serif" font-size="11" lengthAdjust="spacingAndGlyphs" textLength="98" x="940" y="645.2729">size : std::uint8_t</text><ellipse cx="931" cy="654.8672" fill="none" rx="3" ry="3" style="stroke: #038048; stroke-width: 1.0;"/><text fill="#000000" font-family="sans-serif" font-size="11" lengthAdjust="spacingAndGlyphs" textLength="113" x="940" y="658.0776">value : std::uint32_t</text><!--MD5=[a296b3227c73c67410f4977d15d780d7]
class C_0017232777488057089840--><rect fill="#FEFECE" filter="url(#f10xtxu3clyedh)" height="440.1406" id="C_0017232777488057089840" style="stroke: #A80036; stroke-width: 1.5;" width="498" x="773.5" y="28.9531"/><ellipse cx="935.25" cy="44.9531" fill="#ADD1B2" rx="11" ry="11" style="stroke: #A80036; stroke-width: 1.0;"/><path d="M938.2188,50.5938 Q937.6406,50.8906 937,51.0313 Q936.3594,51.1875 935.6563,51.1875 Q933.1563,51.1875 931.8281,49.5469 Q930.5156,47.8906 930.5156,44.7656 Q930.5156,41.6406 931.8281,39.9844 Q933.1563,38.3281 935.6563,38.3281 Q936.3594,38.3281 937,38.4844 Q937.6563,38.6406 938.2188,38.9375 L938.2188,41.6563 Q937.5938,41.0781 937,40.8125 Q936.4063,40.5313 935.7813,40.5313 Q934.4375,40.5313 933.75,41.6094 Q933.0625,42.6719 933.0625,44.7656 Q933.0625,46.8594 933.75,47.9375 Q934.4375,49 935.7813,49 Q936.4063,49 937,48.7344 Q937.5938,48.4531 938.2188,47.875 L938.2188,50.5938 Z "/><text fill="#000000" font-family="sans-serif" font-size="12" lengthAdjust="spacingAndGlyphs" textLength="166" x="955.75" y="49.1074">io::protocol::FujiBusPacket</text><line style="stroke: #A80036; stroke-width: 1.5;" x1="774.5" x2="1270.5" y1="60.9531" y2="60.9531"/><ellipse cx="784.5" cy="71.9531" fill="#84BE84" rx="3" ry="3" style="stroke: #038048; stroke-width: 1.0;"/><text fill="#000000" font-family="sans-serif" font-size="11" lengthAdjust="spacingAndGlyphs" textLength="177" x="793.5" y="75.1636">FujiBusPacket() = default : void</text><ellipse cx="784.5" cy="84.7578" fill="#84BE84" rx="3" ry="3" style="stroke: #038048; stroke-width: 1.0;"/><text fill="#000000" font-family="sans-serif" font-size="11" lengthAdjust="spacingAndGlyphs" textLength="472" x="793.5" y="87.9683">FujiBusPacket&lt;Args...&gt;(WireDeviceId dev, std::uint8_t cmd, Args &amp;&amp;... args) : void</text><line style="stroke: #A80036; stroke-width: 1.0; stroke-dasharray: 1.0,2.0;" x1="774.5" x2="1270.5" y1="94.5625" y2="94.5625"/><ellipse cx="784.5" cy="105.5625" fill="#84BE84" rx="3" ry="3" style="stroke: #038048; stroke-width: 1.0;"/><text fill="#000000" font-family="sans-serif" font-size="11" lengthAdjust="spacingAndGlyphs" textLength="273" x="793.5" y="108.7729">addParamU16(std::uint16_t v) : FujiBusPacket &amp;</text><ellipse cx="784.5" cy="118.3672" fill="#84BE84" rx="3" ry="3" style="stroke: #038048; stroke-width: 1.0;"/><text fill="#000000" font-family="sans-serif" font-size="11" lengthAdjust="spacingAndGlyphs" textLength="273" x="793.5" y="121.5776">addParamU32(std::uint32_t v) : FujiBusPacket &amp;</text><ellipse cx="784.5" cy="131.1719" fill="#84BE84" rx="3" ry="3" style="stroke: #038048; stroke-width: 1.0;"/><text fill="#000000" font-family="sans-serif" font-size="11" lengthAdjust="spacingAndGlyphs" textLength="259" x="793.5" y="134.3823">addParamU8(std::uint8_t v) : FujiBusPacket &amp;</text><rect fill="#F24D5C" height="6" style="stroke: #C82930; stroke-width: 1.0;" width="6" x="781.5" y="140.9766"/><text fill="#000000" font-family="sans-serif" font-size="11" lengthAdjust="spacingAndGlyphs" textLength="331" x="793.5" y="147.187">calcChecksum(const ByteBuffer &amp; buf) const : std::uint8_t</text><ellipse cx="784.5" cy="156.7813" fill="#84BE84" rx="3" ry="3" style="stroke: #038048; stroke-width: 1.0;"/><text fill="#000000" font-family="sans-serif" font-size="11" lengthAdjust="spacingAndGlyphs" textLength="166" x="793.5" y="159.9917">clearData() : FujiBusPacket &amp;</text><ellipse cx="784.5" cy="169.5859" fill="#84BE84" rx="3" ry="3" style="stroke: #038048; stroke-width: 1.0;"/><text fill="#000000" font-family="sans-serif" font-size="11" lengthAdjust="spacingAndGlyphs" textLength="175" x="793.5" y="172.7964">command() const : std::uint8_t</text><ellipse cx="784.5" cy="182.3906" fill="#84BE84" rx="3" ry="3" style="stroke: #038048; stroke-width: 1.0;"/><text fill="#000000" font-family="sans-serif" font-size="11" lengthAdjust="spacingAndGlyphs" textLength="278" x="793.5" y="185.6011">data() const : const std::optional&lt;ByteBuffer&gt; &amp;</text><ellipse cx="784.5" cy="195.1953" fill="#84BE84" rx="3" ry="3" style="stroke: #038048; stroke-width: 1.0;"/><text fill="#000000" font-family="sans-serif" font-size="11" lengthAdjust="spacingAndGlyphs" textLength="276" x="793.5" y="198.4058">dataAsString() const : std::optional&lt;std::string&gt;</text><rect fill="#F24D5C" height="6" style="stroke: #C82930; stroke-width: 1.0;" width="6" x="781.5" y="205"/><text fill="#000000" font-family="sans-serif" font-size="11" lengthAdjust="spacingAndGlyphs" textLength="321" x="793.5" y="211.2104">decodeSLIP(const ByteBuffer &amp; input) const : ByteBuffer</text><ellipse cx="784.5" cy="220.8047" fill="#84BE84" rx="3" ry="3" style="stroke: #038048; stroke-width: 1.0;"/><text fill="#000000" font-family="sans-serif" font-size="11" lengthAdjust="spacingAndGlyphs" textLength="162" x="793.5" y="224.0151">device() const : WireDeviceId</text><rect fill="#F24D5C" height="6" style="stroke: #C82930; stroke-width: 1.0;" width="6" x="781.5" y="230.6094"/><text fill="#000000" font-family="sans-serif" font-size="11" lengthAdjust="spacingAndGlyphs" textLength="321" x="793.5" y="236.8198">encodeSLIP(const ByteBuffer &amp; input) const : ByteBuffer</text><ellipse cx="784.5" cy="246.4141" fill="#84BE84" rx="3" ry="3" style="stroke: #038048; stroke-width: 1.0;"/><text fill="#000000" font-family="sans-serif" font-size="11" lengthAdjust="spacingAndGlyphs" text-decoration="underline" textLength="425" x="793.5" y="249.6245">fromSerialized(const ByteBuffer &amp; input) : std::unique_ptr&lt;FujiBusPacket&gt;</text><ellipse cx="784.5" cy="259.2188" fill="#84BE84" rx="3" ry="3" style="stroke: #038048; stroke-width: 1.0;"/><text fill="#000000" font-family="sans-serif" font-size="11" lengthAdjust="spacingAndGlyphs" textLength="267" x="793.5" y="262.4292">param(unsigned int index) const : std::uint32_t</text><ellipse cx="784.5" cy="272.0234" fill="#84BE84" rx="3" ry="3" style="stroke: #038048; stroke-width: 1.0;"/><text fill="#000000" font-family="sans-serif" font-size="11" lengthAdjust="spacingAndGlyphs" textLength="195" x="793.5" y="275.2339">paramCount() const : unsigned int</text><rect fill="#F24D5C" height="6" style="stroke: #C82930; stroke-width: 1.0;" width="6" x="781.5" y="281.8281"/><text fill="#000000" font-family="sans-serif" font-size="11" lengthAdjust="spacingAndGlyphs" textLength="218" x="793.5" y="288.0386">parse(const ByteBuffer &amp; input) : bool</text><rect fill="#F24D5C" height="6" style="stroke: #C82930; stroke-width: 1.0;" width="6" x="781.5" y="294.6328"/><text fill="#000000" font-family="sans-serif" font-size="11" lengthAdjust="spacingAndGlyphs" textLength="227" x="793.5" y="300.8433">processArg(const std::string &amp; s) : void</text><rect fill="#F24D5C" height="6" style="stroke: #C82930; stroke-width: 1.0;" width="6" x="781.5" y="307.4375"/><text fill="#000000" font-family="sans-serif" font-size="11" lengthAdjust="spacingAndGlyphs" textLength="214" x="793.5" y="313.6479">processArg(ByteBuffer &amp;&amp; buf) : void</text><rect fill="#F24D5C" height="6" style="stroke: #C82930; stroke-width: 1.0;" width="6" x="781.5" y="320.2422"/><text fill="#000000" font-family="sans-serif" font-size="11" lengthAdjust="spacingAndGlyphs" textLength="239" x="793.5" y="326.4526">processArg(const ByteBuffer &amp; buf) : void</text><rect fill="#F24D5C" height="6" style="stroke: #C82930; stroke-width: 1.0;" width="6" x="781.5" y="333.0469"/><text fill="#000000" font-family="sans-serif" font-size="11" lengthAdjust="spacingAndGlyphs" textLength="189" x="793.5" y="339.2573">processArg(std::uint32_t v) : void</text><rect fill="#F24D5C" height="6" style="stroke: #C82930; stroke-width: 1.0;" width="6" x="781.5" y="345.8516"/><text fill="#000000" font-family="sans-serif" font-size="11" lengthAdjust="spacingAndGlyphs" textLength="189" x="793.5" y="352.062">processArg(std::uint16_t v) : void</text><rect fill="#F24D5C" height="6" style="stroke: #C82930; stroke-width: 1.0;" width="6" x="781.5" y="358.6563"/><text fill="#000000" font-family="sans-serif" font-size="11" lengthAdjust="spacingAndGlyphs" textLength="182" x="793.5" y="364.8667">processArg(std::uint8_t v) : void</text><ellipse cx="784.5" cy="374.4609" fill="#84BE84" rx="3" ry="3" style="stroke: #038048; stroke-width: 1.0;"/><text fill="#000000" font-family="sans-serif" font-size="11" lengthAdjust="spacingAndGlyphs" textLength="162" x="793.5" y="377.6714">serialize() const : ByteBuffer</text><ellipse cx="784.5" cy="387.2656" fill="#84BE84" rx="3" ry="3" style="stroke: #038048; stroke-width: 1.0;"/><text fill="#000000" font-family="sans-serif" font-size="11" lengthAdjust="spacingAndGlyphs" textLength="245" x="793.5" y="390.4761">setData(ByteBuffer data) : FujiBusPacket &amp;</text><ellipse cx="784.5" cy="400.0703" fill="#84BE84" rx="3" ry="3" style="stroke: #038048; stroke-width: 1.0;"/><text fill="#000000" font-family="sans-serif" font-size="11" lengthAdjust="spacingAndGlyphs" textLength="358" x="793.5" y="403.2808">tryParamU8(unsigned int index, std::uint8_t &amp; out) const : bool</text><line style="stroke: #A80036; stroke-width: 1.5;" x1="774.5" x2="1270.5" y1="409.875" y2="409.875"/><rect fill="none" height="6" style="stroke: #C82930; stroke-width: 1.0;" width="6" x="781.5" y="417.875"/><text fill="#000000" font-family="sans-serif" font-size="11" lengthAdjust="spacingAndGlyphs" textLength="138" x="793.5" y="424.0854">_command : std::uint8_t</text><rect fill="none" height="6" style="stroke: #C82930; stroke-width: 1.0;" width="6" x="781.5" y="430.6797"/><text fill="#000000" font-family="sans-serif" font-size="11" lengthAdjust="spacingAndGlyphs" textLength="192" x="793.5" y="436.8901">_data : std::optional&lt;ByteBuffer&gt;</text><rect fill="none" height="6" style="stroke: #C82930; stroke-width: 1.0;" width="6" x="781.5" y="443.4844"/><text fill="#000000" font-family="sans-serif" font-size="11" lengthAdjust="spacingAndGlyphs" textLength="125" x="793.5" y="449.6948">_device : WireDeviceId</text><rect fill="none" height="6" style="stroke: #C82930; stroke-width: 1.0;" width="6" x="781.5" y="456.2891"/><text fill="#000000" font-family="sans-serif" font-size="11" lengthAdjust="spacingAndGlyphs" textLength="215" x="793.5" y="462.4995">_params : std::vector&lt;PacketParam&gt;</text><!--MD5=[31e4023d9b1d3020446e90b4f7338295]
class C_0007123260493549580442--><rect fill="#FEFECE" filter="url(#f10xtxu3clyedh)" height="112.0234" id="C_0007123260493549580442" style="stroke: #A80036; stroke-width: 1.5;" width="202" x="220.5" y="558.9531"/><ellipse cx="235.5" cy="574.9531" fill="#EB937F" rx="11" ry="11" style="stroke: #A80036; stroke-width: 1.0;"/><path d="M239.6094,580.9531 L231.8906,580.9531 L231.8906,568.5625 L239.6094,568.5625 L239.6094,570.7188 L234.3438,570.7188 L234.3438,573.3906 L239.1094,573.3906 L239.1094,575.5469 L234.3438,575.5469 L234.3438,578.7969 L239.6094,578.7969 L239.6094,580.9531 Z "/><text fill="#000000" font-family="sans-serif" font-size="12" lengthAdjust="spacingAndGlyphs" textLength="170" x="249.5" y="579.1074">io::protocol::HostCommand</text><line style="stroke: #A80036; stroke-width: 1.5;" x1="221.5" x2="421.5" y1="590.9531" y2="590.9531"/><text fill="#000000" font-family="sans-serif" font-size="11" lengthAdjust="spacingAndGlyphs" textLength="63" x="226.5" y="605.1636">GetCurrent</text><text fill="#000000" font-family="sans-serif" font-size="11" lengthAdjust="spacingAndGlyphs" textLength="62" x="226.5" y="617.9683">SetCurrent</text><text fill="#000000" font-family="sans-serif" font-size="11" lengthAdjust="spacingAndGlyphs" textLength="60" x="226.5" y="630.7729">ListHistory</text><text fill="#000000" font-family="sans-serif" font-size="11" lengthAdjust="spacingAndGlyphs" textLength="75" x="226.5" y="643.5776">SelectHistory</text><text fill="#000000" font-family="sans-serif" font-size="11" lengthAdjust="spacingAndGlyphs" textLength="76" x="226.5" y="656.3823">DeleteHistory</text><line style="stroke: #A80036; stroke-width: 1.5;" x1="221.5" x2="421.5" y1="662.9766" y2="662.9766"/><!--MD5=[c8c5170bff1e9023eb4a587b4387aedc]
class C_0009954510640382192371--><rect fill="#FEFECE" filter="url(#f10xtxu3clyedh)" height="112.0234" id="C_0009954510640382192371" style="stroke: #A80036; stroke-width: 1.5;" width="201" x="458" y="558.9531"/><ellipse cx="473" cy="574.9531" fill="#ADD1B2" rx="11" ry="11" style="stroke: #A80036; stroke-width: 1.0;"/><path d="M475.9688,580.5938 Q475.3906,580.8906 474.75,581.0313 Q474.1094,581.1875 473.4063,581.1875 Q470.9063,581.1875 469.5781,579.5469 Q468.2656,577.8906 468.2656,574.7656 Q468.2656,571.6406 469.5781,569.9844 Q470.9063,568.3281 473.4063,568.3281 Q474.1094,568.3281 474.75,568.4844 Q475.4063,568.6406 475.9688,568.9375 L475.9688,571.6563 Q475.3438,571.0781 474.75,570.8125 Q474.1563,570.5313 473.5313,570.5313 Q472.1875,570.5313 471.5,571.6094 Q470.8125,572.6719 470.8125,574.7656 Q470.8125,576.8594 471.5,577.9375 Q472.1875,579 473.5313,579 Q474.1563,579 474.75,578.7344 Q475.3438,578.4531 475.9688,577.875 L475.9688,580.5938 Z "/><text fill="#000000" font-family="sans-serif" font-size="12" lengthAdjust="spacingAndGlyphs" textLength="169" x="487" y="579.1074">io::protocol::FujiBusHeader</text><line style="stroke: #A80036; stroke-width: 1.5;" x1="459" x2="658" y1="590.9531" y2="590.9531"/><line style="stroke: #A80036; stroke-width: 1.5;" x1="459" x2="658" y1="598.9531" y2="598.9531"/><ellipse cx="469" cy="609.9531" fill="none" rx="3" ry="3" style="stroke: #038048; stroke-width: 1.0;"/><text fill="#000000" font-family="sans-serif" font-size="11" lengthAdjust="spacingAndGlyphs" textLength="133" x="478" y="613.1636">checksum : std::uint8_t</text><ellipse cx="469" cy="622.7578" fill="none" rx="3" ry="3" style="stroke: #038048; stroke-width: 1.0;"/><text fill="#000000" font-family="sans-serif" font-size="11" lengthAdjust="spacingAndGlyphs" textLength="132" x="478" y="625.9683">command : std::uint8_t</text><ellipse cx="469" cy="635.5625" fill="none" rx="3" ry="3" style="stroke: #038048; stroke-width: 1.0;"/><text fill="#000000" font-family="sans-serif" font-size="11" lengthAdjust="spacingAndGlyphs" textLength="108" x="478" y="638.7729">descr : std::uint8_t</text><ellipse cx="469" cy="648.3672" fill="none" rx="3" ry="3" style="stroke: #038048; stroke-width: 1.0;"/><text fill="#000000" font-family="sans-serif" font-size="11" lengthAdjust="spacingAndGlyphs" textLength="112" x="478" y="651.5776">device : std::uint8_t</text><ellipse cx="469" cy="661.1719" fill="none" rx="3" ry="3" style="stroke: #038048; stroke-width: 1.0;"/><text fill="#000000" font-family="sans-serif" font-size="11" lengthAdjust="spacingAndGlyphs" textLength="118" x="478" y="664.3823">length : std::uint16_t</text><!--MD5=[300a4d773173d5b8caf27f723ff28295]
class C_0003895064208135060769--><rect fill="#FEFECE" filter="url(#f10xtxu3clyedh)" height="176.0469" id="C_0003895064208135060769" style="stroke: #A80036; stroke-width: 1.5;" width="194" x="8.5" y="744.9531"/><ellipse cx="23.5" cy="760.9531" fill="#EB937F" rx="11" ry="11" style="stroke: #A80036; stroke-width: 1.0;"/><path d="M27.6094,766.9531 L19.8906,766.9531 L19.8906,754.5625 L27.6094,754.5625 L27.6094,756.7188 L22.3438,756.7188 L22.3438,759.3906 L27.1094,759.3906 L27.1094,761.5469 L22.3438,761.5469 L22.3438,764.7969 L27.6094,764.7969 L27.6094,766.9531 Z "/><text fill="#000000" font-family="sans-serif" font-size="12" lengthAdjust="spacingAndGlyphs" textLength="162" x="37.5" y="765.1074">io::protocol::FileCommand</text><line style="stroke: #A80036; stroke-width: 1.5;" x1="9.5" x2="201.5" y1="776.9531" y2="776.9531"/><text fill="#000000" font-family="sans-serif" font-size="11" lengthAdjust="spacingAndGlyphs" textLength="23" x="14.5" y="791.1636">Stat</text><text fill="#000000" font-family="sans-serif" font-size="11" lengthAdjust="spacingAndGlyphs" textLength="71" x="14.5" y="803.9683">ListDirectory</text><text fill="#000000" font-family="sans-serif" font-size="11" lengthAdjust="spacingAndGlyphs" textLength="47" x="14.5" y="816.7729">ReadFile</text><text fill="#000000" font-family="sans-serif" font-size="11" lengthAdjust="spacingAndGlyphs" textLength="47" x="14.5" y="829.5776">WriteFile</text><text fill="#000000" font-family="sans-serif" font-size="11" lengthAdjust="spacingAndGlyphs" textLength="80" x="14.5" y="842.3823">MakeDirectory</text><text fill="#000000" font-family="sans-serif" font-size="11" lengthAdjust="spacingAndGlyphs" textLength="75" x="14.5" y="855.187">AppStoreStat</text><text fill="#000000" font-family="sans-serif" font-size="11" lengthAdjust="spacingAndGlyphs" textLength="80" x="14.5" y="867.9917">AppStoreRead</text><text fill="#000000" font-family="sans-serif" font-size="11" lengthAdjust="spacingAndGlyphs" textLength="80" x="14.5" y="880.7964">AppStoreWrite</text><text fill="#000000" font-family="sans-serif" font-size="11" lengthAdjust="spacingAndGlyphs" textLength="88" x="14.5" y="893.6011">AppStoreDelete</text><text fill="#000000" font-family="sans-serif" font-size="11" lengthAdjust="spacingAndGlyphs" textLength="72" x="14.5" y="906.4058">AppStoreList</text><line style="stroke: #A80036; stroke-width: 1.5;" x1="9.5" x2="201.5" y1="913" y2="913"/><!--MD5=[be25510d78858c14ac0642f996831e24]
class C_0007700754280455587098--><rect fill="#FEFECE" filter="url(#f10xtxu3clyedh)" height="137.6328" id="C_0007700754280455587098" style="stroke: #A80036; stroke-width: 1.5;" width="224" x="237.5" y="763.9531"/><ellipse cx="252.5" cy="779.9531" fill="#EB937F" rx="11" ry="11" style="stroke: #A80036; stroke-width: 1.0;"/><path d="M256.6094,785.9531 L248.8906,785.9531 L248.8906,773.5625 L256.6094,773.5625 L256.6094,775.7188 L251.3438,775.7188 L251.3438,778.3906 L256.1094,778.3906 L256.1094,780.5469 L251.3438,780.5469 L251.3438,783.7969 L256.6094,783.7969 L256.6094,785.9531 Z "/><text fill="#000000" font-family="sans-serif" font-size="12" lengthAdjust="spacingAndGlyphs" textLength="192" x="266.5" y="784.1074">io::protocol::NetworkCommand</text><line style="stroke: #A80036; stroke-width: 1.5;" x1="238.5" x2="460.5" y1="795.9531" y2="795.9531"/><text fill="#000000" font-family="sans-serif" font-size="11" lengthAdjust="spacingAndGlyphs" textLength="30" x="243.5" y="810.1636">Open</text><text fill="#000000" font-family="sans-serif" font-size="11" lengthAdjust="spacingAndGlyphs" textLength="28" x="243.5" y="822.9683">Read</text><text fill="#000000" font-family="sans-serif" font-size="11" lengthAdjust="spacingAndGlyphs" textLength="28" x="243.5" y="835.7729">Write</text><text fill="#000000" font-family="sans-serif" font-size="11" lengthAdjust="spacingAndGlyphs" textLength="32" x="243.5" y="848.5776">Close</text><text fill="#000000" font-family="sans-serif" font-size="11" lengthAdjust="spacingAndGlyphs" textLength="21" x="243.5" y="861.3823">Info</text><text fill="#000000" font-family="sans-serif" font-size="11" lengthAdjust="spacingAndGlyphs" textLength="49" x="243.5" y="874.187">InfoRead</text><text fill="#000000" font-family="sans-serif" font-size="11" lengthAdjust="spacingAndGlyphs" textLength="109" x="243.5" y="886.9917">TranslateConfigure</text><line style="stroke: #A80036; stroke-width: 1.5;" x1="238.5" x2="460.5" y1="893.5859" y2="893.5859"/><!--MD5=[7015635e4296b2847478ac1955dfb845]
reverse link C_0017232777488057089840 to C_0015225225004340369839--><path d="M875.24,480.0131 C860.06,503.7231 845.64,526.2531 833.09,545.8431 " fill="none" id="C_0017232777488057089840&lt;-C_0015225225004340369839" style="stroke: #A80036; stroke-width: 1.0;"/><polygon fill="#FFFFFF" points="882.26,469.0431,875.6572,471.942,875.7936,479.1518,882.3964,476.2529,882.26,469.0431" style="stroke: #A80036; stroke-width: 1.0;"/><rect fill="none" height="6" style="stroke: #C82930; stroke-width: 1.0;" width="6" x="861.5" y="505.0195"/><text fill="#000000" font-family="sans-serif" font-size="13" lengthAdjust="spacingAndGlyphs" textLength="48" x="871.5" y="512.02">_device</text><!--MD5=[f47f967b175eade81981f12930178d3b]
reverse link C_0017232777488057089840 to C_0003277087640557799971--><path d="M1055.02,482.0731 C1059.4,513.3231 1063.48,542.4331 1066.68,565.3131 " fill="none" id="C_0017232777488057089840&lt;-C_0003277087640557799971" style="stroke: #A80036; stroke-width: 1.0;"/><polygon fill="#FFFFFF" points="1053.2,469.0431,1050.0756,475.5422,1054.8731,480.9259,1057.9975,474.4268,1053.2,469.0431" style="stroke: #A80036; stroke-width: 1.0;"/><rect fill="none" height="6" style="stroke: #C82930; stroke-width: 1.0;" width="6" x="1061.5" y="505.0195"/><text fill="#000000" font-family="sans-serif" font-size="13" lengthAdjust="spacingAndGlyphs" textLength="56" x="1071.5" y="512.02">_params</text><!--MD5=[d0e94fb2de58c81424a917c80cacdfb6]
link C_0015699043703645047876 to C_0004628219160953719395--><!--MD5=[676212289238dc4a6ce58149cf639313]
link C_0004628219160953719395 to C_0010997942004027913014--><!--MD5=[87d951960cd8057a3aa550afa2dee4fa]
link C_0015699043703645047876 to C_0010627602090167488081--><!--MD5=[5fddc4c5c336c5e0189f72db1f6508cd]
link C_0010627602090167488081 to C_0007123260493549580442--><!--MD5=[ae1f2ce6047f40abdd673e993beb3ced]
link C_0007123260493549580442 to C_0009954510640382192371--><!--MD5=[6a27a53ee14f1ef032090f5c4dab55db]
link C_0010627602090167488081 to C_0003895064208135060769--><!--MD5=[86087af6e1dc401b9b55651bcf325692]
link C_0003895064208135060769 to C_0007700754280455587098--><!--MD5=[01fec1e5084d7ba9338368cc37aecbc0]
@startuml
title IO Protocols (auto-gen from clang-uml)
enum "io::protocol::WireDeviceId" as C_0015225225004340369839
enum C_0015225225004340369839 {
FujiNet
Clock
HostService
ModemService
DiskService
NetworkService
FileService
}
enum "io::protocol::DiskCommand" as C_0015699043703645047876
enum C_0015699043703645047876 {
Mount
Unmount
ReadSector
WriteSector
Info
ClearChanged
Create
ReadSectors
WriteSectors
}
enum "io::protocol::FujiCommand" as C_0004628219160953719395
enum C_0004628219160953719395 {
Reset
GetSsid
GetMounts
SetMount
GetMount
}
enum "io::protocol::ModemCommand" as C_0010997942004027913014
enum C_0010997942004027913014 {
Write
Read
Status
Control
}
enum "io::protocol::SlipByte" as C_0010627602090167488081
enum C_0010627602090167488081 {
End
Escape
EscEnd
EscEsc
}
class "io::protocol::PacketParam" as C_0003277087640557799971
class C_0003277087640557799971 {
+PacketParam(std::uint32_t v, std::uint8_t s) : void
+PacketParam<T>(T v) : void
__
+size : std::uint8_t
+value : std::uint32_t
}
class "io::protocol::FujiBusPacket" as C_0017232777488057089840
class C_0017232777488057089840 {
+FujiBusPacket() = default : void
+FujiBusPacket<Args...>(WireDeviceId dev, std::uint8_t cmd, Args &&... args) : void
..
+addParamU16(std::uint16_t v) : FujiBusPacket &
+addParamU32(std::uint32_t v) : FujiBusPacket &
+addParamU8(std::uint8_t v) : FujiBusPacket &
-calcChecksum(const ByteBuffer & buf) const : std::uint8_t
+clearData() : FujiBusPacket &
+command() const : std::uint8_t
+data() const : const std::optional<ByteBuffer> &
+dataAsString() const : std::optional<std::string>
-decodeSLIP(const ByteBuffer & input) const : ByteBuffer
+device() const : WireDeviceId
-encodeSLIP(const ByteBuffer & input) const : ByteBuffer
{static} +fromSerialized(const ByteBuffer & input) : std::unique_ptr<FujiBusPacket>
+param(unsigned int index) const : std::uint32_t
+paramCount() const : unsigned int
-parse(const ByteBuffer & input) : bool
-processArg(const std::string & s) : void
-processArg(ByteBuffer && buf) : void
-processArg(const ByteBuffer & buf) : void
-processArg(std::uint32_t v) : void
-processArg(std::uint16_t v) : void
-processArg(std::uint8_t v) : void
+serialize() const : ByteBuffer
+setData(ByteBuffer data) : FujiBusPacket &
+tryParamU8(unsigned int index, std::uint8_t & out) const : bool
__
-_command : std::uint8_t
-_data : std::optional<ByteBuffer>
-_device : WireDeviceId
-_params : std::vector<PacketParam>
}
enum "io::protocol::HostCommand" as C_0007123260493549580442
enum C_0007123260493549580442 {
GetCurrent
SetCurrent
ListHistory
SelectHistory
DeleteHistory
}
class "io::protocol::FujiBusHeader" as C_0009954510640382192371
class C_0009954510640382192371 {
__
+checksum : std::uint8_t
+command : std::uint8_t
+descr : std::uint8_t
+device : std::uint8_t
+length : std::uint16_t
}
enum "io::protocol::FileCommand" as C_0003895064208135060769
enum C_0003895064208135060769 {
Stat
ListDirectory
ReadFile
WriteFile
MakeDirectory
AppStoreStat
AppStoreRead
AppStoreWrite
AppStoreDelete
AppStoreList
}
enum "io::protocol::NetworkCommand" as C_0007700754280455587098
enum C_0007700754280455587098 {
Open
Read
Write
Close
Info
InfoRead
TranslateConfigure
}
C_0017232777488057089840 o- - C_0015225225004340369839 : -_device
C_0017232777488057089840 o- - C_0003277087640557799971 : -_params

@enduml

PlantUML version 1.2020.02(Sun Mar 01 10:22:07 UTC 2020)
(GPL source distribution)
Java Runtime: OpenJDK Runtime Environment
JVM: OpenJDK 64-Bit Server VM
Java Version: 17.0.19+10
Operating System: Linux
Default Encoding: UTF-8
Language: en
Country: null
--></g></svg>