<?xml version="1.0" encoding="UTF-8" standalone="no"?><svg xmlns="http://www.w3.org/2000/svg" xmlns:xlink="http://www.w3.org/1999/xlink" contentScriptType="application/ecmascript" contentStyleType="text/css" height="681px" preserveAspectRatio="none" style="width:1010px;height:681px;" version="1.1" viewBox="0 0 1010 681" width="1010px" zoomAndPan="magnify"><defs><filter height="300%" id="f129rphzkst3h7" width="300%" x="-1" y="-1"><feGaussianBlur result="blurOut" stdDeviation="2.0"/><feColorMatrix in="blurOut" result="blurOut2" type="matrix" values="0 0 0 0 0 0 0 0 0 0 0 0 0 0 0 0 0 0 .4 0"/><feOffset dx="4.0" dy="4.0" in="blurOut2" result="blurOut3"/><feBlend in="SourceGraphic" in2="blurOut3" mode="normal"/></filter></defs><g><text fill="#000000" font-family="sans-serif" font-size="18" lengthAdjust="spacingAndGlyphs" textLength="346" x="336" y="16.708">IO Protocols (auto-gen from clang-uml)</text><!--MD5=[31061a5abc77c90cb479eaa4f6f83796]
class C_0015225225004340369839--><rect fill="#FEFECE" filter="url(#f129rphzkst3h7)" height="201.6563" id="C_0015225225004340369839" style="stroke: #A80036; stroke-width: 1.5;" width="190" x="467" y="468.9531"/><ellipse cx="482" cy="484.9531" fill="#EB937F" rx="11" ry="11" style="stroke: #A80036; stroke-width: 1.0;"/><path d="M486.1094,490.9531 L478.3906,490.9531 L478.3906,478.5625 L486.1094,478.5625 L486.1094,480.7188 L480.8438,480.7188 L480.8438,483.3906 L485.6094,483.3906 L485.6094,485.5469 L480.8438,485.5469 L480.8438,488.7969 L486.1094,488.7969 L486.1094,490.9531 Z "/><text fill="#000000" font-family="sans-serif" font-size="12" lengthAdjust="spacingAndGlyphs" textLength="158" x="496" y="489.1074">io::protocol::WireDeviceId</text><line style="stroke: #A80036; stroke-width: 1.5;" x1="468" x2="656" y1="500.9531" y2="500.9531"/><text fill="#000000" font-family="sans-serif" font-size="11" lengthAdjust="spacingAndGlyphs" textLength="38" x="473" y="515.1636">FujiNet</text><text fill="#000000" font-family="sans-serif" font-size="11" lengthAdjust="spacingAndGlyphs" textLength="49" x="473" y="527.9683">DiskFirst</text><text fill="#000000" font-family="sans-serif" font-size="11" lengthAdjust="spacingAndGlyphs" textLength="48" x="473" y="540.7729">DiskLast</text><text fill="#000000" font-family="sans-serif" font-size="11" lengthAdjust="spacingAndGlyphs" textLength="63" x="473" y="553.5776">PrinterFirst</text><text fill="#000000" font-family="sans-serif" font-size="11" lengthAdjust="spacingAndGlyphs" textLength="62" x="473" y="566.3823">PrinterLast</text><text fill="#000000" font-family="sans-serif" font-size="11" lengthAdjust="spacingAndGlyphs" textLength="30" x="473" y="579.187">Voice</text><text fill="#000000" font-family="sans-serif" font-size="11" lengthAdjust="spacingAndGlyphs" textLength="30" x="473" y="591.9917">Clock</text><text fill="#000000" font-family="sans-serif" font-size="11" lengthAdjust="spacingAndGlyphs" textLength="71" x="473" y="604.7964">NetworkFirst</text><text fill="#000000" font-family="sans-serif" font-size="11" lengthAdjust="spacingAndGlyphs" textLength="70" x="473" y="617.6011">NetworkLast</text><text fill="#000000" font-family="sans-serif" font-size="11" lengthAdjust="spacingAndGlyphs" textLength="22" x="473" y="630.4058">Midi</text><text fill="#000000" font-family="sans-serif" font-size="11" lengthAdjust="spacingAndGlyphs" textLength="21" x="473" y="643.2104">Dbc</text><text fill="#000000" font-family="sans-serif" font-size="11" lengthAdjust="spacingAndGlyphs" textLength="61" x="473" y="656.0151">FileService</text><line style="stroke: #A80036; stroke-width: 1.5;" x1="468" x2="656" y1="662.6094" y2="662.6094"/><!--MD5=[00589bb63b8d16bc46b4cc6055ae058f]
class C_0010627602090167488081--><rect fill="#FEFECE" filter="url(#f129rphzkst3h7)" height="99.2188" id="C_0010627602090167488081" style="stroke: #A80036; stroke-width: 1.5;" width="160" x="23" y="160.9531"/><ellipse cx="38" cy="176.9531" fill="#EB937F" rx="11" ry="11" style="stroke: #A80036; stroke-width: 1.0;"/><path d="M42.1094,182.9531 L34.3906,182.9531 L34.3906,170.5625 L42.1094,170.5625 L42.1094,172.7188 L36.8438,172.7188 L36.8438,175.3906 L41.6094,175.3906 L41.6094,177.5469 L36.8438,177.5469 L36.8438,180.7969 L42.1094,180.7969 L42.1094,182.9531 Z "/><text fill="#000000" font-family="sans-serif" font-size="12" lengthAdjust="spacingAndGlyphs" textLength="128" x="52" y="181.1074">io::protocol::SlipByte</text><line style="stroke: #A80036; stroke-width: 1.5;" x1="24" x2="182" y1="192.9531" y2="192.9531"/><text fill="#000000" font-family="sans-serif" font-size="11" lengthAdjust="spacingAndGlyphs" textLength="21" x="29" y="207.1636">End</text><text fill="#000000" font-family="sans-serif" font-size="11" lengthAdjust="spacingAndGlyphs" textLength="41" x="29" y="219.9683">Escape</text><text fill="#000000" font-family="sans-serif" font-size="11" lengthAdjust="spacingAndGlyphs" textLength="41" x="29" y="232.7729">EscEnd</text><text fill="#000000" font-family="sans-serif" font-size="11" lengthAdjust="spacingAndGlyphs" textLength="40" x="29" y="245.5776">EscEsc</text><line style="stroke: #A80036; stroke-width: 1.5;" x1="24" x2="182" y1="252.1719" y2="252.1719"/><!--MD5=[72d2c2714d5b439165c57447022afdec]
class C_0003277087640557799971--><rect fill="#FEFECE" filter="url(#f129rphzkst3h7)" height="99.2188" id="C_0003277087640557799971" style="stroke: #A80036; stroke-width: 1.5;" width="307" x="692.5" y="520.4531"/><ellipse cx="760.75" cy="536.4531" fill="#ADD1B2" rx="11" ry="11" style="stroke: #A80036; stroke-width: 1.0;"/><path d="M763.7188,542.0938 Q763.1406,542.3906 762.5,542.5313 Q761.8594,542.6875 761.1563,542.6875 Q758.6563,542.6875 757.3281,541.0469 Q756.0156,539.3906 756.0156,536.2656 Q756.0156,533.1406 757.3281,531.4844 Q758.6563,529.8281 761.1563,529.8281 Q761.8594,529.8281 762.5,529.9844 Q763.1563,530.1406 763.7188,530.4375 L763.7188,533.1563 Q763.0938,532.5781 762.5,532.3125 Q761.9063,532.0313 761.2813,532.0313 Q759.9375,532.0313 759.25,533.1094 Q758.5625,534.1719 758.5625,536.2656 Q758.5625,538.3594 759.25,539.4375 Q759.9375,540.5 761.2813,540.5 Q761.9063,540.5 762.5,540.2344 Q763.0938,539.9531 763.7188,539.375 L763.7188,542.0938 Z "/><text fill="#000000" font-family="sans-serif" font-size="12" lengthAdjust="spacingAndGlyphs" textLength="162" x="781.25" y="540.6074">io::protocol::PacketParam</text><line style="stroke: #A80036; stroke-width: 1.5;" x1="693.5" x2="998.5" y1="552.4531" y2="552.4531"/><ellipse cx="703.5" cy="563.4531" fill="#84BE84" rx="3" ry="3" style="stroke: #038048; stroke-width: 1.0;"/><text fill="#000000" font-family="sans-serif" font-size="11" lengthAdjust="spacingAndGlyphs" textLength="281" x="712.5" y="566.6636">PacketParam(std::uint32_t v, std::uint8_t s) : void</text><ellipse cx="703.5" cy="576.2578" fill="#84BE84" rx="3" ry="3" style="stroke: #038048; stroke-width: 1.0;"/><text fill="#000000" font-family="sans-serif" font-size="11" lengthAdjust="spacingAndGlyphs" textLength="159" x="712.5" y="579.4683">PacketParam&lt;T&gt;(T v) : void</text><line style="stroke: #A80036; stroke-width: 1.5;" x1="693.5" x2="998.5" y1="586.0625" y2="586.0625"/><ellipse cx="703.5" cy="597.0625" fill="none" rx="3" ry="3" style="stroke: #038048; stroke-width: 1.0;"/><text fill="#000000" font-family="sans-serif" font-size="11" lengthAdjust="spacingAndGlyphs" textLength="98" x="712.5" y="600.2729">size : std::uint8_t</text><ellipse cx="703.5" cy="609.8672" fill="none" rx="3" ry="3" style="stroke: #038048; stroke-width: 1.0;"/><text fill="#000000" font-family="sans-serif" font-size="11" lengthAdjust="spacingAndGlyphs" textLength="113" x="712.5" y="613.0776">value : std::uint32_t</text><!--MD5=[a296b3227c73c67410f4977d15d780d7]
class C_0017232777488057089840--><rect fill="#FEFECE" filter="url(#f129rphzkst3h7)" height="363.3125" id="C_0017232777488057089840" style="stroke: #A80036; stroke-width: 1.5;" width="498" x="455" y="28.9531"/><ellipse cx="616.75" cy="44.9531" fill="#ADD1B2" rx="11" ry="11" style="stroke: #A80036; stroke-width: 1.0;"/><path d="M619.7188,50.5938 Q619.1406,50.8906 618.5,51.0313 Q617.8594,51.1875 617.1563,51.1875 Q614.6563,51.1875 613.3281,49.5469 Q612.0156,47.8906 612.0156,44.7656 Q612.0156,41.6406 613.3281,39.9844 Q614.6563,38.3281 617.1563,38.3281 Q617.8594,38.3281 618.5,38.4844 Q619.1563,38.6406 619.7188,38.9375 L619.7188,41.6563 Q619.0938,41.0781 618.5,40.8125 Q617.9063,40.5313 617.2813,40.5313 Q615.9375,40.5313 615.25,41.6094 Q614.5625,42.6719 614.5625,44.7656 Q614.5625,46.8594 615.25,47.9375 Q615.9375,49 617.2813,49 Q617.9063,49 618.5,48.7344 Q619.0938,48.4531 619.7188,47.875 L619.7188,50.5938 Z "/><text fill="#000000" font-family="sans-serif" font-size="12" lengthAdjust="spacingAndGlyphs" textLength="166" x="637.25" y="49.1074">io::protocol::FujiBusPacket</text><line style="stroke: #A80036; stroke-width: 1.5;" x1="456" x2="952" y1="60.9531" y2="60.9531"/><ellipse cx="466" cy="71.9531" fill="#84BE84" rx="3" ry="3" style="stroke: #038048; stroke-width: 1.0;"/><text fill="#000000" font-family="sans-serif" font-size="11" lengthAdjust="spacingAndGlyphs" textLength="177" x="475" y="75.1636">FujiBusPacket() = default : void</text><ellipse cx="466" cy="84.7578" fill="#84BE84" rx="3" ry="3" style="stroke: #038048; stroke-width: 1.0;"/><text fill="#000000" font-family="sans-serif" font-size="11" lengthAdjust="spacingAndGlyphs" textLength="472" x="475" y="87.9683">FujiBusPacket&lt;Args...&gt;(WireDeviceId dev, std::uint8_t cmd, Args &amp;&amp;... args) : void</text><line style="stroke: #A80036; stroke-width: 1.0; stroke-dasharray: 1.0,2.0;" x1="456" x2="952" y1="94.5625" y2="94.5625"/><rect fill="#F24D5C" height="6" style="stroke: #C82930; stroke-width: 1.0;" width="6" x="463" y="102.5625"/><text fill="#000000" font-family="sans-serif" font-size="11" lengthAdjust="spacingAndGlyphs" textLength="331" x="475" y="108.7729">calcChecksum(const ByteBuffer &amp; buf) const : std::uint8_t</text><ellipse cx="466" cy="118.3672" fill="#84BE84" rx="3" ry="3" style="stroke: #038048; stroke-width: 1.0;"/><text fill="#000000" font-family="sans-serif" font-size="11" lengthAdjust="spacingAndGlyphs" textLength="175" x="475" y="121.5776">command() const : std::uint8_t</text><ellipse cx="466" cy="131.1719" fill="#84BE84" rx="3" ry="3" style="stroke: #038048; stroke-width: 1.0;"/><text fill="#000000" font-family="sans-serif" font-size="11" lengthAdjust="spacingAndGlyphs" textLength="278" x="475" y="134.3823">data() const : const std::optional&lt;ByteBuffer&gt; &amp;</text><ellipse cx="466" cy="143.9766" fill="#84BE84" rx="3" ry="3" style="stroke: #038048; stroke-width: 1.0;"/><text fill="#000000" font-family="sans-serif" font-size="11" lengthAdjust="spacingAndGlyphs" textLength="276" x="475" y="147.187">dataAsString() const : std::optional&lt;std::string&gt;</text><rect fill="#F24D5C" height="6" style="stroke: #C82930; stroke-width: 1.0;" width="6" x="463" y="153.7813"/><text fill="#000000" font-family="sans-serif" font-size="11" lengthAdjust="spacingAndGlyphs" textLength="321" x="475" y="159.9917">decodeSLIP(const ByteBuffer &amp; input) const : ByteBuffer</text><ellipse cx="466" cy="169.5859" fill="#84BE84" rx="3" ry="3" style="stroke: #038048; stroke-width: 1.0;"/><text fill="#000000" font-family="sans-serif" font-size="11" lengthAdjust="spacingAndGlyphs" textLength="162" x="475" y="172.7964">device() const : WireDeviceId</text><rect fill="#F24D5C" height="6" style="stroke: #C82930; stroke-width: 1.0;" width="6" x="463" y="179.3906"/><text fill="#000000" font-family="sans-serif" font-size="11" lengthAdjust="spacingAndGlyphs" textLength="321" x="475" y="185.6011">encodeSLIP(const ByteBuffer &amp; input) const : ByteBuffer</text><ellipse cx="466" cy="195.1953" fill="#84BE84" rx="3" ry="3" style="stroke: #038048; stroke-width: 1.0;"/><text fill="#000000" font-family="sans-serif" font-size="11" lengthAdjust="spacingAndGlyphs" text-decoration="underline" textLength="425" x="475" y="198.4058">fromSerialized(const ByteBuffer &amp; input) : std::unique_ptr&lt;FujiBusPacket&gt;</text><ellipse cx="466" cy="208" fill="#84BE84" rx="3" ry="3" style="stroke: #038048; stroke-width: 1.0;"/><text fill="#000000" font-family="sans-serif" font-size="11" lengthAdjust="spacingAndGlyphs" textLength="267" x="475" y="211.2104">param(unsigned int index) const : std::uint32_t</text><ellipse cx="466" cy="220.8047" fill="#84BE84" rx="3" ry="3" style="stroke: #038048; stroke-width: 1.0;"/><text fill="#000000" font-family="sans-serif" font-size="11" lengthAdjust="spacingAndGlyphs" textLength="195" x="475" y="224.0151">paramCount() const : unsigned int</text><rect fill="#F24D5C" height="6" style="stroke: #C82930; stroke-width: 1.0;" width="6" x="463" y="230.6094"/><text fill="#000000" font-family="sans-serif" font-size="11" lengthAdjust="spacingAndGlyphs" textLength="218" x="475" y="236.8198">parse(const ByteBuffer &amp; input) : bool</text><rect fill="#F24D5C" height="6" style="stroke: #C82930; stroke-width: 1.0;" width="6" x="463" y="243.4141"/><text fill="#000000" font-family="sans-serif" font-size="11" lengthAdjust="spacingAndGlyphs" textLength="239" x="475" y="249.6245">processArg(const ByteBuffer &amp; buf) : void</text><rect fill="#F24D5C" height="6" style="stroke: #C82930; stroke-width: 1.0;" width="6" x="463" y="256.2188"/><text fill="#000000" font-family="sans-serif" font-size="11" lengthAdjust="spacingAndGlyphs" textLength="214" x="475" y="262.4292">processArg(ByteBuffer &amp;&amp; buf) : void</text><rect fill="#F24D5C" height="6" style="stroke: #C82930; stroke-width: 1.0;" width="6" x="463" y="269.0234"/><text fill="#000000" font-family="sans-serif" font-size="11" lengthAdjust="spacingAndGlyphs" textLength="227" x="475" y="275.2339">processArg(const std::string &amp; s) : void</text><rect fill="#F24D5C" height="6" style="stroke: #C82930; stroke-width: 1.0;" width="6" x="463" y="281.8281"/><text fill="#000000" font-family="sans-serif" font-size="11" lengthAdjust="spacingAndGlyphs" textLength="189" x="475" y="288.0386">processArg(std::uint32_t v) : void</text><rect fill="#F24D5C" height="6" style="stroke: #C82930; stroke-width: 1.0;" width="6" x="463" y="294.6328"/><text fill="#000000" font-family="sans-serif" font-size="11" lengthAdjust="spacingAndGlyphs" textLength="189" x="475" y="300.8433">processArg(std::uint16_t v) : void</text><rect fill="#F24D5C" height="6" style="stroke: #C82930; stroke-width: 1.0;" width="6" x="463" y="307.4375"/><text fill="#000000" font-family="sans-serif" font-size="11" lengthAdjust="spacingAndGlyphs" textLength="182" x="475" y="313.6479">processArg(std::uint8_t v) : void</text><ellipse cx="466" cy="323.2422" fill="#84BE84" rx="3" ry="3" style="stroke: #038048; stroke-width: 1.0;"/><text fill="#000000" font-family="sans-serif" font-size="11" lengthAdjust="spacingAndGlyphs" textLength="162" x="475" y="326.4526">serialize() const : ByteBuffer</text><line style="stroke: #A80036; stroke-width: 1.5;" x1="456" x2="952" y1="333.0469" y2="333.0469"/><rect fill="none" height="6" style="stroke: #C82930; stroke-width: 1.0;" width="6" x="463" y="341.0469"/><text fill="#000000" font-family="sans-serif" font-size="11" lengthAdjust="spacingAndGlyphs" textLength="138" x="475" y="347.2573">_command : std::uint8_t</text><rect fill="none" height="6" style="stroke: #C82930; stroke-width: 1.0;" width="6" x="463" y="353.8516"/><text fill="#000000" font-family="sans-serif" font-size="11" lengthAdjust="spacingAndGlyphs" textLength="192" x="475" y="360.062">_data : std::optional&lt;ByteBuffer&gt;</text><rect fill="none" height="6" style="stroke: #C82930; stroke-width: 1.0;" width="6" x="463" y="366.6563"/><text fill="#000000" font-family="sans-serif" font-size="11" lengthAdjust="spacingAndGlyphs" textLength="125" x="475" y="372.8667">_device : WireDeviceId</text><rect fill="none" height="6" style="stroke: #C82930; stroke-width: 1.0;" width="6" x="463" y="379.4609"/><text fill="#000000" font-family="sans-serif" font-size="11" lengthAdjust="spacingAndGlyphs" textLength="215" x="475" y="385.6714">_params : std::vector&lt;PacketParam&gt;</text><!--MD5=[c8c5170bff1e9023eb4a587b4387aedc]
class C_0009954510640382192371--><rect fill="#FEFECE" filter="url(#f129rphzkst3h7)" height="112.0234" id="C_0009954510640382192371" style="stroke: #A80036; stroke-width: 1.5;" width="201" x="218.5" y="154.4531"/><ellipse cx="233.5" cy="170.4531" fill="#ADD1B2" rx="11" ry="11" style="stroke: #A80036; stroke-width: 1.0;"/><path d="M236.4688,176.0938 Q235.8906,176.3906 235.25,176.5313 Q234.6094,176.6875 233.9063,176.6875 Q231.4063,176.6875 230.0781,175.0469 Q228.7656,173.3906 228.7656,170.2656 Q228.7656,167.1406 230.0781,165.4844 Q231.4063,163.8281 233.9063,163.8281 Q234.6094,163.8281 235.25,163.9844 Q235.9063,164.1406 236.4688,164.4375 L236.4688,167.1563 Q235.8438,166.5781 235.25,166.3125 Q234.6563,166.0313 234.0313,166.0313 Q232.6875,166.0313 232,167.1094 Q231.3125,168.1719 231.3125,170.2656 Q231.3125,172.3594 232,173.4375 Q232.6875,174.5 234.0313,174.5 Q234.6563,174.5 235.25,174.2344 Q235.8438,173.9531 236.4688,173.375 L236.4688,176.0938 Z "/><text fill="#000000" font-family="sans-serif" font-size="12" lengthAdjust="spacingAndGlyphs" textLength="169" x="247.5" y="174.6074">io::protocol::FujiBusHeader</text><line style="stroke: #A80036; stroke-width: 1.5;" x1="219.5" x2="418.5" y1="186.4531" y2="186.4531"/><line style="stroke: #A80036; stroke-width: 1.5;" x1="219.5" x2="418.5" y1="194.4531" y2="194.4531"/><ellipse cx="229.5" cy="205.4531" fill="none" rx="3" ry="3" style="stroke: #038048; stroke-width: 1.0;"/><text fill="#000000" font-family="sans-serif" font-size="11" lengthAdjust="spacingAndGlyphs" textLength="133" x="238.5" y="208.6636">checksum : std::uint8_t</text><ellipse cx="229.5" cy="218.2578" fill="none" rx="3" ry="3" style="stroke: #038048; stroke-width: 1.0;"/><text fill="#000000" font-family="sans-serif" font-size="11" lengthAdjust="spacingAndGlyphs" textLength="132" x="238.5" y="221.4683">command : std::uint8_t</text><ellipse cx="229.5" cy="231.0625" fill="none" rx="3" ry="3" style="stroke: #038048; stroke-width: 1.0;"/><text fill="#000000" font-family="sans-serif" font-size="11" lengthAdjust="spacingAndGlyphs" textLength="108" x="238.5" y="234.2729">descr : std::uint8_t</text><ellipse cx="229.5" cy="243.8672" fill="none" rx="3" ry="3" style="stroke: #038048; stroke-width: 1.0;"/><text fill="#000000" font-family="sans-serif" font-size="11" lengthAdjust="spacingAndGlyphs" textLength="112" x="238.5" y="247.0776">device : std::uint8_t</text><ellipse cx="229.5" cy="256.6719" fill="none" rx="3" ry="3" style="stroke: #038048; stroke-width: 1.0;"/><text fill="#000000" font-family="sans-serif" font-size="11" lengthAdjust="spacingAndGlyphs" textLength="118" x="238.5" y="259.8823">length : std::uint16_t</text><!--MD5=[addcdd6b4528a1d851ee81289eb82bbc]
class C_0004628219160953719395--><rect fill="#FEFECE" filter="url(#f129rphzkst3h7)" height="73.6094" id="C_0004628219160953719395" style="stroke: #A80036; stroke-width: 1.5;" width="194" x="6" y="532.9531"/><ellipse cx="21" cy="548.9531" fill="#EB937F" rx="11" ry="11" style="stroke: #A80036; stroke-width: 1.0;"/><path d="M25.1094,554.9531 L17.3906,554.9531 L17.3906,542.5625 L25.1094,542.5625 L25.1094,544.7188 L19.8438,544.7188 L19.8438,547.3906 L24.6094,547.3906 L24.6094,549.5469 L19.8438,549.5469 L19.8438,552.7969 L25.1094,552.7969 L25.1094,554.9531 Z "/><text fill="#000000" font-family="sans-serif" font-size="12" lengthAdjust="spacingAndGlyphs" textLength="162" x="35" y="553.1074">io::protocol::FujiCommand</text><line style="stroke: #A80036; stroke-width: 1.5;" x1="7" x2="199" y1="564.9531" y2="564.9531"/><text fill="#000000" font-family="sans-serif" font-size="11" lengthAdjust="spacingAndGlyphs" textLength="32" x="12" y="579.1636">Reset</text><text fill="#000000" font-family="sans-serif" font-size="11" lengthAdjust="spacingAndGlyphs" textLength="45" x="12" y="591.9683">GetSsid</text><line style="stroke: #A80036; stroke-width: 1.5;" x1="7" x2="199" y1="598.5625" y2="598.5625"/><!--MD5=[7015635e4296b2847478ac1955dfb845]
reverse link C_0017232777488057089840 to C_0015225225004340369839--><path d="M627.37,404.3731 C618.56,426.5431 609.87,448.4231 601.85,468.6331 " fill="none" id="C_0017232777488057089840&lt;-C_0015225225004340369839" style="stroke: #A80036; stroke-width: 1.0;"/><polygon fill="#FFFFFF" points="632.27,392.0331,626.342,396.139,627.852,403.1902,633.78,399.0844,632.27,392.0331" style="stroke: #A80036; stroke-width: 1.0;"/><rect fill="none" height="6" style="stroke: #C82930; stroke-width: 1.0;" width="6" x="624" y="428.0195"/><text fill="#000000" font-family="sans-serif" font-size="13" lengthAdjust="spacingAndGlyphs" textLength="48" x="634" y="435.02">_device</text><!--MD5=[f47f967b175eade81981f12930178d3b]
reverse link C_0017232777488057089840 to C_0003277087640557799971--><path d="M780.57,404.2231 C797.71,447.3731 814.41,489.4131 826.65,520.2331 " fill="none" id="C_0017232777488057089840&lt;-C_0003277087640557799971" style="stroke: #A80036; stroke-width: 1.0;"/><polygon fill="#FFFFFF" points="775.73,392.0331,774.22,399.0844,780.148,403.1902,781.658,396.139,775.73,392.0331" style="stroke: #A80036; stroke-width: 1.0;"/><rect fill="none" height="6" style="stroke: #C82930; stroke-width: 1.0;" width="6" x="795" y="428.0195"/><text fill="#000000" font-family="sans-serif" font-size="13" lengthAdjust="spacingAndGlyphs" textLength="56" x="805" y="435.02">_params</text><!--MD5=[390c2004c9aac76758688f85ede2245c]
link C_0010627602090167488081 to C_0009954510640382192371--><!--MD5=[861660a35bb5d1565a2772a2b55d8e09]
link C_0010627602090167488081 to C_0004628219160953719395--><!--MD5=[f02c2bc316cf23f3903e86f14d734653]
@startuml
title IO Protocols (auto-gen from clang-uml)
enum "io::protocol::WireDeviceId" as C_0015225225004340369839
enum C_0015225225004340369839 {
FujiNet
DiskFirst
DiskLast
PrinterFirst
PrinterLast
Voice
Clock
NetworkFirst
NetworkLast
Midi
Dbc
FileService
}
enum "io::protocol::SlipByte" as C_0010627602090167488081
enum C_0010627602090167488081 {
End
Escape
EscEnd
EscEsc
}
class "io::protocol::PacketParam" as C_0003277087640557799971
class C_0003277087640557799971 {
+PacketParam(std::uint32_t v, std::uint8_t s) : void
+PacketParam<T>(T v) : void
__
+size : std::uint8_t
+value : std::uint32_t
}
class "io::protocol::FujiBusPacket" as C_0017232777488057089840
class C_0017232777488057089840 {
+FujiBusPacket() = default : void
+FujiBusPacket<Args...>(WireDeviceId dev, std::uint8_t cmd, Args &&... args) : void
..
-calcChecksum(const ByteBuffer & buf) const : std::uint8_t
+command() const : std::uint8_t
+data() const : const std::optional<ByteBuffer> &
+dataAsString() const : std::optional<std::string>
-decodeSLIP(const ByteBuffer & input) const : ByteBuffer
+device() const : WireDeviceId
-encodeSLIP(const ByteBuffer & input) const : ByteBuffer
{static} +fromSerialized(const ByteBuffer & input) : std::unique_ptr<FujiBusPacket>
+param(unsigned int index) const : std::uint32_t
+paramCount() const : unsigned int
-parse(const ByteBuffer & input) : bool
-processArg(const ByteBuffer & buf) : void
-processArg(ByteBuffer && buf) : void
-processArg(const std::string & s) : void
-processArg(std::uint32_t v) : void
-processArg(std::uint16_t v) : void
-processArg(std::uint8_t v) : void
+serialize() const : ByteBuffer
__
-_command : std::uint8_t
-_data : std::optional<ByteBuffer>
-_device : WireDeviceId
-_params : std::vector<PacketParam>
}
class "io::protocol::FujiBusHeader" as C_0009954510640382192371
class C_0009954510640382192371 {
__
+checksum : std::uint8_t
+command : std::uint8_t
+descr : std::uint8_t
+device : std::uint8_t
+length : std::uint16_t
}
enum "io::protocol::FujiCommand" as C_0004628219160953719395
enum C_0004628219160953719395 {
Reset
GetSsid
}
C_0017232777488057089840 o- - C_0015225225004340369839 : -_device
C_0017232777488057089840 o- - C_0003277087640557799971 : -_params

@enduml

PlantUML version 1.2020.02(Sun Mar 01 10:22:07 UTC 2020)
(GPL source distribution)
Java Runtime: OpenJDK Runtime Environment
JVM: OpenJDK 64-Bit Server VM
Java Version: 17.0.17+10
Operating System: Linux
Default Encoding: UTF-8
Language: en
Country: null
--></g></svg>