<?xml version="1.0" encoding="UTF-8" standalone="no"?><svg xmlns="http://www.w3.org/2000/svg" xmlns:xlink="http://www.w3.org/1999/xlink" contentScriptType="application/ecmascript" contentStyleType="text/css" height="517px" preserveAspectRatio="none" style="width:893px;height:517px;" version="1.1" viewBox="0 0 893 517" width="893px" zoomAndPan="magnify"><defs><filter height="300%" id="fs51wsp1htl9b" width="300%" x="-1" y="-1"><feGaussianBlur result="blurOut" stdDeviation="2.0"/><feColorMatrix in="blurOut" result="blurOut2" type="matrix" values="0 0 0 0 0 0 0 0 0 0 0 0 0 0 0 0 0 0 .4 0"/><feOffset dx="4.0" dy="4.0" in="blurOut2" result="blurOut3"/><feBlend in="SourceGraphic" in2="blurOut3" mode="normal"/></filter></defs><g><text fill="#000000" font-family="sans-serif" font-size="18" lengthAdjust="spacingAndGlyphs" textLength="359" x="271" y="16.708">Build Support (auto-gen from clang-uml)</text><!--MD5=[40a7350508250198890f3c040204966a]
class C_0007192754921315111484--><rect fill="#FEFECE" filter="url(#fs51wsp1htl9b)" height="124.8281" id="C_0007192754921315111484" style="stroke: #A80036; stroke-width: 1.5;" width="122" x="6" y="217.9531"/><ellipse cx="21" cy="233.9531" fill="#EB937F" rx="11" ry="11" style="stroke: #A80036; stroke-width: 1.0;"/><path d="M25.1094,239.9531 L17.3906,239.9531 L17.3906,227.5625 L25.1094,227.5625 L25.1094,229.7188 L19.8438,229.7188 L19.8438,232.3906 L24.6094,232.3906 L24.6094,234.5469 L19.8438,234.5469 L19.8438,237.7969 L25.1094,237.7969 L25.1094,239.9531 Z "/><text fill="#000000" font-family="sans-serif" font-size="12" lengthAdjust="spacingAndGlyphs" textLength="90" x="35" y="238.1074">build::Machine</text><line style="stroke: #A80036; stroke-width: 1.5;" x1="7" x2="127" y1="249.9531" y2="249.9531"/><text fill="#000000" font-family="sans-serif" font-size="11" lengthAdjust="spacingAndGlyphs" textLength="44" x="12" y="264.1636">Generic</text><text fill="#000000" font-family="sans-serif" font-size="11" lengthAdjust="spacingAndGlyphs" textLength="74" x="12" y="276.9683">FujiNetESP32</text><text fill="#000000" font-family="sans-serif" font-size="11" lengthAdjust="spacingAndGlyphs" textLength="48" x="12" y="289.7729">Atari8Bit</text><text fill="#000000" font-family="sans-serif" font-size="11" lengthAdjust="spacingAndGlyphs" textLength="22" x="12" y="302.5776">C64</text><text fill="#000000" font-family="sans-serif" font-size="11" lengthAdjust="spacingAndGlyphs" textLength="38" x="12" y="315.3823">Apple2</text><text fill="#000000" font-family="sans-serif" font-size="11" lengthAdjust="spacingAndGlyphs" textLength="48" x="12" y="328.187">FujiNetPi</text><line style="stroke: #A80036; stroke-width: 1.5;" x1="7" x2="127" y1="334.7813" y2="334.7813"/><!--MD5=[f4777b3fab596dfde460c94d20a0575c]
class C_0002950475094340712788--><rect fill="#FEFECE" filter="url(#fs51wsp1htl9b)" height="86.4141" id="C_0002950475094340712788" style="stroke: #A80036; stroke-width: 1.5;" width="157" x="163.5" y="237.4531"/><ellipse cx="178.5" cy="253.4531" fill="#EB937F" rx="11" ry="11" style="stroke: #A80036; stroke-width: 1.0;"/><path d="M182.6094,259.4531 L174.8906,259.4531 L174.8906,247.0625 L182.6094,247.0625 L182.6094,249.2188 L177.3438,249.2188 L177.3438,251.8906 L182.1094,251.8906 L182.1094,254.0469 L177.3438,254.0469 L177.3438,257.2969 L182.6094,257.2969 L182.6094,259.4531 Z "/><text fill="#000000" font-family="sans-serif" font-size="12" lengthAdjust="spacingAndGlyphs" textLength="125" x="192.5" y="257.6074">build::TransportKind</text><line style="stroke: #A80036; stroke-width: 1.5;" x1="164.5" x2="319.5" y1="269.4531" y2="269.4531"/><text fill="#000000" font-family="sans-serif" font-size="11" lengthAdjust="spacingAndGlyphs" textLength="41" x="169.5" y="283.6636">FujiBus</text><text fill="#000000" font-family="sans-serif" font-size="11" lengthAdjust="spacingAndGlyphs" textLength="20" x="169.5" y="296.4683">SIO</text><text fill="#000000" font-family="sans-serif" font-size="11" lengthAdjust="spacingAndGlyphs" textLength="18" x="169.5" y="309.2729">IEC</text><line style="stroke: #A80036; stroke-width: 1.5;" x1="164.5" x2="319.5" y1="315.8672" y2="315.8672"/><!--MD5=[1fa166170b0cad0dc334d2cfa1d49ad1]
class C_0018157593848838900415--><rect fill="#FEFECE" filter="url(#fs51wsp1htl9b)" height="86.4141" id="C_0018157593848838900415" style="stroke: #A80036; stroke-width: 1.5;" width="147" x="355.5" y="237.4531"/><ellipse cx="370.5" cy="253.4531" fill="#EB937F" rx="11" ry="11" style="stroke: #A80036; stroke-width: 1.0;"/><path d="M374.6094,259.4531 L366.8906,259.4531 L366.8906,247.0625 L374.6094,247.0625 L374.6094,249.2188 L369.3438,249.2188 L369.3438,251.8906 L374.1094,251.8906 L374.1094,254.0469 L369.3438,254.0469 L369.3438,257.2969 L374.6094,257.2969 L374.6094,259.4531 Z "/><text fill="#000000" font-family="sans-serif" font-size="12" lengthAdjust="spacingAndGlyphs" textLength="115" x="384.5" y="257.6074">build::ChannelKind</text><line style="stroke: #A80036; stroke-width: 1.5;" x1="356.5" x2="501.5" y1="269.4531" y2="269.4531"/><text fill="#000000" font-family="sans-serif" font-size="11" lengthAdjust="spacingAndGlyphs" textLength="17" x="361.5" y="283.6636">Pty</text><text fill="#000000" font-family="sans-serif" font-size="11" lengthAdjust="spacingAndGlyphs" textLength="80" x="361.5" y="296.4683">UsbCdcDevice</text><text fill="#000000" font-family="sans-serif" font-size="11" lengthAdjust="spacingAndGlyphs" textLength="58" x="361.5" y="309.2729">TcpSocket</text><line style="stroke: #A80036; stroke-width: 1.5;" x1="356.5" x2="501.5" y1="315.8672" y2="315.8672"/><!--MD5=[8d16fca3e6067de56111ea128d762350]
class C_0008019720847980173585--><rect fill="#FEFECE" filter="url(#fs51wsp1htl9b)" height="86.4141" id="C_0008019720847980173585" style="stroke: #A80036; stroke-width: 1.5;" width="211" x="405.5" y="419.9531"/><ellipse cx="428.6" cy="435.9531" fill="#ADD1B2" rx="11" ry="11" style="stroke: #A80036; stroke-width: 1.0;"/><path d="M431.5688,441.5938 Q430.9906,441.8906 430.35,442.0313 Q429.7094,442.1875 429.0063,442.1875 Q426.5063,442.1875 425.1781,440.5469 Q423.8656,438.8906 423.8656,435.7656 Q423.8656,432.6406 425.1781,430.9844 Q426.5063,429.3281 429.0063,429.3281 Q429.7094,429.3281 430.35,429.4844 Q431.0063,429.6406 431.5688,429.9375 L431.5688,432.6563 Q430.9438,432.0781 430.35,431.8125 Q429.7563,431.5313 429.1313,431.5313 Q427.7875,431.5313 427.1,432.6094 Q426.4125,433.6719 426.4125,435.7656 Q426.4125,437.8594 427.1,438.9375 Q427.7875,440 429.1313,440 Q429.7563,440 430.35,439.7344 Q430.9438,439.4531 431.5688,438.875 L431.5688,441.5938 Z "/><text fill="#000000" font-family="sans-serif" font-size="12" lengthAdjust="spacingAndGlyphs" textLength="161" x="444.4" y="440.1074">build::NetworkCapabilities</text><line style="stroke: #A80036; stroke-width: 1.5;" x1="406.5" x2="615.5" y1="451.9531" y2="451.9531"/><line style="stroke: #A80036; stroke-width: 1.5;" x1="406.5" x2="615.5" y1="459.9531" y2="459.9531"/><ellipse cx="416.5" cy="470.9531" fill="none" rx="3" ry="3" style="stroke: #038048; stroke-width: 1.0;"/><text fill="#000000" font-family="sans-serif" font-size="11" lengthAdjust="spacingAndGlyphs" textLength="132" x="425.5" y="474.1636">hasLocalNetwork : bool</text><ellipse cx="416.5" cy="483.7578" fill="none" rx="3" ry="3" style="stroke: #038048; stroke-width: 1.0;"/><text fill="#000000" font-family="sans-serif" font-size="11" lengthAdjust="spacingAndGlyphs" textLength="150" x="425.5" y="486.9683">managesItsOwnLink : bool</text><ellipse cx="416.5" cy="496.5625" fill="none" rx="3" ry="3" style="stroke: #038048; stroke-width: 1.0;"/><text fill="#000000" font-family="sans-serif" font-size="11" lengthAdjust="spacingAndGlyphs" textLength="185" x="425.5" y="499.7729">supportsAccessPointMode : bool</text><!--MD5=[faf281c5f6a428c9bb203732cf0c6d6f]
class C_0004735246185757737530--><rect fill="#FEFECE" filter="url(#fs51wsp1htl9b)" height="86.4141" id="C_0004735246185757737530" style="stroke: #A80036; stroke-width: 1.5;" width="231" x="651.5" y="419.9531"/><ellipse cx="684.95" cy="435.9531" fill="#ADD1B2" rx="11" ry="11" style="stroke: #A80036; stroke-width: 1.0;"/><path d="M687.9188,441.5938 Q687.3406,441.8906 686.7,442.0313 Q686.0594,442.1875 685.3563,442.1875 Q682.8563,442.1875 681.5281,440.5469 Q680.2156,438.8906 680.2156,435.7656 Q680.2156,432.6406 681.5281,430.9844 Q682.8563,429.3281 685.3563,429.3281 Q686.0594,429.3281 686.7,429.4844 Q687.3563,429.6406 687.9188,429.9375 L687.9188,432.6563 Q687.2938,432.0781 686.7,431.8125 Q686.1063,431.5313 685.4813,431.5313 Q684.1375,431.5313 683.45,432.6094 Q682.7625,433.6719 682.7625,435.7656 Q682.7625,437.8594 683.45,438.9375 Q684.1375,440 685.4813,440 Q686.1063,440 686.7,439.7344 Q687.2938,439.4531 687.9188,438.875 L687.9188,441.5938 Z "/><text fill="#000000" font-family="sans-serif" font-size="12" lengthAdjust="spacingAndGlyphs" textLength="158" x="703.05" y="440.1074">build::MemoryCapabilities</text><line style="stroke: #A80036; stroke-width: 1.5;" x1="652.5" x2="881.5" y1="451.9531" y2="451.9531"/><line style="stroke: #A80036; stroke-width: 1.5;" x1="652.5" x2="881.5" y1="459.9531" y2="459.9531"/><ellipse cx="662.5" cy="470.9531" fill="none" rx="3" ry="3" style="stroke: #038048; stroke-width: 1.0;"/><text fill="#000000" font-family="sans-serif" font-size="11" lengthAdjust="spacingAndGlyphs" textLength="169" x="671.5" y="474.1636">hasDedicatedLargePool : bool</text><ellipse cx="662.5" cy="483.7578" fill="none" rx="3" ry="3" style="stroke: #038048; stroke-width: 1.0;"/><text fill="#000000" font-family="sans-serif" font-size="11" lengthAdjust="spacingAndGlyphs" textLength="200" x="671.5" y="486.9683">largeMemoryPoolBytes : std::size_t</text><ellipse cx="662.5" cy="496.5625" fill="none" rx="3" ry="3" style="stroke: #038048; stroke-width: 1.0;"/><text fill="#000000" font-family="sans-serif" font-size="11" lengthAdjust="spacingAndGlyphs" textLength="205" x="671.5" y="499.7729">persistentStorageBytes : std::size_t</text><!--MD5=[1f4a2d6517045b967292a5c7d11e4cd2]
class C_0013796263537013607309--><rect fill="#FEFECE" filter="url(#fs51wsp1htl9b)" height="99.2188" id="C_0013796263537013607309" style="stroke: #A80036; stroke-width: 1.5;" width="202" x="538" y="230.9531"/><ellipse cx="553" cy="246.9531" fill="#ADD1B2" rx="11" ry="11" style="stroke: #A80036; stroke-width: 1.0;"/><path d="M555.9688,252.5938 Q555.3906,252.8906 554.75,253.0313 Q554.1094,253.1875 553.4063,253.1875 Q550.9063,253.1875 549.5781,251.5469 Q548.2656,249.8906 548.2656,246.7656 Q548.2656,243.6406 549.5781,241.9844 Q550.9063,240.3281 553.4063,240.3281 Q554.1094,240.3281 554.75,240.4844 Q555.4063,240.6406 555.9688,240.9375 L555.9688,243.6563 Q555.3438,243.0781 554.75,242.8125 Q554.1563,242.5313 553.5313,242.5313 Q552.1875,242.5313 551.5,243.6094 Q550.8125,244.6719 550.8125,246.7656 Q550.8125,248.8594 551.5,249.9375 Q552.1875,251 553.5313,251 Q554.1563,251 554.75,250.7344 Q555.3438,250.4531 555.9688,249.875 L555.9688,252.5938 Z "/><text fill="#000000" font-family="sans-serif" font-size="12" lengthAdjust="spacingAndGlyphs" textLength="170" x="567" y="251.1074">build::HardwareCapabilities</text><line style="stroke: #A80036; stroke-width: 1.5;" x1="539" x2="739" y1="262.9531" y2="262.9531"/><line style="stroke: #A80036; stroke-width: 1.5;" x1="539" x2="739" y1="270.9531" y2="270.9531"/><ellipse cx="549" cy="281.9531" fill="none" rx="3" ry="3" style="stroke: #038048; stroke-width: 1.0;"/><text fill="#000000" font-family="sans-serif" font-size="11" lengthAdjust="spacingAndGlyphs" textLength="116" x="558" y="285.1636">hasUsbDevice : bool</text><ellipse cx="549" cy="294.7578" fill="none" rx="3" ry="3" style="stroke: #038048; stroke-width: 1.0;"/><text fill="#000000" font-family="sans-serif" font-size="11" lengthAdjust="spacingAndGlyphs" textLength="105" x="558" y="297.9683">hasUsbHost : bool</text><ellipse cx="549" cy="307.5625" fill="none" rx="3" ry="3" style="stroke: #038048; stroke-width: 1.0;"/><text fill="#000000" font-family="sans-serif" font-size="11" lengthAdjust="spacingAndGlyphs" textLength="170" x="558" y="310.7729">memory : MemoryCapabilities</text><ellipse cx="549" cy="320.3672" fill="none" rx="3" ry="3" style="stroke: #038048; stroke-width: 1.0;"/><text fill="#000000" font-family="sans-serif" font-size="11" lengthAdjust="spacingAndGlyphs" textLength="169" x="558" y="323.5776">network : NetworkCapabilities</text><!--MD5=[e31e1e6a728d91b8b81a785ea56fc53c]
class C_0000758950242649922238--><rect fill="#FEFECE" filter="url(#fs51wsp1htl9b)" height="112.0234" id="C_0000758950242649922238" style="stroke: #A80036; stroke-width: 1.5;" width="218" x="226" y="28.9531"/><ellipse cx="277.25" cy="44.9531" fill="#ADD1B2" rx="11" ry="11" style="stroke: #A80036; stroke-width: 1.0;"/><path d="M280.2188,50.5938 Q279.6406,50.8906 279,51.0313 Q278.3594,51.1875 277.6563,51.1875 Q275.1563,51.1875 273.8281,49.5469 Q272.5156,47.8906 272.5156,44.7656 Q272.5156,41.6406 273.8281,39.9844 Q275.1563,38.3281 277.6563,38.3281 Q278.3594,38.3281 279,38.4844 Q279.6563,38.6406 280.2188,38.9375 L280.2188,41.6563 Q279.5938,41.0781 279,40.8125 Q278.4063,40.5313 277.7813,40.5313 Q276.4375,40.5313 275.75,41.6094 Q275.0625,42.6719 275.0625,44.7656 Q275.0625,46.8594 275.75,47.9375 Q276.4375,49 277.7813,49 Q278.4063,49 279,48.7344 Q279.5938,48.4531 280.2188,47.875 L280.2188,50.5938 Z "/><text fill="#000000" font-family="sans-serif" font-size="12" lengthAdjust="spacingAndGlyphs" textLength="107" x="297.75" y="49.1074">build::BuildProfile</text><line style="stroke: #A80036; stroke-width: 1.5;" x1="227" x2="443" y1="60.9531" y2="60.9531"/><line style="stroke: #A80036; stroke-width: 1.5;" x1="227" x2="443" y1="68.9531" y2="68.9531"/><ellipse cx="237" cy="79.9531" fill="none" rx="3" ry="3" style="stroke: #038048; stroke-width: 1.0;"/><text fill="#000000" font-family="sans-serif" font-size="11" lengthAdjust="spacingAndGlyphs" textLength="149" x="246" y="83.1636">hw : HardwareCapabilities</text><ellipse cx="237" cy="92.7578" fill="none" rx="3" ry="3" style="stroke: #038048; stroke-width: 1.0;"/><text fill="#000000" font-family="sans-serif" font-size="11" lengthAdjust="spacingAndGlyphs" textLength="106" x="246" y="95.9683">machine : Machine</text><ellipse cx="237" cy="105.5625" fill="none" rx="3" ry="3" style="stroke: #038048; stroke-width: 1.0;"/><text fill="#000000" font-family="sans-serif" font-size="11" lengthAdjust="spacingAndGlyphs" textLength="134" x="246" y="108.7729">name : std::string_view</text><ellipse cx="237" cy="118.3672" fill="none" rx="3" ry="3" style="stroke: #038048; stroke-width: 1.0;"/><text fill="#000000" font-family="sans-serif" font-size="11" lengthAdjust="spacingAndGlyphs" textLength="172" x="246" y="121.5776">primaryChannel : ChannelKind</text><ellipse cx="237" cy="131.1719" fill="none" rx="3" ry="3" style="stroke: #038048; stroke-width: 1.0;"/><text fill="#000000" font-family="sans-serif" font-size="11" lengthAdjust="spacingAndGlyphs" textLength="192" x="246" y="134.3823">primaryTransport : TransportKind</text><!--MD5=[dbf3a8a21c7087f3d8f05f8ecff31ba6]
reverse link C_0013796263537013607309 to C_0008019720847980173585--><path d="M596.72,341.0831 C578.45,366.8431 557.5,396.3831 540.88,419.8131 " fill="none" id="C_0013796263537013607309&lt;-C_0008019720847980173585" style="stroke: #A80036; stroke-width: 1.0;"/><polygon fill="#FFFFFF" points="604.36,330.3031,597.6268,332.8847,597.4201,340.0928,604.1533,337.5113,604.36,330.3031" style="stroke: #A80036; stroke-width: 1.0;"/><ellipse cx="578" cy="382.0195" fill="none" rx="3" ry="3" style="stroke: #038048; stroke-width: 1.0;"/><text fill="#000000" font-family="sans-serif" font-size="13" lengthAdjust="spacingAndGlyphs" textLength="50" x="585" y="386.02">network</text><!--MD5=[e072821e07c35e008294749a4d490fa4]
reverse link C_0013796263537013607309 to C_0004735246185757737530--><path d="M681.28,341.0831 C699.55,366.8431 720.5,396.3831 737.12,419.8131 " fill="none" id="C_0013796263537013607309&lt;-C_0004735246185757737530" style="stroke: #A80036; stroke-width: 1.0;"/><polygon fill="#FFFFFF" points="673.64,330.3031,673.8467,337.5113,680.5799,340.0928,680.3732,332.8847,673.64,330.3031" style="stroke: #A80036; stroke-width: 1.0;"/><ellipse cx="720" cy="382.0195" fill="none" rx="3" ry="3" style="stroke: #038048; stroke-width: 1.0;"/><text fill="#000000" font-family="sans-serif" font-size="13" lengthAdjust="spacingAndGlyphs" textLength="54" x="727" y="386.02">memory</text><!--MD5=[61239118c5b35bcd962adadef7089a7a]
reverse link C_0000758950242649922238 to C_0007192754921315111484--><path d="M214.38,147.3431 C202.14,154.8431 190.13,162.7631 179,170.9531 C160.25,184.7531 141.45,201.5231 124.76,217.7131 " fill="none" id="C_0000758950242649922238&lt;-C_0007192754921315111484" style="stroke: #A80036; stroke-width: 1.0;"/><polygon fill="#FFFFFF" points="225.67,140.5731,218.4673,140.2261,215.3766,146.7413,222.5793,147.0883,225.67,140.5731" style="stroke: #A80036; stroke-width: 1.0;"/><ellipse cx="185" cy="180.0195" fill="none" rx="3" ry="3" style="stroke: #038048; stroke-width: 1.0;"/><text fill="#000000" font-family="sans-serif" font-size="13" lengthAdjust="spacingAndGlyphs" textLength="55" x="192" y="184.02">machine</text><!--MD5=[bcb910dc42780071d265b00b13002f35]
reverse link C_0000758950242649922238 to C_0002950475094340712788--><path d="M272.91,151.9431 C268.81,158.1131 265.09,164.4831 262,170.9531 C252.13,191.6031 247.11,216.6131 244.57,237.4231 " fill="none" id="C_0000758950242649922238&lt;-C_0002950475094340712788" style="stroke: #A80036; stroke-width: 1.0;"/><polygon fill="#FFFFFF" points="280.64,141.0931,273.9006,143.6583,273.6764,150.8659,280.4158,148.3007,280.64,141.0931" style="stroke: #A80036; stroke-width: 1.0;"/><ellipse cx="268" cy="180.0195" fill="none" rx="3" ry="3" style="stroke: #038048; stroke-width: 1.0;"/><text fill="#000000" font-family="sans-serif" font-size="13" lengthAdjust="spacingAndGlyphs" textLength="110" x="275" y="184.02">primaryTransport</text><!--MD5=[cc561c457a248a78e663268f5e8a1c9f]
reverse link C_0000758950242649922238 to C_0018157593848838900415--><path d="M380.17,152.6831 C383.67,158.7631 387.01,164.9031 390,170.9531 C400.48,192.1231 409.58,216.8231 416.35,237.3131 " fill="none" id="C_0000758950242649922238&lt;-C_0018157593848838900415" style="stroke: #A80036; stroke-width: 1.0;"/><polygon fill="#FFFFFF" points="373.27,141.1231,372.9093,148.3252,379.4187,151.4281,379.7794,144.2261,373.27,141.1231" style="stroke: #A80036; stroke-width: 1.0;"/><ellipse cx="403" cy="180.0195" fill="none" rx="3" ry="3" style="stroke: #038048; stroke-width: 1.0;"/><text fill="#000000" font-family="sans-serif" font-size="13" lengthAdjust="spacingAndGlyphs" textLength="101" x="410" y="184.02">primaryChannel</text><!--MD5=[57d5e54120a0e7f18da794f86522b65f]
reverse link C_0000758950242649922238 to C_0013796263537013607309--><path d="M455.95,134.9631 C477.92,145.6831 500.14,157.8031 520,170.9531 C545.87,188.0931 571.68,210.7631 592.62,230.9531 " fill="none" id="C_0000758950242649922238&lt;-C_0013796263537013607309" style="stroke: #A80036; stroke-width: 1.0;"/><polygon fill="#FFFFFF" points="444.15,129.3231,447.841,135.518,454.979,134.4936,451.288,128.2987,444.15,129.3231" style="stroke: #A80036; stroke-width: 1.0;"/><ellipse cx="548" cy="180.0195" fill="none" rx="3" ry="3" style="stroke: #038048; stroke-width: 1.0;"/><text fill="#000000" font-family="sans-serif" font-size="13" lengthAdjust="spacingAndGlyphs" textLength="17" x="555" y="184.02">hw</text><!--MD5=[01d3501c581b8684a1dd3be52d917bfb]
@startuml
title Build Support (auto-gen from clang-uml)
enum "build::Machine" as C_0007192754921315111484
enum C_0007192754921315111484 {
Generic
FujiNetESP32
Atari8Bit
C64
Apple2
FujiNetPi
}
enum "build::TransportKind" as C_0002950475094340712788
enum C_0002950475094340712788 {
FujiBus
SIO
IEC
}
enum "build::ChannelKind" as C_0018157593848838900415
enum C_0018157593848838900415 {
Pty
UsbCdcDevice
TcpSocket
}
class "build::NetworkCapabilities" as C_0008019720847980173585
class C_0008019720847980173585 {
__
+hasLocalNetwork : bool
+managesItsOwnLink : bool
+supportsAccessPointMode : bool
}
class "build::MemoryCapabilities" as C_0004735246185757737530
class C_0004735246185757737530 {
__
+hasDedicatedLargePool : bool
+largeMemoryPoolBytes : std::size_t
+persistentStorageBytes : std::size_t
}
class "build::HardwareCapabilities" as C_0013796263537013607309
class C_0013796263537013607309 {
__
+hasUsbDevice : bool
+hasUsbHost : bool
+memory : MemoryCapabilities
+network : NetworkCapabilities
}
class "build::BuildProfile" as C_0000758950242649922238
class C_0000758950242649922238 {
__
+hw : HardwareCapabilities
+machine : Machine
+name : std::string_view
+primaryChannel : ChannelKind
+primaryTransport : TransportKind
}
C_0013796263537013607309 o- - C_0008019720847980173585 : +network
C_0013796263537013607309 o- - C_0004735246185757737530 : +memory
C_0000758950242649922238 o- - C_0007192754921315111484 : +machine
C_0000758950242649922238 o- - C_0002950475094340712788 : +primaryTransport
C_0000758950242649922238 o- - C_0018157593848838900415 : +primaryChannel
C_0000758950242649922238 o- - C_0013796263537013607309 : +hw

@enduml

PlantUML version 1.2020.02(Sun Mar 01 10:22:07 UTC 2020)
(GPL source distribution)
Java Runtime: OpenJDK Runtime Environment
JVM: OpenJDK 64-Bit Server VM
Java Version: 17.0.17+10
Operating System: Linux
Default Encoding: UTF-8
Language: en
Country: null
--></g></svg>