<?xml version="1.0" encoding="UTF-8" standalone="no"?><svg xmlns="http://www.w3.org/2000/svg" xmlns:xlink="http://www.w3.org/1999/xlink" contentScriptType="application/ecmascript" contentStyleType="text/css" height="668px" preserveAspectRatio="none" style="width:1039px;height:668px;" version="1.1" viewBox="0 0 1039 668" width="1039px" zoomAndPan="magnify"><defs><filter height="300%" id="f9c2b323zwi7u" width="300%" x="-1" y="-1"><feGaussianBlur result="blurOut" stdDeviation="2.0"/><feColorMatrix in="blurOut" result="blurOut2" type="matrix" values="0 0 0 0 0 0 0 0 0 0 0 0 0 0 0 0 0 0 .4 0"/><feOffset dx="4.0" dy="4.0" in="blurOut2" result="blurOut3"/><feBlend in="SourceGraphic" in2="blurOut3" mode="normal"/></filter></defs><g><text fill="#000000" font-family="sans-serif" font-size="18" lengthAdjust="spacingAndGlyphs" textLength="346" x="350" y="16.708">IO Protocols (auto-gen from clang-uml)</text><!--MD5=[db7a3742782e0e304b9255ed0503b919]
class C_0003386160999608540497--><rect fill="#FEFECE" filter="url(#f9c2b323zwi7u)" height="86.4141" id="C_0003386160999608540497" style="stroke: #A80036; stroke-width: 1.5;" width="205" x="6" y="520.4531"/><ellipse cx="21" cy="536.4531" fill="#EB937F" rx="11" ry="11" style="stroke: #A80036; stroke-width: 1.0;"/><path d="M25.1094,542.4531 L17.3906,542.4531 L17.3906,530.0625 L25.1094,530.0625 L25.1094,532.2188 L19.8438,532.2188 L19.8438,534.8906 L24.6094,534.8906 L24.6094,537.0469 L19.8438,537.0469 L19.8438,540.2969 L25.1094,540.2969 L25.1094,542.4531 Z "/><text fill="#000000" font-family="sans-serif" font-size="12" lengthAdjust="spacingAndGlyphs" textLength="173" x="35" y="540.6074">io::protocol::FujiCommandId</text><line style="stroke: #A80036; stroke-width: 1.5;" x1="7" x2="210" y1="552.4531" y2="552.4531"/><text fill="#000000" font-family="sans-serif" font-size="11" lengthAdjust="spacingAndGlyphs" textLength="32" x="12" y="566.6636">Reset</text><text fill="#000000" font-family="sans-serif" font-size="11" lengthAdjust="spacingAndGlyphs" textLength="75" x="12" y="579.4683">SpecialQuery</text><text fill="#000000" font-family="sans-serif" font-size="11" lengthAdjust="spacingAndGlyphs" textLength="45" x="12" y="592.2729">GetSsid</text><line style="stroke: #A80036; stroke-width: 1.5;" x1="7" x2="210" y1="598.8672" y2="598.8672"/><!--MD5=[1272cb9bc30b68dcbeeda696544892d4]
class C_0000782810335588983435--><rect fill="#FEFECE" filter="url(#f9c2b323zwi7u)" height="188.8516" id="C_0000782810335588983435" style="stroke: #A80036; stroke-width: 1.5;" width="184" x="246.5" y="468.9531"/><ellipse cx="261.5" cy="484.9531" fill="#EB937F" rx="11" ry="11" style="stroke: #A80036; stroke-width: 1.0;"/><path d="M265.6094,490.9531 L257.8906,490.9531 L257.8906,478.5625 L265.6094,478.5625 L265.6094,480.7188 L260.3438,480.7188 L260.3438,483.3906 L265.1094,483.3906 L265.1094,485.5469 L260.3438,485.5469 L260.3438,488.7969 L265.6094,488.7969 L265.6094,490.9531 Z "/><text fill="#000000" font-family="sans-serif" font-size="12" lengthAdjust="spacingAndGlyphs" textLength="152" x="275.5" y="489.1074">io::protocol::FujiDeviceId</text><line style="stroke: #A80036; stroke-width: 1.5;" x1="247.5" x2="429.5" y1="500.9531" y2="500.9531"/><text fill="#000000" font-family="sans-serif" font-size="11" lengthAdjust="spacingAndGlyphs" textLength="38" x="252.5" y="515.1636">FujiNet</text><text fill="#000000" font-family="sans-serif" font-size="11" lengthAdjust="spacingAndGlyphs" textLength="49" x="252.5" y="527.9683">DiskFirst</text><text fill="#000000" font-family="sans-serif" font-size="11" lengthAdjust="spacingAndGlyphs" textLength="48" x="252.5" y="540.7729">DiskLast</text><text fill="#000000" font-family="sans-serif" font-size="11" lengthAdjust="spacingAndGlyphs" textLength="63" x="252.5" y="553.5776">PrinterFirst</text><text fill="#000000" font-family="sans-serif" font-size="11" lengthAdjust="spacingAndGlyphs" textLength="62" x="252.5" y="566.3823">PrinterLast</text><text fill="#000000" font-family="sans-serif" font-size="11" lengthAdjust="spacingAndGlyphs" textLength="30" x="252.5" y="579.187">Voice</text><text fill="#000000" font-family="sans-serif" font-size="11" lengthAdjust="spacingAndGlyphs" textLength="30" x="252.5" y="591.9917">Clock</text><text fill="#000000" font-family="sans-serif" font-size="11" lengthAdjust="spacingAndGlyphs" textLength="71" x="252.5" y="604.7964">NetworkFirst</text><text fill="#000000" font-family="sans-serif" font-size="11" lengthAdjust="spacingAndGlyphs" textLength="70" x="252.5" y="617.6011">NetworkLast</text><text fill="#000000" font-family="sans-serif" font-size="11" lengthAdjust="spacingAndGlyphs" textLength="22" x="252.5" y="630.4058">Midi</text><text fill="#000000" font-family="sans-serif" font-size="11" lengthAdjust="spacingAndGlyphs" textLength="21" x="252.5" y="643.2104">Dbc</text><line style="stroke: #A80036; stroke-width: 1.5;" x1="247.5" x2="429.5" y1="649.8047" y2="649.8047"/><!--MD5=[00589bb63b8d16bc46b4cc6055ae058f]
class C_0010627602090167488081--><rect fill="#FEFECE" filter="url(#f9c2b323zwi7u)" height="99.2188" id="C_0010627602090167488081" style="stroke: #A80036; stroke-width: 1.5;" width="160" x="631.5" y="160.9531"/><ellipse cx="646.5" cy="176.9531" fill="#EB937F" rx="11" ry="11" style="stroke: #A80036; stroke-width: 1.0;"/><path d="M650.6094,182.9531 L642.8906,182.9531 L642.8906,170.5625 L650.6094,170.5625 L650.6094,172.7188 L645.3438,172.7188 L645.3438,175.3906 L650.1094,175.3906 L650.1094,177.5469 L645.3438,177.5469 L645.3438,180.7969 L650.6094,180.7969 L650.6094,182.9531 Z "/><text fill="#000000" font-family="sans-serif" font-size="12" lengthAdjust="spacingAndGlyphs" textLength="128" x="660.5" y="181.1074">io::protocol::SlipByte</text><line style="stroke: #A80036; stroke-width: 1.5;" x1="632.5" x2="790.5" y1="192.9531" y2="192.9531"/><text fill="#000000" font-family="sans-serif" font-size="11" lengthAdjust="spacingAndGlyphs" textLength="21" x="637.5" y="207.1636">End</text><text fill="#000000" font-family="sans-serif" font-size="11" lengthAdjust="spacingAndGlyphs" textLength="41" x="637.5" y="219.9683">Escape</text><text fill="#000000" font-family="sans-serif" font-size="11" lengthAdjust="spacingAndGlyphs" textLength="41" x="637.5" y="232.7729">EscEnd</text><text fill="#000000" font-family="sans-serif" font-size="11" lengthAdjust="spacingAndGlyphs" textLength="40" x="637.5" y="245.5776">EscEsc</text><line style="stroke: #A80036; stroke-width: 1.5;" x1="632.5" x2="790.5" y1="252.1719" y2="252.1719"/><!--MD5=[72d2c2714d5b439165c57447022afdec]
class C_0003277087640557799971--><rect fill="#FEFECE" filter="url(#f9c2b323zwi7u)" height="99.2188" id="C_0003277087640557799971" style="stroke: #A80036; stroke-width: 1.5;" width="307" x="466" y="513.9531"/><ellipse cx="534.25" cy="529.9531" fill="#ADD1B2" rx="11" ry="11" style="stroke: #A80036; stroke-width: 1.0;"/><path d="M537.2188,535.5938 Q536.6406,535.8906 536,536.0313 Q535.3594,536.1875 534.6563,536.1875 Q532.1563,536.1875 530.8281,534.5469 Q529.5156,532.8906 529.5156,529.7656 Q529.5156,526.6406 530.8281,524.9844 Q532.1563,523.3281 534.6563,523.3281 Q535.3594,523.3281 536,523.4844 Q536.6563,523.6406 537.2188,523.9375 L537.2188,526.6563 Q536.5938,526.0781 536,525.8125 Q535.4063,525.5313 534.7813,525.5313 Q533.4375,525.5313 532.75,526.6094 Q532.0625,527.6719 532.0625,529.7656 Q532.0625,531.8594 532.75,532.9375 Q533.4375,534 534.7813,534 Q535.4063,534 536,533.7344 Q536.5938,533.4531 537.2188,532.875 L537.2188,535.5938 Z "/><text fill="#000000" font-family="sans-serif" font-size="12" lengthAdjust="spacingAndGlyphs" textLength="162" x="554.75" y="534.1074">io::protocol::PacketParam</text><line style="stroke: #A80036; stroke-width: 1.5;" x1="467" x2="772" y1="545.9531" y2="545.9531"/><ellipse cx="477" cy="556.9531" fill="#84BE84" rx="3" ry="3" style="stroke: #038048; stroke-width: 1.0;"/><text fill="#000000" font-family="sans-serif" font-size="11" lengthAdjust="spacingAndGlyphs" textLength="281" x="486" y="560.1636">PacketParam(std::uint32_t v, std::uint8_t s) : void</text><ellipse cx="477" cy="569.7578" fill="#84BE84" rx="3" ry="3" style="stroke: #038048; stroke-width: 1.0;"/><text fill="#000000" font-family="sans-serif" font-size="11" lengthAdjust="spacingAndGlyphs" textLength="159" x="486" y="572.9683">PacketParam&lt;T&gt;(T v) : void</text><line style="stroke: #A80036; stroke-width: 1.5;" x1="467" x2="772" y1="579.5625" y2="579.5625"/><ellipse cx="477" cy="590.5625" fill="none" rx="3" ry="3" style="stroke: #038048; stroke-width: 1.0;"/><text fill="#000000" font-family="sans-serif" font-size="11" lengthAdjust="spacingAndGlyphs" textLength="98" x="486" y="593.7729">size : std::uint8_t</text><ellipse cx="477" cy="603.3672" fill="none" rx="3" ry="3" style="stroke: #038048; stroke-width: 1.0;"/><text fill="#000000" font-family="sans-serif" font-size="11" lengthAdjust="spacingAndGlyphs" textLength="113" x="486" y="606.5776">value : std::uint32_t</text><!--MD5=[a296b3227c73c67410f4977d15d780d7]
class C_0017232777488057089840--><rect fill="#FEFECE" filter="url(#f9c2b323zwi7u)" height="363.3125" id="C_0017232777488057089840" style="stroke: #A80036; stroke-width: 1.5;" width="516" x="80.5" y="28.9531"/><ellipse cx="251.25" cy="44.9531" fill="#ADD1B2" rx="11" ry="11" style="stroke: #A80036; stroke-width: 1.0;"/><path d="M254.2188,50.5938 Q253.6406,50.8906 253,51.0313 Q252.3594,51.1875 251.6563,51.1875 Q249.1563,51.1875 247.8281,49.5469 Q246.5156,47.8906 246.5156,44.7656 Q246.5156,41.6406 247.8281,39.9844 Q249.1563,38.3281 251.6563,38.3281 Q252.3594,38.3281 253,38.4844 Q253.6563,38.6406 254.2188,38.9375 L254.2188,41.6563 Q253.5938,41.0781 253,40.8125 Q252.4063,40.5313 251.7813,40.5313 Q250.4375,40.5313 249.75,41.6094 Q249.0625,42.6719 249.0625,44.7656 Q249.0625,46.8594 249.75,47.9375 Q250.4375,49 251.7813,49 Q252.4063,49 253,48.7344 Q253.5938,48.4531 254.2188,47.875 L254.2188,50.5938 Z "/><text fill="#000000" font-family="sans-serif" font-size="12" lengthAdjust="spacingAndGlyphs" textLength="166" x="271.75" y="49.1074">io::protocol::FujiBusPacket</text><line style="stroke: #A80036; stroke-width: 1.5;" x1="81.5" x2="595.5" y1="60.9531" y2="60.9531"/><ellipse cx="91.5" cy="71.9531" fill="#84BE84" rx="3" ry="3" style="stroke: #038048; stroke-width: 1.0;"/><text fill="#000000" font-family="sans-serif" font-size="11" lengthAdjust="spacingAndGlyphs" textLength="177" x="100.5" y="75.1636">FujiBusPacket() = default : void</text><ellipse cx="91.5" cy="84.7578" fill="#84BE84" rx="3" ry="3" style="stroke: #038048; stroke-width: 1.0;"/><text fill="#000000" font-family="sans-serif" font-size="11" lengthAdjust="spacingAndGlyphs" textLength="490" x="100.5" y="87.9683">FujiBusPacket&lt;Args...&gt;(FujiDeviceId dev, FujiCommandId cmd, Args &amp;&amp;... args) : void</text><line style="stroke: #A80036; stroke-width: 1.0; stroke-dasharray: 1.0,2.0;" x1="81.5" x2="595.5" y1="94.5625" y2="94.5625"/><rect fill="#F24D5C" height="6" style="stroke: #C82930; stroke-width: 1.0;" width="6" x="88.5" y="102.5625"/><text fill="#000000" font-family="sans-serif" font-size="11" lengthAdjust="spacingAndGlyphs" textLength="331" x="100.5" y="108.7729">calcChecksum(const ByteBuffer &amp; buf) const : std::uint8_t</text><ellipse cx="91.5" cy="118.3672" fill="#84BE84" rx="3" ry="3" style="stroke: #038048; stroke-width: 1.0;"/><text fill="#000000" font-family="sans-serif" font-size="11" lengthAdjust="spacingAndGlyphs" textLength="198" x="100.5" y="121.5776">command() const : FujiCommandId</text><ellipse cx="91.5" cy="131.1719" fill="#84BE84" rx="3" ry="3" style="stroke: #038048; stroke-width: 1.0;"/><text fill="#000000" font-family="sans-serif" font-size="11" lengthAdjust="spacingAndGlyphs" textLength="278" x="100.5" y="134.3823">data() const : const std::optional&lt;ByteBuffer&gt; &amp;</text><ellipse cx="91.5" cy="143.9766" fill="#84BE84" rx="3" ry="3" style="stroke: #038048; stroke-width: 1.0;"/><text fill="#000000" font-family="sans-serif" font-size="11" lengthAdjust="spacingAndGlyphs" textLength="276" x="100.5" y="147.187">dataAsString() const : std::optional&lt;std::string&gt;</text><rect fill="#F24D5C" height="6" style="stroke: #C82930; stroke-width: 1.0;" width="6" x="88.5" y="153.7813"/><text fill="#000000" font-family="sans-serif" font-size="11" lengthAdjust="spacingAndGlyphs" textLength="321" x="100.5" y="159.9917">decodeSLIP(const ByteBuffer &amp; input) const : ByteBuffer</text><ellipse cx="91.5" cy="169.5859" fill="#84BE84" rx="3" ry="3" style="stroke: #038048; stroke-width: 1.0;"/><text fill="#000000" font-family="sans-serif" font-size="11" lengthAdjust="spacingAndGlyphs" textLength="157" x="100.5" y="172.7964">device() const : FujiDeviceId</text><rect fill="#F24D5C" height="6" style="stroke: #C82930; stroke-width: 1.0;" width="6" x="88.5" y="179.3906"/><text fill="#000000" font-family="sans-serif" font-size="11" lengthAdjust="spacingAndGlyphs" textLength="321" x="100.5" y="185.6011">encodeSLIP(const ByteBuffer &amp; input) const : ByteBuffer</text><ellipse cx="91.5" cy="195.1953" fill="#84BE84" rx="3" ry="3" style="stroke: #038048; stroke-width: 1.0;"/><text fill="#000000" font-family="sans-serif" font-size="11" lengthAdjust="spacingAndGlyphs" text-decoration="underline" textLength="425" x="100.5" y="198.4058">fromSerialized(const ByteBuffer &amp; input) : std::unique_ptr&lt;FujiBusPacket&gt;</text><ellipse cx="91.5" cy="208" fill="#84BE84" rx="3" ry="3" style="stroke: #038048; stroke-width: 1.0;"/><text fill="#000000" font-family="sans-serif" font-size="11" lengthAdjust="spacingAndGlyphs" textLength="267" x="100.5" y="211.2104">param(unsigned int index) const : std::uint32_t</text><ellipse cx="91.5" cy="220.8047" fill="#84BE84" rx="3" ry="3" style="stroke: #038048; stroke-width: 1.0;"/><text fill="#000000" font-family="sans-serif" font-size="11" lengthAdjust="spacingAndGlyphs" textLength="195" x="100.5" y="224.0151">paramCount() const : unsigned int</text><rect fill="#F24D5C" height="6" style="stroke: #C82930; stroke-width: 1.0;" width="6" x="88.5" y="230.6094"/><text fill="#000000" font-family="sans-serif" font-size="11" lengthAdjust="spacingAndGlyphs" textLength="218" x="100.5" y="236.8198">parse(const ByteBuffer &amp; input) : bool</text><rect fill="#F24D5C" height="6" style="stroke: #C82930; stroke-width: 1.0;" width="6" x="88.5" y="243.4141"/><text fill="#000000" font-family="sans-serif" font-size="11" lengthAdjust="spacingAndGlyphs" textLength="239" x="100.5" y="249.6245">processArg(const ByteBuffer &amp; buf) : void</text><rect fill="#F24D5C" height="6" style="stroke: #C82930; stroke-width: 1.0;" width="6" x="88.5" y="256.2188"/><text fill="#000000" font-family="sans-serif" font-size="11" lengthAdjust="spacingAndGlyphs" textLength="214" x="100.5" y="262.4292">processArg(ByteBuffer &amp;&amp; buf) : void</text><rect fill="#F24D5C" height="6" style="stroke: #C82930; stroke-width: 1.0;" width="6" x="88.5" y="269.0234"/><text fill="#000000" font-family="sans-serif" font-size="11" lengthAdjust="spacingAndGlyphs" textLength="227" x="100.5" y="275.2339">processArg(const std::string &amp; s) : void</text><rect fill="#F24D5C" height="6" style="stroke: #C82930; stroke-width: 1.0;" width="6" x="88.5" y="281.8281"/><text fill="#000000" font-family="sans-serif" font-size="11" lengthAdjust="spacingAndGlyphs" textLength="189" x="100.5" y="288.0386">processArg(std::uint32_t v) : void</text><rect fill="#F24D5C" height="6" style="stroke: #C82930; stroke-width: 1.0;" width="6" x="88.5" y="294.6328"/><text fill="#000000" font-family="sans-serif" font-size="11" lengthAdjust="spacingAndGlyphs" textLength="189" x="100.5" y="300.8433">processArg(std::uint16_t v) : void</text><rect fill="#F24D5C" height="6" style="stroke: #C82930; stroke-width: 1.0;" width="6" x="88.5" y="307.4375"/><text fill="#000000" font-family="sans-serif" font-size="11" lengthAdjust="spacingAndGlyphs" textLength="182" x="100.5" y="313.6479">processArg(std::uint8_t v) : void</text><ellipse cx="91.5" cy="323.2422" fill="#84BE84" rx="3" ry="3" style="stroke: #038048; stroke-width: 1.0;"/><text fill="#000000" font-family="sans-serif" font-size="11" lengthAdjust="spacingAndGlyphs" textLength="162" x="100.5" y="326.4526">serialize() const : ByteBuffer</text><line style="stroke: #A80036; stroke-width: 1.5;" x1="81.5" x2="595.5" y1="333.0469" y2="333.0469"/><rect fill="none" height="6" style="stroke: #C82930; stroke-width: 1.0;" width="6" x="88.5" y="341.0469"/><text fill="#000000" font-family="sans-serif" font-size="11" lengthAdjust="spacingAndGlyphs" textLength="161" x="100.5" y="347.2573">_command : FujiCommandId</text><rect fill="none" height="6" style="stroke: #C82930; stroke-width: 1.0;" width="6" x="88.5" y="353.8516"/><text fill="#000000" font-family="sans-serif" font-size="11" lengthAdjust="spacingAndGlyphs" textLength="192" x="100.5" y="360.062">_data : std::optional&lt;ByteBuffer&gt;</text><rect fill="none" height="6" style="stroke: #C82930; stroke-width: 1.0;" width="6" x="88.5" y="366.6563"/><text fill="#000000" font-family="sans-serif" font-size="11" lengthAdjust="spacingAndGlyphs" textLength="120" x="100.5" y="372.8667">_device : FujiDeviceId</text><rect fill="none" height="6" style="stroke: #C82930; stroke-width: 1.0;" width="6" x="88.5" y="379.4609"/><text fill="#000000" font-family="sans-serif" font-size="11" lengthAdjust="spacingAndGlyphs" textLength="215" x="100.5" y="385.6714">_params : std::vector&lt;PacketParam&gt;</text><!--MD5=[c8c5170bff1e9023eb4a587b4387aedc]
class C_0009954510640382192371--><rect fill="#FEFECE" filter="url(#f9c2b323zwi7u)" height="112.0234" id="C_0009954510640382192371" style="stroke: #A80036; stroke-width: 1.5;" width="201" x="827" y="154.4531"/><ellipse cx="842" cy="170.4531" fill="#ADD1B2" rx="11" ry="11" style="stroke: #A80036; stroke-width: 1.0;"/><path d="M844.9688,176.0938 Q844.3906,176.3906 843.75,176.5313 Q843.1094,176.6875 842.4063,176.6875 Q839.9063,176.6875 838.5781,175.0469 Q837.2656,173.3906 837.2656,170.2656 Q837.2656,167.1406 838.5781,165.4844 Q839.9063,163.8281 842.4063,163.8281 Q843.1094,163.8281 843.75,163.9844 Q844.4063,164.1406 844.9688,164.4375 L844.9688,167.1563 Q844.3438,166.5781 843.75,166.3125 Q843.1563,166.0313 842.5313,166.0313 Q841.1875,166.0313 840.5,167.1094 Q839.8125,168.1719 839.8125,170.2656 Q839.8125,172.3594 840.5,173.4375 Q841.1875,174.5 842.5313,174.5 Q843.1563,174.5 843.75,174.2344 Q844.3438,173.9531 844.9688,173.375 L844.9688,176.0938 Z "/><text fill="#000000" font-family="sans-serif" font-size="12" lengthAdjust="spacingAndGlyphs" textLength="169" x="856" y="174.6074">io::protocol::FujiBusHeader</text><line style="stroke: #A80036; stroke-width: 1.5;" x1="828" x2="1027" y1="186.4531" y2="186.4531"/><line style="stroke: #A80036; stroke-width: 1.5;" x1="828" x2="1027" y1="194.4531" y2="194.4531"/><ellipse cx="838" cy="205.4531" fill="none" rx="3" ry="3" style="stroke: #038048; stroke-width: 1.0;"/><text fill="#000000" font-family="sans-serif" font-size="11" lengthAdjust="spacingAndGlyphs" textLength="133" x="847" y="208.6636">checksum : std::uint8_t</text><ellipse cx="838" cy="218.2578" fill="none" rx="3" ry="3" style="stroke: #038048; stroke-width: 1.0;"/><text fill="#000000" font-family="sans-serif" font-size="11" lengthAdjust="spacingAndGlyphs" textLength="132" x="847" y="221.4683">command : std::uint8_t</text><ellipse cx="838" cy="231.0625" fill="none" rx="3" ry="3" style="stroke: #038048; stroke-width: 1.0;"/><text fill="#000000" font-family="sans-serif" font-size="11" lengthAdjust="spacingAndGlyphs" textLength="108" x="847" y="234.2729">descr : std::uint8_t</text><ellipse cx="838" cy="243.8672" fill="none" rx="3" ry="3" style="stroke: #038048; stroke-width: 1.0;"/><text fill="#000000" font-family="sans-serif" font-size="11" lengthAdjust="spacingAndGlyphs" textLength="112" x="847" y="247.0776">device : std::uint8_t</text><ellipse cx="838" cy="256.6719" fill="none" rx="3" ry="3" style="stroke: #038048; stroke-width: 1.0;"/><text fill="#000000" font-family="sans-serif" font-size="11" lengthAdjust="spacingAndGlyphs" textLength="118" x="847" y="259.8823">length : std::uint16_t</text><!--MD5=[fcc730ccf0d494934f653b5fed96e9f7]
reverse link C_0017232777488057089840 to C_0000782810335588983435--><path d="M338.5,405.1331 C338.5,427.2231 338.5,448.9231 338.5,468.8131 " fill="none" id="C_0017232777488057089840&lt;-C_0000782810335588983435" style="stroke: #A80036; stroke-width: 1.0;"/><polygon fill="#FFFFFF" points="338.5,392.0931,334.5,398.0931,338.5,404.0931,342.5,398.0931,338.5,392.0931" style="stroke: #A80036; stroke-width: 1.0;"/><rect fill="none" height="6" style="stroke: #C82930; stroke-width: 1.0;" width="6" x="341.5" y="428.0195"/><text fill="#000000" font-family="sans-serif" font-size="13" lengthAdjust="spacingAndGlyphs" textLength="48" x="351.5" y="435.02">_device</text><!--MD5=[c2a7ad0071e70a8660ba28b81b0ccd81]
reverse link C_0017232777488057089840 to C_0003386160999608540497--><path d="M212.95,403.0531 C183.96,447.2931 155.88,490.1431 136.15,520.2631 " fill="none" id="C_0017232777488057089840&lt;-C_0003386160999608540497" style="stroke: #A80036; stroke-width: 1.0;"/><polygon fill="#FFFFFF" points="220.13,392.0931,213.4949,394.9173,213.5499,402.1282,220.1849,399.304,220.13,392.0931" style="stroke: #A80036; stroke-width: 1.0;"/><rect fill="none" height="6" style="stroke: #C82930; stroke-width: 1.0;" width="6" x="199.5" y="428.0195"/><text fill="#000000" font-family="sans-serif" font-size="13" lengthAdjust="spacingAndGlyphs" textLength="72" x="209.5" y="435.02">_command</text><!--MD5=[f47f967b175eade81981f12930178d3b]
reverse link C_0017232777488057089840 to C_0003277087640557799971--><path d="M491.34,402.3731 C524.53,443.8331 556.8,484.1331 580.65,513.9331 " fill="none" id="C_0017232777488057089840&lt;-C_0003277087640557799971" style="stroke: #A80036; stroke-width: 1.0;"/><polygon fill="#FFFFFF" points="483.12,392.0931,483.7447,399.2771,490.6163,401.4636,489.9916,394.2796,483.12,392.0931" style="stroke: #A80036; stroke-width: 1.0;"/><rect fill="none" height="6" style="stroke: #C82930; stroke-width: 1.0;" width="6" x="523.5" y="428.0195"/><text fill="#000000" font-family="sans-serif" font-size="13" lengthAdjust="spacingAndGlyphs" textLength="56" x="533.5" y="435.02">_params</text><!--MD5=[9450e25374ebac88daf95770c23f2f32]
@startuml
title IO Protocols (auto-gen from clang-uml)
enum "io::protocol::FujiCommandId" as C_0003386160999608540497
enum C_0003386160999608540497 {
Reset
SpecialQuery
GetSsid
}
enum "io::protocol::FujiDeviceId" as C_0000782810335588983435
enum C_0000782810335588983435 {
FujiNet
DiskFirst
DiskLast
PrinterFirst
PrinterLast
Voice
Clock
NetworkFirst
NetworkLast
Midi
Dbc
}
enum "io::protocol::SlipByte" as C_0010627602090167488081
enum C_0010627602090167488081 {
End
Escape
EscEnd
EscEsc
}
class "io::protocol::PacketParam" as C_0003277087640557799971
class C_0003277087640557799971 {
+PacketParam(std::uint32_t v, std::uint8_t s) : void
+PacketParam<T>(T v) : void
__
+size : std::uint8_t
+value : std::uint32_t
}
class "io::protocol::FujiBusPacket" as C_0017232777488057089840
class C_0017232777488057089840 {
+FujiBusPacket() = default : void
+FujiBusPacket<Args...>(FujiDeviceId dev, FujiCommandId cmd, Args &&... args) : void
..
-calcChecksum(const ByteBuffer & buf) const : std::uint8_t
+command() const : FujiCommandId
+data() const : const std::optional<ByteBuffer> &
+dataAsString() const : std::optional<std::string>
-decodeSLIP(const ByteBuffer & input) const : ByteBuffer
+device() const : FujiDeviceId
-encodeSLIP(const ByteBuffer & input) const : ByteBuffer
{static} +fromSerialized(const ByteBuffer & input) : std::unique_ptr<FujiBusPacket>
+param(unsigned int index) const : std::uint32_t
+paramCount() const : unsigned int
-parse(const ByteBuffer & input) : bool
-processArg(const ByteBuffer & buf) : void
-processArg(ByteBuffer && buf) : void
-processArg(const std::string & s) : void
-processArg(std::uint32_t v) : void
-processArg(std::uint16_t v) : void
-processArg(std::uint8_t v) : void
+serialize() const : ByteBuffer
__
-_command : FujiCommandId
-_data : std::optional<ByteBuffer>
-_device : FujiDeviceId
-_params : std::vector<PacketParam>
}
class "io::protocol::FujiBusHeader" as C_0009954510640382192371
class C_0009954510640382192371 {
__
+checksum : std::uint8_t
+command : std::uint8_t
+descr : std::uint8_t
+device : std::uint8_t
+length : std::uint16_t
}
C_0017232777488057089840 o- - C_0000782810335588983435 : -_device
C_0017232777488057089840 o- - C_0003386160999608540497 : -_command
C_0017232777488057089840 o- - C_0003277087640557799971 : -_params

@enduml

PlantUML version 1.2020.02(Sun Mar 01 10:22:07 UTC 2020)
(GPL source distribution)
Java Runtime: OpenJDK Runtime Environment
JVM: OpenJDK 64-Bit Server VM
Java Version: 17.0.17+10
Operating System: Linux
Default Encoding: UTF-8
Language: en
Country: null
--></g></svg>