<?xml version="1.0" encoding="UTF-8" standalone="no"?><svg xmlns="http://www.w3.org/2000/svg" xmlns:xlink="http://www.w3.org/1999/xlink" contentScriptType="application/ecmascript" contentStyleType="text/css" height="1300px" preserveAspectRatio="none" style="width:937px;height:1300px;" version="1.1" viewBox="0 0 937 1300" width="937px" zoomAndPan="magnify"><defs><filter height="300%" id="fnny900q71txl" width="300%" x="-1" y="-1"><feGaussianBlur result="blurOut" stdDeviation="2.0"/><feColorMatrix in="blurOut" result="blurOut2" type="matrix" values="0 0 0 0 0 0 0 0 0 0 0 0 0 0 0 0 0 0 .4 0"/><feOffset dx="4.0" dy="4.0" in="blurOut2" result="blurOut3"/><feBlend in="SourceGraphic" in2="blurOut3" mode="normal"/></filter></defs><g><text fill="#000000" font-family="sans-serif" font-size="18" lengthAdjust="spacingAndGlyphs" textLength="332" x="306.5" y="16.708">Filesystem (auto-gen from clang-uml)</text><!--MD5=[e229282a9ebb5df653a21cc96098b440]
class C_0014883681608496495557--><rect fill="#FEFECE" filter="url(#fnny900q71txl)" height="150.4375" id="C_0014883681608496495557" style="stroke: #A80036; stroke-width: 1.5;" width="143" x="29.5" y="919.9531"/><ellipse cx="44.5" cy="935.9531" fill="#EB937F" rx="11" ry="11" style="stroke: #A80036; stroke-width: 1.0;"/><path d="M48.6094,941.9531 L40.8906,941.9531 L40.8906,929.5625 L48.6094,929.5625 L48.6094,931.7188 L43.3438,931.7188 L43.3438,934.3906 L48.1094,934.3906 L48.1094,936.5469 L43.3438,936.5469 L43.3438,939.7969 L48.6094,939.7969 L48.6094,941.9531 Z "/><text fill="#000000" font-family="sans-serif" font-size="12" lengthAdjust="spacingAndGlyphs" textLength="111" x="58.5" y="940.1074">fs::FileSystemKind</text><line style="stroke: #A80036; stroke-width: 1.5;" x1="30.5" x2="171.5" y1="951.9531" y2="951.9531"/><text fill="#000000" font-family="sans-serif" font-size="11" lengthAdjust="spacingAndGlyphs" textLength="59" x="35.5" y="966.1636">LocalFlash</text><text fill="#000000" font-family="sans-serif" font-size="11" lengthAdjust="spacingAndGlyphs" textLength="45" x="35.5" y="978.9683">LocalSD</text><text fill="#000000" font-family="sans-serif" font-size="11" lengthAdjust="spacingAndGlyphs" textLength="56" x="35.5" y="991.7729">HostPosix</text><text fill="#000000" font-family="sans-serif" font-size="11" lengthAdjust="spacingAndGlyphs" textLength="71" x="35.5" y="1004.5776">NetworkTnfs</text><text fill="#000000" font-family="sans-serif" font-size="11" lengthAdjust="spacingAndGlyphs" textLength="72" x="35.5" y="1017.3823">NetworkSmb</text><text fill="#000000" font-family="sans-serif" font-size="11" lengthAdjust="spacingAndGlyphs" textLength="63" x="35.5" y="1030.187">NetworkFtp</text><text fill="#000000" font-family="sans-serif" font-size="11" lengthAdjust="spacingAndGlyphs" textLength="69" x="35.5" y="1042.9917">NetworkHttp</text><text fill="#000000" font-family="sans-serif" font-size="11" lengthAdjust="spacingAndGlyphs" textLength="51" x="35.5" y="1055.7964">Unknown</text><line style="stroke: #A80036; stroke-width: 1.5;" x1="30.5" x2="171.5" y1="1062.3906" y2="1062.3906"/><!--MD5=[9aaea6a4045dfcc9395dc06772d4efc1]
class C_0007646493544420080876--><rect fill="#FEFECE" filter="url(#fnny900q71txl)" height="99.2188" id="C_0007646493544420080876" style="stroke: #A80036; stroke-width: 1.5;" width="331" x="595.5" y="945.4531"/><ellipse cx="725.25" cy="961.4531" fill="#ADD1B2" rx="11" ry="11" style="stroke: #A80036; stroke-width: 1.0;"/><path d="M728.2188,967.0938 Q727.6406,967.3906 727,967.5313 Q726.3594,967.6875 725.6563,967.6875 Q723.1563,967.6875 721.8281,966.0469 Q720.5156,964.3906 720.5156,961.2656 Q720.5156,958.1406 721.8281,956.4844 Q723.1563,954.8281 725.6563,954.8281 Q726.3594,954.8281 727,954.9844 Q727.6563,955.1406 728.2188,955.4375 L728.2188,958.1563 Q727.5938,957.5781 727,957.3125 Q726.4063,957.0313 725.7813,957.0313 Q724.4375,957.0313 723.75,958.1094 Q723.0625,959.1719 723.0625,961.2656 Q723.0625,963.3594 723.75,964.4375 Q724.4375,965.5 725.7813,965.5 Q726.4063,965.5 727,965.2344 Q727.5938,964.9531 728.2188,964.375 L728.2188,967.0938 Z "/><text fill="#000000" font-family="sans-serif" font-size="12" lengthAdjust="spacingAndGlyphs" textLength="63" x="745.75" y="965.6074">fs::FileInfo</text><line style="stroke: #A80036; stroke-width: 1.5;" x1="596.5" x2="925.5" y1="977.4531" y2="977.4531"/><line style="stroke: #A80036; stroke-width: 1.5;" x1="596.5" x2="925.5" y1="985.4531" y2="985.4531"/><ellipse cx="606.5" cy="996.4531" fill="none" rx="3" ry="3" style="stroke: #038048; stroke-width: 1.0;"/><text fill="#000000" font-family="sans-serif" font-size="11" lengthAdjust="spacingAndGlyphs" textLength="97" x="615.5" y="999.6636">isDirectory : bool</text><ellipse cx="606.5" cy="1009.2578" fill="none" rx="3" ry="3" style="stroke: #038048; stroke-width: 1.0;"/><text fill="#000000" font-family="sans-serif" font-size="11" lengthAdjust="spacingAndGlyphs" textLength="305" x="615.5" y="1012.4683">modifiedTime : std::chrono::system_clock::time_point</text><ellipse cx="606.5" cy="1022.0625" fill="none" rx="3" ry="3" style="stroke: #038048; stroke-width: 1.0;"/><text fill="#000000" font-family="sans-serif" font-size="11" lengthAdjust="spacingAndGlyphs" textLength="96" x="615.5" y="1025.2729">path : std::string</text><ellipse cx="606.5" cy="1034.8672" fill="none" rx="3" ry="3" style="stroke: #038048; stroke-width: 1.0;"/><text fill="#000000" font-family="sans-serif" font-size="11" lengthAdjust="spacingAndGlyphs" textLength="137" x="615.5" y="1038.0776">sizeBytes : std::uint64_t</text><!--MD5=[7b2ccdb21bc98fe76851b4c0eb674b8d]
class C_0014904826619290153445--><rect fill="#FEFECE" filter="url(#fnny900q71txl)" height="132.8281" id="C_0014904826619290153445" style="stroke: #A80036; stroke-width: 1.5;" width="344" x="213" y="928.4531"/><ellipse cx="359.25" cy="944.4531" fill="#A9DCDF" rx="11" ry="11" style="stroke: #A80036; stroke-width: 1.0;"/><path d="M359.3594,939.7969 L358.2031,944.875 L360.5313,944.875 L359.3594,939.7969 Z M357.875,937.5625 L360.8594,937.5625 L364.2188,949.9531 L361.7656,949.9531 L361,946.8906 L357.7188,946.8906 L356.9688,949.9531 L354.5313,949.9531 L357.875,937.5625 Z "/><text fill="#000000" font-family="sans-serif" font-size="12" font-style="italic" lengthAdjust="spacingAndGlyphs" textLength="43" x="379.75" y="948.6074">fs::IFile</text><line style="stroke: #A80036; stroke-width: 1.5;" x1="214" x2="556" y1="960.4531" y2="960.4531"/><ellipse cx="224" cy="971.4531" fill="#84BE84" rx="3" ry="3" style="stroke: #038048; stroke-width: 1.0;"/><text fill="#000000" font-family="sans-serif" font-size="11" lengthAdjust="spacingAndGlyphs" textLength="190" x="233" y="974.6636">~IFile() constexpr = default : void</text><line style="stroke: #A80036; stroke-width: 1.0; stroke-dasharray: 1.0,2.0;" x1="214" x2="556" y1="981.2578" y2="981.2578"/><ellipse cx="224" cy="992.2578" fill="#84BE84" rx="3" ry="3" style="stroke: #038048; stroke-width: 1.0;"/><text fill="#000000" font-family="sans-serif" font-size="11" font-style="italic" lengthAdjust="spacingAndGlyphs" textLength="95" x="233" y="995.4683">flush() = 0 : bool</text><ellipse cx="224" cy="1005.0625" fill="#84BE84" rx="3" ry="3" style="stroke: #038048; stroke-width: 1.0;"/><text fill="#000000" font-family="sans-serif" font-size="11" font-style="italic" lengthAdjust="spacingAndGlyphs" textLength="308" x="233" y="1008.2729">read(void * dst, std::size_t maxBytes) = 0 : std::size_t</text><ellipse cx="224" cy="1017.8672" fill="#84BE84" rx="3" ry="3" style="stroke: #038048; stroke-width: 1.0;"/><text fill="#000000" font-family="sans-serif" font-size="11" font-style="italic" lengthAdjust="spacingAndGlyphs" textLength="200" x="233" y="1021.0776">seek(std::uint64_t offset) = 0 : bool</text><ellipse cx="224" cy="1030.6719" fill="#84BE84" rx="3" ry="3" style="stroke: #038048; stroke-width: 1.0;"/><text fill="#000000" font-family="sans-serif" font-size="11" font-style="italic" lengthAdjust="spacingAndGlyphs" textLength="165" x="233" y="1033.8823">tell() const = 0 : std::uint64_t</text><ellipse cx="224" cy="1043.4766" fill="#84BE84" rx="3" ry="3" style="stroke: #038048; stroke-width: 1.0;"/><text fill="#000000" font-family="sans-serif" font-size="11" font-style="italic" lengthAdjust="spacingAndGlyphs" textLength="318" x="233" y="1046.687">write(const void * src, std::size_t bytes) = 0 : std::size_t</text><line style="stroke: #A80036; stroke-width: 1.5;" x1="214" x2="556" y1="1053.2813" y2="1053.2813"/><!--MD5=[eed87f025b31fc734c35063cec541eae]
class C_0012397556205933868732--><rect fill="#FEFECE" filter="url(#fnny900q71txl)" height="209.6563" id="C_0012397556205933868732" style="stroke: #A80036; stroke-width: 1.5;" width="496" x="6" y="297.9531"/><ellipse cx="205.75" cy="313.9531" fill="#A9DCDF" rx="11" ry="11" style="stroke: #A80036; stroke-width: 1.0;"/><path d="M205.8594,309.2969 L204.7031,314.375 L207.0313,314.375 L205.8594,309.2969 Z M204.375,307.0625 L207.3594,307.0625 L210.7188,319.4531 L208.2656,319.4531 L207.5,316.3906 L204.2188,316.3906 L203.4688,319.4531 L201.0313,319.4531 L204.375,307.0625 Z "/><text fill="#000000" font-family="sans-serif" font-size="12" font-style="italic" lengthAdjust="spacingAndGlyphs" textLength="88" x="226.25" y="318.1074">fs::IFileSystem</text><line style="stroke: #A80036; stroke-width: 1.5;" x1="7" x2="501" y1="329.9531" y2="329.9531"/><ellipse cx="17" cy="340.9531" fill="#84BE84" rx="3" ry="3" style="stroke: #038048; stroke-width: 1.0;"/><text fill="#000000" font-family="sans-serif" font-size="11" lengthAdjust="spacingAndGlyphs" textLength="233" x="26" y="344.1636">~IFileSystem() constexpr = default : void</text><line style="stroke: #A80036; stroke-width: 1.0; stroke-dasharray: 1.0,2.0;" x1="7" x2="501" y1="350.7578" y2="350.7578"/><ellipse cx="17" cy="361.7578" fill="#84BE84" rx="3" ry="3" style="stroke: #038048; stroke-width: 1.0;"/><text fill="#000000" font-family="sans-serif" font-size="11" font-style="italic" lengthAdjust="spacingAndGlyphs" textLength="289" x="26" y="364.9683">createDirectory(const std::string &amp; path) = 0 : bool</text><ellipse cx="17" cy="374.5625" fill="#84BE84" rx="3" ry="3" style="stroke: #038048; stroke-width: 1.0;"/><text fill="#000000" font-family="sans-serif" font-size="11" font-style="italic" lengthAdjust="spacingAndGlyphs" textLength="234" x="26" y="377.7729">exists(const std::string &amp; path) = 0 : bool</text><ellipse cx="17" cy="387.3672" fill="#84BE84" rx="3" ry="3" style="stroke: #038048; stroke-width: 1.0;"/><text fill="#000000" font-family="sans-serif" font-size="11" font-style="italic" lengthAdjust="spacingAndGlyphs" textLength="262" x="26" y="390.5776">isDirectory(const std::string &amp; path) = 0 : bool</text><ellipse cx="17" cy="400.1719" fill="#84BE84" rx="3" ry="3" style="stroke: #038048; stroke-width: 1.0;"/><text fill="#000000" font-family="sans-serif" font-size="11" font-style="italic" lengthAdjust="spacingAndGlyphs" textLength="186" x="26" y="403.3823">kind() const = 0 : FileSystemKind</text><ellipse cx="17" cy="412.9766" fill="#84BE84" rx="3" ry="3" style="stroke: #038048; stroke-width: 1.0;"/><text fill="#000000" font-family="sans-serif" font-size="11" font-style="italic" lengthAdjust="spacingAndGlyphs" textLength="470" x="26" y="416.187">listDirectory(const std::string &amp; path, std::vector&lt;FileInfo&gt; &amp; outEntries) = 0 : bool</text><ellipse cx="17" cy="425.7813" fill="#84BE84" rx="3" ry="3" style="stroke: #038048; stroke-width: 1.0;"/><text fill="#000000" font-family="sans-serif" font-size="11" font-style="italic" lengthAdjust="spacingAndGlyphs" textLength="167" x="26" y="428.9917">name() const = 0 : std::string</text><ellipse cx="17" cy="438.5859" fill="#84BE84" rx="3" ry="3" style="stroke: #038048; stroke-width: 1.0;"/><text fill="#000000" font-family="sans-serif" font-size="11" font-style="italic" lengthAdjust="spacingAndGlyphs" textLength="443" x="26" y="441.7964">open(const std::string &amp; path, const char * mode) = 0 : std::unique_ptr&lt;IFile&gt;</text><ellipse cx="17" cy="451.3906" fill="#84BE84" rx="3" ry="3" style="stroke: #038048; stroke-width: 1.0;"/><text fill="#000000" font-family="sans-serif" font-size="11" font-style="italic" lengthAdjust="spacingAndGlyphs" textLength="297" x="26" y="454.6011">removeDirectory(const std::string &amp; path) = 0 : bool</text><ellipse cx="17" cy="464.1953" fill="#84BE84" rx="3" ry="3" style="stroke: #038048; stroke-width: 1.0;"/><text fill="#000000" font-family="sans-serif" font-size="11" font-style="italic" lengthAdjust="spacingAndGlyphs" textLength="264" x="26" y="467.4058">removeFile(const std::string &amp; path) = 0 : bool</text><ellipse cx="17" cy="477" fill="#84BE84" rx="3" ry="3" style="stroke: #038048; stroke-width: 1.0;"/><text fill="#000000" font-family="sans-serif" font-size="11" font-style="italic" lengthAdjust="spacingAndGlyphs" textLength="374" x="26" y="480.2104">rename(const std::string &amp; from, const std::string &amp; to) = 0 : bool</text><ellipse cx="17" cy="489.8047" fill="#84BE84" rx="3" ry="3" style="stroke: #038048; stroke-width: 1.0;"/><text fill="#000000" font-family="sans-serif" font-size="11" font-style="italic" lengthAdjust="spacingAndGlyphs" textLength="326" x="26" y="493.0151">stat(const std::string &amp; path, FileInfo &amp; outInfo) = 0 : bool</text><line style="stroke: #A80036; stroke-width: 1.5;" x1="7" x2="501" y1="499.6094" y2="499.6094"/><!--MD5=[ba7b63b4422cbdf988c084de7c91a086]
class C_0001279065520068563954--><rect fill="#FEFECE" filter="url(#fnny900q71txl)" height="192.0469" id="C_0001279065520068563954" style="stroke: #A80036; stroke-width: 1.5;" width="477" x="15.5" y="28.9531"/><ellipse cx="187.75" cy="44.9531" fill="#ADD1B2" rx="11" ry="11" style="stroke: #A80036; stroke-width: 1.0;"/><path d="M190.7188,50.5938 Q190.1406,50.8906 189.5,51.0313 Q188.8594,51.1875 188.1563,51.1875 Q185.6563,51.1875 184.3281,49.5469 Q183.0156,47.8906 183.0156,44.7656 Q183.0156,41.6406 184.3281,39.9844 Q185.6563,38.3281 188.1563,38.3281 Q188.8594,38.3281 189.5,38.4844 Q190.1563,38.6406 190.7188,38.9375 L190.7188,41.6563 Q190.0938,41.0781 189.5,40.8125 Q188.9063,40.5313 188.2813,40.5313 Q186.9375,40.5313 186.25,41.6094 Q185.5625,42.6719 185.5625,44.7656 Q185.5625,46.8594 186.25,47.9375 Q186.9375,49 188.2813,49 Q188.9063,49 189.5,48.7344 Q190.0938,48.4531 190.7188,47.875 L190.7188,50.5938 Z "/><text fill="#000000" font-family="sans-serif" font-size="12" lengthAdjust="spacingAndGlyphs" textLength="124" x="208.25" y="49.1074">fs::StorageManager</text><line style="stroke: #A80036; stroke-width: 1.5;" x1="16.5" x2="491.5" y1="60.9531" y2="60.9531"/><ellipse cx="26.5" cy="71.9531" fill="#84BE84" rx="3" ry="3" style="stroke: #038048; stroke-width: 1.0;"/><text fill="#000000" font-family="sans-serif" font-size="11" lengthAdjust="spacingAndGlyphs" textLength="193" x="35.5" y="75.1636">StorageManager() = default : void</text><ellipse cx="26.5" cy="84.7578" fill="#84BE84" rx="3" ry="3" style="stroke: #038048; stroke-width: 1.0;"/><text fill="#000000" font-family="sans-serif" font-size="11" lengthAdjust="spacingAndGlyphs" textLength="339" x="35.5" y="87.9683">StorageManager(const StorageManager &amp;) = deleted : void</text><ellipse cx="26.5" cy="97.5625" fill="#84BE84" rx="3" ry="3" style="stroke: #038048; stroke-width: 1.0;"/><text fill="#000000" font-family="sans-serif" font-size="11" lengthAdjust="spacingAndGlyphs" textLength="202" x="35.5" y="100.7729">~StorageManager() = default : void</text><line style="stroke: #A80036; stroke-width: 1.0; stroke-dasharray: 1.0,2.0;" x1="16.5" x2="491.5" y1="107.3672" y2="107.3672"/><ellipse cx="26.5" cy="118.3672" fill="#84BE84" rx="3" ry="3" style="stroke: #038048; stroke-width: 1.0;"/><text fill="#000000" font-family="sans-serif" font-size="11" lengthAdjust="spacingAndGlyphs" textLength="388" x="35.5" y="121.5776">operator=(const StorageManager &amp;) = deleted : StorageManager &amp;</text><line style="stroke: #A80036; stroke-width: 1.0; stroke-dasharray: 1.0,2.0;" x1="16.5" x2="491.5" y1="128.1719" y2="128.1719"/><ellipse cx="26.5" cy="139.1719" fill="#84BE84" rx="3" ry="3" style="stroke: #038048; stroke-width: 1.0;"/><text fill="#000000" font-family="sans-serif" font-size="11" lengthAdjust="spacingAndGlyphs" textLength="257" x="35.5" y="142.3823">get(const std::string &amp; name) : IFileSystem *</text><ellipse cx="26.5" cy="151.9766" fill="#84BE84" rx="3" ry="3" style="stroke: #038048; stroke-width: 1.0;"/><text fill="#000000" font-family="sans-serif" font-size="11" lengthAdjust="spacingAndGlyphs" textLength="327" x="35.5" y="155.187">get(const std::string &amp; name) const : const IFileSystem *</text><ellipse cx="26.5" cy="164.7813" fill="#84BE84" rx="3" ry="3" style="stroke: #038048; stroke-width: 1.0;"/><text fill="#000000" font-family="sans-serif" font-size="11" lengthAdjust="spacingAndGlyphs" textLength="250" x="35.5" y="167.9917">listNames() const : std::vector&lt;std::string&gt;</text><ellipse cx="26.5" cy="177.5859" fill="#84BE84" rx="3" ry="3" style="stroke: #038048; stroke-width: 1.0;"/><text fill="#000000" font-family="sans-serif" font-size="11" lengthAdjust="spacingAndGlyphs" textLength="335" x="35.5" y="180.7964">registerFileSystem(std::unique_ptr&lt;IFileSystem&gt; fs) : bool</text><ellipse cx="26.5" cy="190.3906" fill="#84BE84" rx="3" ry="3" style="stroke: #038048; stroke-width: 1.0;"/><text fill="#000000" font-family="sans-serif" font-size="11" lengthAdjust="spacingAndGlyphs" textLength="309" x="35.5" y="193.6011">unregisterFileSystem(const std::string &amp; name) : bool</text><line style="stroke: #A80036; stroke-width: 1.5;" x1="16.5" x2="491.5" y1="200.1953" y2="200.1953"/><rect fill="none" height="6" style="stroke: #C82930; stroke-width: 1.0;" width="6" x="23.5" y="208.1953"/><text fill="#000000" font-family="sans-serif" font-size="11" lengthAdjust="spacingAndGlyphs" textLength="451" x="35.5" y="214.4058">_fileSystems : std::unordered_map&lt;std::string,std::unique_ptr&lt;IFileSystem&gt;&gt;</text><!--MD5=[366ac8ee8567c88026dc56de7b596898]
class C_0007693094110734758389--><rect fill="#FEFECE" filter="url(#fnny900q71txl)" height="158.4375" id="C_0007693094110734758389" style="stroke: #A80036; stroke-width: 1.5;" width="323" x="223.5" y="1130.9531"/><ellipse cx="344.75" cy="1146.9531" fill="#ADD1B2" rx="11" ry="11" style="stroke: #A80036; stroke-width: 1.0;"/><path d="M347.7188,1152.5938 Q347.1406,1152.8906 346.5,1153.0313 Q345.8594,1153.1875 345.1563,1153.1875 Q342.6563,1153.1875 341.3281,1151.5469 Q340.0156,1149.8906 340.0156,1146.7656 Q340.0156,1143.6406 341.3281,1141.9844 Q342.6563,1140.3281 345.1563,1140.3281 Q345.8594,1140.3281 346.5,1140.4844 Q347.1563,1140.6406 347.7188,1140.9375 L347.7188,1143.6563 Q347.0938,1143.0781 346.5,1142.8125 Q345.9063,1142.5313 345.2813,1142.5313 Q343.9375,1142.5313 343.25,1143.6094 Q342.5625,1144.6719 342.5625,1146.7656 Q342.5625,1148.8594 343.25,1149.9375 Q343.9375,1151 345.2813,1151 Q345.9063,1151 346.5,1150.7344 Q347.0938,1150.4531 347.7188,1149.875 L347.7188,1152.5938 Z "/><text fill="#000000" font-family="sans-serif" font-size="12" lengthAdjust="spacingAndGlyphs" textLength="72" x="365.25" y="1151.1074">fs::StdioFile</text><line style="stroke: #A80036; stroke-width: 1.5;" x1="224.5" x2="545.5" y1="1162.9531" y2="1162.9531"/><ellipse cx="234.5" cy="1173.9531" fill="#84BE84" rx="3" ry="3" style="stroke: #038048; stroke-width: 1.0;"/><text fill="#000000" font-family="sans-serif" font-size="11" lengthAdjust="spacingAndGlyphs" textLength="164" x="243.5" y="1177.1636">StdioFile(std::FILE * fp) : void</text><ellipse cx="234.5" cy="1186.7578" fill="#84BE84" rx="3" ry="3" style="stroke: #038048; stroke-width: 1.0;"/><text fill="#000000" font-family="sans-serif" font-size="11" lengthAdjust="spacingAndGlyphs" textLength="100" x="243.5" y="1189.9683">~StdioFile() : void</text><line style="stroke: #A80036; stroke-width: 1.0; stroke-dasharray: 1.0,2.0;" x1="224.5" x2="545.5" y1="1196.5625" y2="1196.5625"/><ellipse cx="234.5" cy="1207.5625" fill="#84BE84" rx="3" ry="3" style="stroke: #038048; stroke-width: 1.0;"/><text fill="#000000" font-family="sans-serif" font-size="11" lengthAdjust="spacingAndGlyphs" textLength="72" x="243.5" y="1210.7729">flush() : bool</text><ellipse cx="234.5" cy="1220.3672" fill="#84BE84" rx="3" ry="3" style="stroke: #038048; stroke-width: 1.0;"/><text fill="#000000" font-family="sans-serif" font-size="11" lengthAdjust="spacingAndGlyphs" textLength="285" x="243.5" y="1223.5776">read(void * dst, std::size_t maxBytes) : std::size_t</text><ellipse cx="234.5" cy="1233.1719" fill="#84BE84" rx="3" ry="3" style="stroke: #038048; stroke-width: 1.0;"/><text fill="#000000" font-family="sans-serif" font-size="11" lengthAdjust="spacingAndGlyphs" textLength="179" x="243.5" y="1236.3823">seek(std::uint64_t offset) : bool</text><ellipse cx="234.5" cy="1245.9766" fill="#84BE84" rx="3" ry="3" style="stroke: #038048; stroke-width: 1.0;"/><text fill="#000000" font-family="sans-serif" font-size="11" lengthAdjust="spacingAndGlyphs" textLength="143" x="243.5" y="1249.187">tell() const : std::uint64_t</text><ellipse cx="234.5" cy="1258.7813" fill="#84BE84" rx="3" ry="3" style="stroke: #038048; stroke-width: 1.0;"/><text fill="#000000" font-family="sans-serif" font-size="11" lengthAdjust="spacingAndGlyphs" textLength="297" x="243.5" y="1261.9917">write(const void * src, std::size_t bytes) : std::size_t</text><line style="stroke: #A80036; stroke-width: 1.5;" x1="224.5" x2="545.5" y1="1268.5859" y2="1268.5859"/><rect fill="none" height="6" style="stroke: #C82930; stroke-width: 1.0;" width="6" x="231.5" y="1276.5859"/><text fill="#000000" font-family="sans-serif" font-size="11" lengthAdjust="spacingAndGlyphs" textLength="87" x="243.5" y="1282.7964">_fp : std::FILE *</text><!--MD5=[8d4f530c68e256c4314797047ed026ca]
class C_0001007711765235056436--><rect fill="#FEFECE" filter="url(#fnny900q71txl)" height="273.6797" id="C_0001007711765235056436" style="stroke: #A80036; stroke-width: 1.5;" width="486" x="223" y="568.9531"/><ellipse cx="403.25" cy="584.9531" fill="#ADD1B2" rx="11" ry="11" style="stroke: #A80036; stroke-width: 1.0;"/><path d="M406.2188,590.5938 Q405.6406,590.8906 405,591.0313 Q404.3594,591.1875 403.6563,591.1875 Q401.1563,591.1875 399.8281,589.5469 Q398.5156,587.8906 398.5156,584.7656 Q398.5156,581.6406 399.8281,579.9844 Q401.1563,578.3281 403.6563,578.3281 Q404.3594,578.3281 405,578.4844 Q405.6563,578.6406 406.2188,578.9375 L406.2188,581.6563 Q405.5938,581.0781 405,580.8125 Q404.4063,580.5313 403.7813,580.5313 Q402.4375,580.5313 401.75,581.6094 Q401.0625,582.6719 401.0625,584.7656 Q401.0625,586.8594 401.75,587.9375 Q402.4375,589 403.7813,589 Q404.4063,589 405,588.7344 Q405.5938,588.4531 406.2188,587.875 L406.2188,590.5938 Z "/><text fill="#000000" font-family="sans-serif" font-size="12" lengthAdjust="spacingAndGlyphs" textLength="117" x="423.75" y="589.1074">fs::StdioFileSystem</text><line style="stroke: #A80036; stroke-width: 1.5;" x1="224" x2="708" y1="600.9531" y2="600.9531"/><ellipse cx="234" cy="611.9531" fill="#84BE84" rx="3" ry="3" style="stroke: #038048; stroke-width: 1.0;"/><text fill="#000000" font-family="sans-serif" font-size="11" lengthAdjust="spacingAndGlyphs" textLength="460" x="243" y="615.1636">StdioFileSystem(std::string rootDir, std::string name, FileSystemKind kind) : void</text><line style="stroke: #A80036; stroke-width: 1.0; stroke-dasharray: 1.0,2.0;" x1="224" x2="708" y1="621.7578" y2="621.7578"/><ellipse cx="234" cy="632.7578" fill="#84BE84" rx="3" ry="3" style="stroke: #038048; stroke-width: 1.0;"/><text fill="#000000" font-family="sans-serif" font-size="11" lengthAdjust="spacingAndGlyphs" textLength="268" x="243" y="635.9683">createDirectory(const std::string &amp; path) : bool</text><ellipse cx="234" cy="645.5625" fill="#84BE84" rx="3" ry="3" style="stroke: #038048; stroke-width: 1.0;"/><text fill="#000000" font-family="sans-serif" font-size="11" lengthAdjust="spacingAndGlyphs" textLength="215" x="243" y="648.7729">exists(const std::string &amp; path) : bool</text><rect fill="#F24D5C" height="6" style="stroke: #C82930; stroke-width: 1.0;" width="6" x="231" y="655.3672"/><text fill="#000000" font-family="sans-serif" font-size="11" lengthAdjust="spacingAndGlyphs" textLength="283" x="243" y="661.5776">fullPath(const std::string &amp; rel) const : std::string</text><ellipse cx="234" cy="671.1719" fill="#84BE84" rx="3" ry="3" style="stroke: #038048; stroke-width: 1.0;"/><text fill="#000000" font-family="sans-serif" font-size="11" lengthAdjust="spacingAndGlyphs" textLength="242" x="243" y="674.3823">isDirectory(const std::string &amp; path) : bool</text><rect fill="#F24D5C" height="6" style="stroke: #C82930; stroke-width: 1.0;" width="6" x="231" y="680.9766"/><text fill="#000000" font-family="sans-serif" font-size="11" lengthAdjust="spacingAndGlyphs" text-decoration="underline" textLength="378" x="243" y="687.187">join(const std::string &amp; dir, const std::string &amp; name) : std::string</text><ellipse cx="234" cy="696.7813" fill="#84BE84" rx="3" ry="3" style="stroke: #038048; stroke-width: 1.0;"/><text fill="#000000" font-family="sans-serif" font-size="11" lengthAdjust="spacingAndGlyphs" textLength="164" x="243" y="699.9917">kind() const : FileSystemKind</text><ellipse cx="234" cy="709.5859" fill="#84BE84" rx="3" ry="3" style="stroke: #038048; stroke-width: 1.0;"/><text fill="#000000" font-family="sans-serif" font-size="11" lengthAdjust="spacingAndGlyphs" textLength="452" x="243" y="712.7964">listDirectory(const std::string &amp; path, std::vector&lt;FileInfo&gt; &amp; outEntries) : bool</text><ellipse cx="234" cy="722.3906" fill="#84BE84" rx="3" ry="3" style="stroke: #038048; stroke-width: 1.0;"/><text fill="#000000" font-family="sans-serif" font-size="11" lengthAdjust="spacingAndGlyphs" textLength="146" x="243" y="725.6011">name() const : std::string</text><ellipse cx="234" cy="735.1953" fill="#84BE84" rx="3" ry="3" style="stroke: #038048; stroke-width: 1.0;"/><text fill="#000000" font-family="sans-serif" font-size="11" lengthAdjust="spacingAndGlyphs" textLength="425" x="243" y="738.4058">open(const std::string &amp; path, const char * mode) : std::unique_ptr&lt;IFile&gt;</text><ellipse cx="234" cy="748" fill="#84BE84" rx="3" ry="3" style="stroke: #038048; stroke-width: 1.0;"/><text fill="#000000" font-family="sans-serif" font-size="11" lengthAdjust="spacingAndGlyphs" textLength="275" x="243" y="751.2104">removeDirectory(const std::string &amp; path) : bool</text><ellipse cx="234" cy="760.8047" fill="#84BE84" rx="3" ry="3" style="stroke: #038048; stroke-width: 1.0;"/><text fill="#000000" font-family="sans-serif" font-size="11" lengthAdjust="spacingAndGlyphs" textLength="243" x="243" y="764.0151">removeFile(const std::string &amp; path) : bool</text><ellipse cx="234" cy="773.6094" fill="#84BE84" rx="3" ry="3" style="stroke: #038048; stroke-width: 1.0;"/><text fill="#000000" font-family="sans-serif" font-size="11" lengthAdjust="spacingAndGlyphs" textLength="358" x="243" y="776.8198">rename(const std::string &amp; from, const std::string &amp; to) : bool</text><ellipse cx="234" cy="786.4141" fill="#84BE84" rx="3" ry="3" style="stroke: #038048; stroke-width: 1.0;"/><text fill="#000000" font-family="sans-serif" font-size="11" lengthAdjust="spacingAndGlyphs" textLength="287" x="243" y="789.6245">stat(const std::string &amp; path, FileInfo &amp; out) : bool</text><line style="stroke: #A80036; stroke-width: 1.5;" x1="224" x2="708" y1="796.2188" y2="796.2188"/><rect fill="none" height="6" style="stroke: #C82930; stroke-width: 1.0;" width="6" x="231" y="804.2188"/><text fill="#000000" font-family="sans-serif" font-size="11" lengthAdjust="spacingAndGlyphs" textLength="127" x="243" y="810.4292">_kind : FileSystemKind</text><rect fill="none" height="6" style="stroke: #C82930; stroke-width: 1.0;" width="6" x="231" y="817.0234"/><text fill="#000000" font-family="sans-serif" font-size="11" lengthAdjust="spacingAndGlyphs" textLength="109" x="243" y="823.2339">_name : std::string</text><rect fill="none" height="6" style="stroke: #C82930; stroke-width: 1.0;" width="6" x="231" y="829.8281"/><text fill="#000000" font-family="sans-serif" font-size="11" lengthAdjust="spacingAndGlyphs" textLength="100" x="243" y="836.0386">_root : std::string</text><!--MD5=[77b2cd18e01f0fd5ad270610e6811f52]
link C_0012397556205933868732 to C_0014883681608496495557--><path d="M202.04,508.0731 C193.46,527.9531 185.31,548.8331 179,568.9531 C142.11,686.5031 120.45,828.1331 109.66,914.5831 " fill="none" id="C_0012397556205933868732-&gt;C_0014883681608496495557" style="stroke: #A80036; stroke-width: 1.0; stroke-dasharray: 7.0,7.0;"/><polygon fill="#A80036" points="109.03,919.6831,114.1064,911.2434,109.6449,914.7211,106.1672,910.2595,109.03,919.6831" style="stroke: #A80036; stroke-width: 1.0;"/><!--MD5=[305fdf12e390a9f565947511a3847ba5]
link C_0012397556205933868732 to C_0014904826619290153445--><path d="M218.14,508.1231 C212.68,528.0831 207.9,548.9931 205,568.9531 C187.48,689.4631 173.61,725.2931 205,842.9531 C213.68,875.5031 235.5,902.7631 261.06,924.7631 " fill="none" id="C_0012397556205933868732-&gt;C_0014904826619290153445" style="stroke: #A80036; stroke-width: 1.0; stroke-dasharray: 7.0,7.0;"/><polygon fill="#A80036" points="265.2,928.2431,260.8791,919.3927,261.3706,925.0282,255.7352,925.5197,265.2,928.2431" style="stroke: #A80036; stroke-width: 1.0;"/><!--MD5=[530b6754908819a548b769c17bb20b8c]
link C_0012397556205933868732 to C_0007646493544420080876--><path d="M502.09,434.8431 C586.26,458.0831 672.65,498.5631 727,568.9531 C811.05,677.8131 791.01,852.5231 773.69,940.1631 " fill="none" id="C_0012397556205933868732-&gt;C_0007646493544420080876" style="stroke: #A80036; stroke-width: 1.0; stroke-dasharray: 7.0,7.0;"/><polygon fill="#A80036" points="772.66,945.2931,778.3564,937.2587,773.6461,940.3913,770.5135,935.681,772.66,945.2931" style="stroke: #A80036; stroke-width: 1.0;"/><!--MD5=[ab661002198b4aa2db4a53bddeb98d4f]
reverse link C_0001279065520068563954 to C_0012397556205933868732--><path d="M254,234.4731 C254,255.2531 254,276.9731 254,297.6131 " fill="none" id="C_0001279065520068563954&lt;-C_0012397556205933868732" style="stroke: #A80036; stroke-width: 1.0;"/><polygon fill="#FFFFFF" points="254,221.3231,250,227.3231,254,233.3231,258,227.3231,254,221.3231" style="stroke: #A80036; stroke-width: 1.0;"/><rect fill="none" height="6" style="stroke: #C82930; stroke-width: 1.0;" width="6" x="257" y="257.0195"/><text fill="#000000" font-family="sans-serif" font-size="13" lengthAdjust="spacingAndGlyphs" textLength="81" x="267" y="264.02">_fileSystems</text><!--MD5=[4443b34c56ad2e90ea0fbffb1e646ac5]
reverse link C_0014904826619290153445 to C_0007693094110734758389--><path d="M385,1081.6831 C385,1097.9131 385,1114.8231 385,1130.8031 " fill="none" id="C_0014904826619290153445&lt;-C_0007693094110734758389" style="stroke: #A80036; stroke-width: 1.0;"/><polygon fill="none" points="378,1081.6031,385,1061.6031,392,1081.6031,378,1081.6031" style="stroke: #A80036; stroke-width: 1.0;"/><!--MD5=[38e1c88f8534d9502d7db1b9356cbe2d]
link C_0001007711765235056436 to C_0014904826619290153445--><path d="M427.52,843.3131 C419.67,871.1031 411.73,899.2631 404.86,923.5831 " fill="none" id="C_0001007711765235056436-&gt;C_0014904826619290153445" style="stroke: #A80036; stroke-width: 1.0; stroke-dasharray: 7.0,7.0;"/><polygon fill="#A80036" points="403.5,928.4031,409.7978,920.8309,404.8604,923.5917,402.0995,918.6543,403.5,928.4031" style="stroke: #A80036; stroke-width: 1.0;"/><!--MD5=[9429aca9d6e203f658a710752ef924e8]
link C_0001007711765235056436 to C_0007646493544420080876--><path d="M606.16,843.3131 C642.15,878.3231 678.73,913.9131 707.29,941.7031 " fill="none" id="C_0001007711765235056436-&gt;C_0007646493544420080876" style="stroke: #A80036; stroke-width: 1.0; stroke-dasharray: 7.0,7.0;"/><polygon fill="#A80036" points="711.09,945.3931,707.4248,936.2516,707.5048,941.9079,701.8485,941.9879,711.09,945.3931" style="stroke: #A80036; stroke-width: 1.0;"/><!--MD5=[0b52bec99700aae7816967c8ef0f4fff]
reverse link C_0001007711765235056436 to C_0014883681608496495557--><path d="M282.54,851.1231 C253.26,874.1431 223.29,897.6931 195,919.9531 C187.74,925.6631 180.16,931.6331 172.59,937.5831 " fill="none" id="C_0001007711765235056436&lt;-C_0014883681608496495557" style="stroke: #A80036; stroke-width: 1.0;"/><polygon fill="#FFFFFF" points="292.86,843.0031,285.6714,843.5723,283.432,850.4269,290.6206,849.8577,292.86,843.0031" style="stroke: #A80036; stroke-width: 1.0;"/><rect fill="none" height="6" style="stroke: #C82930; stroke-width: 1.0;" width="6" x="258" y="879.0195"/><text fill="#000000" font-family="sans-serif" font-size="13" lengthAdjust="spacingAndGlyphs" textLength="33" x="268" y="886.02">_kind</text><!--MD5=[aa406fc61b525754c7ee4d79d136de76]
reverse link C_0012397556205933868732 to C_0001007711765235056436--><path d="M339.09,524.7631 C349.3,539.2531 359.77,554.1331 370.12,568.8231 " fill="none" id="C_0012397556205933868732&lt;-C_0001007711765235056436" style="stroke: #A80036; stroke-width: 1.0;"/><polygon fill="none" points="333.05,528.3431,327.26,507.9631,344.49,520.2831,333.05,528.3431" style="stroke: #A80036; stroke-width: 1.0;"/><!--MD5=[8fa1fb78ddc01f82585977ed9e11ee84]
@startuml
title Filesystem (auto-gen from clang-uml)
enum "fs::FileSystemKind" as C_0014883681608496495557
enum C_0014883681608496495557 {
LocalFlash
LocalSD
HostPosix
NetworkTnfs
NetworkSmb
NetworkFtp
NetworkHttp
Unknown
}
class "fs::FileInfo" as C_0007646493544420080876
class C_0007646493544420080876 {
__
+isDirectory : bool
+modifiedTime : std::chrono::system_clock::time_point
+path : std::string
+sizeBytes : std::uint64_t
}
abstract "fs::IFile" as C_0014904826619290153445
abstract C_0014904826619290153445 {
+~IFile() constexpr = default : void
..
{abstract} +flush() = 0 : bool
{abstract} +read(void * dst, std::size_t maxBytes) = 0 : std::size_t
{abstract} +seek(std::uint64_t offset) = 0 : bool
{abstract} +tell() const = 0 : std::uint64_t
{abstract} +write(const void * src, std::size_t bytes) = 0 : std::size_t
__
}
abstract "fs::IFileSystem" as C_0012397556205933868732
abstract C_0012397556205933868732 {
+~IFileSystem() constexpr = default : void
..
{abstract} +createDirectory(const std::string & path) = 0 : bool
{abstract} +exists(const std::string & path) = 0 : bool
{abstract} +isDirectory(const std::string & path) = 0 : bool
{abstract} +kind() const = 0 : FileSystemKind
{abstract} +listDirectory(const std::string & path, std::vector<FileInfo> & outEntries) = 0 : bool
{abstract} +name() const = 0 : std::string
{abstract} +open(const std::string & path, const char * mode) = 0 : std::unique_ptr<IFile>
{abstract} +removeDirectory(const std::string & path) = 0 : bool
{abstract} +removeFile(const std::string & path) = 0 : bool
{abstract} +rename(const std::string & from, const std::string & to) = 0 : bool
{abstract} +stat(const std::string & path, FileInfo & outInfo) = 0 : bool
__
}
class "fs::StorageManager" as C_0001279065520068563954
class C_0001279065520068563954 {
+StorageManager() = default : void
+StorageManager(const StorageManager &) = deleted : void
+~StorageManager() = default : void
..
+operator=(const StorageManager &) = deleted : StorageManager &
..
+get(const std::string & name) : IFileSystem *
+get(const std::string & name) const : const IFileSystem *
+listNames() const : std::vector<std::string>
+registerFileSystem(std::unique_ptr<IFileSystem> fs) : bool
+unregisterFileSystem(const std::string & name) : bool
__
-_fileSystems : std::unordered_map<std::string,std::unique_ptr<IFileSystem>>
}
class "fs::StdioFile" as C_0007693094110734758389
class C_0007693094110734758389 {
+StdioFile(std::FILE * fp) : void
+~StdioFile() : void
..
+flush() : bool
+read(void * dst, std::size_t maxBytes) : std::size_t
+seek(std::uint64_t offset) : bool
+tell() const : std::uint64_t
+write(const void * src, std::size_t bytes) : std::size_t
__
-_fp : std::FILE *
}
class "fs::StdioFileSystem" as C_0001007711765235056436
class C_0001007711765235056436 {
+StdioFileSystem(std::string rootDir, std::string name, FileSystemKind kind) : void
..
+createDirectory(const std::string & path) : bool
+exists(const std::string & path) : bool
-fullPath(const std::string & rel) const : std::string
+isDirectory(const std::string & path) : bool
{static} -join(const std::string & dir, const std::string & name) : std::string
+kind() const : FileSystemKind
+listDirectory(const std::string & path, std::vector<FileInfo> & outEntries) : bool
+name() const : std::string
+open(const std::string & path, const char * mode) : std::unique_ptr<IFile>
+removeDirectory(const std::string & path) : bool
+removeFile(const std::string & path) : bool
+rename(const std::string & from, const std::string & to) : bool
+stat(const std::string & path, FileInfo & out) : bool
__
-_kind : FileSystemKind
-_name : std::string
-_root : std::string
}
C_0012397556205933868732 ..> C_0014883681608496495557
C_0012397556205933868732 ..> C_0014904826619290153445
C_0012397556205933868732 ..> C_0007646493544420080876
C_0001279065520068563954 o- - C_0012397556205933868732 : -_fileSystems
C_0014904826619290153445 <|- - C_0007693094110734758389
C_0001007711765235056436 ..> C_0014904826619290153445
C_0001007711765235056436 ..> C_0007646493544420080876
C_0001007711765235056436 o- - C_0014883681608496495557 : -_kind
C_0012397556205933868732 <|- - C_0001007711765235056436

@enduml

PlantUML version 1.2020.02(Sun Mar 01 10:22:07 UTC 2020)
(GPL source distribution)
Java Runtime: OpenJDK Runtime Environment
JVM: OpenJDK 64-Bit Server VM
Java Version: 17.0.17+10
Operating System: Linux
Default Encoding: UTF-8
Language: en
Country: null
--></g></svg>